<svg xmlns="http://www.w3.org/2000/svg" xmlns:xlink="http://www.w3.org/1999/xlink" width="207" zoomAndPan="magnify" viewBox="0 0 155.25 47.25" height="63" preserveAspectRatio="xMidYMid meet" version="1.0"><defs><g/><clipPath id="c87124dd67"><path d="M 0.84375 0 L 153.667969 0 L 153.667969 46.511719 L 0.84375 46.511719 Z M 0.84375 0 " clip-rule="nonzero"/></clipPath><clipPath id="1d84d11979"><path d="M 10 30 L 18 30 L 18 36.9375 L 10 36.9375 Z M 10 30 " clip-rule="nonzero"/></clipPath><clipPath id="1f6545e77f"><path d="M 7 32 L 14 32 L 14 36.9375 L 7 36.9375 Z M 7 32 " clip-rule="nonzero"/></clipPath><clipPath id="94a983dcdf"><path d="M 2.691406 13.058594 L 10 13.058594 L 10 21 L 2.691406 21 Z M 2.691406 13.058594 " clip-rule="nonzero"/></clipPath><clipPath id="effb69d697"><path d="M 3 13.058594 L 9 13.058594 L 9 19 L 3 19 Z M 3 13.058594 " clip-rule="nonzero"/></clipPath><clipPath id="844f8f84a9"><path d="M 2.691406 14 L 9 14 L 9 21 L 2.691406 21 Z M 2.691406 14 " clip-rule="nonzero"/></clipPath><clipPath id="c819cca7b1"><path d="M 2.691406 19 L 12 19 L 12 26 L 2.691406 26 Z M 2.691406 19 " clip-rule="nonzero"/></clipPath><clipPath id="fd6d2d6b76"><path d="M 2.691406 20 L 12 20 L 12 26 L 2.691406 26 Z M 2.691406 20 " clip-rule="nonzero"/></clipPath><clipPath id="2c1202b1f4"><path d="M 2.691406 19 L 12 19 L 12 24 L 2.691406 24 Z M 2.691406 19 " clip-rule="nonzero"/></clipPath><clipPath id="b0108b274b"><path d="M 11 32 L 17 32 L 17 36.9375 L 11 36.9375 Z M 11 32 " clip-rule="nonzero"/></clipPath><clipPath id="f580dd188b"><path d="M 11 32 L 18 32 L 18 36.9375 L 11 36.9375 Z M 11 32 " clip-rule="nonzero"/></clipPath><clipPath id="d289af19de"><path d="M 11 36 L 13 36 L 13 36.9375 L 11 36.9375 Z M 11 36 " clip-rule="nonzero"/></clipPath><clipPath id="8d8686e5d1"><path d="M 11.789062 32.75 L 18.609375 32.75 L 18.609375 36.9375 L 11.789062 36.9375 Z M 11.789062 32.75 " clip-rule="nonzero"/></clipPath><clipPath id="ce75a35b35"><path d="M 14.617188 32.941406 L 18.609375 32.941406 L 18.609375 36.9375 L 14.617188 36.9375 Z M 14.617188 32.941406 " clip-rule="nonzero"/></clipPath><clipPath id="23d4a73d34"><path d="M 0.601562 1.074219 L 11 1.074219 L 11 12 L 0.601562 12 Z M 0.601562 1.074219 " clip-rule="nonzero"/></clipPath><clipPath id="f4a9d2aee5"><path d="M 1 1.074219 L 10 1.074219 L 10 10 L 1 10 Z M 1 1.074219 " clip-rule="nonzero"/></clipPath><clipPath id="8d9003cd74"><path d="M 0.601562 3 L 11 3 L 11 12 L 0.601562 12 Z M 0.601562 3 " clip-rule="nonzero"/></clipPath><clipPath id="92227cb627"><path d="M 0.601562 10 L 14 10 L 14 20 L 0.601562 20 Z M 0.601562 10 " clip-rule="nonzero"/></clipPath><clipPath id="4d4f623881"><path d="M 0.601562 12 L 14 12 L 14 20 L 0.601562 20 Z M 0.601562 12 " clip-rule="nonzero"/></clipPath><clipPath id="cc4b9b777f"><path d="M 0.601562 10 L 14 10 L 14 17 L 0.601562 17 Z M 0.601562 10 " clip-rule="nonzero"/></clipPath><clipPath id="abb2303dfb"><path d="M 14.34375 30.691406 L 25.882812 30.691406 L 25.882812 42.269531 L 14.34375 42.269531 Z M 14.34375 30.691406 " clip-rule="nonzero"/></clipPath><clipPath id="52f4b58440"><path d="M 18.613281 30.980469 L 25.882812 30.980469 L 25.882812 38.292969 L 18.613281 38.292969 Z M 18.613281 30.980469 " clip-rule="nonzero"/></clipPath><clipPath id="b5930823d2"><path d="M 22 0.890625 L 130 0.890625 L 130 35 L 22 35 Z M 22 0.890625 " clip-rule="nonzero"/></clipPath><clipPath id="d7e1b35eba"><path d="M 0.5 9 L 18 9 L 18 31 L 0.5 31 Z M 0.5 9 " clip-rule="nonzero"/></clipPath><clipPath id="90be7c8595"><rect x="0" width="108" y="0" height="35"/></clipPath><clipPath id="3ac1c8c9f4"><path d="M 26 30 L 132.828125 30 L 132.828125 43.414062 L 26 43.414062 Z M 26 30 " clip-rule="nonzero"/></clipPath><clipPath id="c82ec7381a"><path d="M 101 4 L 106.828125 4 L 106.828125 11 L 101 11 Z M 101 4 " clip-rule="nonzero"/></clipPath><clipPath id="c783a33d18"><rect x="0" width="107" y="0" height="14"/></clipPath><clipPath id="bfa8c23c96"><rect x="0" width="133" y="0" height="44"/></clipPath></defs><g clip-path="url(#c87124dd67)"><path fill="#ffffff" d="M 0.84375 0 L 153.667969 0 L 153.667969 46.511719 L 0.84375 46.511719 Z M 0.84375 0 " fill-opacity="1" fill-rule="nonzero"/></g><g transform="matrix(1, 0, 0, 1, 10, 1)"><g clip-path="url(#bfa8c23c96)"><g clip-path="url(#1d84d11979)"><path fill="#edae79" d="M 15.511719 32.324219 C 15.128906 31.980469 14.957031 31.519531 14.8125 30.960938 C 14.9375 31.542969 14.851562 31.933594 14.507812 32.234375 C 14.121094 32.574219 13.132812 32.828125 12.339844 32.585938 C 12.648438 33.183594 13.105469 34.734375 11.929688 35.210938 C 11.453125 35.40625 10.976562 35.40625 10.539062 35.316406 C 10.902344 35.394531 11.691406 35.785156 11.972656 36.082031 C 12.253906 36.378906 13.121094 37.578125 13.121094 37.578125 L 17.867188 34.769531 C 17.867188 34.769531 15.894531 32.671875 15.511719 32.324219 " fill-opacity="1" fill-rule="nonzero"/></g><path fill="#ebaa72" d="M 11.691406 32.214844 C 10.832031 31.378906 10.835938 29.828125 11.28125 28.726562 C 10.804688 28.433594 10.042969 27.703125 9.804688 27.214844 C 9.734375 27.144531 9.667969 27.074219 9.601562 26.992188 C 9.503906 26.988281 8.230469 26.144531 8.132812 26.152344 C 7.300781 26.21875 7.644531 27.5625 7.371094 28.085938 C 7.007812 28.773438 6.894531 32.089844 7.226562 32.996094 C 7.558594 33.902344 8.410156 34.296875 8.871094 34.5625 C 9.328125 34.828125 10.625 35.738281 11.929688 35.210938 C 13.105469 34.734375 12.648438 33.183594 12.339844 32.585938 C 12.097656 32.511719 11.875 32.390625 11.691406 32.214844 " fill-opacity="1" fill-rule="nonzero"/><path fill="#ebaa72" d="M 6.304688 27.308594 C 6.53125 27.414062 6.914062 27.757812 7.140625 27.914062 C 7.410156 28.085938 7.9375 28.210938 8.378906 28.378906 C 8.453125 28.179688 8.519531 27.898438 8.378906 27.757812 C 8.152344 27.710938 6.519531 27.339844 6.230469 27.28125 C 6.257812 27.289062 6.28125 27.296875 6.304688 27.308594 " fill-opacity="1" fill-rule="nonzero"/><g clip-path="url(#1f6545e77f)"><path fill="#e3a46f" d="M 7.132812 32.605469 C 7.148438 32.679688 7.171875 32.75 7.191406 32.808594 C 7.535156 33.710938 8.390625 34.097656 8.851562 34.359375 C 9.144531 34.527344 9.777344 34.945312 10.53125 35.09375 C 10.894531 35.171875 11.6875 35.550781 11.96875 35.847656 C 12.253906 36.140625 13.136719 37.332031 13.136719 37.332031 L 13.121094 37.578125 C 13.121094 37.578125 12.253906 36.378906 11.972656 36.082031 C 11.691406 35.785156 10.902344 35.394531 10.539062 35.316406 C 9.789062 35.160156 9.160156 34.730469 8.871094 34.5625 C 8.410156 34.296875 7.558594 33.902344 7.226562 32.996094 C 7.1875 32.894531 7.15625 32.761719 7.132812 32.605469 " fill-opacity="1" fill-rule="nonzero"/></g><path fill="#ebaa72" d="M 6.753906 25.589844 C 6.476562 25.472656 5.910156 25.414062 5.75 25.414062 C 5.886719 25.433594 6.007812 25.496094 6.089844 25.59375 C 6.175781 25.699219 6.539062 26.324219 6.140625 26.886719 C 6.054688 27.011719 5.941406 27.101562 5.828125 27.160156 C 6.070312 27.183594 6.472656 27.199219 6.652344 27.230469 C 6.90625 26.777344 6.785156 26.445312 6.785156 26.445312 C 6.785156 26.445312 6.75 25.765625 6.753906 25.589844 " fill-opacity="1" fill-rule="nonzero"/><path fill="#4d4d4d" d="M 9.371094 35.886719 L 9.992188 35.761719 C 10.453125 35.667969 10.761719 35.222656 10.683594 34.753906 L 7.867188 18.808594 L 4.78125 19.4375 L 8.34375 35.230469 C 8.453125 35.691406 8.910156 35.980469 9.371094 35.886719 " fill-opacity="1" fill-rule="nonzero"/><path fill="#333333" d="M 10.246094 34.632812 L 7.488281 19.257812 L 7.714844 19.152344 L 10.46875 34.53125 C 10.542969 34.960938 10.300781 35.363281 9.921875 35.460938 C 10.167969 35.292969 10.300781 34.972656 10.246094 34.632812 " fill-opacity="1" fill-rule="nonzero"/><path fill="#333333" d="M 4.988281 19.394531 L 8.511719 35.007812 C 8.621094 35.46875 9.074219 35.757812 9.535156 35.664062 L 10.15625 35.539062 C 10.328125 35.503906 10.476562 35.421875 10.59375 35.308594 C 10.476562 35.535156 10.261719 35.707031 9.992188 35.761719 L 9.371094 35.886719 C 8.910156 35.980469 8.453125 35.691406 8.34375 35.230469 L 4.78125 19.4375 L 4.988281 19.394531 " fill-opacity="1" fill-rule="nonzero"/><g clip-path="url(#94a983dcdf)"><path fill="#333333" d="M 5.542969 20.113281 L 7.484375 19.71875 C 8.660156 19.480469 9.378906 18.277344 9.027344 17.121094 L 8.292969 14.679688 C 7.988281 13.671875 6.96875 13.0625 5.941406 13.269531 L 4.476562 13.566406 C 3.445312 13.777344 2.742188 14.734375 2.851562 15.785156 L 3.117188 18.320312 C 3.242188 19.519531 4.367188 20.351562 5.542969 20.113281 " fill-opacity="1" fill-rule="nonzero"/></g><g clip-path="url(#effb69d697)"><path fill="#545454" d="M 8.5 17.386719 L 7.847656 15.21875 C 7.578125 14.324219 6.671875 13.78125 5.757812 13.964844 L 4.457031 14.230469 C 3.980469 14.324219 3.582031 14.605469 3.324219 14.980469 C 3.554688 14.449219 4.027344 14.035156 4.628906 13.914062 L 5.929688 13.652344 C 6.84375 13.464844 7.75 14.007812 8.019531 14.90625 L 8.671875 17.070312 C 8.839844 17.625 8.730469 18.191406 8.429688 18.628906 C 8.59375 18.25 8.628906 17.8125 8.5 17.386719 " fill-opacity="1" fill-rule="nonzero"/></g><g clip-path="url(#844f8f84a9)"><path fill="#1a1a1a" d="M 3.117188 18.320312 L 2.851562 15.785156 C 2.800781 15.300781 2.925781 14.835938 3.171875 14.457031 C 3.070312 14.738281 3.027344 15.046875 3.0625 15.363281 L 3.324219 17.898438 C 3.449219 19.097656 4.574219 19.929688 5.753906 19.691406 L 7.691406 19.296875 C 8.253906 19.183594 8.710938 18.851562 8.996094 18.410156 C 8.761719 19.054688 8.210938 19.574219 7.484375 19.71875 L 5.542969 20.113281 C 4.367188 20.351562 3.242188 19.519531 3.117188 18.320312 " fill-opacity="1" fill-rule="nonzero"/></g><g clip-path="url(#c819cca7b1)"><path fill="#ff252f" d="M 3.515625 25.128906 L 11.234375 23.5625 L 10.414062 19.472656 L 2.691406 21.039062 L 3.515625 25.128906 " fill-opacity="1" fill-rule="nonzero"/></g><g clip-path="url(#fd6d2d6b76)"><path fill="#d00f15" d="M 2.953125 20.984375 L 3.710938 24.75 L 11.167969 23.238281 L 11.234375 23.5625 L 3.515625 25.128906 L 2.691406 21.039062 L 2.953125 20.984375 " fill-opacity="1" fill-rule="nonzero"/></g><g clip-path="url(#2c1202b1f4)"><path fill="#ff5761" d="M 10.195312 19.800781 L 2.746094 21.3125 L 2.691406 21.039062 L 10.414062 19.472656 L 11.234375 23.5625 L 10.960938 23.617188 L 10.195312 19.800781 " fill-opacity="1" fill-rule="nonzero"/></g><path fill="#ffffff" d="M 5.261719 23.636719 L 4.808594 23.726562 L 4.132812 22.894531 L 4.320312 23.828125 L 3.851562 23.921875 L 3.476562 22.035156 L 3.925781 21.945312 L 4.601562 22.769531 L 4.414062 21.84375 L 4.882812 21.75 L 5.261719 23.636719 " fill-opacity="1" fill-rule="nonzero"/><path fill="#ffffff" d="M 6.839844 23.316406 L 5.535156 23.582031 L 5.15625 21.695312 L 6.441406 21.4375 L 6.53125 21.898438 L 5.714844 22.0625 L 5.765625 22.304688 L 6.484375 22.15625 L 6.574219 22.601562 L 5.851562 22.746094 L 5.910156 23.023438 L 6.746094 22.855469 L 6.839844 23.316406 " fill-opacity="1" fill-rule="nonzero"/><path fill="#ffffff" d="M 8.636719 20.992188 L 8.589844 22.964844 L 8.113281 23.0625 L 7.699219 22.046875 L 7.707031 23.144531 L 7.230469 23.238281 L 6.429688 21.4375 L 6.925781 21.339844 L 7.320312 22.328125 L 7.324219 21.257812 L 7.742188 21.171875 L 8.152344 22.160156 L 8.136719 21.09375 L 8.636719 20.992188 " fill-opacity="1" fill-rule="nonzero"/><path fill="#ffffff" d="M 10.277344 22 C 10.324219 22.246094 10.285156 22.402344 10.152344 22.574219 C 10.035156 22.722656 9.542969 22.90625 9.261719 22.761719 C 9.058594 22.65625 9.003906 22.539062 8.960938 22.464844 C 8.914062 22.355469 8.9375 22.417969 8.871094 22.1875 L 9.347656 22.089844 C 9.351562 22.117188 9.355469 22.140625 9.355469 22.15625 L 9.367188 22.203125 C 9.398438 22.265625 9.402344 22.285156 9.46875 22.324219 C 9.546875 22.375 9.652344 22.347656 9.730469 22.316406 C 9.820312 22.265625 9.828125 22.21875 9.816406 22.160156 C 9.804688 22.105469 9.773438 22.070312 9.722656 22.054688 C 9.472656 21.972656 9.316406 22.058594 9.039062 21.921875 C 8.980469 21.890625 8.929688 21.84375 8.886719 21.777344 C 8.8125 21.648438 8.6875 21.273438 8.878906 21.035156 C 8.980469 20.925781 9.082031 20.878906 9.214844 20.828125 C 9.347656 20.796875 9.613281 20.714844 9.792969 20.84375 C 10.035156 21.007812 10.066406 21.226562 10.09375 21.328125 L 9.644531 21.417969 C 9.625 21.335938 9.628906 21.335938 9.605469 21.304688 C 9.539062 21.242188 9.507812 21.21875 9.402344 21.242188 C 9.339844 21.253906 9.300781 21.277344 9.277344 21.3125 C 9.253906 21.34375 9.246094 21.375 9.253906 21.40625 C 9.289062 21.589844 9.636719 21.445312 10 21.597656 C 10.140625 21.648438 10.234375 21.785156 10.277344 22 " fill-opacity="1" fill-rule="nonzero"/><path fill="#cccccc" d="M 11.019531 29.71875 C 11.019531 29.71875 11.019531 29.71875 11.019531 29.714844 C 11.035156 29.613281 11.050781 29.511719 11.074219 29.410156 C 11.050781 29.511719 11.035156 29.617188 11.019531 29.71875 M 11.277344 28.730469 C 11.277344 28.730469 11.277344 28.726562 11.28125 28.726562 C 11.277344 28.726562 11.277344 28.730469 11.277344 28.730469 M 9.804688 27.214844 C 9.734375 27.144531 9.667969 27.074219 9.601562 26.992188 C 9.667969 27.074219 9.734375 27.144531 9.804688 27.214844 M 9.601562 26.992188 C 9.59375 26.992188 9.578125 26.984375 9.554688 26.976562 C 9.570312 26.980469 9.585938 26.988281 9.601562 26.992188 M 9.445312 26.917969 C 9.414062 26.898438 9.378906 26.878906 9.339844 26.855469 C 9.371094 26.871094 9.410156 26.894531 9.445312 26.917969 " fill-opacity="1" fill-rule="nonzero"/><path fill="#bc885b" d="M 11.019531 29.714844 C 11.042969 29.382812 11.105469 29.050781 11.207031 28.75 C 10.714844 28.488281 9.957031 27.777344 9.6875 27.300781 C 9.582031 27.207031 9.429688 26.972656 9.332031 26.851562 C 9.332031 26.851562 9.335938 26.851562 9.339844 26.855469 C 9.378906 26.878906 9.414062 26.898438 9.445312 26.917969 C 9.484375 26.9375 9.519531 26.960938 9.554688 26.976562 C 9.578125 26.984375 9.59375 26.992188 9.601562 26.992188 C 9.667969 27.074219 9.734375 27.144531 9.804688 27.214844 C 10.042969 27.703125 10.804688 28.433594 11.28125 28.726562 C 11.277344 28.726562 11.277344 28.730469 11.277344 28.730469 C 11.191406 28.949219 11.121094 29.179688 11.074219 29.410156 C 11.050781 29.511719 11.035156 29.613281 11.019531 29.714844 " fill-opacity="1" fill-rule="nonzero"/><path fill="#fabb85" d="M 9.476562 24.09375 C 9.300781 24.140625 8.757812 24.570312 9.003906 25.597656 C 9.25 26.625 9.515625 26.917969 9.804688 27.214844 C 10.042969 27.703125 10.804688 28.433594 11.28125 28.726562 C 10.835938 29.828125 10.832031 31.378906 11.691406 32.214844 C 12.480469 32.980469 14.003906 32.675781 14.507812 32.234375 C 15.027344 31.78125 14.960938 31.117188 14.457031 29.925781 C 14.171875 29.238281 13.621094 28.074219 13.511719 27.863281 C 13.40625 27.648438 13.101562 27.40625 12.789062 27.25 C 12.476562 27.097656 11.832031 26.734375 11.542969 26.445312 C 11.328125 26.230469 11.148438 25.980469 10.78125 25.757812 C 10.632812 25.664062 10.15625 25.164062 10.113281 24.816406 C 10.070312 24.464844 10.105469 24.265625 9.960938 24.144531 C 9.8125 24.023438 9.585938 24.0625 9.476562 24.09375 " fill-opacity="1" fill-rule="nonzero"/><path fill="#facba3" d="M 14.332031 30.023438 C 14.042969 29.339844 13.496094 28.175781 13.386719 27.960938 C 13.277344 27.746094 12.976562 27.503906 12.660156 27.351562 C 12.347656 27.195312 11.707031 26.835938 11.417969 26.542969 C 11.199219 26.328125 11.019531 26.078125 10.65625 25.855469 C 10.503906 25.765625 10.027344 25.265625 9.988281 24.914062 C 9.945312 24.5625 9.980469 24.367188 9.832031 24.246094 C 9.6875 24.125 9.457031 24.160156 9.351562 24.191406 C 9.328125 24.199219 9.296875 24.210938 9.265625 24.230469 C 9.347656 24.152344 9.425781 24.105469 9.476562 24.09375 C 9.585938 24.0625 9.8125 24.023438 9.960938 24.144531 C 10.105469 24.265625 10.070312 24.464844 10.113281 24.816406 C 10.15625 25.164062 10.632812 25.664062 10.78125 25.757812 C 11.148438 25.980469 11.328125 26.230469 11.542969 26.445312 C 11.832031 26.734375 12.476562 27.097656 12.789062 27.25 C 13.101562 27.40625 13.40625 27.648438 13.511719 27.863281 C 13.621094 28.074219 14.171875 29.238281 14.457031 29.925781 C 14.960938 31.117188 15.027344 31.78125 14.507812 32.234375 C 14.476562 32.261719 14.441406 32.289062 14.402344 32.316406 C 14.898438 31.863281 14.828125 31.203125 14.332031 30.023438 " fill-opacity="1" fill-rule="nonzero"/><path fill="#fadabe" d="M 9.910156 24.402344 C 9.925781 24.558594 10.066406 24.914062 10.199219 25.085938 C 10.207031 25.097656 10.222656 25.089844 10.222656 25.078125 C 10.175781 24.804688 10.128906 24.441406 10.082031 24.273438 C 10.078125 24.253906 10.054688 24.246094 10.039062 24.257812 C 10 24.28125 9.949219 24.328125 9.921875 24.371094 C 9.914062 24.378906 9.910156 24.390625 9.910156 24.402344 " fill-opacity="1" fill-rule="nonzero"/><path fill="#cccccc" d="M 6.652344 27.726562 C 6.617188 27.675781 6.59375 27.621094 6.582031 27.558594 L 6.566406 27.472656 C 6.578125 27.480469 6.589844 27.488281 6.601562 27.5 L 6.652344 27.726562 M 6.554688 27.351562 C 6.550781 27.351562 6.546875 27.351562 6.539062 27.347656 L 6.539062 27.339844 C 6.542969 27.34375 6.550781 27.347656 6.554688 27.351562 " fill-opacity="1" fill-rule="nonzero"/><path fill="#bc885b" d="M 6.601562 27.5 C 6.589844 27.488281 6.578125 27.480469 6.566406 27.472656 L 6.539062 27.347656 C 6.546875 27.351562 6.550781 27.351562 6.554688 27.351562 C 6.558594 27.355469 6.566406 27.359375 6.570312 27.363281 L 6.601562 27.5 " fill-opacity="1" fill-rule="nonzero"/><path fill="#3e3e3e" d="M 7.757812 28.355469 C 7.644531 28.355469 7.535156 28.300781 7.460938 28.210938 L 7.324219 28.035156 L 7.289062 28.042969 C 7.261719 28.046875 7.230469 28.050781 7.203125 28.050781 C 7.109375 28.050781 7.019531 28.023438 6.945312 27.96875 L 6.917969 27.949219 L 6.832031 27.554688 C 6.976562 27.667969 7.117188 27.785156 7.222656 27.859375 C 7.453125 28.007812 7.878906 28.121094 8.273438 28.257812 L 7.832031 28.347656 C 7.804688 28.351562 7.78125 28.355469 7.757812 28.355469 " fill-opacity="1" fill-rule="nonzero"/><path fill="#292929" d="M 6.917969 27.949219 L 6.757812 27.832031 C 6.714844 27.804688 6.679688 27.765625 6.652344 27.726562 L 6.601562 27.5 L 6.570312 27.363281 C 6.652344 27.417969 6.742188 27.488281 6.832031 27.554688 L 6.917969 27.949219 " fill-opacity="1" fill-rule="nonzero"/><path fill="#bc885b" d="M 7.980469 33.613281 C 7.875 33.578125 7.789062 33.546875 7.722656 33.527344 C 7.699219 33.519531 7.65625 33.503906 7.605469 33.480469 C 7.574219 33.449219 7.542969 33.414062 7.515625 33.375 C 7.570312 33.402344 7.613281 33.417969 7.640625 33.425781 C 7.71875 33.449219 7.828125 33.488281 7.960938 33.53125 L 7.980469 33.613281 " fill-opacity="1" fill-rule="nonzero"/><path fill="#b68359" d="M 7.605469 33.480469 C 7.554688 33.460938 7.496094 33.429688 7.425781 33.398438 C 7.40625 33.367188 7.390625 33.339844 7.375 33.308594 C 7.425781 33.335938 7.476562 33.359375 7.515625 33.375 C 7.542969 33.414062 7.574219 33.449219 7.605469 33.480469 " fill-opacity="1" fill-rule="nonzero"/><path fill="#3e3e3e" d="M 9.0625 33.847656 C 8.796875 33.847656 8.480469 33.769531 8.214844 33.6875 L 8.195312 33.605469 C 8.449219 33.675781 8.734375 33.742188 8.980469 33.742188 C 9.085938 33.742188 9.1875 33.730469 9.269531 33.699219 C 9.40625 33.652344 9.5 33.59375 9.574219 33.523438 C 9.6875 33.472656 9.757812 33.363281 9.808594 33.222656 C 9.847656 33.117188 9.835938 32.960938 9.753906 32.859375 C 9.734375 32.785156 9.707031 32.710938 9.664062 32.644531 C 9.75 32.726562 9.808594 32.84375 9.835938 32.960938 C 9.917969 33.066406 9.929688 33.21875 9.894531 33.324219 C 9.84375 33.464844 9.769531 33.574219 9.65625 33.625 C 9.582031 33.695312 9.488281 33.753906 9.355469 33.804688 C 9.269531 33.832031 9.171875 33.847656 9.0625 33.847656 " fill-opacity="1" fill-rule="nonzero"/><path fill="#292929" d="M 8.214844 33.6875 C 8.128906 33.664062 8.050781 33.636719 7.980469 33.613281 L 7.960938 33.53125 C 8.035156 33.554688 8.113281 33.578125 8.195312 33.605469 L 8.214844 33.6875 " fill-opacity="1" fill-rule="nonzero"/><path fill="#3e3e3e" d="M 9.273438 32.304688 C 9.222656 32.304688 9.175781 32.300781 9.125 32.289062 C 9.089844 32.28125 9.046875 32.273438 9 32.261719 C 8.851562 32.195312 8.691406 32.121094 8.542969 32.054688 C 8.75 32.113281 8.929688 32.164062 9.042969 32.1875 C 9.089844 32.195312 9.140625 32.203125 9.191406 32.203125 C 9.398438 32.203125 9.613281 32.113281 9.757812 31.929688 L 9.789062 32.09375 C 9.648438 32.238281 9.457031 32.304688 9.273438 32.304688 M 9.972656 31.765625 L 9.925781 31.488281 C 9.953125 31.261719 9.910156 31.074219 9.828125 30.9375 L 9.824219 30.929688 C 9.976562 31.089844 10.058594 31.34375 9.992188 31.6875 C 9.988281 31.714844 9.980469 31.738281 9.972656 31.765625 " fill-opacity="1" fill-rule="nonzero"/><path fill="#292929" d="M 9.789062 32.09375 L 9.757812 31.929688 C 9.832031 31.835938 9.882812 31.722656 9.910156 31.582031 C 9.917969 31.550781 9.921875 31.519531 9.925781 31.488281 L 9.972656 31.765625 C 9.9375 31.902344 9.871094 32.007812 9.789062 32.09375 M 9.828125 30.9375 C 9.824219 30.933594 9.820312 30.929688 9.816406 30.921875 C 9.820312 30.925781 9.824219 30.929688 9.824219 30.929688 L 9.828125 30.9375 " fill-opacity="1" fill-rule="nonzero"/><path fill="#3e3e3e" d="M 8.722656 30.402344 C 8.636719 30.375 8.546875 30.34375 8.460938 30.3125 L 8.453125 30.3125 L 8.460938 30.3125 C 8.480469 30.316406 8.5 30.316406 8.523438 30.316406 C 8.792969 30.316406 9.09375 30.039062 9.167969 29.691406 C 9.226562 29.421875 9.222656 29.074219 9.039062 28.804688 C 9.300781 29.082031 9.316406 29.488281 9.25 29.796875 C 9.1875 30.09375 8.957031 30.339844 8.722656 30.402344 " fill-opacity="1" fill-rule="nonzero"/><path fill="#fabb85" d="M 9.449219 32.460938 C 9.269531 32.386719 8.878906 32.199219 8.542969 32.054688 C 8.460938 32.03125 8.371094 32.007812 8.28125 31.980469 C 8.539062 32.164062 8.558594 32.472656 8.394531 32.867188 C 8.191406 33.363281 7.8125 33.472656 7.640625 33.425781 C 7.949219 33.519531 8.816406 33.863281 9.269531 33.699219 C 9.5625 33.59375 9.671875 33.445312 9.753906 33.210938 C 9.832031 32.976562 9.722656 32.566406 9.449219 32.460938 " fill-opacity="1" fill-rule="nonzero"/><path fill="#fadabe" d="M 9.050781 32.898438 C 8.996094 33.03125 8.90625 33.167969 8.925781 33.269531 C 8.941406 33.371094 9.214844 33.5625 9.449219 33.550781 C 9.636719 33.539062 9.742188 33.410156 9.808594 33.222656 C 9.855469 33.09375 9.828125 32.886719 9.6875 32.796875 C 9.546875 32.703125 9.3125 32.570312 9.207031 32.617188 C 9.109375 32.664062 9.101562 32.78125 9.050781 32.898438 " fill-opacity="1" fill-rule="nonzero"/><path fill="#fab478" d="M 7.289062 31.683594 C 7.273438 31.683594 7.253906 31.679688 7.234375 31.671875 C 7.132812 31.640625 6.757812 31.460938 6.386719 31.25 C 6.242188 31.296875 6.117188 31.417969 6.039062 31.585938 C 5.820312 32.070312 6.015625 32.59375 6.535156 32.875 C 7.058594 33.152344 7.515625 33.390625 7.640625 33.425781 C 7.8125 33.472656 8.191406 33.363281 8.394531 32.867188 C 8.558594 32.472656 8.539062 32.164062 8.28125 31.980469 C 7.914062 31.871094 7.519531 31.753906 7.289062 31.683594 " fill-opacity="1" fill-rule="nonzero"/><path fill="#cf8b50" d="M 8.542969 32.054688 C 8.457031 32.035156 8.371094 32.007812 8.28125 31.980469 C 8.34375 32.023438 8.390625 32.074219 8.425781 32.128906 C 8.558594 32.167969 8.691406 32.207031 8.824219 32.242188 C 8.921875 32.269531 9.019531 32.296875 9.117188 32.316406 C 8.941406 32.234375 8.734375 32.136719 8.542969 32.054688 C 8.542969 32.054688 8.734375 32.136719 8.542969 32.054688 " fill-opacity="1" fill-rule="nonzero"/><path fill="#cf8b50" d="M 7.59375 31.777344 C 7.492188 31.746094 7.390625 31.714844 7.289062 31.683594 C 7.214844 31.671875 7.144531 31.640625 7.078125 31.609375 C 7.007812 31.574219 6.933594 31.539062 6.863281 31.503906 C 6.703125 31.425781 6.542969 31.339844 6.386719 31.25 C 6.351562 31.261719 6.320312 31.277344 6.292969 31.292969 C 6.496094 31.414062 6.707031 31.523438 6.917969 31.632812 C 6.996094 31.671875 7.074219 31.707031 7.15625 31.742188 C 7.214844 31.769531 7.273438 31.796875 7.335938 31.804688 C 7.585938 31.878906 8.03125 32.015625 8.425781 32.128906 C 8.390625 32.074219 8.34375 32.023438 8.28125 31.980469 C 8.046875 31.910156 7.800781 31.835938 7.59375 31.777344 C 7.582031 31.773438 7.800781 31.835938 7.59375 31.777344 " fill-opacity="1" fill-rule="nonzero"/><path fill="#fabb85" d="M 9.5 30.675781 C 9.332031 30.617188 8.875 30.457031 8.460938 30.3125 C 8.316406 30.289062 8.105469 30.226562 7.890625 30.164062 C 8.164062 30.402344 8.136719 30.800781 8.0625 30.972656 C 7.902344 31.355469 7.648438 31.75 7.289062 31.683594 C 7.714844 31.808594 8.699219 32.113281 9.042969 32.1875 C 9.386719 32.257812 9.816406 32.078125 9.910156 31.582031 C 10.003906 31.089844 9.796875 30.777344 9.5 30.675781 " fill-opacity="1" fill-rule="nonzero"/><path fill="#fadabe" d="M 8.8125 31.140625 C 8.707031 31.40625 8.628906 31.652344 8.828125 31.777344 C 8.996094 31.882812 9.136719 31.960938 9.246094 32.007812 C 9.289062 32.027344 9.335938 32.027344 9.375 32.015625 C 9.578125 31.949219 9.726562 31.804688 9.796875 31.609375 C 9.847656 31.46875 9.832031 31.332031 9.789062 31.203125 C 9.765625 31.144531 9.722656 31.09375 9.667969 31.0625 C 9.425781 30.941406 9.253906 30.867188 9.097656 30.886719 C 8.921875 30.910156 8.859375 31.027344 8.8125 31.140625 " fill-opacity="1" fill-rule="nonzero"/><path fill="#fab478" d="M 7.296875 29.996094 C 6.6875 29.855469 6.394531 29.660156 6.085938 29.425781 C 6.011719 29.371094 5.949219 29.3125 5.890625 29.253906 C 5.703125 29.28125 5.515625 29.386719 5.402344 29.636719 C 5.226562 30.03125 5.308594 30.519531 5.726562 30.835938 C 6.148438 31.15625 7.0625 31.621094 7.234375 31.671875 C 7.625 31.789062 7.894531 31.375 8.0625 30.972656 C 8.136719 30.800781 8.164062 30.402344 7.890625 30.164062 C 7.679688 30.101562 7.464844 30.035156 7.296875 29.996094 " fill-opacity="1" fill-rule="nonzero"/><path fill="#cf8b50" d="M 6.097656 29.574219 C 6.109375 29.578125 6.117188 29.585938 6.128906 29.589844 C 6.117188 29.585938 6.109375 29.578125 6.097656 29.574219 Z M 8.460938 30.3125 C 8.269531 30.28125 8.074219 30.222656 7.890625 30.164062 C 7.746094 30.121094 7.601562 30.074219 7.460938 30.035156 C 7.3125 29.996094 7.164062 29.964844 7.019531 29.921875 C 6.789062 29.851562 6.570312 29.753906 6.367188 29.625 C 6.269531 29.5625 6.175781 29.496094 6.085938 29.425781 C 6.015625 29.375 5.949219 29.316406 5.890625 29.253906 C 5.847656 29.257812 5.808594 29.269531 5.769531 29.28125 C 5.847656 29.367188 5.933594 29.449219 6.027344 29.523438 C 6.214844 29.664062 6.40625 29.792969 6.621094 29.890625 C 6.894531 30.015625 7.1875 30.070312 7.476562 30.152344 C 7.65625 30.203125 7.835938 30.261719 8.015625 30.3125 C 7.988281 30.265625 7.953125 30.222656 7.910156 30.183594 C 7.953125 30.222656 7.988281 30.265625 8.015625 30.3125 C 8.121094 30.34375 8.230469 30.375 8.335938 30.394531 C 8.445312 30.417969 8.542969 30.417969 8.644531 30.375 C 8.582031 30.355469 8.519531 30.332031 8.460938 30.3125 C 8.457031 30.3125 8.519531 30.332031 8.460938 30.3125 " fill-opacity="1" fill-rule="nonzero"/><path fill="#fabb85" d="M 8.75 28.542969 C 8.285156 28.289062 7.492188 28.136719 7.140625 27.914062 C 7.367188 28.070312 7.035156 28.691406 6.890625 28.972656 C 6.730469 29.28125 6.46875 29.683594 6.15625 29.476562 C 6.132812 29.460938 6.109375 29.441406 6.085938 29.425781 C 6.394531 29.660156 6.6875 29.855469 7.296875 29.996094 C 7.636719 30.074219 8.175781 30.265625 8.460938 30.3125 C 8.746094 30.359375 9.085938 30.0625 9.167969 29.691406 C 9.25 29.320312 9.210938 28.800781 8.75 28.542969 " fill-opacity="1" fill-rule="nonzero"/><path fill="#fab478" d="M 5.46875 27.648438 C 5.238281 28.007812 5.292969 28.472656 5.46875 28.71875 C 5.644531 28.96875 5.84375 29.269531 6.15625 29.476562 C 6.46875 29.683594 6.730469 29.28125 6.890625 28.972656 C 7.035156 28.691406 7.367188 28.070312 7.140625 27.914062 C 6.914062 27.757812 6.53125 27.414062 6.304688 27.308594 C 6.101562 27.214844 5.710938 27.265625 5.46875 27.648438 " fill-opacity="1" fill-rule="nonzero"/><path fill="#fadabe" d="M 7.714844 29.238281 C 7.621094 29.472656 7.652344 29.722656 7.804688 29.828125 C 7.941406 29.921875 8.269531 30.058594 8.496094 30.117188 C 8.554688 30.132812 8.617188 30.121094 8.664062 30.089844 C 8.867188 29.957031 8.925781 29.792969 8.984375 29.628906 C 9.035156 29.46875 9.011719 29.230469 8.890625 29.066406 C 8.859375 29.019531 8.8125 28.988281 8.761719 28.972656 C 8.460938 28.867188 8.207031 28.828125 8.035156 28.878906 C 7.867188 28.925781 7.785156 29.070312 7.714844 29.238281 " fill-opacity="1" fill-rule="nonzero"/><path fill="#fabb85" d="M 6.140625 26.886719 C 5.894531 27.242188 5.453125 27.316406 5.242188 27.210938 C 5.03125 27.109375 4.835938 26.605469 4.828125 26.457031 C 4.816406 26.304688 5.003906 25.738281 5.148438 25.625 C 5.296875 25.507812 5.574219 25.398438 5.722656 25.414062 C 5.871094 25.425781 6.003906 25.488281 6.089844 25.59375 C 6.175781 25.699219 6.539062 26.324219 6.140625 26.886719 " fill-opacity="1" fill-rule="nonzero"/><path fill="#fadabe" d="M 5.101562 26.214844 C 5.023438 26.359375 4.984375 26.535156 5 26.644531 C 5.011719 26.722656 5.023438 26.808594 5.046875 26.890625 C 5.054688 26.914062 5.089844 26.910156 5.09375 26.886719 C 5.144531 26.582031 5.269531 26.199219 5.480469 26.035156 C 5.496094 26.019531 5.503906 25.996094 5.488281 25.976562 C 5.464844 25.945312 5.398438 25.929688 5.328125 25.976562 C 5.226562 26.042969 5.164062 26.101562 5.101562 26.214844 " fill-opacity="1" fill-rule="nonzero"/><g clip-path="url(#b0108b274b)"><path fill="#cf8b50" d="M 15.511719 32.324219 C 15.503906 32.320312 15.5 32.3125 15.492188 32.304688 C 14.984375 32.6875 14.179688 33.417969 13.316406 34.292969 C 12.722656 34.898438 12.199219 35.46875 11.808594 35.9375 C 11.871094 35.984375 11.929688 36.035156 11.972656 36.082031 C 12.191406 36.316406 12.773438 37.101562 13.015625 37.433594 L 16.777344 33.617188 C 16.25 33.066406 15.699219 32.492188 15.511719 32.324219 " fill-opacity="1" fill-rule="nonzero"/></g><g clip-path="url(#f580dd188b)"><path fill="#e6e6e6" d="M 16.125 32.167969 C 15.992188 32.035156 14.777344 33.050781 13.410156 34.4375 C 12.046875 35.820312 11.046875 37.050781 11.179688 37.183594 L 12.347656 38.34375 L 17.292969 33.328125 L 16.125 32.167969 " fill-opacity="1" fill-rule="nonzero"/></g><path fill="#f2f2f2" d="M 17.179688 33.441406 L 16.058594 32.328125 C 15.832031 32.421875 15.078125 33.023438 14.027344 34.046875 L 15.320312 35.332031 L 17.179688 33.441406 " fill-opacity="1" fill-rule="nonzero"/><g clip-path="url(#d289af19de)"><path fill="#e6e6e6" d="M 12.421875 37.183594 C 12.421875 37.136719 12.382812 37.09375 12.335938 37.09375 C 12.285156 37.09375 12.246094 37.132812 12.246094 37.183594 C 12.246094 37.230469 12.285156 37.269531 12.335938 37.269531 C 12.382812 37.269531 12.421875 37.230469 12.421875 37.183594 Z M 11.933594 37.183594 C 11.933594 37.230469 11.972656 37.269531 12.023438 37.269531 C 12.070312 37.269531 12.109375 37.230469 12.109375 37.183594 C 12.109375 37.132812 12.070312 37.09375 12.023438 37.09375 C 11.972656 37.09375 11.933594 37.132812 11.933594 37.183594 Z M 12.421875 36.894531 C 12.421875 36.847656 12.382812 36.808594 12.335938 36.808594 C 12.285156 36.808594 12.246094 36.847656 12.246094 36.894531 C 12.246094 36.941406 12.285156 36.980469 12.335938 36.980469 C 12.382812 36.980469 12.421875 36.941406 12.421875 36.894531 Z M 11.933594 36.894531 C 11.933594 36.941406 11.972656 36.980469 12.023438 36.980469 C 12.070312 36.980469 12.109375 36.941406 12.109375 36.894531 C 12.109375 36.84375 12.070312 36.804688 12.023438 36.804688 C 11.976562 36.804688 11.9375 36.84375 11.933594 36.894531 Z M 11.640625 37.039062 C 11.640625 36.738281 11.882812 36.496094 12.179688 36.496094 C 12.476562 36.496094 12.71875 36.742188 12.71875 37.039062 C 12.714844 37.339844 12.476562 37.578125 12.175781 37.578125 C 11.878906 37.578125 11.640625 37.335938 11.640625 37.039062 " fill-opacity="1" fill-rule="nonzero"/><path fill="#ffffff" d="M 12.402344 37.164062 C 12.402344 37.117188 12.363281 37.078125 12.316406 37.078125 C 12.269531 37.078125 12.230469 37.117188 12.230469 37.164062 C 12.230469 37.214844 12.269531 37.253906 12.316406 37.253906 C 12.363281 37.253906 12.402344 37.214844 12.402344 37.164062 Z M 11.917969 37.164062 C 11.917969 37.214844 11.957031 37.253906 12.003906 37.253906 C 12.050781 37.253906 12.089844 37.214844 12.089844 37.164062 C 12.089844 37.117188 12.050781 37.078125 12.003906 37.078125 C 11.957031 37.078125 11.917969 37.117188 11.917969 37.164062 Z M 12.402344 36.878906 C 12.402344 36.828125 12.363281 36.789062 12.316406 36.789062 C 12.269531 36.789062 12.230469 36.828125 12.230469 36.878906 C 12.230469 36.925781 12.269531 36.964844 12.316406 36.964844 C 12.363281 36.964844 12.402344 36.925781 12.402344 36.878906 Z M 11.917969 36.875 C 11.917969 36.925781 11.957031 36.964844 12.003906 36.964844 C 12.050781 36.964844 12.089844 36.925781 12.089844 36.875 C 12.089844 36.828125 12.050781 36.789062 12.003906 36.789062 C 11.957031 36.789062 11.917969 36.828125 11.917969 36.875 Z M 11.621094 37.019531 C 11.621094 36.722656 11.863281 36.480469 12.160156 36.480469 C 12.457031 36.480469 12.699219 36.722656 12.699219 37.023438 C 12.699219 37.320312 12.457031 37.5625 12.160156 37.5625 C 11.863281 37.5625 11.621094 37.320312 11.621094 37.019531 " fill-opacity="1" fill-rule="nonzero"/><path fill="#e6e6e6" d="M 12.179688 36.628906 C 11.953125 36.628906 11.773438 36.8125 11.773438 37.035156 C 11.773438 37.167969 11.835938 37.28125 11.933594 37.355469 C 11.828125 37.285156 11.757812 37.160156 11.757812 37.019531 C 11.757812 36.796875 11.9375 36.617188 12.160156 36.617188 C 12.253906 36.617188 12.335938 36.648438 12.402344 36.699219 C 12.339844 36.65625 12.261719 36.628906 12.179688 36.628906 " fill-opacity="1" fill-rule="nonzero"/></g><g clip-path="url(#8d8686e5d1)"><path fill="#262626" d="M 14.277344 35.269531 C 15.773438 33.753906 17.105469 32.640625 17.25 32.785156 L 19.191406 34.714844 C 19.507812 35.03125 19.511719 35.550781 19.195312 35.871094 L 14.925781 40.203125 C 14.609375 40.527344 14.09375 40.527344 13.773438 40.210938 L 11.835938 38.28125 C 11.691406 38.136719 12.785156 36.789062 14.277344 35.269531 " fill-opacity="1" fill-rule="nonzero"/></g><g clip-path="url(#ce75a35b35)"><path fill="#424242" d="M 17.183594 32.945312 L 19.421875 35.171875 C 19.457031 35.417969 19.382812 35.679688 19.195312 35.871094 L 17.320312 37.773438 L 17.308594 37.785156 L 14.644531 35.132812 C 15.96875 33.808594 16.925781 33.042969 17.183594 32.945312 " fill-opacity="1" fill-rule="nonzero"/></g><path fill="#edae79" d="M 19.964844 30.054688 C 19.386719 29.53125 19.125 28.84375 18.90625 28.003906 C 19.101562 28.875 18.96875 29.464844 18.449219 29.917969 C 17.863281 30.425781 16.375 30.8125 15.175781 30.445312 C 15.636719 31.34375 16.328125 33.679688 14.554688 34.394531 C 13.832031 34.6875 13.113281 34.6875 12.457031 34.550781 C 13.003906 34.671875 14.195312 35.257812 14.617188 35.703125 C 15.042969 36.152344 16.355469 37.957031 16.355469 37.957031 L 23.523438 33.730469 C 23.523438 33.730469 20.546875 30.574219 19.964844 30.054688 " fill-opacity="1" fill-rule="nonzero"/><path fill="#ebaa72" d="M 14.195312 29.886719 C 12.898438 28.628906 12.898438 26.292969 13.570312 24.640625 C 12.855469 24.199219 11.707031 23.101562 11.34375 22.363281 C 11.238281 22.257812 11.136719 22.152344 11.035156 22.03125 C 10.890625 22.023438 8.964844 20.757812 8.816406 20.769531 C 7.5625 20.867188 8.082031 22.886719 7.667969 23.675781 C 7.121094 24.710938 6.949219 29.695312 7.449219 31.0625 C 7.953125 32.425781 9.238281 33.019531 9.933594 33.421875 C 10.625 33.820312 12.582031 35.191406 14.554688 34.394531 C 16.328125 33.679688 15.636719 31.34375 15.175781 30.445312 C 14.808594 30.332031 14.472656 30.152344 14.195312 29.886719 " fill-opacity="1" fill-rule="nonzero"/><path fill="#ebaa72" d="M 6.054688 22.507812 C 6.402344 22.664062 6.980469 23.183594 7.320312 23.417969 C 7.722656 23.671875 8.523438 23.867188 9.1875 24.117188 C 9.300781 23.820312 9.402344 23.394531 9.191406 23.183594 C 8.847656 23.113281 6.382812 22.554688 5.945312 22.46875 C 5.984375 22.476562 6.023438 22.492188 6.054688 22.507812 " fill-opacity="1" fill-rule="nonzero"/><path fill="#e3a46f" d="M 7.304688 30.472656 C 7.335938 30.589844 7.363281 30.695312 7.398438 30.78125 C 7.914062 32.140625 9.207031 32.722656 9.90625 33.117188 C 10.347656 33.363281 11.300781 33.996094 12.441406 34.21875 C 12.988281 34.335938 14.1875 34.90625 14.617188 35.351562 C 15.046875 35.792969 16.375 37.585938 16.375 37.585938 L 16.355469 37.957031 C 16.355469 37.957031 15.042969 36.152344 14.617188 35.703125 C 14.195312 35.257812 13.003906 34.671875 12.457031 34.550781 C 11.320312 34.316406 10.371094 33.675781 9.933594 33.421875 C 9.238281 33.019531 7.953125 32.425781 7.449219 31.0625 C 7.394531 30.90625 7.347656 30.707031 7.304688 30.472656 " fill-opacity="1" fill-rule="nonzero"/><path fill="#ebaa72" d="M 6.738281 19.921875 C 6.316406 19.746094 5.460938 19.65625 5.21875 19.660156 C 5.425781 19.683594 5.609375 19.777344 5.730469 19.925781 C 5.863281 20.085938 6.410156 21.027344 5.8125 21.875 C 5.679688 22.0625 5.511719 22.195312 5.335938 22.285156 C 5.703125 22.316406 6.308594 22.34375 6.582031 22.386719 C 6.964844 21.707031 6.785156 21.210938 6.785156 21.210938 C 6.785156 21.210938 6.730469 20.183594 6.738281 19.921875 " fill-opacity="1" fill-rule="nonzero"/><path fill="#4d4d4d" d="M 10.6875 35.414062 L 11.625 35.226562 C 12.324219 35.082031 12.785156 34.414062 12.667969 33.710938 L 8.417969 9.722656 L 3.757812 10.664062 L 9.140625 34.421875 C 9.304688 35.117188 9.988281 35.554688 10.6875 35.414062 " fill-opacity="1" fill-rule="nonzero"/><path fill="#333333" d="M 12.007812 33.527344 L 7.847656 10.394531 L 8.1875 10.238281 L 12.347656 33.371094 C 12.460938 34.019531 12.097656 34.625 11.523438 34.773438 C 11.890625 34.515625 12.09375 34.035156 12.007812 33.527344 " fill-opacity="1" fill-rule="nonzero"/><path fill="#333333" d="M 4.070312 10.601562 L 9.390625 34.085938 C 9.554688 34.78125 10.238281 35.21875 10.9375 35.078125 L 11.875 34.890625 C 12.132812 34.835938 12.359375 34.710938 12.535156 34.539062 C 12.355469 34.882812 12.03125 35.144531 11.625 35.226562 L 10.6875 35.414062 C 9.988281 35.554688 9.304688 35.117188 9.140625 34.421875 L 3.757812 10.664062 L 4.070312 10.601562 " fill-opacity="1" fill-rule="nonzero"/><g clip-path="url(#23d4a73d34)"><path fill="#333333" d="M 4.910156 11.683594 L 7.835938 11.089844 C 9.617188 10.730469 10.699219 8.917969 10.171875 7.183594 L 9.058594 3.511719 C 8.597656 1.992188 7.0625 1.074219 5.507812 1.386719 L 3.292969 1.835938 C 1.738281 2.148438 0.679688 3.59375 0.84375 5.171875 L 1.242188 8.984375 C 1.429688 10.789062 3.132812 12.042969 4.910156 11.683594 " fill-opacity="1" fill-rule="nonzero"/></g><g clip-path="url(#f4a9d2aee5)"><path fill="#545454" d="M 9.375 7.578125 L 8.386719 4.320312 C 7.976562 2.972656 6.613281 2.15625 5.234375 2.433594 L 3.265625 2.832031 C 2.546875 2.976562 1.949219 3.394531 1.558594 3.960938 C 1.902344 3.160156 2.621094 2.542969 3.527344 2.359375 L 5.492188 1.960938 C 6.875 1.683594 8.238281 2.5 8.648438 3.847656 L 9.636719 7.105469 C 9.886719 7.9375 9.722656 8.792969 9.269531 9.449219 C 9.515625 8.878906 9.570312 8.222656 9.375 7.578125 " fill-opacity="1" fill-rule="nonzero"/></g><g clip-path="url(#8d9003cd74)"><path fill="#1a1a1a" d="M 1.242188 8.984375 L 0.84375 5.171875 C 0.765625 4.445312 0.953125 3.746094 1.324219 3.171875 C 1.171875 3.597656 1.109375 4.058594 1.160156 4.535156 L 1.558594 8.351562 C 1.746094 10.15625 3.445312 11.40625 5.226562 11.046875 L 8.152344 10.457031 C 9 10.285156 9.691406 9.785156 10.121094 9.117188 C 9.769531 10.089844 8.9375 10.867188 7.835938 11.089844 L 4.910156 11.683594 C 3.132812 12.042969 1.429688 10.789062 1.242188 8.984375 " fill-opacity="1" fill-rule="nonzero"/></g><g clip-path="url(#92227cb627)"><path fill="#ff252f" d="M 1.839844 19.226562 L 13.503906 16.871094 L 12.261719 10.722656 L 0.601562 13.074219 L 1.839844 19.226562 " fill-opacity="1" fill-rule="nonzero"/></g><g clip-path="url(#4d4f623881)"><path fill="#d00f15" d="M 0.996094 12.996094 L 2.140625 18.660156 L 13.40625 16.386719 L 13.503906 16.871094 L 1.839844 19.226562 L 0.601562 13.074219 L 0.996094 12.996094 " fill-opacity="1" fill-rule="nonzero"/></g><g clip-path="url(#cc4b9b777f)"><path fill="#ff5761" d="M 11.933594 11.214844 L 0.683594 13.488281 L 0.601562 13.074219 L 12.261719 10.722656 L 13.503906 16.871094 L 13.09375 16.957031 L 11.933594 11.214844 " fill-opacity="1" fill-rule="nonzero"/></g><path fill="#ffffff" d="M 4.480469 16.984375 L 3.796875 17.121094 L 2.777344 15.867188 L 3.058594 17.269531 L 2.351562 17.410156 L 1.78125 14.574219 L 2.464844 14.4375 L 3.484375 15.679688 L 3.203125 14.289062 L 3.910156 14.144531 L 4.480469 16.984375 " fill-opacity="1" fill-rule="nonzero"/><path fill="#ffffff" d="M 6.863281 16.503906 L 4.894531 16.898438 L 4.324219 14.0625 L 6.261719 13.671875 L 6.402344 14.367188 L 5.167969 14.617188 L 5.242188 14.976562 L 6.328125 14.757812 L 6.464844 15.425781 L 5.375 15.644531 L 5.460938 16.0625 L 6.726562 15.808594 L 6.863281 16.503906 " fill-opacity="1" fill-rule="nonzero"/><path fill="#ffffff" d="M 9.582031 13.003906 L 9.507812 15.972656 L 8.792969 16.117188 L 8.164062 14.589844 L 8.171875 16.242188 L 7.457031 16.382812 L 6.246094 13.675781 L 6.996094 13.527344 L 7.59375 15.015625 L 7.597656 13.40625 L 8.230469 13.277344 L 8.851562 14.761719 L 8.824219 13.15625 L 9.582031 13.003906 " fill-opacity="1" fill-rule="nonzero"/><path fill="#ffffff" d="M 12.054688 14.523438 C 12.128906 14.890625 12.066406 15.125 11.871094 15.382812 C 11.695312 15.605469 10.953125 15.882812 10.523438 15.664062 C 10.214844 15.507812 10.136719 15.335938 10.070312 15.222656 C 10 15.058594 10.03125 15.148438 9.933594 14.800781 L 10.652344 14.65625 C 10.664062 14.699219 10.667969 14.730469 10.667969 14.757812 L 10.683594 14.824219 C 10.726562 14.917969 10.734375 14.949219 10.835938 15.011719 C 10.953125 15.085938 11.113281 15.042969 11.230469 14.996094 C 11.371094 14.917969 11.378906 14.851562 11.363281 14.761719 C 11.34375 14.679688 11.296875 14.625 11.21875 14.601562 C 10.84375 14.480469 10.609375 14.605469 10.1875 14.398438 C 10.097656 14.359375 10.019531 14.285156 9.960938 14.183594 C 9.84375 13.992188 9.65625 13.429688 9.945312 13.070312 C 10.101562 12.90625 10.25 12.835938 10.449219 12.753906 C 10.652344 12.707031 11.054688 12.589844 11.328125 12.777344 C 11.691406 13.03125 11.738281 13.355469 11.777344 13.511719 L 11.101562 13.648438 C 11.070312 13.523438 11.078125 13.519531 11.042969 13.472656 C 10.945312 13.382812 10.898438 13.347656 10.734375 13.378906 C 10.644531 13.398438 10.582031 13.433594 10.546875 13.488281 C 10.511719 13.53125 10.503906 13.578125 10.511719 13.628906 C 10.566406 13.90625 11.089844 13.6875 11.636719 13.914062 C 11.851562 13.996094 11.992188 14.195312 12.054688 14.523438 " fill-opacity="1" fill-rule="nonzero"/><path fill="#cccccc" d="M 13.179688 26.132812 C 13.179688 26.132812 13.179688 26.128906 13.183594 26.128906 C 13.203125 25.972656 13.230469 25.820312 13.261719 25.667969 C 13.230469 25.820312 13.203125 25.976562 13.179688 26.132812 M 13.570312 24.644531 C 13.570312 24.644531 13.570312 24.644531 13.570312 24.640625 C 13.570312 24.644531 13.570312 24.644531 13.570312 24.644531 M 11.34375 22.363281 C 11.238281 22.257812 11.136719 22.152344 11.035156 22.03125 C 11.136719 22.152344 11.238281 22.257812 11.34375 22.363281 M 11.035156 22.03125 C 11.023438 22.03125 11 22.019531 10.964844 22.003906 C 10.992188 22.015625 11.015625 22.023438 11.035156 22.03125 M 10.800781 21.917969 C 10.753906 21.890625 10.699219 21.859375 10.640625 21.824219 C 10.691406 21.851562 10.746094 21.882812 10.800781 21.917969 " fill-opacity="1" fill-rule="nonzero"/><path fill="#bc885b" d="M 13.183594 26.128906 C 13.214844 25.625 13.308594 25.128906 13.460938 24.679688 C 12.71875 24.28125 11.574219 23.210938 11.167969 22.496094 C 11.007812 22.355469 10.78125 22 10.628906 21.816406 C 10.632812 21.820312 10.636719 21.820312 10.640625 21.824219 C 10.699219 21.859375 10.753906 21.890625 10.800781 21.917969 C 10.859375 21.949219 10.914062 21.980469 10.964844 22.003906 C 11 22.019531 11.023438 22.03125 11.035156 22.03125 C 11.136719 22.152344 11.238281 22.257812 11.34375 22.363281 C 11.707031 23.101562 12.855469 24.199219 13.570312 24.640625 C 13.570312 24.644531 13.570312 24.644531 13.570312 24.644531 C 13.4375 24.976562 13.332031 25.320312 13.261719 25.667969 C 13.230469 25.820312 13.203125 25.972656 13.183594 26.128906 " fill-opacity="1" fill-rule="nonzero"/><path fill="#fabb85" d="M 10.851562 17.667969 C 10.582031 17.742188 9.765625 18.386719 10.132812 19.933594 C 10.503906 21.480469 10.90625 21.917969 11.34375 22.363281 C 11.707031 23.101562 12.855469 24.199219 13.570312 24.640625 C 12.898438 26.292969 12.898438 28.628906 14.195312 29.886719 C 15.382812 31.039062 17.6875 30.582031 18.449219 29.917969 C 19.230469 29.238281 19.132812 28.238281 18.375 26.441406 C 17.9375 25.410156 17.109375 23.660156 16.945312 23.339844 C 16.78125 23.015625 16.324219 22.652344 15.851562 22.421875 C 15.378906 22.191406 14.410156 21.644531 13.96875 21.207031 C 13.644531 20.882812 13.371094 20.507812 12.820312 20.171875 C 12.59375 20.035156 11.875 19.28125 11.808594 18.753906 C 11.746094 18.226562 11.800781 17.929688 11.578125 17.75 C 11.355469 17.566406 11.011719 17.621094 10.851562 17.667969 " fill-opacity="1" fill-rule="nonzero"/><path fill="#facba3" d="M 18.183594 26.589844 C 17.746094 25.558594 16.917969 23.8125 16.753906 23.488281 C 16.589844 23.164062 16.132812 22.800781 15.660156 22.570312 C 15.183594 22.339844 14.21875 21.792969 13.777344 21.355469 C 13.453125 21.03125 13.179688 20.65625 12.628906 20.320312 C 12.402344 20.183594 11.683594 19.433594 11.617188 18.902344 C 11.554688 18.375 11.609375 18.082031 11.386719 17.898438 C 11.164062 17.714844 10.820312 17.773438 10.660156 17.816406 C 10.625 17.828125 10.578125 17.847656 10.527344 17.878906 C 10.652344 17.757812 10.773438 17.6875 10.851562 17.667969 C 11.011719 17.621094 11.355469 17.566406 11.578125 17.75 C 11.800781 17.929688 11.746094 18.226562 11.808594 18.753906 C 11.875 19.28125 12.59375 20.035156 12.820312 20.171875 C 13.371094 20.507812 13.644531 20.882812 13.96875 21.207031 C 14.410156 21.644531 15.378906 22.191406 15.851562 22.421875 C 16.324219 22.652344 16.78125 23.015625 16.945312 23.339844 C 17.109375 23.660156 17.9375 25.410156 18.375 26.441406 C 19.132812 28.238281 19.230469 29.238281 18.449219 29.917969 C 18.402344 29.960938 18.347656 30 18.289062 30.039062 C 19.039062 29.359375 18.933594 28.363281 18.183594 26.589844 " fill-opacity="1" fill-rule="nonzero"/><path fill="#fadabe" d="M 11.507812 18.136719 C 11.523438 18.371094 11.738281 18.902344 11.9375 19.164062 C 11.949219 19.183594 11.976562 19.171875 11.972656 19.148438 C 11.902344 18.742188 11.832031 18.191406 11.761719 17.941406 C 11.753906 17.910156 11.722656 17.898438 11.695312 17.917969 C 11.636719 17.957031 11.558594 18.027344 11.519531 18.085938 C 11.507812 18.101562 11.503906 18.117188 11.507812 18.136719 " fill-opacity="1" fill-rule="nonzero"/><path fill="#cccccc" d="M 6.582031 23.132812 C 6.53125 23.058594 6.496094 22.976562 6.476562 22.886719 L 6.449219 22.753906 C 6.46875 22.765625 6.488281 22.777344 6.503906 22.792969 L 6.582031 23.132812 M 6.4375 22.574219 C 6.429688 22.570312 6.421875 22.570312 6.414062 22.566406 L 6.410156 22.554688 C 6.417969 22.5625 6.425781 22.566406 6.4375 22.574219 " fill-opacity="1" fill-rule="nonzero"/><path fill="#bc885b" d="M 6.503906 22.792969 C 6.488281 22.777344 6.46875 22.765625 6.449219 22.753906 L 6.414062 22.566406 C 6.421875 22.570312 6.429688 22.570312 6.4375 22.574219 C 6.445312 22.578125 6.453125 22.582031 6.460938 22.589844 L 6.503906 22.792969 " fill-opacity="1" fill-rule="nonzero"/><path fill="#3e3e3e" d="M 8.25 24.082031 C 8.078125 24.082031 7.914062 24 7.804688 23.863281 L 7.597656 23.597656 L 7.542969 23.609375 C 7.5 23.617188 7.457031 23.621094 7.414062 23.621094 C 7.273438 23.621094 7.140625 23.578125 7.027344 23.5 L 6.984375 23.46875 L 6.851562 22.878906 C 7.070312 23.050781 7.285156 23.222656 7.445312 23.335938 C 7.792969 23.554688 8.4375 23.730469 9.035156 23.933594 L 8.363281 24.070312 C 8.324219 24.078125 8.289062 24.082031 8.25 24.082031 " fill-opacity="1" fill-rule="nonzero"/><path fill="#292929" d="M 6.984375 23.46875 L 6.742188 23.296875 C 6.679688 23.25 6.625 23.195312 6.582031 23.132812 L 6.503906 22.792969 L 6.460938 22.589844 C 6.582031 22.671875 6.71875 22.773438 6.851562 22.878906 L 6.984375 23.46875 " fill-opacity="1" fill-rule="nonzero"/><path fill="#bc885b" d="M 8.589844 31.992188 C 8.433594 31.9375 8.296875 31.894531 8.199219 31.863281 C 8.160156 31.851562 8.101562 31.828125 8.019531 31.792969 C 7.976562 31.742188 7.929688 31.691406 7.886719 31.636719 C 7.96875 31.671875 8.035156 31.699219 8.074219 31.707031 C 8.191406 31.746094 8.363281 31.804688 8.5625 31.867188 L 8.589844 31.992188 " fill-opacity="1" fill-rule="nonzero"/><path fill="#b68359" d="M 8.019531 31.792969 C 7.945312 31.761719 7.855469 31.714844 7.75 31.664062 C 7.722656 31.621094 7.699219 31.578125 7.671875 31.535156 C 7.753906 31.574219 7.824219 31.609375 7.886719 31.636719 C 7.929688 31.691406 7.976562 31.742188 8.019531 31.792969 " fill-opacity="1" fill-rule="nonzero"/><path fill="#3e3e3e" d="M 10.222656 32.34375 C 9.820312 32.34375 9.34375 32.226562 8.941406 32.101562 L 8.910156 31.976562 C 9.292969 32.089844 9.726562 32.1875 10.097656 32.1875 C 10.257812 32.1875 10.410156 32.167969 10.539062 32.121094 C 10.738281 32.050781 10.882812 31.960938 10.992188 31.855469 C 11.164062 31.78125 11.273438 31.617188 11.351562 31.402344 C 11.40625 31.246094 11.390625 31.011719 11.269531 30.855469 C 11.238281 30.742188 11.195312 30.632812 11.132812 30.535156 C 11.261719 30.65625 11.347656 30.832031 11.394531 31.011719 C 11.515625 31.167969 11.535156 31.398438 11.476562 31.558594 C 11.402344 31.769531 11.292969 31.933594 11.117188 32.007812 C 11.011719 32.117188 10.867188 32.203125 10.664062 32.277344 C 10.535156 32.324219 10.386719 32.34375 10.222656 32.34375 " fill-opacity="1" fill-rule="nonzero"/><path fill="#292929" d="M 8.941406 32.101562 C 8.816406 32.066406 8.695312 32.027344 8.589844 31.992188 L 8.5625 31.867188 C 8.671875 31.902344 8.789062 31.941406 8.910156 31.976562 L 8.941406 32.101562 " fill-opacity="1" fill-rule="nonzero"/><path fill="#3e3e3e" d="M 10.542969 30.023438 C 10.464844 30.023438 10.390625 30.015625 10.320312 30 C 10.265625 29.988281 10.199219 29.972656 10.128906 29.957031 C 9.90625 29.855469 9.664062 29.746094 9.4375 29.648438 C 9.75 29.738281 10.023438 29.808594 10.191406 29.847656 C 10.265625 29.859375 10.339844 29.867188 10.417969 29.867188 C 10.730469 29.867188 11.058594 29.738281 11.277344 29.457031 L 11.320312 29.703125 C 11.105469 29.921875 10.820312 30.023438 10.542969 30.023438 M 11.601562 29.210938 L 11.523438 28.792969 C 11.566406 28.449219 11.503906 28.171875 11.375 27.964844 L 11.375 27.957031 C 11.605469 28.195312 11.726562 28.578125 11.628906 29.089844 C 11.621094 29.132812 11.613281 29.171875 11.601562 29.210938 " fill-opacity="1" fill-rule="nonzero"/><path fill="#292929" d="M 11.320312 29.703125 L 11.277344 29.457031 C 11.382812 29.320312 11.464844 29.148438 11.503906 28.9375 C 11.511719 28.886719 11.519531 28.839844 11.523438 28.792969 L 11.601562 29.210938 C 11.542969 29.414062 11.445312 29.578125 11.320312 29.703125 M 11.375 27.964844 C 11.371094 27.957031 11.367188 27.953125 11.363281 27.945312 C 11.367188 27.949219 11.371094 27.953125 11.375 27.957031 L 11.375 27.964844 " fill-opacity="1" fill-rule="nonzero"/><path fill="#3e3e3e" d="M 9.707031 27.164062 C 9.578125 27.117188 9.445312 27.070312 9.3125 27.027344 L 9.300781 27.023438 L 9.3125 27.027344 C 9.34375 27.03125 9.375 27.035156 9.40625 27.035156 C 9.816406 27.035156 10.269531 26.613281 10.382812 26.09375 C 10.46875 25.6875 10.464844 25.164062 10.183594 24.757812 C 10.585938 25.175781 10.609375 25.789062 10.507812 26.25 C 10.410156 26.695312 10.0625 27.066406 9.707031 27.164062 " fill-opacity="1" fill-rule="nonzero"/><path fill="#fabb85" d="M 10.808594 30.253906 C 10.535156 30.148438 9.945312 29.867188 9.4375 29.648438 C 9.3125 29.613281 9.179688 29.574219 9.046875 29.535156 C 9.433594 29.8125 9.460938 30.277344 9.214844 30.871094 C 8.90625 31.617188 8.335938 31.777344 8.074219 31.707031 C 8.539062 31.851562 9.855469 32.367188 10.539062 32.121094 C 10.976562 31.964844 11.144531 31.738281 11.265625 31.386719 C 11.386719 31.035156 11.21875 30.414062 10.808594 30.253906 " fill-opacity="1" fill-rule="nonzero"/><path fill="#fadabe" d="M 10.207031 30.917969 C 10.121094 31.113281 9.988281 31.320312 10.015625 31.472656 C 10.039062 31.625 10.453125 31.914062 10.804688 31.898438 C 11.09375 31.882812 11.25 31.683594 11.351562 31.402344 C 11.421875 31.207031 11.378906 30.898438 11.164062 30.761719 C 10.953125 30.625 10.597656 30.421875 10.441406 30.492188 C 10.292969 30.5625 10.285156 30.738281 10.207031 30.917969 " fill-opacity="1" fill-rule="nonzero"/><path fill="#fab478" d="M 7.546875 29.089844 C 7.519531 29.085938 7.492188 29.078125 7.464844 29.070312 C 7.304688 29.023438 6.742188 28.75 6.179688 28.4375 C 5.960938 28.507812 5.773438 28.691406 5.65625 28.941406 C 5.324219 29.671875 5.621094 30.457031 6.40625 30.878906 C 7.195312 31.296875 7.886719 31.65625 8.074219 31.707031 C 8.335938 31.777344 8.90625 31.617188 9.214844 30.871094 C 9.460938 30.277344 9.433594 29.8125 9.046875 29.535156 C 8.488281 29.375 7.894531 29.191406 7.546875 29.089844 " fill-opacity="1" fill-rule="nonzero"/><path fill="#cf8b50" d="M 9.4375 29.648438 C 9.308594 29.617188 9.175781 29.574219 9.046875 29.535156 C 9.136719 29.601562 9.207031 29.675781 9.257812 29.761719 C 9.460938 29.820312 9.660156 29.875 9.859375 29.929688 C 10.007812 29.96875 10.15625 30.011719 10.308594 30.039062 C 10.039062 29.917969 9.726562 29.773438 9.4375 29.648438 C 9.4375 29.648438 9.726562 29.773438 9.4375 29.648438 " fill-opacity="1" fill-rule="nonzero"/><path fill="#cf8b50" d="M 8.003906 29.226562 C 7.851562 29.179688 7.699219 29.136719 7.546875 29.089844 C 7.433594 29.070312 7.328125 29.019531 7.226562 28.972656 C 7.117188 28.925781 7.007812 28.871094 6.902344 28.820312 C 6.65625 28.699219 6.417969 28.570312 6.179688 28.4375 C 6.128906 28.453125 6.082031 28.476562 6.039062 28.503906 C 6.347656 28.679688 6.664062 28.851562 6.984375 29.007812 C 7.101562 29.066406 7.222656 29.125 7.339844 29.179688 C 7.429688 29.21875 7.519531 29.257812 7.613281 29.273438 C 7.992188 29.382812 8.664062 29.589844 9.257812 29.761719 C 9.207031 29.675781 9.136719 29.601562 9.046875 29.535156 C 8.6875 29.433594 8.316406 29.320312 8.003906 29.226562 C 7.988281 29.222656 8.316406 29.320312 8.003906 29.226562 " fill-opacity="1" fill-rule="nonzero"/><path fill="#fabb85" d="M 10.886719 27.570312 C 10.632812 27.484375 9.941406 27.242188 9.3125 27.027344 C 9.09375 26.988281 8.777344 26.898438 8.449219 26.800781 C 8.867188 27.160156 8.828125 27.761719 8.714844 28.023438 C 8.46875 28.59375 8.089844 29.1875 7.546875 29.089844 C 8.1875 29.277344 9.671875 29.738281 10.191406 29.847656 C 10.710938 29.953125 11.363281 29.679688 11.503906 28.9375 C 11.644531 28.195312 11.328125 27.722656 10.886719 27.570312 " fill-opacity="1" fill-rule="nonzero"/><path fill="#fadabe" d="M 9.847656 28.273438 C 9.6875 28.671875 9.566406 29.039062 9.867188 29.226562 C 10.121094 29.386719 10.335938 29.503906 10.5 29.578125 C 10.5625 29.605469 10.632812 29.609375 10.699219 29.585938 C 11 29.488281 11.226562 29.269531 11.332031 28.976562 C 11.410156 28.765625 11.382812 28.558594 11.316406 28.367188 C 11.285156 28.277344 11.21875 28.199219 11.132812 28.15625 C 10.773438 27.96875 10.515625 27.863281 10.277344 27.890625 C 10.011719 27.921875 9.917969 28.097656 9.847656 28.273438 " fill-opacity="1" fill-rule="nonzero"/><path fill="#fab478" d="M 7.554688 26.546875 C 6.636719 26.339844 6.191406 26.046875 5.722656 25.691406 C 5.617188 25.609375 5.519531 25.523438 5.429688 25.433594 C 5.148438 25.472656 4.867188 25.632812 4.695312 26.011719 C 4.429688 26.601562 4.550781 27.335938 5.183594 27.8125 C 5.820312 28.292969 7.203125 28.992188 7.464844 29.070312 C 8.050781 29.246094 8.457031 28.621094 8.714844 28.023438 C 8.828125 27.761719 8.867188 27.160156 8.449219 26.800781 C 8.132812 26.707031 7.808594 26.605469 7.554688 26.546875 " fill-opacity="1" fill-rule="nonzero"/><path fill="#cf8b50" d="M 5.746094 25.914062 C 5.761719 25.921875 5.777344 25.929688 5.792969 25.9375 C 5.777344 25.929688 5.761719 25.921875 5.746094 25.914062 Z M 9.3125 27.027344 C 9.023438 26.976562 8.730469 26.890625 8.449219 26.800781 C 8.234375 26.734375 8.019531 26.671875 7.800781 26.609375 C 7.582031 26.550781 7.355469 26.503906 7.136719 26.4375 C 6.789062 26.332031 6.457031 26.1875 6.152344 25.992188 C 6.003906 25.898438 5.863281 25.796875 5.722656 25.691406 C 5.621094 25.613281 5.523438 25.527344 5.429688 25.433594 C 5.371094 25.441406 5.308594 25.457031 5.25 25.476562 C 5.367188 25.605469 5.496094 25.726562 5.640625 25.835938 C 5.921875 26.050781 6.210938 26.246094 6.535156 26.390625 C 6.949219 26.578125 7.390625 26.664062 7.824219 26.785156 C 8.097656 26.863281 8.367188 26.949219 8.640625 27.027344 C 8.597656 26.953125 8.542969 26.890625 8.484375 26.832031 C 8.542969 26.890625 8.597656 26.953125 8.640625 27.027344 C 8.800781 27.070312 8.964844 27.117188 9.128906 27.152344 C 9.289062 27.1875 9.4375 27.183594 9.589844 27.121094 C 9.496094 27.089844 9.40625 27.058594 9.3125 27.027344 C 9.308594 27.023438 9.40625 27.058594 9.3125 27.027344 " fill-opacity="1" fill-rule="nonzero"/><path fill="#fabb85" d="M 9.75 24.363281 C 9.050781 23.980469 7.847656 23.753906 7.320312 23.417969 C 7.664062 23.652344 7.160156 24.589844 6.941406 25.011719 C 6.703125 25.476562 6.304688 26.078125 5.832031 25.765625 C 5.796875 25.742188 5.757812 25.71875 5.726562 25.691406 C 6.191406 26.046875 6.636719 26.339844 7.554688 26.546875 C 8.070312 26.667969 8.882812 26.953125 9.3125 27.027344 C 9.746094 27.097656 10.257812 26.652344 10.382812 26.09375 C 10.503906 25.535156 10.445312 24.75 9.75 24.363281 " fill-opacity="1" fill-rule="nonzero"/><path fill="#fab478" d="M 4.792969 23.015625 C 4.445312 23.5625 4.53125 24.257812 4.796875 24.628906 C 5.0625 25.003906 5.359375 25.453125 5.832031 25.765625 C 6.304688 26.078125 6.703125 25.476562 6.941406 25.011719 C 7.160156 24.589844 7.664062 23.652344 7.320312 23.417969 C 6.980469 23.183594 6.402344 22.664062 6.054688 22.507812 C 5.75 22.367188 5.160156 22.441406 4.792969 23.015625 " fill-opacity="1" fill-rule="nonzero"/><path fill="#fadabe" d="M 8.1875 25.414062 C 8.046875 25.761719 8.09375 26.136719 8.324219 26.296875 C 8.527344 26.4375 9.023438 26.644531 9.367188 26.734375 C 9.453125 26.757812 9.546875 26.742188 9.621094 26.691406 C 9.925781 26.492188 10.019531 26.242188 10.101562 25.996094 C 10.183594 25.757812 10.148438 25.398438 9.964844 25.148438 C 9.917969 25.082031 9.847656 25.035156 9.769531 25.007812 C 9.3125 24.851562 8.929688 24.792969 8.667969 24.867188 C 8.417969 24.941406 8.292969 25.15625 8.1875 25.414062 " fill-opacity="1" fill-rule="nonzero"/><path fill="#fabb85" d="M 5.8125 21.875 C 5.4375 22.40625 4.769531 22.519531 4.453125 22.363281 C 4.136719 22.207031 3.839844 21.449219 3.824219 21.222656 C 3.808594 21 4.089844 20.144531 4.3125 19.972656 C 4.53125 19.800781 4.953125 19.636719 5.179688 19.65625 C 5.402344 19.671875 5.601562 19.769531 5.730469 19.925781 C 5.863281 20.085938 6.410156 21.027344 5.8125 21.875 " fill-opacity="1" fill-rule="nonzero"/><path fill="#fadabe" d="M 4.238281 20.863281 C 4.121094 21.082031 4.0625 21.34375 4.085938 21.507812 C 4.101562 21.628906 4.125 21.753906 4.15625 21.875 C 4.167969 21.910156 4.21875 21.910156 4.226562 21.871094 C 4.304688 21.414062 4.496094 20.839844 4.808594 20.589844 C 4.835938 20.570312 4.84375 20.53125 4.824219 20.503906 C 4.785156 20.453125 4.691406 20.433594 4.578125 20.503906 C 4.429688 20.601562 4.332031 20.691406 4.238281 20.863281 " fill-opacity="1" fill-rule="nonzero"/><path fill="#cf8b50" d="M 19.964844 30.054688 C 19.957031 30.042969 19.945312 30.035156 19.933594 30.023438 C 19.167969 30.601562 17.953125 31.695312 16.648438 33.015625 C 15.753906 33.921875 14.960938 34.785156 14.367188 35.484375 C 14.464844 35.5625 14.550781 35.632812 14.617188 35.703125 C 14.953125 36.054688 15.828125 37.242188 16.191406 37.738281 L 21.875 31.996094 C 21.082031 31.167969 20.246094 30.304688 19.964844 30.054688 " fill-opacity="1" fill-rule="nonzero"/><path fill="#e6e6e6" d="M 20.890625 29.816406 C 20.6875 29.617188 18.851562 31.144531 16.792969 33.230469 C 14.730469 35.3125 13.222656 37.164062 13.421875 37.363281 L 15.1875 39.109375 L 22.65625 31.5625 L 20.890625 29.816406 " fill-opacity="1" fill-rule="nonzero"/><path fill="#f2f2f2" d="M 22.484375 31.734375 L 20.789062 30.058594 C 20.449219 30.199219 19.3125 31.105469 17.722656 32.644531 L 19.671875 34.574219 L 22.484375 31.734375 " fill-opacity="1" fill-rule="nonzero"/><path fill="#e6e6e6" d="M 15.296875 37.363281 C 15.296875 37.289062 15.238281 37.230469 15.164062 37.230469 C 15.09375 37.230469 15.035156 37.289062 15.035156 37.359375 C 15.035156 37.433594 15.09375 37.492188 15.164062 37.492188 C 15.238281 37.492188 15.296875 37.433594 15.296875 37.363281 Z M 14.5625 37.359375 C 14.5625 37.433594 14.621094 37.492188 14.695312 37.492188 C 14.765625 37.492188 14.824219 37.433594 14.824219 37.359375 C 14.824219 37.289062 14.765625 37.230469 14.695312 37.230469 C 14.621094 37.230469 14.5625 37.289062 14.5625 37.359375 Z M 15.296875 36.925781 C 15.296875 36.855469 15.238281 36.796875 15.167969 36.796875 C 15.09375 36.796875 15.035156 36.855469 15.035156 36.925781 C 15.035156 37 15.09375 37.058594 15.164062 37.058594 C 15.238281 37.058594 15.296875 37 15.296875 36.925781 Z M 14.5625 36.925781 C 14.5625 37 14.621094 37.058594 14.695312 37.058594 C 14.765625 37.058594 14.824219 37 14.824219 36.925781 C 14.824219 36.855469 14.765625 36.796875 14.695312 36.792969 C 14.621094 36.792969 14.5625 36.855469 14.5625 36.925781 Z M 14.117188 37.144531 C 14.117188 36.691406 14.480469 36.328125 14.929688 36.332031 C 15.378906 36.332031 15.746094 36.695312 15.742188 37.144531 C 15.742188 37.59375 15.378906 37.957031 14.929688 37.957031 C 14.480469 37.957031 14.117188 37.59375 14.117188 37.144531 " fill-opacity="1" fill-rule="nonzero"/><path fill="#ffffff" d="M 15.269531 37.335938 C 15.269531 37.261719 15.210938 37.203125 15.136719 37.203125 C 15.066406 37.203125 15.003906 37.261719 15.003906 37.335938 C 15.003906 37.40625 15.0625 37.46875 15.136719 37.46875 C 15.210938 37.46875 15.269531 37.410156 15.269531 37.335938 Z M 14.535156 37.335938 C 14.535156 37.40625 14.59375 37.464844 14.664062 37.464844 C 14.738281 37.464844 14.796875 37.40625 14.796875 37.335938 C 14.796875 37.261719 14.738281 37.203125 14.664062 37.203125 C 14.59375 37.203125 14.535156 37.261719 14.535156 37.335938 Z M 15.269531 36.902344 C 15.269531 36.828125 15.210938 36.769531 15.136719 36.769531 C 15.066406 36.769531 15.007812 36.828125 15.007812 36.902344 C 15.007812 36.972656 15.066406 37.03125 15.136719 37.03125 C 15.210938 37.03125 15.269531 36.972656 15.269531 36.902344 Z M 14.535156 36.902344 C 14.535156 36.972656 14.59375 37.03125 14.664062 37.03125 C 14.738281 37.03125 14.796875 36.972656 14.796875 36.902344 C 14.796875 36.828125 14.738281 36.769531 14.667969 36.769531 C 14.59375 36.769531 14.535156 36.828125 14.535156 36.902344 Z M 14.089844 37.117188 C 14.089844 36.667969 14.453125 36.304688 14.902344 36.304688 C 15.351562 36.304688 15.714844 36.671875 15.714844 37.121094 C 15.714844 37.570312 15.347656 37.933594 14.898438 37.933594 C 14.449219 37.929688 14.085938 37.566406 14.089844 37.117188 " fill-opacity="1" fill-rule="nonzero"/><path fill="#e6e6e6" d="M 14.929688 36.53125 C 14.59375 36.53125 14.320312 36.800781 14.316406 37.136719 C 14.316406 37.335938 14.414062 37.511719 14.558594 37.625 C 14.398438 37.511719 14.292969 37.328125 14.292969 37.117188 C 14.292969 36.78125 14.566406 36.507812 14.902344 36.507812 C 15.042969 36.507812 15.167969 36.558594 15.269531 36.632812 C 15.171875 36.570312 15.054688 36.53125 14.929688 36.53125 " fill-opacity="1" fill-rule="nonzero"/><g clip-path="url(#abb2303dfb)"><path fill="#262626" d="M 18.101562 34.484375 C 20.359375 32.203125 22.371094 30.527344 22.589844 30.746094 L 25.519531 33.648438 C 26.003906 34.125 26.007812 34.90625 25.527344 35.386719 L 19.082031 41.90625 C 18.601562 42.390625 17.824219 42.394531 17.339844 41.914062 L 14.414062 39.011719 C 14.191406 38.792969 15.84375 36.765625 18.101562 34.484375 " fill-opacity="1" fill-rule="nonzero"/></g><g clip-path="url(#52f4b58440)"><path fill="#424242" d="M 22.488281 30.984375 L 25.867188 34.335938 C 25.925781 34.707031 25.8125 35.101562 25.527344 35.386719 L 22.695312 38.25 L 22.679688 38.269531 L 18.652344 34.277344 C 20.65625 32.285156 22.097656 31.136719 22.488281 30.984375 " fill-opacity="1" fill-rule="nonzero"/></g><g clip-path="url(#b5930823d2)"><g transform="matrix(1, 0, 0, 1, 22, 0.000000000000000888)"><g clip-path="url(#90be7c8595)"><g clip-path="url(#d7e1b35eba)"><g fill="#00bf63" fill-opacity="1"><g transform="translate(0.732912, 28.1292)"><g><path d="M 12.84375 2.046875 C 12.4375 1.378906 12.039062 0.675781 11.65625 -0.0625 C 11.28125 -0.800781 10.960938 -1.441406 10.703125 -1.984375 C 10.179688 -1.921875 9.585938 -1.890625 8.921875 -1.890625 C 7.984375 -1.890625 7.050781 -1.992188 6.125 -2.203125 C 5.207031 -2.421875 4.367188 -2.765625 3.609375 -3.234375 C 2.847656 -3.703125 2.238281 -4.332031 1.78125 -5.125 C 1.332031 -5.914062 1.109375 -6.90625 1.109375 -8.09375 C 1.109375 -8.96875 1.273438 -9.726562 1.609375 -10.375 C 1.941406 -11.03125 2.390625 -11.582031 2.953125 -12.03125 C 3.585938 -12.53125 4.347656 -12.914062 5.234375 -13.1875 C 6.128906 -13.457031 7.117188 -13.617188 8.203125 -13.671875 L 8.203125 -15.390625 L 0 -15.390625 L 0 -18.703125 L 17.203125 -18.703125 L 17.203125 -15.390625 L 12.234375 -15.390625 L 12.234375 -10.375 L 10.703125 -10.375 C 9.535156 -10.375 8.628906 -10.320312 7.984375 -10.21875 C 7.347656 -10.125 6.8125 -9.960938 6.375 -9.734375 C 5.53125 -9.335938 5.109375 -8.695312 5.109375 -7.8125 C 5.109375 -7.050781 5.414062 -6.425781 6.03125 -5.9375 C 6.65625 -5.445312 7.734375 -5.203125 9.265625 -5.203125 C 9.316406 -5.203125 9.390625 -5.203125 9.484375 -5.203125 C 9.578125 -5.203125 9.679688 -5.210938 9.796875 -5.234375 C 9.753906 -5.453125 9.734375 -5.660156 9.734375 -5.859375 C 9.734375 -6.597656 10.003906 -7.128906 10.546875 -7.453125 C 11.085938 -7.773438 11.671875 -7.9375 12.296875 -7.9375 C 13.359375 -7.9375 14.171875 -7.648438 14.734375 -7.078125 C 15.296875 -6.503906 15.578125 -5.835938 15.578125 -5.078125 C 15.578125 -4.378906 15.421875 -3.847656 15.109375 -3.484375 C 14.796875 -3.128906 14.410156 -2.835938 13.953125 -2.609375 C 14.535156 -1.628906 15.253906 -0.5625 16.109375 0.59375 Z M 12.84375 2.046875 "/></g></g></g></g><g fill="#00bf63" fill-opacity="1"><g transform="translate(15.373129, 28.1292)"><g><path d="M -6.21875 -18.484375 C -6.5625 -19.671875 -6.894531 -20.640625 -7.21875 -21.390625 C -7.550781 -22.140625 -7.929688 -22.6875 -8.359375 -23.03125 C -8.796875 -23.382812 -9.359375 -23.5625 -10.046875 -23.5625 C -10.441406 -23.5625 -10.8125 -23.519531 -11.15625 -23.4375 C -11.5 -23.363281 -11.804688 -23.273438 -12.078125 -23.171875 L -13.171875 -26.328125 C -12.691406 -26.535156 -12.191406 -26.6875 -11.671875 -26.78125 C -11.160156 -26.882812 -10.609375 -26.9375 -10.015625 -26.9375 C -9.210938 -26.9375 -8.46875 -26.828125 -7.78125 -26.609375 C -7.101562 -26.398438 -6.46875 -26.003906 -5.875 -25.421875 C -5.28125 -24.847656 -4.71875 -24.003906 -4.1875 -22.890625 C -3.65625 -21.773438 -3.140625 -20.304688 -2.640625 -18.484375 Z M -6.21875 -18.484375 "/></g></g></g><g fill="#00bf63" fill-opacity="1"><g transform="translate(17.506142, 28.1292)"><g><path d="M 4.09375 -4.484375 C 3.289062 -4.484375 2.585938 -4.691406 1.984375 -5.109375 C 1.378906 -5.523438 1.078125 -6.164062 1.078125 -7.03125 C 1.078125 -7.738281 1.296875 -8.304688 1.734375 -8.734375 C 2.179688 -9.160156 2.804688 -9.375 3.609375 -9.375 C 4.023438 -9.375 4.472656 -9.296875 4.953125 -9.140625 C 5.441406 -8.984375 5.9375 -8.722656 6.4375 -8.359375 C 7.257812 -8.734375 7.925781 -9.300781 8.4375 -10.0625 C 8.945312 -10.832031 9.203125 -11.773438 9.203125 -12.890625 C 9.203125 -13.953125 8.96875 -14.742188 8.5 -15.265625 C 8.039062 -15.785156 7.460938 -16.046875 6.765625 -16.046875 C 6.359375 -16.046875 6.035156 -15.953125 5.796875 -15.765625 C 5.554688 -15.578125 5.4375 -15.300781 5.4375 -14.9375 C 5.4375 -14.5625 5.628906 -14.210938 6.015625 -13.890625 C 6.410156 -13.566406 7.203125 -13.335938 8.390625 -13.203125 L 7.546875 -10.484375 C 5.523438 -10.671875 4.035156 -11.179688 3.078125 -12.015625 C 2.128906 -12.859375 1.65625 -13.863281 1.65625 -15.03125 C 1.65625 -16.175781 2.078125 -17.125 2.921875 -17.875 C 3.773438 -18.625 5.015625 -19 6.640625 -19 C 7.785156 -19 8.859375 -18.773438 9.859375 -18.328125 C 10.859375 -17.890625 11.664062 -17.207031 12.28125 -16.28125 C 12.894531 -15.363281 13.203125 -14.195312 13.203125 -12.78125 C 13.203125 -11.351562 12.867188 -10.035156 12.203125 -8.828125 C 11.546875 -7.628906 10.625 -6.660156 9.4375 -5.921875 C 10.125 -5.296875 10.785156 -4.625 11.421875 -3.90625 C 12.066406 -3.1875 12.660156 -2.484375 13.203125 -1.796875 L 10.21875 0.234375 C 9.414062 -0.804688 8.664062 -1.726562 7.96875 -2.53125 C 7.269531 -3.332031 6.617188 -4.03125 6.015625 -4.625 C 5.390625 -4.53125 4.75 -4.484375 4.09375 -4.484375 Z M 20.140625 -15.390625 L 20.140625 0 L 16.109375 0 L 16.109375 -15.390625 L 13.859375 -15.390625 L 13.859375 -18.703125 L 22.96875 -18.703125 L 22.96875 -15.390625 Z M 20.140625 -15.390625 "/></g></g></g><g fill="#00bf63" fill-opacity="1"><g transform="translate(40.050808, 28.1292)"><g/></g></g><g fill="#ff914d" fill-opacity="1"><g transform="translate(48.409542, 28.1292)"><g><path d="M 2.40625 -15.390625 L 0 -15.390625 L 0 -18.703125 L 2.25 -18.703125 C 1.707031 -19.804688 1.4375 -20.847656 1.4375 -21.828125 C 1.4375 -23.390625 2.019531 -24.628906 3.1875 -25.546875 C 4.351562 -26.472656 6.003906 -26.9375 8.140625 -26.9375 C 10.148438 -26.9375 11.953125 -26.546875 13.546875 -25.765625 C 15.140625 -24.984375 16.554688 -23.953125 17.796875 -22.671875 C 19.035156 -21.390625 20.128906 -19.992188 21.078125 -18.484375 L 16.828125 -18.484375 C 15.648438 -20.128906 14.382812 -21.390625 13.03125 -22.265625 C 11.675781 -23.148438 10.21875 -23.59375 8.65625 -23.59375 C 7.851562 -23.59375 7.125 -23.382812 6.46875 -22.96875 C 5.820312 -22.5625 5.5 -21.941406 5.5 -21.109375 C 5.5 -20.640625 5.554688 -20.203125 5.671875 -19.796875 C 5.796875 -19.390625 5.945312 -19.023438 6.125 -18.703125 L 9.296875 -18.703125 L 9.296875 -15.390625 L 6.4375 -15.390625 L 6.4375 0 L 2.40625 0 Z M 2.40625 -15.390625 "/></g></g></g><g fill="#ff914d" fill-opacity="1"><g transform="translate(57.247052, 28.1292)"><g><path d="M 12.84375 2.046875 C 12.4375 1.378906 12.039062 0.675781 11.65625 -0.0625 C 11.28125 -0.800781 10.960938 -1.441406 10.703125 -1.984375 C 10.179688 -1.921875 9.585938 -1.890625 8.921875 -1.890625 C 7.984375 -1.890625 7.050781 -1.992188 6.125 -2.203125 C 5.207031 -2.421875 4.367188 -2.765625 3.609375 -3.234375 C 2.847656 -3.703125 2.238281 -4.332031 1.78125 -5.125 C 1.332031 -5.914062 1.109375 -6.90625 1.109375 -8.09375 C 1.109375 -8.96875 1.273438 -9.726562 1.609375 -10.375 C 1.941406 -11.03125 2.390625 -11.582031 2.953125 -12.03125 C 3.585938 -12.53125 4.347656 -12.914062 5.234375 -13.1875 C 6.128906 -13.457031 7.117188 -13.617188 8.203125 -13.671875 L 8.203125 -15.390625 L 0 -15.390625 L 0 -18.703125 L 17.203125 -18.703125 L 17.203125 -15.390625 L 12.234375 -15.390625 L 12.234375 -10.375 L 10.703125 -10.375 C 9.535156 -10.375 8.628906 -10.320312 7.984375 -10.21875 C 7.347656 -10.125 6.8125 -9.960938 6.375 -9.734375 C 5.53125 -9.335938 5.109375 -8.695312 5.109375 -7.8125 C 5.109375 -7.050781 5.414062 -6.425781 6.03125 -5.9375 C 6.65625 -5.445312 7.734375 -5.203125 9.265625 -5.203125 C 9.316406 -5.203125 9.390625 -5.203125 9.484375 -5.203125 C 9.578125 -5.203125 9.679688 -5.210938 9.796875 -5.234375 C 9.753906 -5.453125 9.734375 -5.660156 9.734375 -5.859375 C 9.734375 -6.597656 10.003906 -7.128906 10.546875 -7.453125 C 11.085938 -7.773438 11.671875 -7.9375 12.296875 -7.9375 C 13.359375 -7.9375 14.171875 -7.648438 14.734375 -7.078125 C 15.296875 -6.503906 15.578125 -5.835938 15.578125 -5.078125 C 15.578125 -4.378906 15.421875 -3.847656 15.109375 -3.484375 C 14.796875 -3.128906 14.410156 -2.835938 13.953125 -2.609375 C 14.535156 -1.628906 15.253906 -0.5625 16.109375 0.59375 Z M 12.84375 2.046875 "/></g></g></g><g fill="#ff914d" fill-opacity="1"><g transform="translate(74.020283, 28.1292)"><g><path d="M 4.09375 -4.484375 C 3.289062 -4.484375 2.585938 -4.691406 1.984375 -5.109375 C 1.378906 -5.523438 1.078125 -6.164062 1.078125 -7.03125 C 1.078125 -7.738281 1.296875 -8.304688 1.734375 -8.734375 C 2.179688 -9.160156 2.804688 -9.375 3.609375 -9.375 C 4.023438 -9.375 4.472656 -9.296875 4.953125 -9.140625 C 5.441406 -8.984375 5.9375 -8.722656 6.4375 -8.359375 C 7.257812 -8.734375 7.925781 -9.300781 8.4375 -10.0625 C 8.945312 -10.832031 9.203125 -11.773438 9.203125 -12.890625 C 9.203125 -13.953125 8.96875 -14.742188 8.5 -15.265625 C 8.039062 -15.785156 7.460938 -16.046875 6.765625 -16.046875 C 6.359375 -16.046875 6.035156 -15.953125 5.796875 -15.765625 C 5.554688 -15.578125 5.4375 -15.300781 5.4375 -14.9375 C 5.4375 -14.5625 5.628906 -14.210938 6.015625 -13.890625 C 6.410156 -13.566406 7.203125 -13.335938 8.390625 -13.203125 L 7.546875 -10.484375 C 5.523438 -10.671875 4.035156 -11.179688 3.078125 -12.015625 C 2.128906 -12.859375 1.65625 -13.863281 1.65625 -15.03125 C 1.65625 -16.175781 2.078125 -17.125 2.921875 -17.875 C 3.773438 -18.625 5.015625 -19 6.640625 -19 C 7.785156 -19 8.859375 -18.773438 9.859375 -18.328125 C 10.859375 -17.890625 11.664062 -17.207031 12.28125 -16.28125 C 12.894531 -15.363281 13.203125 -14.195312 13.203125 -12.78125 C 13.203125 -11.351562 12.867188 -10.035156 12.203125 -8.828125 C 11.546875 -7.628906 10.625 -6.660156 9.4375 -5.921875 C 10.125 -5.296875 10.785156 -4.625 11.421875 -3.90625 C 12.066406 -3.1875 12.660156 -2.484375 13.203125 -1.796875 L 10.21875 0.234375 C 9.414062 -0.804688 8.664062 -1.726562 7.96875 -2.53125 C 7.269531 -3.332031 6.617188 -4.03125 6.015625 -4.625 C 5.390625 -4.53125 4.75 -4.484375 4.09375 -4.484375 Z M 20.140625 -15.390625 L 20.140625 0 L 16.109375 0 L 16.109375 -15.390625 L 13.859375 -15.390625 L 13.859375 -18.703125 L 22.96875 -18.703125 L 22.96875 -15.390625 Z M 20.140625 -15.390625 "/></g></g></g><g fill="#ff914d" fill-opacity="1"><g transform="translate(96.564948, 28.1292)"><g><path d="M 6.4375 -15.390625 L 6.4375 0 L 2.40625 0 L 2.40625 -15.390625 L 0 -15.390625 L 0 -18.703125 L 9.296875 -18.703125 L 9.296875 -15.390625 Z M 6.4375 -15.390625 "/></g></g></g></g></g></g><g clip-path="url(#3ac1c8c9f4)"><g transform="matrix(1, 0, 0, 1, 26, 30)"><g clip-path="url(#c783a33d18)"><g fill="#000000" fill-opacity="1"><g transform="translate(1.435363, 10.69929)"><g><path d="M 4.5625 0.71875 C 4.414062 0.488281 4.273438 0.242188 4.140625 -0.015625 C 4.003906 -0.285156 3.890625 -0.515625 3.796875 -0.703125 C 3.609375 -0.679688 3.398438 -0.671875 3.171875 -0.671875 C 2.835938 -0.671875 2.503906 -0.707031 2.171875 -0.78125 C 1.847656 -0.851562 1.550781 -0.972656 1.28125 -1.140625 C 1.007812 -1.304688 0.789062 -1.53125 0.625 -1.8125 C 0.46875 -2.09375 0.390625 -2.445312 0.390625 -2.875 C 0.390625 -3.1875 0.445312 -3.457031 0.5625 -3.6875 C 0.6875 -3.914062 0.847656 -4.109375 1.046875 -4.265625 C 1.273438 -4.441406 1.546875 -4.578125 1.859375 -4.671875 C 2.179688 -4.773438 2.53125 -4.835938 2.90625 -4.859375 L 2.90625 -5.46875 L 0 -5.46875 L 0 -6.640625 L 6.109375 -6.640625 L 6.109375 -5.46875 L 4.34375 -5.46875 L 4.34375 -3.6875 L 3.796875 -3.6875 C 3.390625 -3.6875 3.070312 -3.664062 2.84375 -3.625 C 2.613281 -3.59375 2.421875 -3.535156 2.265625 -3.453125 C 1.960938 -3.316406 1.8125 -3.09375 1.8125 -2.78125 C 1.8125 -2.507812 1.921875 -2.285156 2.140625 -2.109375 C 2.359375 -1.929688 2.738281 -1.84375 3.28125 -1.84375 C 3.300781 -1.84375 3.328125 -1.84375 3.359375 -1.84375 C 3.398438 -1.84375 3.441406 -1.847656 3.484375 -1.859375 C 3.460938 -1.929688 3.453125 -2.003906 3.453125 -2.078125 C 3.453125 -2.335938 3.546875 -2.523438 3.734375 -2.640625 C 3.929688 -2.753906 4.140625 -2.8125 4.359375 -2.8125 C 4.742188 -2.8125 5.035156 -2.707031 5.234375 -2.5 C 5.429688 -2.300781 5.53125 -2.066406 5.53125 -1.796875 C 5.53125 -1.554688 5.472656 -1.367188 5.359375 -1.234375 C 5.253906 -1.109375 5.117188 -1.003906 4.953125 -0.921875 C 5.160156 -0.578125 5.414062 -0.195312 5.71875 0.21875 Z M 4.5625 0.71875 "/></g></g></g><g fill="#000000" fill-opacity="1"><g transform="translate(6.63288, 10.69929)"><g><path d="M -2.203125 -6.5625 C -2.328125 -6.976562 -2.445312 -7.320312 -2.5625 -7.59375 C -2.6875 -7.863281 -2.820312 -8.054688 -2.96875 -8.171875 C -3.125 -8.296875 -3.320312 -8.359375 -3.5625 -8.359375 C -3.707031 -8.359375 -3.835938 -8.34375 -3.953125 -8.3125 C -4.078125 -8.289062 -4.191406 -8.265625 -4.296875 -8.234375 L -4.671875 -9.34375 C -4.503906 -9.414062 -4.328125 -9.46875 -4.140625 -9.5 C -3.960938 -9.539062 -3.765625 -9.5625 -3.546875 -9.5625 C -3.265625 -9.5625 -3.003906 -9.523438 -2.765625 -9.453125 C -2.523438 -9.378906 -2.296875 -9.238281 -2.078125 -9.03125 C -1.867188 -8.820312 -1.671875 -8.519531 -1.484375 -8.125 C -1.296875 -7.726562 -1.113281 -7.207031 -0.9375 -6.5625 Z M -2.203125 -6.5625 "/></g></g></g><g fill="#000000" fill-opacity="1"><g transform="translate(7.39064, 10.69929)"><g><path d="M 1.453125 -1.59375 C 1.171875 -1.59375 0.921875 -1.664062 0.703125 -1.8125 C 0.492188 -1.957031 0.390625 -2.1875 0.390625 -2.5 C 0.390625 -2.75 0.46875 -2.945312 0.625 -3.09375 C 0.78125 -3.25 1 -3.328125 1.28125 -3.328125 C 1.425781 -3.328125 1.582031 -3.296875 1.75 -3.234375 C 1.925781 -3.179688 2.101562 -3.09375 2.28125 -2.96875 C 2.570312 -3.101562 2.804688 -3.304688 2.984375 -3.578125 C 3.171875 -3.847656 3.265625 -4.179688 3.265625 -4.578125 C 3.265625 -4.953125 3.179688 -5.234375 3.015625 -5.421875 C 2.859375 -5.609375 2.65625 -5.703125 2.40625 -5.703125 C 2.257812 -5.703125 2.144531 -5.664062 2.0625 -5.59375 C 1.976562 -5.53125 1.9375 -5.429688 1.9375 -5.296875 C 1.9375 -5.160156 2.003906 -5.035156 2.140625 -4.921875 C 2.273438 -4.816406 2.554688 -4.738281 2.984375 -4.6875 L 2.671875 -3.71875 C 1.953125 -3.789062 1.425781 -3.972656 1.09375 -4.265625 C 0.757812 -4.566406 0.59375 -4.921875 0.59375 -5.328125 C 0.59375 -5.734375 0.742188 -6.070312 1.046875 -6.34375 C 1.347656 -6.613281 1.785156 -6.75 2.359375 -6.75 C 2.765625 -6.75 3.144531 -6.671875 3.5 -6.515625 C 3.851562 -6.359375 4.140625 -6.113281 4.359375 -5.78125 C 4.578125 -5.457031 4.6875 -5.039062 4.6875 -4.53125 C 4.6875 -4.03125 4.566406 -3.566406 4.328125 -3.140625 C 4.097656 -2.710938 3.769531 -2.367188 3.34375 -2.109375 C 3.59375 -1.878906 3.828125 -1.632812 4.046875 -1.375 C 4.273438 -1.125 4.488281 -0.878906 4.6875 -0.640625 L 3.625 0.078125 C 3.34375 -0.285156 3.078125 -0.609375 2.828125 -0.890625 C 2.578125 -1.179688 2.347656 -1.429688 2.140625 -1.640625 C 1.910156 -1.609375 1.679688 -1.59375 1.453125 -1.59375 Z M 7.15625 -5.46875 L 7.15625 0 L 5.71875 0 L 5.71875 -5.46875 L 4.921875 -5.46875 L 4.921875 -6.640625 L 8.15625 -6.640625 L 8.15625 -5.46875 Z M 7.15625 -5.46875 "/></g></g></g><g fill="#000000" fill-opacity="1"><g transform="translate(15.395043, 10.69929)"><g/></g></g><g fill="#000000" fill-opacity="1"><g transform="translate(18.360208, 10.69929)"><g><path d="M 8.9375 -5.46875 L 5.5 -5.46875 L 5.5 -3.984375 C 5.84375 -4.179688 6.234375 -4.28125 6.671875 -4.28125 C 7.171875 -4.28125 7.582031 -4.125 7.90625 -3.8125 C 8.238281 -3.5 8.40625 -3.066406 8.40625 -2.515625 C 8.40625 -2.191406 8.34375 -1.835938 8.21875 -1.453125 C 8.101562 -1.066406 7.914062 -0.675781 7.65625 -0.28125 L 6.40625 -0.984375 C 6.5625 -1.203125 6.691406 -1.425781 6.796875 -1.65625 C 6.910156 -1.894531 6.96875 -2.140625 6.96875 -2.390625 C 6.96875 -2.648438 6.910156 -2.832031 6.796875 -2.9375 C 6.691406 -3.050781 6.550781 -3.109375 6.375 -3.109375 C 6.207031 -3.109375 6.046875 -3.054688 5.890625 -2.953125 C 5.742188 -2.859375 5.613281 -2.753906 5.5 -2.640625 L 5.5 0 L 4.0625 0 L 4.0625 -1.359375 C 3.832031 -1.222656 3.597656 -1.117188 3.359375 -1.046875 C 3.117188 -0.972656 2.84375 -0.9375 2.53125 -0.9375 C 2.132812 -0.9375 1.773438 -1.003906 1.453125 -1.140625 C 1.128906 -1.285156 0.867188 -1.503906 0.671875 -1.796875 C 0.484375 -2.085938 0.390625 -2.445312 0.390625 -2.875 C 0.390625 -3.257812 0.484375 -3.597656 0.671875 -3.890625 C 0.867188 -4.179688 1.140625 -4.40625 1.484375 -4.5625 C 1.828125 -4.726562 2.222656 -4.8125 2.671875 -4.8125 C 2.867188 -4.8125 3.066406 -4.800781 3.265625 -4.78125 C 3.472656 -4.769531 3.632812 -4.75 3.75 -4.71875 L 3.640625 -3.53125 C 3.410156 -3.59375 3.15625 -3.625 2.875 -3.625 C 2.539062 -3.625 2.28125 -3.554688 2.09375 -3.421875 C 1.914062 -3.285156 1.828125 -3.101562 1.828125 -2.875 C 1.828125 -2.582031 1.914062 -2.382812 2.09375 -2.28125 C 2.269531 -2.175781 2.460938 -2.125 2.671875 -2.125 C 2.960938 -2.125 3.222656 -2.191406 3.453125 -2.328125 C 3.691406 -2.460938 3.894531 -2.617188 4.0625 -2.796875 L 4.0625 -5.46875 L 0 -5.46875 L 0 -6.640625 L 8.9375 -6.640625 Z M 8.9375 -5.46875 "/></g></g></g><g fill="#000000" fill-opacity="1"><g transform="translate(27.143703, 10.69929)"><g><path d="M 0.859375 -5.46875 L 0 -5.46875 L 0 -6.640625 L 0.65625 -6.640625 C 0.1875 -7.203125 -0.289062 -7.628906 -0.78125 -7.921875 C -1.28125 -8.210938 -1.820312 -8.359375 -2.40625 -8.359375 C -2.8125 -8.359375 -3.117188 -8.28125 -3.328125 -8.125 C -3.546875 -7.96875 -3.65625 -7.75 -3.65625 -7.46875 C -3.65625 -7.289062 -3.628906 -7.125 -3.578125 -6.96875 C -3.523438 -6.820312 -3.460938 -6.6875 -3.390625 -6.5625 L -4.765625 -6.5625 C -4.878906 -6.769531 -4.960938 -6.96875 -5.015625 -7.15625 C -5.066406 -7.34375 -5.09375 -7.535156 -5.09375 -7.734375 C -5.09375 -8.285156 -4.878906 -8.726562 -4.453125 -9.0625 C -4.035156 -9.394531 -3.429688 -9.5625 -2.640625 -9.5625 C -1.878906 -9.5625 -1.203125 -9.425781 -0.609375 -9.15625 C -0.0234375 -8.894531 0.492188 -8.539062 0.953125 -8.09375 C 1.410156 -7.65625 1.832031 -7.171875 2.21875 -6.640625 L 3.296875 -6.640625 L 3.296875 -5.46875 L 2.28125 -5.46875 L 2.28125 0 L 0.859375 0 Z M 0.859375 -5.46875 "/></g></g></g><g fill="#000000" fill-opacity="1"><g transform="translate(30.281428, 10.69929)"><g/></g></g><g fill="#000000" fill-opacity="1"><g transform="translate(33.246594, 10.69929)"><g><path d="M 3.578125 -0.765625 C 3.773438 -0.816406 3.9375 -0.882812 4.0625 -0.96875 C 4.1875 -1.050781 4.25 -1.160156 4.25 -1.296875 C 4.25 -1.472656 4.164062 -1.601562 4 -1.6875 C 3.832031 -1.78125 3.5625 -1.828125 3.1875 -1.828125 C 2.769531 -1.828125 2.453125 -1.75 2.234375 -1.59375 C 2.015625 -1.445312 1.90625 -1.242188 1.90625 -0.984375 C 1.90625 -0.804688 1.945312 -0.632812 2.03125 -0.46875 C 2.113281 -0.300781 2.257812 -0.113281 2.46875 0.09375 C 2.6875 0.300781 3 0.554688 3.40625 0.859375 L 2.46875 1.796875 C 2.070312 1.460938 1.722656 1.144531 1.421875 0.84375 C 1.117188 0.550781 0.882812 0.253906 0.71875 -0.046875 C 0.5625 -0.359375 0.484375 -0.695312 0.484375 -1.0625 C 0.484375 -1.332031 0.535156 -1.570312 0.640625 -1.78125 C 0.742188 -2 0.878906 -2.1875 1.046875 -2.34375 C 0.921875 -2.488281 0.816406 -2.65625 0.734375 -2.84375 C 0.648438 -3.03125 0.609375 -3.25 0.609375 -3.5 C 0.609375 -3.726562 0.648438 -3.921875 0.734375 -4.078125 C 0.816406 -4.242188 0.925781 -4.375 1.0625 -4.46875 C 1.238281 -4.613281 1.445312 -4.710938 1.6875 -4.765625 C 1.9375 -4.828125 2.273438 -4.859375 2.703125 -4.859375 L 3.796875 -4.859375 L 3.796875 -5.46875 L 0 -5.46875 L 0 -6.640625 L 6.234375 -6.640625 L 6.234375 -5.46875 L 5.234375 -5.46875 L 5.234375 -3.6875 L 2.75 -3.6875 C 2.550781 -3.6875 2.410156 -3.675781 2.328125 -3.65625 C 2.253906 -3.644531 2.191406 -3.617188 2.140625 -3.578125 C 2.046875 -3.503906 2 -3.394531 2 -3.25 C 2 -3.132812 2.050781 -3.015625 2.15625 -2.890625 C 2.488281 -2.972656 2.847656 -3.015625 3.234375 -3.015625 C 3.804688 -3.015625 4.269531 -2.9375 4.625 -2.78125 C 4.988281 -2.625 5.25 -2.414062 5.40625 -2.15625 C 5.570312 -1.894531 5.65625 -1.625 5.65625 -1.34375 C 5.65625 -0.46875 5.09375 0.0976562 3.96875 0.359375 Z M 3.578125 -0.765625 "/></g></g></g><g fill="#000000" fill-opacity="1"><g transform="translate(39.329941, 10.69929)"><g><path d="M 4.453125 -0.765625 L 3.515625 0.1875 C 2.890625 -0.351562 2.328125 -0.859375 1.828125 -1.328125 C 1.335938 -1.804688 0.96875 -2.210938 0.71875 -2.546875 C 0.550781 -2.753906 0.441406 -2.929688 0.390625 -3.078125 C 0.347656 -3.234375 0.328125 -3.367188 0.328125 -3.484375 C 0.328125 -3.660156 0.390625 -3.835938 0.515625 -4.015625 C 0.640625 -4.203125 0.859375 -4.296875 1.171875 -4.296875 C 1.523438 -4.296875 1.828125 -4.164062 2.078125 -3.90625 C 2.453125 -4.15625 2.640625 -4.484375 2.640625 -4.890625 C 2.640625 -5.097656 2.617188 -5.289062 2.578125 -5.46875 L 0 -5.46875 L 0 -6.640625 L 4.828125 -6.640625 L 4.828125 -5.46875 L 3.984375 -5.46875 C 4.003906 -5.363281 4.023438 -5.242188 4.046875 -5.109375 C 4.066406 -4.984375 4.078125 -4.832031 4.078125 -4.65625 C 4.078125 -4.164062 3.925781 -3.75 3.625 -3.40625 C 3.332031 -3.070312 2.910156 -2.804688 2.359375 -2.609375 C 2.640625 -2.328125 2.957031 -2.019531 3.3125 -1.6875 C 3.675781 -1.363281 4.054688 -1.054688 4.453125 -0.765625 Z M 4.453125 -0.765625 "/></g></g></g><g fill="#000000" fill-opacity="1"><g transform="translate(44.004508, 10.69929)"><g/></g></g><g fill="#000000" fill-opacity="1"><g transform="translate(46.969673, 10.69929)"><g><path d="M 0.859375 -5.46875 L 0 -5.46875 L 0 -6.640625 L 0.796875 -6.640625 C 0.609375 -7.023438 0.515625 -7.394531 0.515625 -7.75 C 0.515625 -8.300781 0.71875 -8.738281 1.125 -9.0625 C 1.539062 -9.394531 2.128906 -9.5625 2.890625 -9.5625 C 3.597656 -9.5625 4.234375 -9.421875 4.796875 -9.140625 C 5.367188 -8.867188 5.875 -8.503906 6.3125 -8.046875 C 6.757812 -7.585938 7.148438 -7.09375 7.484375 -6.5625 L 5.96875 -6.5625 C 5.550781 -7.144531 5.101562 -7.59375 4.625 -7.90625 C 4.144531 -8.21875 3.628906 -8.375 3.078125 -8.375 C 2.785156 -8.375 2.523438 -8.300781 2.296875 -8.15625 C 2.066406 -8.007812 1.953125 -7.785156 1.953125 -7.484375 C 1.953125 -7.328125 1.972656 -7.175781 2.015625 -7.03125 C 2.054688 -6.882812 2.109375 -6.753906 2.171875 -6.640625 L 3.296875 -6.640625 L 3.296875 -5.46875 L 2.28125 -5.46875 L 2.28125 0 L 0.859375 0 Z M 0.859375 -5.46875 "/></g></g></g><g fill="#000000" fill-opacity="1"><g transform="translate(50.107398, 10.69929)"><g><path d="M 4.5625 0.71875 C 4.414062 0.488281 4.273438 0.242188 4.140625 -0.015625 C 4.003906 -0.285156 3.890625 -0.515625 3.796875 -0.703125 C 3.609375 -0.679688 3.398438 -0.671875 3.171875 -0.671875 C 2.835938 -0.671875 2.503906 -0.707031 2.171875 -0.78125 C 1.847656 -0.851562 1.550781 -0.972656 1.28125 -1.140625 C 1.007812 -1.304688 0.789062 -1.53125 0.625 -1.8125 C 0.46875 -2.09375 0.390625 -2.445312 0.390625 -2.875 C 0.390625 -3.1875 0.445312 -3.457031 0.5625 -3.6875 C 0.6875 -3.914062 0.847656 -4.109375 1.046875 -4.265625 C 1.273438 -4.441406 1.546875 -4.578125 1.859375 -4.671875 C 2.179688 -4.773438 2.53125 -4.835938 2.90625 -4.859375 L 2.90625 -5.46875 L 0 -5.46875 L 0 -6.640625 L 6.109375 -6.640625 L 6.109375 -5.46875 L 4.34375 -5.46875 L 4.34375 -3.6875 L 3.796875 -3.6875 C 3.390625 -3.6875 3.070312 -3.664062 2.84375 -3.625 C 2.613281 -3.59375 2.421875 -3.535156 2.265625 -3.453125 C 1.960938 -3.316406 1.8125 -3.09375 1.8125 -2.78125 C 1.8125 -2.507812 1.921875 -2.285156 2.140625 -2.109375 C 2.359375 -1.929688 2.738281 -1.84375 3.28125 -1.84375 C 3.300781 -1.84375 3.328125 -1.84375 3.359375 -1.84375 C 3.398438 -1.84375 3.441406 -1.847656 3.484375 -1.859375 C 3.460938 -1.929688 3.453125 -2.003906 3.453125 -2.078125 C 3.453125 -2.335938 3.546875 -2.523438 3.734375 -2.640625 C 3.929688 -2.753906 4.140625 -2.8125 4.359375 -2.8125 C 4.742188 -2.8125 5.035156 -2.707031 5.234375 -2.5 C 5.429688 -2.300781 5.53125 -2.066406 5.53125 -1.796875 C 5.53125 -1.554688 5.472656 -1.367188 5.359375 -1.234375 C 5.253906 -1.109375 5.117188 -1.003906 4.953125 -0.921875 C 5.160156 -0.578125 5.414062 -0.195312 5.71875 0.21875 Z M 4.5625 0.71875 "/></g></g></g><g fill="#000000" fill-opacity="1"><g transform="translate(56.062675, 10.69929)"><g><path d="M 1.453125 -1.59375 C 1.171875 -1.59375 0.921875 -1.664062 0.703125 -1.8125 C 0.492188 -1.957031 0.390625 -2.1875 0.390625 -2.5 C 0.390625 -2.75 0.46875 -2.945312 0.625 -3.09375 C 0.78125 -3.25 1 -3.328125 1.28125 -3.328125 C 1.425781 -3.328125 1.582031 -3.296875 1.75 -3.234375 C 1.925781 -3.179688 2.101562 -3.09375 2.28125 -2.96875 C 2.570312 -3.101562 2.804688 -3.304688 2.984375 -3.578125 C 3.171875 -3.847656 3.265625 -4.179688 3.265625 -4.578125 C 3.265625 -4.953125 3.179688 -5.234375 3.015625 -5.421875 C 2.859375 -5.609375 2.65625 -5.703125 2.40625 -5.703125 C 2.257812 -5.703125 2.144531 -5.664062 2.0625 -5.59375 C 1.976562 -5.53125 1.9375 -5.429688 1.9375 -5.296875 C 1.9375 -5.160156 2.003906 -5.035156 2.140625 -4.921875 C 2.273438 -4.816406 2.554688 -4.738281 2.984375 -4.6875 L 2.671875 -3.71875 C 1.953125 -3.789062 1.425781 -3.972656 1.09375 -4.265625 C 0.757812 -4.566406 0.59375 -4.921875 0.59375 -5.328125 C 0.59375 -5.734375 0.742188 -6.070312 1.046875 -6.34375 C 1.347656 -6.613281 1.785156 -6.75 2.359375 -6.75 C 2.765625 -6.75 3.144531 -6.671875 3.5 -6.515625 C 3.851562 -6.359375 4.140625 -6.113281 4.359375 -5.78125 C 4.578125 -5.457031 4.6875 -5.039062 4.6875 -4.53125 C 4.6875 -4.03125 4.566406 -3.566406 4.328125 -3.140625 C 4.097656 -2.710938 3.769531 -2.367188 3.34375 -2.109375 C 3.59375 -1.878906 3.828125 -1.632812 4.046875 -1.375 C 4.273438 -1.125 4.488281 -0.878906 4.6875 -0.640625 L 3.625 0.078125 C 3.34375 -0.285156 3.078125 -0.609375 2.828125 -0.890625 C 2.578125 -1.179688 2.347656 -1.429688 2.140625 -1.640625 C 1.910156 -1.609375 1.679688 -1.59375 1.453125 -1.59375 Z M 7.15625 -5.46875 L 7.15625 0 L 5.71875 0 L 5.71875 -5.46875 L 4.921875 -5.46875 L 4.921875 -6.640625 L 8.15625 -6.640625 L 8.15625 -5.46875 Z M 7.15625 -5.46875 "/></g></g></g><g fill="#000000" fill-opacity="1"><g transform="translate(64.067077, 10.69929)"><g><path d="M 2.28125 -5.46875 L 2.28125 0 L 0.859375 0 L 0.859375 -5.46875 L 0 -5.46875 L 0 -6.640625 L 3.296875 -6.640625 L 3.296875 -5.46875 Z M 2.28125 -5.46875 "/></g></g></g><g fill="#000000" fill-opacity="1"><g transform="translate(67.204802, 10.69929)"><g/></g></g><g fill="#000000" fill-opacity="1"><g transform="translate(70.169967, 10.69929)"><g><path d="M 8.9375 -5.46875 L 5.5 -5.46875 L 5.5 -3.984375 C 5.84375 -4.179688 6.234375 -4.28125 6.671875 -4.28125 C 7.171875 -4.28125 7.582031 -4.125 7.90625 -3.8125 C 8.238281 -3.5 8.40625 -3.066406 8.40625 -2.515625 C 8.40625 -2.191406 8.34375 -1.835938 8.21875 -1.453125 C 8.101562 -1.066406 7.914062 -0.675781 7.65625 -0.28125 L 6.40625 -0.984375 C 6.5625 -1.203125 6.691406 -1.425781 6.796875 -1.65625 C 6.910156 -1.894531 6.96875 -2.140625 6.96875 -2.390625 C 6.96875 -2.648438 6.910156 -2.832031 6.796875 -2.9375 C 6.691406 -3.050781 6.550781 -3.109375 6.375 -3.109375 C 6.207031 -3.109375 6.046875 -3.054688 5.890625 -2.953125 C 5.742188 -2.859375 5.613281 -2.753906 5.5 -2.640625 L 5.5 0 L 4.0625 0 L 4.0625 -1.359375 C 3.832031 -1.222656 3.597656 -1.117188 3.359375 -1.046875 C 3.117188 -0.972656 2.84375 -0.9375 2.53125 -0.9375 C 2.132812 -0.9375 1.773438 -1.003906 1.453125 -1.140625 C 1.128906 -1.285156 0.867188 -1.503906 0.671875 -1.796875 C 0.484375 -2.085938 0.390625 -2.445312 0.390625 -2.875 C 0.390625 -3.257812 0.484375 -3.597656 0.671875 -3.890625 C 0.867188 -4.179688 1.140625 -4.40625 1.484375 -4.5625 C 1.828125 -4.726562 2.222656 -4.8125 2.671875 -4.8125 C 2.867188 -4.8125 3.066406 -4.800781 3.265625 -4.78125 C 3.472656 -4.769531 3.632812 -4.75 3.75 -4.71875 L 3.640625 -3.53125 C 3.410156 -3.59375 3.15625 -3.625 2.875 -3.625 C 2.539062 -3.625 2.28125 -3.554688 2.09375 -3.421875 C 1.914062 -3.285156 1.828125 -3.101562 1.828125 -2.875 C 1.828125 -2.582031 1.914062 -2.382812 2.09375 -2.28125 C 2.269531 -2.175781 2.460938 -2.125 2.671875 -2.125 C 2.960938 -2.125 3.222656 -2.191406 3.453125 -2.328125 C 3.691406 -2.460938 3.894531 -2.617188 4.0625 -2.796875 L 4.0625 -5.46875 L 0 -5.46875 L 0 -6.640625 L 8.9375 -6.640625 Z M 8.9375 -5.46875 "/></g></g></g><g fill="#000000" fill-opacity="1"><g transform="translate(78.953463, 10.69929)"><g><path d="M 0.859375 -5.46875 L 0 -5.46875 L 0 -6.640625 L 0.65625 -6.640625 C 0.1875 -7.203125 -0.289062 -7.628906 -0.78125 -7.921875 C -1.28125 -8.210938 -1.820312 -8.359375 -2.40625 -8.359375 C -2.8125 -8.359375 -3.117188 -8.28125 -3.328125 -8.125 C -3.546875 -7.96875 -3.65625 -7.75 -3.65625 -7.46875 C -3.65625 -7.289062 -3.628906 -7.125 -3.578125 -6.96875 C -3.523438 -6.820312 -3.460938 -6.6875 -3.390625 -6.5625 L -4.765625 -6.5625 C -4.878906 -6.769531 -4.960938 -6.96875 -5.015625 -7.15625 C -5.066406 -7.34375 -5.09375 -7.535156 -5.09375 -7.734375 C -5.09375 -8.285156 -4.878906 -8.726562 -4.453125 -9.0625 C -4.035156 -9.394531 -3.429688 -9.5625 -2.640625 -9.5625 C -1.878906 -9.5625 -1.203125 -9.425781 -0.609375 -9.15625 C -0.0234375 -8.894531 0.492188 -8.539062 0.953125 -8.09375 C 1.410156 -7.65625 1.832031 -7.171875 2.21875 -6.640625 L 3.296875 -6.640625 L 3.296875 -5.46875 L 2.28125 -5.46875 L 2.28125 0 L 0.859375 0 Z M 0.859375 -5.46875 "/></g></g></g><g fill="#000000" fill-opacity="1"><g transform="translate(82.091187, 10.69929)"><g/></g></g><g fill="#000000" fill-opacity="1"><g transform="translate(85.056352, 10.69929)"><g><path d="M 8.703125 -5.46875 L 8.703125 0 L 7.28125 0 L 7.28125 -0.4375 C 6.695312 -0.15625 6.019531 -0.015625 5.25 -0.015625 C 4.675781 -0.015625 4.15625 -0.0976562 3.6875 -0.265625 C 3.21875 -0.429688 2.796875 -0.640625 2.421875 -0.890625 C 2.046875 -1.148438 1.71875 -1.421875 1.4375 -1.703125 C 1.15625 -1.984375 0.921875 -2.242188 0.734375 -2.484375 C 0.566406 -2.703125 0.457031 -2.894531 0.40625 -3.0625 C 0.351562 -3.226562 0.328125 -3.367188 0.328125 -3.484375 C 0.328125 -3.660156 0.390625 -3.835938 0.515625 -4.015625 C 0.640625 -4.203125 0.859375 -4.296875 1.171875 -4.296875 C 1.503906 -4.296875 1.785156 -4.1875 2.015625 -3.96875 C 2.097656 -4.101562 2.15625 -4.25 2.1875 -4.40625 C 2.21875 -4.5625 2.234375 -4.722656 2.234375 -4.890625 C 2.234375 -5.078125 2.207031 -5.269531 2.15625 -5.46875 L 0 -5.46875 L 0 -6.640625 L 9.71875 -6.640625 L 9.71875 -5.46875 Z M 6.09375 -2.875 C 6.332031 -2.875 6.546875 -2.910156 6.734375 -2.984375 C 6.929688 -3.066406 7.113281 -3.175781 7.28125 -3.3125 L 7.28125 -5.46875 L 3.5625 -5.46875 C 3.59375 -5.363281 3.613281 -5.242188 3.625 -5.109375 C 3.644531 -4.984375 3.65625 -4.832031 3.65625 -4.65625 C 3.65625 -4.125 3.523438 -3.695312 3.265625 -3.375 C 3.003906 -3.0625 2.675781 -2.804688 2.28125 -2.609375 C 2.507812 -2.367188 2.765625 -2.140625 3.046875 -1.921875 C 3.328125 -1.703125 3.648438 -1.523438 4.015625 -1.390625 C 4.378906 -1.265625 4.789062 -1.203125 5.25 -1.203125 C 5.726562 -1.203125 6.125 -1.25 6.4375 -1.34375 C 6.757812 -1.4375 7.039062 -1.546875 7.28125 -1.671875 L 7.28125 -2.140625 C 7.101562 -2.046875 6.898438 -1.96875 6.671875 -1.90625 C 6.453125 -1.84375 6.1875 -1.8125 5.875 -1.8125 C 5.332031 -1.8125 4.890625 -1.945312 4.546875 -2.21875 C 4.203125 -2.5 4.03125 -2.898438 4.03125 -3.421875 C 4.03125 -3.921875 4.203125 -4.316406 4.546875 -4.609375 C 4.898438 -4.910156 5.378906 -5.0625 5.984375 -5.0625 C 6.109375 -5.0625 6.265625 -5.054688 6.453125 -5.046875 C 6.648438 -5.035156 6.816406 -5.015625 6.953125 -4.984375 L 6.84375 -3.953125 C 6.757812 -3.972656 6.660156 -3.988281 6.546875 -4 C 6.429688 -4.007812 6.304688 -4.015625 6.171875 -4.015625 C 5.648438 -4.015625 5.390625 -3.828125 5.390625 -3.453125 C 5.390625 -3.242188 5.457031 -3.09375 5.59375 -3 C 5.726562 -2.914062 5.894531 -2.875 6.09375 -2.875 Z M 6.09375 -2.875 "/></g></g></g><g fill="#000000" fill-opacity="1"><g transform="translate(94.618941, 10.69929)"><g><path d="M 6.765625 -5.46875 L 5.765625 -5.46875 L 5.765625 0 L 4.328125 0 L 4.328125 -1.328125 C 4.078125 -1.191406 3.820312 -1.09375 3.5625 -1.03125 C 3.300781 -0.96875 2.972656 -0.9375 2.578125 -0.9375 C 2.179688 -0.9375 1.816406 -1.003906 1.484375 -1.140625 C 1.160156 -1.285156 0.894531 -1.503906 0.6875 -1.796875 C 0.488281 -2.085938 0.390625 -2.445312 0.390625 -2.875 C 0.390625 -3.257812 0.488281 -3.597656 0.6875 -3.890625 C 0.882812 -4.179688 1.148438 -4.40625 1.484375 -4.5625 C 1.828125 -4.726562 2.226562 -4.8125 2.6875 -4.8125 C 2.976562 -4.8125 3.238281 -4.800781 3.46875 -4.78125 C 3.707031 -4.769531 3.882812 -4.753906 4 -4.734375 L 3.890625 -3.578125 C 3.628906 -3.640625 3.335938 -3.671875 3.015625 -3.671875 C 2.972656 -3.671875 2.925781 -3.671875 2.875 -3.671875 L 3.875 -2.421875 C 3.957031 -2.484375 4.035156 -2.546875 4.109375 -2.609375 C 4.179688 -2.671875 4.253906 -2.738281 4.328125 -2.8125 L 4.328125 -5.46875 L 0 -5.46875 L 0 -6.640625 L 6.765625 -6.640625 Z M 1.78125 -2.875 C 1.78125 -2.5625 1.875 -2.347656 2.0625 -2.234375 C 2.25 -2.128906 2.484375 -2.078125 2.765625 -2.078125 C 2.898438 -2.078125 3.03125 -2.085938 3.15625 -2.109375 L 2.078125 -3.46875 C 1.878906 -3.332031 1.78125 -3.132812 1.78125 -2.875 Z M 1.78125 -2.875 "/></g></g></g><g clip-path="url(#c82ec7381a)"><g fill="#000000" fill-opacity="1"><g transform="translate(101.235906, 10.69929)"><g><path d="M 4.453125 -0.765625 L 3.515625 0.1875 C 2.890625 -0.351562 2.328125 -0.859375 1.828125 -1.328125 C 1.335938 -1.804688 0.96875 -2.210938 0.71875 -2.546875 C 0.550781 -2.753906 0.441406 -2.929688 0.390625 -3.078125 C 0.347656 -3.234375 0.328125 -3.367188 0.328125 -3.484375 C 0.328125 -3.660156 0.390625 -3.835938 0.515625 -4.015625 C 0.640625 -4.203125 0.859375 -4.296875 1.171875 -4.296875 C 1.523438 -4.296875 1.828125 -4.164062 2.078125 -3.90625 C 2.453125 -4.15625 2.640625 -4.484375 2.640625 -4.890625 C 2.640625 -5.097656 2.617188 -5.289062 2.578125 -5.46875 L 0 -5.46875 L 0 -6.640625 L 4.828125 -6.640625 L 4.828125 -5.46875 L 3.984375 -5.46875 C 4.003906 -5.363281 4.023438 -5.242188 4.046875 -5.109375 C 4.066406 -4.984375 4.078125 -4.832031 4.078125 -4.65625 C 4.078125 -4.164062 3.925781 -3.75 3.625 -3.40625 C 3.332031 -3.070312 2.910156 -2.804688 2.359375 -2.609375 C 2.640625 -2.328125 2.957031 -2.019531 3.3125 -1.6875 C 3.675781 -1.363281 4.054688 -1.054688 4.453125 -0.765625 Z M 4.453125 -0.765625 "/></g></g></g></g></g></g></g></g></g></svg>