<svg xmlns="http://www.w3.org/2000/svg" xmlns:xlink="http://www.w3.org/1999/xlink" width="210" zoomAndPan="magnify" viewBox="0 0 157.5 48.75" height="65" preserveAspectRatio="xMidYMid meet" version="1.0"><defs><g/><clipPath id="3b7d68a279"><path d="M 0.152344 0 L 156.847656 0 L 156.847656 48.5 L 0.152344 48.5 Z M 0.152344 0 " clip-rule="nonzero"/></clipPath><clipPath id="f47c542006"><path d="M 12 29 L 23 29 L 23 38.273438 L 12 38.273438 Z M 12 29 " clip-rule="nonzero"/></clipPath><clipPath id="2bd9e7d523"><path d="M 7 31 L 16 31 L 16 38.273438 L 7 38.273438 Z M 7 31 " clip-rule="nonzero"/></clipPath><clipPath id="5a9b2e6e3d"><path d="M 0.710938 3.539062 L 11 3.539062 L 11 14 L 0.710938 14 Z M 0.710938 3.539062 " clip-rule="nonzero"/></clipPath><clipPath id="88be749ea2"><path d="M 0.710938 5 L 10 5 L 10 14 L 0.710938 14 Z M 0.710938 5 " clip-rule="nonzero"/></clipPath><clipPath id="6dd978888c"><path d="M 0.710938 12 L 14 12 L 14 22 L 0.710938 22 Z M 0.710938 12 " clip-rule="nonzero"/></clipPath><clipPath id="d88ed2272a"><path d="M 0.710938 15 L 14 15 L 14 22 L 0.710938 22 Z M 0.710938 15 " clip-rule="nonzero"/></clipPath><clipPath id="eb945b3424"><path d="M 0.710938 12 L 14 12 L 14 19 L 0.710938 19 Z M 0.710938 12 " clip-rule="nonzero"/></clipPath><clipPath id="a14d02791f"><path d="M 14 31 L 22 31 L 22 38.273438 L 14 38.273438 Z M 14 31 " clip-rule="nonzero"/></clipPath><clipPath id="204bc17a41"><path d="M 13 31 L 23 31 L 23 38.273438 L 13 38.273438 Z M 13 31 " clip-rule="nonzero"/></clipPath><clipPath id="9a7558bf17"><path d="M 13 37 L 16 37 L 16 38.273438 L 13 38.273438 Z M 13 37 " clip-rule="nonzero"/></clipPath><clipPath id="c78a1c5101"><path d="M 13 37 L 15 37 L 15 38.273438 L 13 38.273438 Z M 13 37 " clip-rule="nonzero"/></clipPath><clipPath id="243ad56f17"><path d="M 14 32.136719 L 23.800781 32.136719 L 23.800781 38.273438 L 14 38.273438 Z M 14 32.136719 " clip-rule="nonzero"/></clipPath><clipPath id="555dd494ea"><path d="M 18.128906 32.417969 L 23.800781 32.417969 L 23.800781 38.273438 L 18.128906 38.273438 Z M 18.128906 32.417969 " clip-rule="nonzero"/></clipPath><clipPath id="ad9a456e59"><path d="M 0.710938 3.539062 L 10 3.539062 L 10 14 L 0.710938 14 Z M 0.710938 3.539062 " clip-rule="nonzero"/></clipPath><clipPath id="1ef53c78eb"><path d="M 0.710938 5 L 10 5 L 10 14 L 0.710938 14 Z M 0.710938 5 " clip-rule="nonzero"/></clipPath><clipPath id="ae621ebd11"><path d="M 0.710938 12 L 13 12 L 13 21 L 0.710938 21 Z M 0.710938 12 " clip-rule="nonzero"/></clipPath><clipPath id="9236840482"><path d="M 0.710938 14 L 13 14 L 13 21 L 0.710938 21 Z M 0.710938 14 " clip-rule="nonzero"/></clipPath><clipPath id="7db873fc06"><path d="M 0.710938 12 L 13 12 L 13 19 L 0.710938 19 Z M 0.710938 12 " clip-rule="nonzero"/></clipPath><clipPath id="217bfe94aa"><path d="M 13.367188 30.878906 L 23.996094 30.878906 L 23.996094 41.570312 L 13.367188 41.570312 Z M 13.367188 30.878906 " clip-rule="nonzero"/></clipPath><clipPath id="d07aa01ade"><path d="M 17.300781 31.152344 L 23.996094 31.152344 L 23.996094 37.898438 L 17.300781 37.898438 Z M 17.300781 31.152344 " clip-rule="nonzero"/></clipPath><clipPath id="58ed9463ea"><path d="M 27 28 L 153.878906 28 L 153.878906 43.082031 L 27 43.082031 Z M 27 28 " clip-rule="nonzero"/></clipPath><clipPath id="04886c9f31"><path d="M 0.0898438 4 L 8 4 L 8 13 L 0.0898438 13 Z M 0.0898438 4 " clip-rule="nonzero"/></clipPath><clipPath id="4c8b4a730f"><path d="M 0.0898438 0.28125 L 6 0.28125 L 6 5 L 0.0898438 5 Z M 0.0898438 0.28125 " clip-rule="nonzero"/></clipPath><clipPath id="af77b40502"><path d="M 25 0.28125 L 36 0.28125 L 36 13 L 25 13 Z M 25 0.28125 " clip-rule="nonzero"/></clipPath><clipPath id="4acf41e616"><path d="M 55 0.28125 L 65 0.28125 L 65 13 L 55 13 Z M 55 0.28125 " clip-rule="nonzero"/></clipPath><clipPath id="44bff45757"><path d="M 87 0.28125 L 98 0.28125 L 98 13 L 87 13 Z M 87 0.28125 " clip-rule="nonzero"/></clipPath><clipPath id="dffe685acc"><path d="M 120 4 L 126.878906 4 L 126.878906 13 L 120 13 Z M 120 4 " clip-rule="nonzero"/></clipPath><clipPath id="152ac14f2b"><rect x="0" width="127" y="0" height="16"/></clipPath><clipPath id="01cbdc7f6b"><rect x="0" width="154" y="0" height="44"/></clipPath></defs><g clip-path="url(#3b7d68a279)"><path fill="#ffffff" d="M 0.152344 0 L 156.847656 0 L 156.847656 48.5 L 0.152344 48.5 Z M 0.152344 0 " fill-opacity="1" fill-rule="nonzero"/></g><g transform="matrix(1, 0, 0, 1, 1, 3)"><g clip-path="url(#01cbdc7f6b)"><g clip-path="url(#f47c542006)"><path fill="#edae79" d="M 19.4375 31.523438 C 18.878906 31.019531 18.625 30.351562 18.414062 29.542969 C 18.601562 30.382812 18.472656 30.953125 17.972656 31.390625 C 17.40625 31.882812 15.964844 32.253906 14.804688 31.898438 C 15.25 32.769531 15.917969 35.019531 14.203125 35.710938 C 13.503906 35.992188 12.808594 35.996094 12.175781 35.863281 C 12.703125 35.980469 13.855469 36.546875 14.265625 36.976562 C 14.675781 37.410156 15.945312 39.152344 15.945312 39.152344 L 22.878906 35.070312 C 22.878906 35.070312 20 32.027344 19.4375 31.523438 " fill-opacity="1" fill-rule="nonzero"/></g><path fill="#ebaa72" d="M 13.855469 31.359375 C 12.601562 30.144531 12.605469 27.890625 13.253906 26.296875 C 12.5625 25.867188 11.449219 24.808594 11.097656 24.097656 C 10.996094 23.996094 10.898438 23.890625 10.800781 23.777344 C 10.660156 23.769531 8.796875 22.546875 8.65625 22.554688 C 7.441406 22.648438 7.945312 24.601562 7.542969 25.363281 C 7.015625 26.363281 6.847656 31.175781 7.335938 32.496094 C 7.820312 33.8125 9.066406 34.386719 9.734375 34.773438 C 10.40625 35.160156 12.296875 36.480469 14.203125 35.710938 C 15.917969 35.019531 15.25 32.769531 14.804688 31.898438 C 14.453125 31.792969 14.125 31.617188 13.855469 31.359375 " fill-opacity="1" fill-rule="nonzero"/><path fill="#ebaa72" d="M 5.984375 24.234375 C 6.320312 24.386719 6.878906 24.886719 7.210938 25.113281 C 7.597656 25.363281 8.371094 25.546875 9.015625 25.789062 C 9.121094 25.503906 9.222656 25.09375 9.015625 24.886719 C 8.6875 24.820312 6.300781 24.28125 5.878906 24.199219 C 5.917969 24.207031 5.953125 24.21875 5.984375 24.234375 " fill-opacity="1" fill-rule="nonzero"/><g clip-path="url(#2bd9e7d523)"><path fill="#e3a46f" d="M 7.195312 31.925781 C 7.222656 32.039062 7.25 32.140625 7.285156 32.226562 C 7.785156 33.539062 9.035156 34.097656 9.707031 34.476562 C 10.136719 34.71875 11.058594 35.332031 12.160156 35.542969 C 12.691406 35.65625 13.847656 36.207031 14.265625 36.636719 C 14.679688 37.0625 15.964844 38.792969 15.964844 38.792969 L 15.945312 39.152344 C 15.945312 39.152344 14.675781 37.410156 14.265625 36.976562 C 13.855469 36.546875 12.703125 35.980469 12.175781 35.863281 C 11.074219 35.640625 10.160156 35.019531 9.734375 34.773438 C 9.066406 34.386719 7.820312 33.8125 7.335938 32.496094 C 7.277344 32.347656 7.234375 32.152344 7.195312 31.925781 " fill-opacity="1" fill-rule="nonzero"/></g><path fill="#ebaa72" d="M 6.644531 21.738281 C 6.234375 21.570312 5.410156 21.484375 5.175781 21.484375 C 5.375 21.511719 5.554688 21.601562 5.671875 21.746094 C 5.800781 21.898438 6.328125 22.808594 5.75 23.625 C 5.621094 23.804688 5.460938 23.933594 5.289062 24.023438 C 5.644531 24.050781 6.230469 24.078125 6.496094 24.121094 C 6.867188 23.460938 6.691406 22.984375 6.691406 22.984375 C 6.691406 22.984375 6.636719 21.992188 6.644531 21.738281 " fill-opacity="1" fill-rule="nonzero"/><path fill="#4d4d4d" d="M 10.464844 36.695312 L 11.371094 36.515625 C 12.046875 36.378906 12.496094 35.730469 12.382812 35.050781 L 8.269531 11.890625 L 3.761719 12.800781 L 8.96875 35.738281 C 9.128906 36.410156 9.789062 36.832031 10.464844 36.695312 " fill-opacity="1" fill-rule="nonzero"/><path fill="#333333" d="M 11.742188 34.875 L 7.71875 12.539062 L 8.046875 12.390625 L 12.070312 34.722656 C 12.179688 35.351562 11.828125 35.9375 11.273438 36.078125 C 11.628906 35.832031 11.824219 35.363281 11.742188 34.875 " fill-opacity="1" fill-rule="nonzero"/><path fill="#333333" d="M 4.066406 12.738281 L 9.210938 35.414062 C 9.367188 36.085938 10.03125 36.507812 10.707031 36.375 L 11.613281 36.191406 C 11.863281 36.140625 12.082031 36.019531 12.253906 35.855469 C 12.078125 36.183594 11.765625 36.4375 11.371094 36.515625 L 10.464844 36.695312 C 9.789062 36.832031 9.128906 36.410156 8.96875 35.738281 L 3.761719 12.800781 L 4.066406 12.738281 " fill-opacity="1" fill-rule="nonzero"/><g clip-path="url(#5a9b2e6e3d)"><path fill="#333333" d="M 4.875 13.785156 L 7.707031 13.214844 C 9.429688 12.867188 10.476562 11.117188 9.964844 9.441406 L 8.890625 5.894531 C 8.445312 4.429688 6.957031 3.542969 5.453125 3.84375 L 3.3125 4.277344 C 1.8125 4.578125 0.785156 5.972656 0.945312 7.496094 L 1.328125 11.179688 C 1.511719 12.921875 3.15625 14.128906 4.875 13.785156 " fill-opacity="1" fill-rule="nonzero"/></g><path fill="#545454" d="M 9.195312 9.820312 L 8.238281 6.675781 C 7.84375 5.375 6.523438 4.585938 5.1875 4.855469 L 3.289062 5.238281 C 2.59375 5.378906 2.011719 5.78125 1.636719 6.328125 C 1.96875 5.554688 2.664062 4.957031 3.542969 4.78125 L 5.441406 4.398438 C 6.777344 4.128906 8.097656 4.917969 8.492188 6.21875 L 9.449219 9.367188 C 9.691406 10.167969 9.53125 10.992188 9.09375 11.628906 C 9.332031 11.078125 9.382812 10.445312 9.195312 9.820312 " fill-opacity="1" fill-rule="nonzero"/><g clip-path="url(#88be749ea2)"><path fill="#1a1a1a" d="M 1.328125 11.179688 L 0.945312 7.496094 C 0.871094 6.792969 1.050781 6.121094 1.410156 5.566406 C 1.261719 5.976562 1.203125 6.425781 1.25 6.882812 L 1.632812 10.566406 C 1.816406 12.3125 3.460938 13.519531 5.183594 13.171875 L 8.015625 12.601562 C 8.832031 12.433594 9.5 11.949219 9.917969 11.308594 C 9.578125 12.246094 8.773438 13 7.707031 13.214844 L 4.875 13.785156 C 3.15625 14.128906 1.511719 12.921875 1.328125 11.179688 " fill-opacity="1" fill-rule="nonzero"/></g><g clip-path="url(#6dd978888c)"><path fill="#ff252f" d="M 1.910156 21.070312 L 13.1875 18.796875 L 11.988281 12.855469 L 0.710938 15.128906 L 1.910156 21.070312 " fill-opacity="1" fill-rule="nonzero"/></g><g clip-path="url(#d88ed2272a)"><path fill="#d00f15" d="M 1.09375 15.050781 L 2.199219 20.519531 L 13.09375 18.324219 L 13.1875 18.796875 L 1.910156 21.070312 L 0.710938 15.128906 L 1.09375 15.050781 " fill-opacity="1" fill-rule="nonzero"/></g><g clip-path="url(#eb945b3424)"><path fill="#ff5761" d="M 11.671875 13.332031 L 0.789062 15.527344 L 0.710938 15.128906 L 11.988281 12.855469 L 13.1875 18.796875 L 12.789062 18.875 L 11.671875 13.332031 " fill-opacity="1" fill-rule="nonzero"/></g><path fill="#ffffff" d="M 4.460938 18.902344 L 3.800781 19.035156 L 2.816406 17.824219 L 3.089844 19.175781 L 2.402344 19.316406 L 1.851562 16.574219 L 2.511719 16.441406 L 3.496094 17.644531 L 3.226562 16.300781 L 3.910156 16.160156 L 4.460938 18.902344 " fill-opacity="1" fill-rule="nonzero"/><path fill="#ffffff" d="M 6.769531 18.4375 L 4.863281 18.820312 L 4.3125 16.082031 L 6.183594 15.707031 L 6.320312 16.378906 L 5.128906 16.617188 L 5.199219 16.964844 L 6.25 16.753906 L 6.378906 17.398438 L 5.328125 17.609375 L 5.410156 18.011719 L 6.632812 17.765625 L 6.769531 18.4375 " fill-opacity="1" fill-rule="nonzero"/><path fill="#ffffff" d="M 9.394531 15.0625 L 9.324219 17.925781 L 8.632812 18.066406 L 8.023438 16.59375 L 8.03125 18.183594 L 7.339844 18.324219 L 6.171875 15.707031 L 6.894531 15.5625 L 7.472656 17.003906 L 7.476562 15.445312 L 8.089844 15.324219 L 8.6875 16.757812 L 8.660156 15.207031 L 9.394531 15.0625 " fill-opacity="1" fill-rule="nonzero"/><path fill="#ffffff" d="M 11.789062 16.527344 C 11.859375 16.878906 11.800781 17.109375 11.609375 17.355469 C 11.4375 17.570312 10.71875 17.839844 10.304688 17.628906 C 10.007812 17.476562 9.933594 17.308594 9.867188 17.203125 C 9.800781 17.042969 9.832031 17.132812 9.738281 16.792969 L 10.433594 16.65625 C 10.441406 16.695312 10.445312 16.726562 10.445312 16.753906 L 10.460938 16.820312 C 10.503906 16.910156 10.511719 16.9375 10.609375 16.996094 C 10.722656 17.070312 10.875 17.03125 10.992188 16.984375 C 11.125 16.910156 11.136719 16.84375 11.117188 16.757812 C 11.101562 16.675781 11.054688 16.625 10.980469 16.601562 C 10.617188 16.488281 10.390625 16.605469 9.980469 16.40625 C 9.894531 16.367188 9.820312 16.296875 9.761719 16.199219 C 9.648438 16.015625 9.464844 15.46875 9.746094 15.125 C 9.898438 14.964844 10.042969 14.898438 10.234375 14.820312 C 10.433594 14.773438 10.820312 14.660156 11.085938 14.84375 C 11.4375 15.085938 11.480469 15.402344 11.519531 15.550781 L 10.863281 15.683594 C 10.835938 15.5625 10.84375 15.558594 10.808594 15.511719 C 10.710938 15.425781 10.667969 15.390625 10.511719 15.421875 C 10.421875 15.441406 10.359375 15.476562 10.328125 15.527344 C 10.296875 15.570312 10.285156 15.613281 10.296875 15.664062 C 10.347656 15.929688 10.851562 15.71875 11.382812 15.9375 C 11.589844 16.015625 11.726562 16.210938 11.789062 16.527344 " fill-opacity="1" fill-rule="nonzero"/><path fill="#cccccc" d="M 12.875 27.738281 C 12.875 27.734375 12.875 27.734375 12.878906 27.734375 C 12.898438 27.582031 12.921875 27.433594 12.953125 27.289062 C 12.921875 27.4375 12.898438 27.585938 12.875 27.738281 M 13.253906 26.300781 C 13.253906 26.300781 13.253906 26.296875 13.253906 26.296875 C 13.253906 26.296875 13.253906 26.300781 13.253906 26.300781 M 11.097656 24.097656 C 11 23.996094 10.898438 23.890625 10.800781 23.777344 C 10.898438 23.890625 11 23.996094 11.097656 24.097656 M 10.800781 23.777344 C 10.789062 23.773438 10.765625 23.765625 10.734375 23.75 C 10.757812 23.761719 10.78125 23.769531 10.800781 23.777344 M 10.574219 23.667969 C 10.527344 23.640625 10.476562 23.609375 10.417969 23.574219 C 10.46875 23.601562 10.519531 23.632812 10.574219 23.667969 " fill-opacity="1" fill-rule="nonzero"/><path fill="#bc885b" d="M 12.878906 27.734375 C 12.910156 27.246094 13 26.769531 13.148438 26.332031 C 12.429688 25.945312 11.324219 24.914062 10.929688 24.222656 C 10.777344 24.089844 10.554688 23.746094 10.40625 23.570312 C 10.410156 23.570312 10.414062 23.574219 10.417969 23.574219 C 10.476562 23.609375 10.527344 23.640625 10.574219 23.667969 C 10.628906 23.699219 10.683594 23.730469 10.734375 23.75 C 10.765625 23.765625 10.789062 23.773438 10.800781 23.777344 C 10.898438 23.890625 11 23.996094 11.097656 24.097656 C 11.449219 24.808594 12.5625 25.867188 13.253906 26.296875 C 13.253906 26.296875 13.253906 26.300781 13.253906 26.300781 C 13.125 26.617188 13.023438 26.949219 12.953125 27.289062 C 12.921875 27.433594 12.898438 27.582031 12.878906 27.734375 " fill-opacity="1" fill-rule="nonzero"/><path fill="#fabb85" d="M 10.621094 19.5625 C 10.363281 19.636719 9.574219 20.253906 9.929688 21.75 C 10.285156 23.242188 10.675781 23.667969 11.097656 24.097656 C 11.449219 24.808594 12.5625 25.867188 13.253906 26.296875 C 12.605469 27.890625 12.601562 30.144531 13.855469 31.359375 C 15.007812 32.472656 17.234375 32.03125 17.972656 31.390625 C 18.730469 30.734375 18.632812 29.769531 17.898438 28.035156 C 17.476562 27.039062 16.675781 25.347656 16.519531 25.039062 C 16.359375 24.726562 15.917969 24.375 15.457031 24.152344 C 15 23.929688 14.0625 23.402344 13.640625 22.980469 C 13.324219 22.667969 13.0625 22.304688 12.527344 21.980469 C 12.308594 21.847656 11.613281 21.121094 11.550781 20.613281 C 11.488281 20.101562 11.542969 19.816406 11.328125 19.640625 C 11.113281 19.464844 10.777344 19.519531 10.621094 19.5625 " fill-opacity="1" fill-rule="nonzero"/><path fill="#facba3" d="M 17.714844 28.179688 C 17.292969 27.183594 16.492188 25.492188 16.332031 25.183594 C 16.171875 24.871094 15.730469 24.519531 15.273438 24.296875 C 14.816406 24.074219 13.878906 23.546875 13.453125 23.125 C 13.136719 22.8125 12.875 22.449219 12.34375 22.125 C 12.125 21.992188 11.425781 21.265625 11.367188 20.757812 C 11.304688 20.246094 11.355469 19.960938 11.140625 19.785156 C 10.925781 19.609375 10.59375 19.664062 10.4375 19.707031 C 10.402344 19.71875 10.359375 19.738281 10.308594 19.765625 C 10.429688 19.648438 10.546875 19.582031 10.621094 19.5625 C 10.777344 19.519531 11.113281 19.464844 11.328125 19.640625 C 11.542969 19.816406 11.488281 20.101562 11.550781 20.613281 C 11.613281 21.121094 12.308594 21.847656 12.527344 21.980469 C 13.0625 22.304688 13.324219 22.667969 13.640625 22.980469 C 14.0625 23.402344 15 23.929688 15.457031 24.152344 C 15.917969 24.375 16.359375 24.726562 16.519531 25.039062 C 16.675781 25.347656 17.476562 27.039062 17.898438 28.035156 C 18.632812 29.769531 18.730469 30.734375 17.972656 31.390625 C 17.925781 31.429688 17.871094 31.46875 17.816406 31.507812 C 18.539062 30.851562 18.4375 29.890625 17.714844 28.179688 " fill-opacity="1" fill-rule="nonzero"/><path fill="#fadabe" d="M 11.257812 20.015625 C 11.273438 20.242188 11.480469 20.753906 11.671875 21.007812 C 11.6875 21.027344 11.710938 21.011719 11.710938 20.992188 C 11.640625 20.601562 11.570312 20.070312 11.503906 19.824219 C 11.496094 19.796875 11.464844 19.789062 11.441406 19.804688 C 11.382812 19.839844 11.308594 19.910156 11.269531 19.964844 C 11.257812 19.980469 11.253906 20 11.257812 20.015625 " fill-opacity="1" fill-rule="nonzero"/><path fill="#cccccc" d="M 6.496094 24.839844 C 6.445312 24.769531 6.410156 24.6875 6.390625 24.601562 L 6.367188 24.472656 C 6.382812 24.484375 6.402344 24.496094 6.421875 24.511719 L 6.496094 24.839844 M 6.351562 24.296875 C 6.34375 24.296875 6.335938 24.296875 6.332031 24.292969 L 6.328125 24.28125 C 6.335938 24.289062 6.34375 24.292969 6.351562 24.296875 " fill-opacity="1" fill-rule="nonzero"/><path fill="#bc885b" d="M 6.421875 24.511719 C 6.402344 24.496094 6.382812 24.484375 6.367188 24.472656 L 6.332031 24.292969 C 6.335938 24.296875 6.34375 24.296875 6.351562 24.296875 C 6.359375 24.304688 6.367188 24.308594 6.375 24.3125 L 6.421875 24.511719 " fill-opacity="1" fill-rule="nonzero"/><path fill="#3e3e3e" d="M 8.109375 25.753906 C 7.941406 25.753906 7.78125 25.679688 7.675781 25.542969 L 7.476562 25.289062 L 7.425781 25.300781 C 7.382812 25.308594 7.339844 25.3125 7.296875 25.3125 C 7.164062 25.3125 7.035156 25.269531 6.921875 25.191406 L 6.882812 25.164062 L 6.753906 24.59375 C 6.964844 24.757812 7.175781 24.925781 7.332031 25.035156 C 7.667969 25.25 8.289062 25.414062 8.863281 25.613281 L 8.214844 25.742188 C 8.179688 25.75 8.144531 25.753906 8.109375 25.753906 " fill-opacity="1" fill-rule="nonzero"/><path fill="#292929" d="M 6.882812 25.164062 L 6.648438 24.996094 C 6.589844 24.953125 6.535156 24.902344 6.496094 24.839844 L 6.421875 24.511719 L 6.375 24.3125 C 6.496094 24.394531 6.625 24.492188 6.753906 24.59375 L 6.882812 25.164062 " fill-opacity="1" fill-rule="nonzero"/><path fill="#bc885b" d="M 8.4375 33.394531 C 8.285156 33.34375 8.152344 33.296875 8.058594 33.269531 C 8.019531 33.257812 7.960938 33.234375 7.886719 33.203125 C 7.839844 33.152344 7.796875 33.101562 7.757812 33.046875 C 7.835938 33.085938 7.898438 33.109375 7.9375 33.121094 C 8.050781 33.152344 8.214844 33.210938 8.410156 33.273438 L 8.4375 33.394531 " fill-opacity="1" fill-rule="nonzero"/><path fill="#b68359" d="M 7.886719 33.203125 C 7.8125 33.167969 7.726562 33.128906 7.625 33.078125 C 7.597656 33.035156 7.574219 32.996094 7.546875 32.949219 C 7.625 32.988281 7.695312 33.023438 7.757812 33.046875 C 7.796875 33.101562 7.839844 33.152344 7.886719 33.203125 " fill-opacity="1" fill-rule="nonzero"/><path fill="#3e3e3e" d="M 10.015625 33.730469 C 9.628906 33.730469 9.167969 33.617188 8.773438 33.5 L 8.746094 33.378906 C 9.117188 33.484375 9.535156 33.582031 9.894531 33.582031 C 10.050781 33.582031 10.195312 33.5625 10.320312 33.519531 C 10.515625 33.449219 10.65625 33.363281 10.761719 33.261719 C 10.925781 33.1875 11.03125 33.03125 11.105469 32.824219 C 11.160156 32.671875 11.144531 32.449219 11.027344 32.296875 C 11 32.1875 10.953125 32.082031 10.894531 31.988281 C 11.019531 32.105469 11.105469 32.273438 11.148438 32.445312 C 11.265625 32.597656 11.285156 32.820312 11.230469 32.972656 C 11.15625 33.179688 11.050781 33.339844 10.882812 33.410156 C 10.777344 33.515625 10.636719 33.597656 10.441406 33.667969 C 10.316406 33.710938 10.171875 33.730469 10.015625 33.730469 " fill-opacity="1" fill-rule="nonzero"/><path fill="#292929" d="M 8.773438 33.5 C 8.652344 33.464844 8.539062 33.425781 8.4375 33.394531 L 8.410156 33.273438 C 8.515625 33.308594 8.628906 33.34375 8.746094 33.378906 L 8.773438 33.5 " fill-opacity="1" fill-rule="nonzero"/><path fill="#3e3e3e" d="M 10.324219 31.492188 C 10.25 31.492188 10.179688 31.484375 10.109375 31.472656 C 10.058594 31.460938 9.992188 31.445312 9.925781 31.429688 C 9.707031 31.332031 9.476562 31.222656 9.257812 31.132812 C 9.558594 31.214844 9.824219 31.285156 9.988281 31.320312 C 10.054688 31.335938 10.128906 31.34375 10.203125 31.34375 C 10.507812 31.34375 10.824219 31.214844 11.035156 30.945312 L 11.078125 31.183594 C 10.871094 31.394531 10.59375 31.492188 10.324219 31.492188 M 11.347656 30.710938 L 11.273438 30.304688 C 11.3125 29.972656 11.253906 29.707031 11.132812 29.507812 L 11.128906 29.496094 C 11.351562 29.726562 11.46875 30.097656 11.375 30.59375 C 11.367188 30.632812 11.359375 30.671875 11.347656 30.710938 " fill-opacity="1" fill-rule="nonzero"/><path fill="#292929" d="M 11.078125 31.183594 L 11.035156 30.945312 C 11.136719 30.8125 11.214844 30.644531 11.253906 30.441406 C 11.261719 30.394531 11.269531 30.351562 11.273438 30.304688 L 11.347656 30.710938 C 11.292969 30.90625 11.195312 31.0625 11.078125 31.183594 M 11.132812 29.507812 C 11.125 29.5 11.121094 29.492188 11.117188 29.484375 C 11.121094 29.488281 11.125 29.492188 11.128906 29.496094 L 11.132812 29.507812 " fill-opacity="1" fill-rule="nonzero"/><path fill="#3e3e3e" d="M 9.519531 28.730469 C 9.390625 28.6875 9.261719 28.640625 9.136719 28.597656 L 9.125 28.597656 L 9.136719 28.597656 C 9.164062 28.601562 9.195312 28.605469 9.226562 28.605469 C 9.621094 28.605469 10.058594 28.199219 10.167969 27.699219 C 10.253906 27.304688 10.246094 26.800781 9.980469 26.40625 C 10.367188 26.8125 10.386719 27.402344 10.292969 27.847656 C 10.195312 28.277344 9.863281 28.636719 9.519531 28.730469 " fill-opacity="1" fill-rule="nonzero"/><path fill="#fabb85" d="M 10.582031 31.714844 C 10.316406 31.613281 9.746094 31.339844 9.257812 31.132812 C 9.136719 31.097656 9.007812 31.058594 8.875 31.023438 C 9.25 31.289062 9.277344 31.738281 9.039062 32.3125 C 8.742188 33.03125 8.191406 33.1875 7.9375 33.121094 C 8.386719 33.257812 9.660156 33.753906 10.320312 33.519531 C 10.742188 33.367188 10.90625 33.148438 11.023438 32.808594 C 11.140625 32.46875 10.976562 31.871094 10.582031 31.714844 " fill-opacity="1" fill-rule="nonzero"/><path fill="#fadabe" d="M 10 32.355469 C 9.914062 32.542969 9.789062 32.746094 9.8125 32.894531 C 9.839844 33.039062 10.238281 33.320312 10.578125 33.300781 C 10.855469 33.285156 11.007812 33.097656 11.105469 32.824219 C 11.175781 32.636719 11.132812 32.339844 10.925781 32.207031 C 10.722656 32.074219 10.378906 31.875 10.226562 31.945312 C 10.085938 32.011719 10.074219 32.183594 10 32.355469 " fill-opacity="1" fill-rule="nonzero"/><path fill="#fab478" d="M 7.425781 30.59375 C 7.398438 30.585938 7.375 30.582031 7.347656 30.574219 C 7.195312 30.527344 6.648438 30.265625 6.105469 29.960938 C 5.894531 30.03125 5.710938 30.203125 5.601562 30.449219 C 5.277344 31.152344 5.566406 31.914062 6.328125 32.316406 C 7.085938 32.722656 7.753906 33.070312 7.9375 33.121094 C 8.191406 33.1875 8.742188 33.03125 9.039062 32.3125 C 9.277344 31.734375 9.25 31.289062 8.875 31.023438 C 8.339844 30.863281 7.761719 30.6875 7.425781 30.59375 " fill-opacity="1" fill-rule="nonzero"/><path fill="#cf8b50" d="M 9.257812 31.132812 C 9.128906 31.097656 9.003906 31.058594 8.875 31.023438 C 8.964844 31.085938 9.03125 31.15625 9.082031 31.238281 C 9.277344 31.296875 9.472656 31.351562 9.664062 31.402344 C 9.808594 31.441406 9.953125 31.484375 10.097656 31.507812 C 9.839844 31.390625 9.535156 31.25 9.257812 31.132812 C 9.257812 31.132812 9.535156 31.25 9.257812 31.132812 " fill-opacity="1" fill-rule="nonzero"/><path fill="#cf8b50" d="M 7.871094 30.722656 C 7.722656 30.679688 7.574219 30.636719 7.425781 30.59375 C 7.316406 30.574219 7.214844 30.523438 7.117188 30.480469 C 7.011719 30.433594 6.90625 30.382812 6.804688 30.328125 C 6.566406 30.210938 6.335938 30.089844 6.105469 29.960938 C 6.058594 29.976562 6.011719 29.996094 5.96875 30.023438 C 6.269531 30.195312 6.574219 30.359375 6.882812 30.511719 C 6.996094 30.570312 7.113281 30.625 7.230469 30.675781 C 7.3125 30.714844 7.398438 30.75 7.492188 30.769531 C 7.855469 30.875 8.507812 31.074219 9.082031 31.238281 C 9.03125 31.15625 8.964844 31.085938 8.875 31.023438 C 8.53125 30.921875 8.171875 30.8125 7.871094 30.722656 C 7.855469 30.71875 8.171875 30.8125 7.871094 30.722656 " fill-opacity="1" fill-rule="nonzero"/><path fill="#fabb85" d="M 10.65625 29.125 C 10.410156 29.039062 9.742188 28.808594 9.136719 28.597656 C 8.925781 28.5625 8.617188 28.472656 8.300781 28.378906 C 8.707031 28.726562 8.664062 29.308594 8.558594 29.558594 C 8.320312 30.113281 7.953125 30.683594 7.425781 30.59375 C 8.046875 30.769531 9.484375 31.214844 9.988281 31.320312 C 10.488281 31.425781 11.117188 31.160156 11.253906 30.441406 C 11.390625 29.726562 11.085938 29.273438 10.65625 29.125 " fill-opacity="1" fill-rule="nonzero"/><path fill="#fadabe" d="M 9.652344 29.800781 C 9.496094 30.1875 9.382812 30.542969 9.671875 30.726562 C 9.917969 30.875 10.125 30.992188 10.285156 31.0625 C 10.34375 31.089844 10.414062 31.089844 10.476562 31.070312 C 10.769531 30.976562 10.984375 30.765625 11.089844 30.480469 C 11.164062 30.277344 11.136719 30.078125 11.074219 29.894531 C 11.042969 29.804688 10.980469 29.734375 10.898438 29.691406 C 10.546875 29.511719 10.296875 29.40625 10.066406 29.433594 C 9.8125 29.464844 9.71875 29.632812 9.652344 29.800781 " fill-opacity="1" fill-rule="nonzero"/><path fill="#fab478" d="M 7.433594 28.136719 C 6.546875 27.933594 6.117188 27.652344 5.664062 27.308594 C 5.5625 27.234375 5.46875 27.148438 5.378906 27.058594 C 5.105469 27.101562 4.835938 27.253906 4.671875 27.621094 C 4.414062 28.1875 4.527344 28.898438 5.144531 29.359375 C 5.757812 29.820312 7.09375 30.5 7.347656 30.574219 C 7.914062 30.742188 8.308594 30.140625 8.558594 29.558594 C 8.664062 29.308594 8.707031 28.726562 8.300781 28.378906 C 7.996094 28.289062 7.679688 28.195312 7.433594 28.136719 " fill-opacity="1" fill-rule="nonzero"/><path fill="#cf8b50" d="M 5.6875 27.523438 C 5.699219 27.53125 5.714844 27.542969 5.730469 27.550781 C 5.714844 27.542969 5.699219 27.53125 5.6875 27.523438 Z M 9.136719 28.597656 C 8.855469 28.550781 8.574219 28.46875 8.300781 28.378906 C 8.09375 28.316406 7.882812 28.253906 7.671875 28.199219 C 7.460938 28.140625 7.242188 28.09375 7.03125 28.03125 C 6.695312 27.929688 6.375 27.789062 6.078125 27.601562 C 5.9375 27.511719 5.800781 27.410156 5.664062 27.308594 C 5.5625 27.234375 5.46875 27.148438 5.378906 27.058594 C 5.320312 27.070312 5.261719 27.082031 5.207031 27.101562 C 5.316406 27.226562 5.441406 27.34375 5.582031 27.449219 C 5.855469 27.65625 6.136719 27.84375 6.449219 27.984375 C 6.851562 28.164062 7.277344 28.25 7.699219 28.367188 C 7.960938 28.441406 8.222656 28.523438 8.484375 28.597656 C 8.445312 28.53125 8.390625 28.464844 8.335938 28.410156 C 8.390625 28.464844 8.445312 28.53125 8.484375 28.597656 C 8.640625 28.644531 8.796875 28.6875 8.957031 28.71875 C 9.113281 28.753906 9.253906 28.753906 9.402344 28.691406 C 9.3125 28.660156 9.226562 28.628906 9.136719 28.597656 C 9.132812 28.597656 9.226562 28.628906 9.136719 28.597656 " fill-opacity="1" fill-rule="nonzero"/><path fill="#fabb85" d="M 9.554688 26.027344 C 8.882812 25.65625 7.71875 25.4375 7.210938 25.113281 C 7.539062 25.339844 7.050781 26.246094 6.839844 26.652344 C 6.609375 27.101562 6.222656 27.683594 5.769531 27.382812 C 5.734375 27.359375 5.699219 27.335938 5.664062 27.308594 C 6.117188 27.652344 6.546875 27.933594 7.433594 28.136719 C 7.933594 28.25 8.71875 28.53125 9.136719 28.597656 C 9.554688 28.667969 10.050781 28.238281 10.167969 27.699219 C 10.289062 27.160156 10.230469 26.402344 9.554688 26.027344 " fill-opacity="1" fill-rule="nonzero"/><path fill="#fab478" d="M 4.765625 24.726562 C 4.429688 25.253906 4.511719 25.925781 4.765625 26.285156 C 5.023438 26.644531 5.3125 27.082031 5.769531 27.382812 C 6.222656 27.683594 6.609375 27.101562 6.839844 26.652344 C 7.050781 26.246094 7.539062 25.339844 7.210938 25.113281 C 6.878906 24.886719 6.320312 24.386719 5.984375 24.234375 C 5.6875 24.097656 5.121094 24.171875 4.765625 24.726562 " fill-opacity="1" fill-rule="nonzero"/><path fill="#fadabe" d="M 8.046875 27.039062 C 7.910156 27.375 7.957031 27.738281 8.179688 27.894531 C 8.375 28.027344 8.855469 28.230469 9.1875 28.316406 C 9.273438 28.335938 9.363281 28.324219 9.433594 28.273438 C 9.726562 28.082031 9.820312 27.839844 9.898438 27.605469 C 9.976562 27.375 9.941406 27.027344 9.765625 26.785156 C 9.71875 26.722656 9.652344 26.675781 9.574219 26.648438 C 9.136719 26.5 8.761719 26.441406 8.511719 26.515625 C 8.269531 26.585938 8.148438 26.792969 8.046875 27.039062 " fill-opacity="1" fill-rule="nonzero"/><path fill="#fabb85" d="M 5.75 23.625 C 5.386719 24.136719 4.742188 24.246094 4.433594 24.097656 C 4.128906 23.945312 3.84375 23.210938 3.828125 22.996094 C 3.8125 22.777344 4.085938 21.953125 4.296875 21.789062 C 4.511719 21.621094 4.921875 21.464844 5.136719 21.480469 C 5.355469 21.5 5.546875 21.589844 5.671875 21.746094 C 5.800781 21.898438 6.328125 22.808594 5.75 23.625 " fill-opacity="1" fill-rule="nonzero"/><path fill="#fadabe" d="M 4.230469 22.648438 C 4.113281 22.859375 4.058594 23.113281 4.082031 23.273438 C 4.097656 23.386719 4.117188 23.507812 4.148438 23.625 C 4.160156 23.660156 4.210938 23.65625 4.214844 23.621094 C 4.292969 23.179688 4.476562 22.625 4.78125 22.382812 C 4.804688 22.363281 4.816406 22.328125 4.796875 22.300781 C 4.757812 22.253906 4.664062 22.234375 4.558594 22.300781 C 4.410156 22.394531 4.320312 22.480469 4.230469 22.648438 " fill-opacity="1" fill-rule="nonzero"/><g clip-path="url(#a14d02791f)"><path fill="#cf8b50" d="M 19.4375 31.523438 C 19.429688 31.511719 19.417969 31.503906 19.40625 31.492188 C 18.664062 32.050781 17.492188 33.109375 16.230469 34.382812 C 15.363281 35.257812 14.597656 36.089844 14.023438 36.765625 C 14.121094 36.839844 14.203125 36.910156 14.265625 36.976562 C 14.589844 37.316406 15.4375 38.460938 15.789062 38.941406 L 21.28125 33.394531 C 20.515625 32.597656 19.707031 31.765625 19.4375 31.523438 " fill-opacity="1" fill-rule="nonzero"/></g><g clip-path="url(#204bc17a41)"><path fill="#e6e6e6" d="M 20.332031 31.292969 C 20.136719 31.097656 18.363281 32.574219 16.367188 34.585938 C 14.375 36.601562 12.914062 38.386719 13.109375 38.582031 L 14.816406 40.265625 L 22.039062 32.976562 L 20.332031 31.292969 " fill-opacity="1" fill-rule="nonzero"/></g><path fill="#f2f2f2" d="M 21.875 33.144531 L 20.234375 31.527344 C 19.90625 31.664062 18.804688 32.535156 17.269531 34.023438 L 19.15625 35.886719 L 21.875 33.144531 " fill-opacity="1" fill-rule="nonzero"/><g clip-path="url(#9a7558bf17)"><path fill="#e6e6e6" d="M 14.921875 38.578125 C 14.921875 38.507812 14.867188 38.449219 14.796875 38.449219 C 14.726562 38.449219 14.667969 38.507812 14.667969 38.578125 C 14.667969 38.648438 14.726562 38.703125 14.796875 38.703125 C 14.867188 38.703125 14.921875 38.648438 14.921875 38.578125 Z M 14.210938 38.578125 C 14.210938 38.648438 14.269531 38.703125 14.339844 38.703125 C 14.410156 38.703125 14.464844 38.648438 14.464844 38.578125 C 14.464844 38.507812 14.410156 38.449219 14.339844 38.449219 C 14.269531 38.449219 14.210938 38.507812 14.210938 38.578125 Z M 14.921875 38.160156 C 14.921875 38.089844 14.867188 38.03125 14.796875 38.03125 C 14.726562 38.03125 14.667969 38.089844 14.667969 38.160156 C 14.667969 38.226562 14.726562 38.285156 14.796875 38.285156 C 14.867188 38.285156 14.921875 38.230469 14.921875 38.160156 Z M 14.210938 38.15625 C 14.210938 38.226562 14.269531 38.285156 14.339844 38.285156 C 14.410156 38.285156 14.46875 38.226562 14.46875 38.15625 C 14.46875 38.085938 14.410156 38.03125 14.339844 38.03125 C 14.269531 38.03125 14.210938 38.085938 14.210938 38.15625 Z M 13.78125 38.367188 C 13.78125 37.933594 14.132812 37.582031 14.570312 37.582031 C 15.003906 37.582031 15.355469 37.933594 15.355469 38.367188 C 15.355469 38.804688 15 39.152344 14.566406 39.152344 C 14.132812 39.152344 13.78125 38.800781 13.78125 38.367188 " fill-opacity="1" fill-rule="nonzero"/><path fill="#ffffff" d="M 14.894531 38.554688 C 14.894531 38.484375 14.839844 38.425781 14.769531 38.425781 C 14.699219 38.425781 14.640625 38.480469 14.640625 38.550781 C 14.640625 38.621094 14.699219 38.679688 14.769531 38.679688 C 14.839844 38.679688 14.894531 38.625 14.894531 38.554688 Z M 14.183594 38.550781 C 14.183594 38.621094 14.242188 38.679688 14.3125 38.679688 C 14.382812 38.679688 14.4375 38.621094 14.4375 38.550781 C 14.4375 38.480469 14.382812 38.425781 14.3125 38.425781 C 14.242188 38.425781 14.183594 38.480469 14.183594 38.550781 Z M 14.894531 38.132812 C 14.894531 38.0625 14.839844 38.007812 14.769531 38.007812 C 14.699219 38.007812 14.640625 38.0625 14.640625 38.132812 C 14.640625 38.203125 14.699219 38.261719 14.769531 38.261719 C 14.839844 38.261719 14.894531 38.203125 14.894531 38.132812 Z M 14.183594 38.132812 C 14.183594 38.203125 14.242188 38.257812 14.3125 38.257812 C 14.382812 38.261719 14.441406 38.203125 14.441406 38.132812 C 14.441406 38.0625 14.382812 38.003906 14.3125 38.003906 C 14.242188 38.003906 14.183594 38.0625 14.183594 38.132812 Z M 13.753906 38.339844 C 13.753906 37.90625 14.105469 37.554688 14.542969 37.558594 C 14.976562 37.558594 15.328125 37.910156 15.328125 38.34375 C 15.328125 38.777344 14.972656 39.128906 14.539062 39.128906 C 14.105469 39.128906 13.753906 38.773438 13.753906 38.339844 " fill-opacity="1" fill-rule="nonzero"/></g><g clip-path="url(#c78a1c5101)"><path fill="#e6e6e6" d="M 14.566406 37.773438 C 14.242188 37.773438 13.976562 38.039062 13.976562 38.363281 C 13.976562 38.554688 14.070312 38.722656 14.210938 38.832031 C 14.054688 38.722656 13.949219 38.546875 13.949219 38.339844 C 13.953125 38.015625 14.214844 37.753906 14.542969 37.753906 C 14.675781 37.753906 14.796875 37.800781 14.894531 37.875 C 14.800781 37.8125 14.6875 37.773438 14.566406 37.773438 " fill-opacity="1" fill-rule="nonzero"/></g><g clip-path="url(#243ad56f17)"><path fill="#262626" d="M 17.636719 35.800781 C 19.820312 33.59375 21.765625 31.980469 21.976562 32.191406 L 24.808594 34.992188 C 25.277344 35.453125 25.28125 36.207031 24.816406 36.671875 L 18.582031 42.964844 C 18.121094 43.433594 17.367188 43.4375 16.898438 42.972656 L 14.070312 40.171875 C 13.855469 39.960938 15.453125 38.003906 17.636719 35.800781 " fill-opacity="1" fill-rule="nonzero"/></g><g clip-path="url(#555dd494ea)"><path fill="#424242" d="M 21.875 32.421875 L 25.148438 35.65625 C 25.203125 36.015625 25.09375 36.394531 24.816406 36.671875 L 22.078125 39.4375 L 22.0625 39.453125 L 18.167969 35.597656 C 20.105469 33.679688 21.5 32.566406 21.875 32.421875 " fill-opacity="1" fill-rule="nonzero"/></g><path fill="#edae79" d="M 18.546875 30.292969 C 18.011719 29.8125 17.769531 29.175781 17.570312 28.402344 C 17.75 29.207031 17.628906 29.75 17.148438 30.167969 C 16.609375 30.636719 15.238281 30.992188 14.132812 30.65625 C 14.558594 31.484375 15.195312 33.640625 13.5625 34.300781 C 12.894531 34.570312 12.234375 34.570312 11.628906 34.445312 C 12.132812 34.554688 13.230469 35.097656 13.621094 35.507812 C 14.011719 35.921875 15.21875 37.589844 15.21875 37.589844 L 21.824219 33.6875 C 21.824219 33.6875 19.082031 30.773438 18.546875 30.292969 " fill-opacity="1" fill-rule="nonzero"/><path fill="#ebaa72" d="M 13.230469 30.136719 C 12.035156 28.976562 12.039062 26.824219 12.65625 25.296875 C 11.996094 24.886719 10.9375 23.875 10.605469 23.195312 C 10.507812 23.097656 10.414062 23 10.320312 22.886719 C 10.1875 22.878906 8.414062 21.710938 8.277344 21.722656 C 7.121094 21.8125 7.601562 23.675781 7.21875 24.40625 C 6.714844 25.359375 6.554688 29.964844 7.019531 31.222656 C 7.480469 32.484375 8.667969 33.03125 9.304688 33.402344 C 9.941406 33.769531 11.742188 35.035156 13.5625 34.300781 C 15.195312 33.640625 14.558594 31.484375 14.132812 30.65625 C 13.796875 30.550781 13.484375 30.386719 13.230469 30.136719 " fill-opacity="1" fill-rule="nonzero"/><path fill="#ebaa72" d="M 5.734375 23.324219 C 6.050781 23.472656 6.585938 23.949219 6.898438 24.167969 C 7.269531 24.402344 8.007812 24.582031 8.617188 24.8125 C 8.722656 24.539062 8.816406 24.148438 8.621094 23.949219 C 8.304688 23.886719 6.035156 23.371094 5.632812 23.292969 C 5.667969 23.300781 5.703125 23.3125 5.734375 23.324219 " fill-opacity="1" fill-rule="nonzero"/><path fill="#e3a46f" d="M 6.886719 30.679688 C 6.910156 30.789062 6.941406 30.882812 6.972656 30.964844 C 7.449219 32.21875 8.636719 32.757812 9.28125 33.121094 C 9.6875 33.351562 10.566406 33.933594 11.613281 34.140625 C 12.121094 34.246094 13.222656 34.773438 13.617188 35.183594 C 14.015625 35.59375 15.238281 37.246094 15.238281 37.246094 L 15.21875 37.589844 C 15.21875 37.589844 14.011719 35.921875 13.621094 35.507812 C 13.230469 35.097656 12.132812 34.554688 11.628906 34.445312 C 10.582031 34.230469 9.710938 33.636719 9.304688 33.402344 C 8.667969 33.03125 7.480469 32.484375 7.019531 31.222656 C 6.964844 31.082031 6.921875 30.898438 6.886719 30.679688 " fill-opacity="1" fill-rule="nonzero"/><path fill="#ebaa72" d="M 6.363281 20.9375 C 5.972656 20.777344 5.1875 20.695312 4.964844 20.699219 C 5.15625 20.722656 5.320312 20.808594 5.4375 20.945312 C 5.558594 21.089844 6.058594 21.960938 5.511719 22.742188 C 5.386719 22.914062 5.234375 23.039062 5.070312 23.121094 C 5.410156 23.152344 5.96875 23.175781 6.21875 23.214844 C 6.574219 22.585938 6.40625 22.128906 6.40625 22.128906 C 6.40625 22.128906 6.355469 21.183594 6.363281 20.9375 " fill-opacity="1" fill-rule="nonzero"/><path fill="#4d4d4d" d="M 10 35.242188 L 10.863281 35.066406 C 11.507812 34.9375 11.933594 34.316406 11.824219 33.667969 L 7.910156 11.523438 L 3.617188 12.394531 L 8.574219 34.328125 C 8.726562 34.96875 9.359375 35.371094 10 35.242188 " fill-opacity="1" fill-rule="nonzero"/><path fill="#333333" d="M 11.214844 33.5 L 7.382812 12.144531 L 7.699219 12 L 11.53125 33.355469 C 11.632812 33.953125 11.296875 34.515625 10.769531 34.648438 C 11.109375 34.414062 11.296875 33.96875 11.214844 33.5 " fill-opacity="1" fill-rule="nonzero"/><path fill="#333333" d="M 3.90625 12.335938 L 8.804688 34.015625 C 8.957031 34.65625 9.585938 35.0625 10.230469 34.933594 L 11.09375 34.757812 C 11.332031 34.707031 11.539062 34.59375 11.703125 34.433594 C 11.539062 34.75 11.238281 34.992188 10.863281 35.066406 L 10 35.242188 C 9.359375 35.371094 8.726562 34.96875 8.574219 34.328125 L 3.617188 12.394531 L 3.90625 12.335938 " fill-opacity="1" fill-rule="nonzero"/><g clip-path="url(#ad9a456e59)"><path fill="#333333" d="M 4.679688 13.335938 L 7.375 12.789062 C 9.011719 12.457031 10.011719 10.785156 9.527344 9.179688 L 8.5 5.792969 C 8.078125 4.390625 6.660156 3.542969 5.230469 3.832031 L 3.191406 4.242188 C 1.757812 4.535156 0.78125 5.867188 0.933594 7.324219 L 1.300781 10.84375 C 1.472656 12.511719 3.039062 13.664062 4.679688 13.335938 " fill-opacity="1" fill-rule="nonzero"/></g><path fill="#545454" d="M 8.789062 9.546875 L 7.878906 6.535156 C 7.503906 5.292969 6.246094 4.539062 4.976562 4.796875 L 3.164062 5.164062 C 2.503906 5.296875 1.949219 5.683594 1.589844 6.207031 C 1.90625 5.464844 2.570312 4.894531 3.40625 4.726562 L 5.214844 4.359375 C 6.488281 4.101562 7.746094 4.855469 8.121094 6.101562 L 9.03125 9.109375 C 9.265625 9.878906 9.113281 10.664062 8.695312 11.273438 C 8.917969 10.746094 8.972656 10.140625 8.789062 9.546875 " fill-opacity="1" fill-rule="nonzero"/><g clip-path="url(#1ef53c78eb)"><path fill="#1a1a1a" d="M 1.300781 10.84375 L 0.933594 7.324219 C 0.863281 6.652344 1.03125 6.007812 1.375 5.480469 C 1.234375 5.871094 1.179688 6.296875 1.222656 6.738281 L 1.589844 10.257812 C 1.765625 11.925781 3.332031 13.078125 4.96875 12.75 L 7.664062 12.203125 C 8.445312 12.042969 9.082031 11.582031 9.480469 10.96875 C 9.15625 11.863281 8.386719 12.582031 7.375 12.789062 L 4.679688 13.335938 C 3.039062 13.664062 1.472656 12.511719 1.300781 10.84375 " fill-opacity="1" fill-rule="nonzero"/></g><g clip-path="url(#ae621ebd11)"><path fill="#ff252f" d="M 1.851562 20.300781 L 12.59375 18.125 L 11.449219 12.445312 L 0.710938 14.621094 L 1.851562 20.300781 " fill-opacity="1" fill-rule="nonzero"/></g><g clip-path="url(#9236840482)"><path fill="#d00f15" d="M 1.074219 14.546875 L 2.125 19.777344 L 12.503906 17.675781 L 12.59375 18.125 L 1.851562 20.300781 L 0.710938 14.621094 L 1.074219 14.546875 " fill-opacity="1" fill-rule="nonzero"/></g><g clip-path="url(#7db873fc06)"><path fill="#ff5761" d="M 11.148438 12.902344 L 0.785156 15 L 0.710938 14.621094 L 11.449219 12.445312 L 12.59375 18.125 L 12.214844 18.203125 L 11.148438 12.902344 " fill-opacity="1" fill-rule="nonzero"/></g><path fill="#ffffff" d="M 4.285156 18.226562 L 3.65625 18.355469 L 2.714844 17.199219 L 2.976562 18.492188 L 2.324219 18.621094 L 1.796875 16.003906 L 2.425781 15.875 L 3.363281 17.023438 L 3.105469 15.738281 L 3.757812 15.609375 L 4.285156 18.226562 " fill-opacity="1" fill-rule="nonzero"/><path fill="#ffffff" d="M 6.480469 17.785156 L 4.664062 18.152344 L 4.140625 15.53125 L 5.925781 15.171875 L 6.054688 15.8125 L 4.917969 16.042969 L 4.984375 16.375 L 5.984375 16.175781 L 6.109375 16.789062 L 5.105469 16.992188 L 5.183594 17.378906 L 6.351562 17.140625 L 6.480469 17.785156 " fill-opacity="1" fill-rule="nonzero"/><path fill="#ffffff" d="M 8.980469 14.554688 L 8.914062 17.292969 L 8.253906 17.425781 L 7.675781 16.019531 L 7.683594 17.542969 L 7.023438 17.675781 L 5.910156 15.175781 L 6.597656 15.035156 L 7.148438 16.414062 L 7.152344 14.925781 L 7.738281 14.804688 L 8.308594 16.175781 L 8.28125 14.695312 L 8.980469 14.554688 " fill-opacity="1" fill-rule="nonzero"/><path fill="#ffffff" d="M 11.261719 15.957031 C 11.328125 16.292969 11.273438 16.511719 11.089844 16.75 C 10.929688 16.957031 10.242188 17.210938 9.847656 17.011719 C 9.566406 16.863281 9.492188 16.707031 9.433594 16.601562 C 9.367188 16.449219 9.394531 16.535156 9.308594 16.214844 L 9.96875 16.078125 C 9.976562 16.117188 9.980469 16.148438 9.980469 16.171875 L 9.996094 16.234375 C 10.039062 16.320312 10.042969 16.347656 10.136719 16.40625 C 10.246094 16.476562 10.390625 16.4375 10.5 16.394531 C 10.628906 16.320312 10.636719 16.261719 10.621094 16.175781 C 10.605469 16.101562 10.5625 16.050781 10.492188 16.027344 C 10.144531 15.917969 9.929688 16.035156 9.539062 15.84375 C 9.457031 15.804688 9.386719 15.738281 9.328125 15.644531 C 9.222656 15.46875 9.050781 14.945312 9.316406 14.617188 C 9.460938 14.464844 9.597656 14.398438 9.78125 14.324219 C 9.96875 14.28125 10.335938 14.171875 10.589844 14.347656 C 10.925781 14.578125 10.96875 14.878906 11.003906 15.023438 L 10.378906 15.148438 C 10.355469 15.035156 10.359375 15.03125 10.328125 14.988281 C 10.234375 14.902344 10.191406 14.871094 10.042969 14.902344 C 9.960938 14.917969 9.902344 14.953125 9.871094 15.003906 C 9.839844 15.039062 9.828125 15.082031 9.839844 15.132812 C 9.890625 15.386719 10.371094 15.183594 10.875 15.394531 C 11.070312 15.46875 11.199219 15.65625 11.261719 15.957031 " fill-opacity="1" fill-rule="nonzero"/><path fill="#cccccc" d="M 12.296875 26.675781 C 12.296875 26.671875 12.296875 26.671875 12.296875 26.671875 C 12.316406 26.527344 12.339844 26.382812 12.371094 26.246094 C 12.339844 26.386719 12.316406 26.53125 12.296875 26.675781 M 12.65625 25.300781 C 12.65625 25.300781 12.65625 25.296875 12.65625 25.296875 C 12.65625 25.296875 12.65625 25.300781 12.65625 25.300781 M 10.605469 23.195312 C 10.507812 23.097656 10.414062 23 10.320312 22.886719 C 10.414062 23 10.507812 23.097656 10.605469 23.195312 M 10.320312 22.886719 C 10.308594 22.886719 10.289062 22.878906 10.257812 22.863281 C 10.28125 22.875 10.300781 22.882812 10.320312 22.886719 M 10.105469 22.78125 C 10.0625 22.757812 10.011719 22.726562 9.957031 22.695312 C 10.003906 22.722656 10.054688 22.753906 10.105469 22.78125 " fill-opacity="1" fill-rule="nonzero"/><path fill="#bc885b" d="M 12.296875 26.671875 C 12.328125 26.203125 12.414062 25.75 12.554688 25.332031 C 11.871094 24.964844 10.816406 23.976562 10.441406 23.316406 C 10.296875 23.1875 10.085938 22.859375 9.945312 22.691406 C 9.949219 22.691406 9.953125 22.695312 9.957031 22.695312 C 10.011719 22.726562 10.0625 22.757812 10.105469 22.78125 C 10.15625 22.8125 10.210938 22.84375 10.257812 22.863281 C 10.289062 22.878906 10.308594 22.886719 10.320312 22.886719 C 10.414062 23 10.507812 23.097656 10.605469 23.195312 C 10.9375 23.875 11.996094 24.886719 12.65625 25.296875 C 12.65625 25.296875 12.65625 25.300781 12.65625 25.300781 C 12.53125 25.605469 12.4375 25.921875 12.371094 26.246094 C 12.339844 26.382812 12.316406 26.527344 12.296875 26.671875 " fill-opacity="1" fill-rule="nonzero"/><path fill="#fabb85" d="M 10.152344 18.859375 C 9.902344 18.929688 9.152344 19.519531 9.492188 20.949219 C 9.832031 22.378906 10.199219 22.785156 10.605469 23.195312 C 10.9375 23.875 11.996094 24.886719 12.65625 25.296875 C 12.039062 26.824219 12.035156 28.976562 13.230469 30.136719 C 14.328125 31.203125 16.445312 30.78125 17.148438 30.167969 C 17.871094 29.539062 17.78125 28.617188 17.082031 26.960938 C 16.679688 26.007812 15.917969 24.390625 15.765625 24.09375 C 15.613281 23.796875 15.191406 23.460938 14.757812 23.246094 C 14.320312 23.035156 13.429688 22.53125 13.023438 22.128906 C 12.722656 21.828125 12.472656 21.480469 11.964844 21.171875 C 11.757812 21.042969 11.09375 20.351562 11.035156 19.863281 C 10.976562 19.375 11.023438 19.101562 10.820312 18.933594 C 10.617188 18.765625 10.300781 18.816406 10.152344 18.859375 " fill-opacity="1" fill-rule="nonzero"/><path fill="#facba3" d="M 16.902344 27.097656 C 16.503906 26.144531 15.742188 24.53125 15.589844 24.230469 C 15.4375 23.933594 15.015625 23.601562 14.578125 23.386719 C 14.144531 23.171875 13.25 22.667969 12.847656 22.265625 C 12.546875 21.964844 12.296875 21.617188 11.789062 21.308594 C 11.578125 21.183594 10.917969 20.488281 10.859375 20 C 10.800781 19.511719 10.847656 19.242188 10.644531 19.070312 C 10.441406 18.902344 10.121094 18.957031 9.972656 18.996094 C 9.941406 19.007812 9.898438 19.023438 9.851562 19.054688 C 9.96875 18.941406 10.082031 18.878906 10.152344 18.859375 C 10.300781 18.816406 10.617188 18.765625 10.820312 18.933594 C 11.023438 19.101562 10.976562 19.375 11.035156 19.863281 C 11.09375 20.351562 11.757812 21.042969 11.964844 21.171875 C 12.472656 21.480469 12.722656 21.828125 13.023438 22.128906 C 13.429688 22.53125 14.320312 23.035156 14.757812 23.246094 C 15.191406 23.460938 15.613281 23.796875 15.765625 24.09375 C 15.917969 24.390625 16.679688 26.007812 17.082031 26.960938 C 17.78125 28.617188 17.871094 29.539062 17.148438 30.167969 C 17.105469 30.207031 17.054688 30.242188 17 30.28125 C 17.691406 29.652344 17.59375 28.734375 16.902344 27.097656 " fill-opacity="1" fill-rule="nonzero"/><path fill="#fadabe" d="M 10.753906 19.292969 C 10.773438 19.507812 10.96875 20 11.152344 20.242188 C 11.164062 20.257812 11.1875 20.246094 11.183594 20.226562 C 11.121094 19.851562 11.054688 19.34375 10.992188 19.109375 C 10.984375 19.085938 10.953125 19.074219 10.929688 19.089844 C 10.875 19.125 10.804688 19.191406 10.765625 19.246094 C 10.757812 19.257812 10.753906 19.277344 10.753906 19.292969 " fill-opacity="1" fill-rule="nonzero"/><path fill="#cccccc" d="M 6.21875 23.90625 C 6.171875 23.835938 6.136719 23.757812 6.121094 23.675781 L 6.097656 23.554688 C 6.113281 23.566406 6.132812 23.578125 6.148438 23.589844 L 6.21875 23.90625 M 6.085938 23.386719 C 6.078125 23.386719 6.070312 23.382812 6.0625 23.382812 L 6.058594 23.371094 C 6.070312 23.375 6.078125 23.382812 6.085938 23.386719 " fill-opacity="1" fill-rule="nonzero"/><path fill="#bc885b" d="M 6.148438 23.589844 C 6.132812 23.578125 6.113281 23.566406 6.097656 23.554688 L 6.0625 23.382812 C 6.070312 23.382812 6.078125 23.386719 6.085938 23.386719 C 6.089844 23.390625 6.097656 23.398438 6.105469 23.402344 L 6.148438 23.589844 " fill-opacity="1" fill-rule="nonzero"/><path fill="#3e3e3e" d="M 7.753906 24.777344 C 7.597656 24.777344 7.445312 24.707031 7.34375 24.578125 L 7.15625 24.332031 L 7.105469 24.34375 C 7.066406 24.351562 7.023438 24.355469 6.984375 24.355469 C 6.855469 24.355469 6.734375 24.316406 6.628906 24.242188 L 6.589844 24.214844 L 6.46875 23.671875 C 6.667969 23.828125 6.867188 23.988281 7.015625 24.089844 C 7.335938 24.296875 7.925781 24.457031 8.476562 24.644531 L 7.859375 24.769531 C 7.824219 24.777344 7.789062 24.777344 7.753906 24.777344 " fill-opacity="1" fill-rule="nonzero"/><path fill="#292929" d="M 6.589844 24.214844 L 6.367188 24.054688 C 6.308594 24.011719 6.257812 23.964844 6.21875 23.90625 L 6.148438 23.589844 L 6.105469 23.402344 C 6.21875 23.480469 6.34375 23.574219 6.46875 23.671875 L 6.589844 24.214844 " fill-opacity="1" fill-rule="nonzero"/><path fill="#bc885b" d="M 8.066406 32.082031 C 7.921875 32.035156 7.796875 31.992188 7.710938 31.964844 C 7.671875 31.953125 7.617188 31.933594 7.542969 31.898438 C 7.5 31.851562 7.460938 31.804688 7.421875 31.753906 C 7.496094 31.789062 7.554688 31.8125 7.59375 31.820312 C 7.699219 31.855469 7.859375 31.910156 8.042969 31.96875 L 8.066406 32.082031 " fill-opacity="1" fill-rule="nonzero"/><path fill="#b68359" d="M 7.542969 31.898438 C 7.476562 31.867188 7.390625 31.828125 7.296875 31.78125 C 7.269531 31.742188 7.246094 31.699219 7.222656 31.660156 C 7.296875 31.695312 7.363281 31.726562 7.421875 31.753906 C 7.460938 31.804688 7.5 31.851562 7.542969 31.898438 " fill-opacity="1" fill-rule="nonzero"/><path fill="#3e3e3e" d="M 9.570312 32.40625 C 9.203125 32.40625 8.765625 32.296875 8.390625 32.183594 L 8.363281 32.070312 C 8.71875 32.171875 9.117188 32.261719 9.457031 32.261719 C 9.605469 32.261719 9.746094 32.246094 9.863281 32.203125 C 10.046875 32.136719 10.179688 32.054688 10.28125 31.957031 C 10.441406 31.886719 10.539062 31.734375 10.613281 31.539062 C 10.664062 31.394531 10.648438 31.179688 10.535156 31.035156 C 10.507812 30.929688 10.464844 30.828125 10.410156 30.738281 C 10.527344 30.851562 10.609375 31.011719 10.652344 31.175781 C 10.761719 31.320312 10.78125 31.535156 10.726562 31.679688 C 10.65625 31.878906 10.558594 32.03125 10.398438 32.097656 C 10.296875 32.199219 10.164062 32.277344 9.980469 32.34375 C 9.859375 32.386719 9.722656 32.40625 9.570312 32.40625 " fill-opacity="1" fill-rule="nonzero"/><path fill="#292929" d="M 8.390625 32.183594 C 8.277344 32.148438 8.167969 32.113281 8.066406 32.082031 L 8.042969 31.96875 C 8.144531 32 8.25 32.035156 8.363281 32.070312 L 8.390625 32.183594 " fill-opacity="1" fill-rule="nonzero"/><path fill="#3e3e3e" d="M 9.867188 30.265625 C 9.796875 30.265625 9.726562 30.257812 9.660156 30.246094 C 9.613281 30.234375 9.550781 30.21875 9.484375 30.203125 C 9.28125 30.109375 9.058594 30.007812 8.851562 29.921875 C 9.136719 30 9.390625 30.070312 9.542969 30.101562 C 9.609375 30.117188 9.679688 30.121094 9.75 30.121094 C 10.039062 30.121094 10.339844 30 10.542969 29.742188 L 10.582031 29.96875 C 10.386719 30.171875 10.121094 30.265625 9.867188 30.265625 M 10.839844 29.515625 L 10.773438 29.128906 C 10.808594 28.8125 10.75 28.558594 10.636719 28.367188 L 10.632812 28.355469 C 10.847656 28.578125 10.957031 28.929688 10.867188 29.40625 C 10.859375 29.445312 10.851562 29.480469 10.839844 29.515625 " fill-opacity="1" fill-rule="nonzero"/><path fill="#292929" d="M 10.582031 29.96875 L 10.542969 29.742188 C 10.640625 29.617188 10.714844 29.457031 10.75 29.261719 C 10.761719 29.21875 10.765625 29.171875 10.773438 29.128906 L 10.839844 29.515625 C 10.789062 29.703125 10.695312 29.855469 10.582031 29.96875 M 10.636719 28.367188 C 10.628906 28.359375 10.625 28.351562 10.621094 28.347656 C 10.625 28.351562 10.628906 28.351562 10.632812 28.355469 L 10.636719 28.367188 " fill-opacity="1" fill-rule="nonzero"/><path fill="#3e3e3e" d="M 9.097656 27.625 C 8.976562 27.582031 8.855469 27.539062 8.734375 27.5 L 8.722656 27.496094 L 8.734375 27.5 C 8.761719 27.503906 8.792969 27.503906 8.820312 27.503906 C 9.199219 27.503906 9.613281 27.117188 9.71875 26.636719 C 9.800781 26.261719 9.792969 25.777344 9.539062 25.402344 C 9.90625 25.789062 9.925781 26.355469 9.835938 26.78125 C 9.746094 27.191406 9.425781 27.535156 9.097656 27.625 " fill-opacity="1" fill-rule="nonzero"/><path fill="#fabb85" d="M 10.113281 30.480469 C 9.859375 30.382812 9.316406 30.121094 8.851562 29.921875 C 8.734375 29.886719 8.613281 29.851562 8.488281 29.816406 C 8.84375 30.070312 8.871094 30.5 8.644531 31.046875 C 8.359375 31.738281 7.832031 31.886719 7.59375 31.820312 C 8.023438 31.953125 9.230469 32.429688 9.863281 32.203125 C 10.265625 32.058594 10.421875 31.847656 10.53125 31.523438 C 10.644531 31.199219 10.488281 30.625 10.113281 30.480469 " fill-opacity="1" fill-rule="nonzero"/><path fill="#fadabe" d="M 9.554688 31.089844 C 9.476562 31.269531 9.355469 31.464844 9.378906 31.605469 C 9.402344 31.742188 9.785156 32.011719 10.109375 31.996094 C 10.371094 31.980469 10.519531 31.796875 10.613281 31.539062 C 10.675781 31.359375 10.636719 31.074219 10.441406 30.945312 C 10.246094 30.820312 9.917969 30.632812 9.773438 30.699219 C 9.636719 30.761719 9.628906 30.925781 9.554688 31.089844 " fill-opacity="1" fill-rule="nonzero"/><path fill="#fab478" d="M 7.105469 29.40625 C 7.082031 29.398438 7.058594 29.394531 7.03125 29.386719 C 6.886719 29.34375 6.367188 29.089844 5.847656 28.800781 C 5.648438 28.867188 5.472656 29.035156 5.367188 29.269531 C 5.0625 29.941406 5.335938 30.667969 6.058594 31.054688 C 6.78125 31.441406 7.417969 31.773438 7.59375 31.820312 C 7.832031 31.886719 8.359375 31.738281 8.644531 31.046875 C 8.871094 30.5 8.84375 30.070312 8.488281 29.816406 C 7.976562 29.664062 7.425781 29.496094 7.105469 29.40625 " fill-opacity="1" fill-rule="nonzero"/><path fill="#cf8b50" d="M 8.851562 29.921875 C 8.730469 29.890625 8.609375 29.851562 8.488281 29.816406 C 8.570312 29.875 8.636719 29.945312 8.683594 30.023438 C 8.867188 30.078125 9.054688 30.128906 9.238281 30.179688 C 9.375 30.214844 9.511719 30.257812 9.652344 30.277344 C 9.402344 30.167969 9.113281 30.035156 8.851562 29.921875 C 8.851562 29.921875 9.113281 30.035156 8.851562 29.921875 " fill-opacity="1" fill-rule="nonzero"/><path fill="#cf8b50" d="M 7.527344 29.53125 C 7.386719 29.488281 7.246094 29.445312 7.105469 29.40625 C 7.003906 29.386719 6.90625 29.339844 6.8125 29.296875 C 6.710938 29.25 6.613281 29.203125 6.515625 29.152344 C 6.289062 29.042969 6.066406 28.921875 5.847656 28.800781 C 5.804688 28.816406 5.761719 28.835938 5.71875 28.859375 C 6.003906 29.027344 6.292969 29.183594 6.589844 29.328125 C 6.699219 29.382812 6.808594 29.4375 6.917969 29.484375 C 7 29.523438 7.082031 29.558594 7.167969 29.574219 C 7.515625 29.675781 8.136719 29.863281 8.683594 30.023438 C 8.636719 29.945312 8.570312 29.875 8.488281 29.816406 C 8.160156 29.71875 7.816406 29.617188 7.527344 29.53125 C 7.515625 29.523438 7.816406 29.617188 7.527344 29.53125 " fill-opacity="1" fill-rule="nonzero"/><path fill="#fabb85" d="M 10.183594 28.003906 C 9.949219 27.921875 9.3125 27.699219 8.734375 27.5 C 8.53125 27.464844 8.242188 27.378906 7.941406 27.289062 C 8.324219 27.621094 8.285156 28.175781 8.183594 28.417969 C 7.957031 28.945312 7.609375 29.492188 7.105469 29.402344 C 7.695312 29.574219 9.066406 30 9.542969 30.101562 C 10.023438 30.203125 10.621094 29.949219 10.75 29.261719 C 10.882812 28.578125 10.589844 28.140625 10.183594 28.003906 " fill-opacity="1" fill-rule="nonzero"/><path fill="#fadabe" d="M 9.226562 28.648438 C 9.078125 29.019531 8.96875 29.359375 9.246094 29.53125 C 9.476562 29.675781 9.675781 29.789062 9.828125 29.855469 C 9.886719 29.878906 9.949219 29.882812 10.007812 29.863281 C 10.289062 29.769531 10.496094 29.570312 10.59375 29.296875 C 10.664062 29.105469 10.640625 28.914062 10.582031 28.738281 C 10.550781 28.652344 10.492188 28.582031 10.414062 28.542969 C 10.078125 28.371094 9.839844 28.269531 9.621094 28.296875 C 9.378906 28.328125 9.289062 28.488281 9.226562 28.648438 " fill-opacity="1" fill-rule="nonzero"/><path fill="#fab478" d="M 7.113281 27.058594 C 6.269531 26.863281 5.859375 26.59375 5.429688 26.265625 C 5.332031 26.191406 5.242188 26.113281 5.15625 26.027344 C 4.898438 26.066406 4.636719 26.214844 4.480469 26.5625 C 4.238281 27.105469 4.347656 27.785156 4.933594 28.226562 C 5.515625 28.667969 6.789062 29.316406 7.03125 29.386719 C 7.574219 29.546875 7.945312 28.972656 8.183594 28.417969 C 8.285156 28.175781 8.324219 27.621094 7.941406 27.289062 C 7.648438 27.203125 7.347656 27.109375 7.113281 27.058594 " fill-opacity="1" fill-rule="nonzero"/><path fill="#cf8b50" d="M 5.449219 26.46875 C 5.460938 26.480469 5.476562 26.488281 5.492188 26.496094 C 5.476562 26.488281 5.464844 26.480469 5.449219 26.46875 Z M 8.734375 27.5 C 8.46875 27.453125 8.199219 27.375 7.941406 27.289062 C 7.742188 27.230469 7.542969 27.171875 7.34375 27.117188 C 7.136719 27.058594 6.929688 27.015625 6.730469 26.953125 C 6.410156 26.855469 6.105469 26.722656 5.824219 26.542969 C 5.6875 26.457031 5.558594 26.363281 5.429688 26.265625 C 5.332031 26.195312 5.242188 26.113281 5.15625 26.027344 C 5.101562 26.035156 5.046875 26.050781 4.992188 26.070312 C 5.097656 26.1875 5.21875 26.300781 5.351562 26.398438 C 5.609375 26.597656 5.878906 26.777344 6.175781 26.910156 C 6.558594 27.085938 6.964844 27.164062 7.363281 27.277344 C 7.617188 27.347656 7.863281 27.425781 8.113281 27.5 C 8.074219 27.433594 8.027344 27.371094 7.972656 27.320312 C 8.027344 27.371094 8.074219 27.433594 8.113281 27.5 C 8.261719 27.539062 8.414062 27.582031 8.5625 27.613281 C 8.710938 27.644531 8.847656 27.644531 8.988281 27.585938 C 8.90625 27.558594 8.820312 27.527344 8.734375 27.5 C 8.730469 27.496094 8.820312 27.527344 8.734375 27.5 " fill-opacity="1" fill-rule="nonzero"/><path fill="#fabb85" d="M 9.136719 25.042969 C 8.492188 24.683594 7.386719 24.476562 6.898438 24.167969 C 7.214844 24.382812 6.75 25.25 6.550781 25.640625 C 6.328125 26.066406 5.960938 26.625 5.527344 26.335938 C 5.492188 26.3125 5.460938 26.289062 5.429688 26.265625 C 5.859375 26.59375 6.269531 26.863281 7.113281 27.058594 C 7.589844 27.167969 8.335938 27.433594 8.734375 27.5 C 9.132812 27.5625 9.605469 27.152344 9.71875 26.636719 C 9.832031 26.121094 9.777344 25.398438 9.136719 25.042969 " fill-opacity="1" fill-rule="nonzero"/><path fill="#fab478" d="M 4.570312 23.796875 C 4.253906 24.300781 4.328125 24.941406 4.574219 25.285156 C 4.816406 25.628906 5.09375 26.046875 5.527344 26.335938 C 5.960938 26.625 6.328125 26.066406 6.550781 25.640625 C 6.75 25.25 7.214844 24.382812 6.898438 24.167969 C 6.585938 23.949219 6.050781 23.472656 5.734375 23.324219 C 5.453125 23.195312 4.910156 23.265625 4.570312 23.796875 " fill-opacity="1" fill-rule="nonzero"/><path fill="#fadabe" d="M 7.699219 26.007812 C 7.566406 26.328125 7.609375 26.675781 7.824219 26.824219 C 8.011719 26.953125 8.46875 27.144531 8.785156 27.226562 C 8.863281 27.25 8.949219 27.234375 9.019531 27.1875 C 9.296875 27.003906 9.382812 26.773438 9.460938 26.546875 C 9.535156 26.328125 9.503906 25.996094 9.335938 25.765625 C 9.289062 25.703125 9.226562 25.660156 9.152344 25.636719 C 8.734375 25.492188 8.378906 25.4375 8.140625 25.503906 C 7.910156 25.574219 7.796875 25.773438 7.699219 26.007812 " fill-opacity="1" fill-rule="nonzero"/><path fill="#fabb85" d="M 5.511719 22.742188 C 5.164062 23.234375 4.546875 23.339844 4.257812 23.195312 C 3.964844 23.046875 3.695312 22.347656 3.679688 22.140625 C 3.664062 21.933594 3.925781 21.144531 4.128906 20.988281 C 4.332031 20.828125 4.71875 20.675781 4.925781 20.695312 C 5.132812 20.710938 5.316406 20.800781 5.4375 20.945312 C 5.558594 21.089844 6.058594 21.960938 5.511719 22.742188 " fill-opacity="1" fill-rule="nonzero"/><path fill="#fadabe" d="M 4.0625 21.808594 C 3.949219 22.011719 3.898438 22.253906 3.917969 22.40625 C 3.933594 22.515625 3.953125 22.632812 3.984375 22.742188 C 3.992188 22.777344 4.042969 22.773438 4.046875 22.742188 C 4.121094 22.316406 4.296875 21.785156 4.585938 21.554688 C 4.609375 21.539062 4.621094 21.503906 4.601562 21.480469 C 4.566406 21.429688 4.476562 21.414062 4.375 21.476562 C 4.234375 21.566406 4.148438 21.648438 4.0625 21.808594 " fill-opacity="1" fill-rule="nonzero"/><path fill="#cf8b50" d="M 18.546875 30.292969 C 18.535156 30.285156 18.527344 30.273438 18.515625 30.265625 C 17.8125 30.796875 16.691406 31.808594 15.492188 33.027344 C 14.664062 33.863281 13.9375 34.660156 13.390625 35.308594 C 13.480469 35.375 13.558594 35.445312 13.621094 35.507812 C 13.929688 35.832031 14.734375 36.929688 15.070312 37.386719 L 20.304688 32.085938 C 19.574219 31.320312 18.804688 30.527344 18.546875 30.292969 " fill-opacity="1" fill-rule="nonzero"/><path fill="#e6e6e6" d="M 19.398438 30.074219 C 19.210938 29.890625 17.519531 31.300781 15.621094 33.222656 C 13.722656 35.148438 12.332031 36.859375 12.519531 37.042969 L 14.144531 38.652344 L 21.023438 31.6875 L 19.398438 30.074219 " fill-opacity="1" fill-rule="nonzero"/><path fill="#f2f2f2" d="M 20.867188 31.84375 L 19.304688 30.296875 C 18.992188 30.429688 17.941406 31.261719 16.480469 32.6875 L 18.277344 34.46875 L 20.867188 31.84375 " fill-opacity="1" fill-rule="nonzero"/><path fill="#e6e6e6" d="M 14.246094 37.039062 C 14.246094 36.972656 14.191406 36.917969 14.125 36.917969 C 14.058594 36.917969 14.003906 36.972656 14.003906 37.039062 C 14.003906 37.105469 14.058594 37.160156 14.125 37.160156 C 14.191406 37.160156 14.246094 37.105469 14.246094 37.039062 Z M 13.570312 37.039062 C 13.570312 37.105469 13.621094 37.160156 13.691406 37.160156 C 13.757812 37.160156 13.8125 37.105469 13.8125 37.039062 C 13.8125 36.972656 13.757812 36.917969 13.691406 36.917969 C 13.625 36.917969 13.570312 36.972656 13.570312 37.039062 Z M 14.246094 36.640625 C 14.246094 36.570312 14.191406 36.515625 14.125 36.515625 C 14.058594 36.515625 14.003906 36.570312 14.003906 36.636719 C 14.003906 36.707031 14.058594 36.761719 14.125 36.761719 C 14.191406 36.761719 14.246094 36.707031 14.246094 36.640625 Z M 13.570312 36.636719 C 13.570312 36.703125 13.625 36.757812 13.691406 36.757812 C 13.757812 36.757812 13.8125 36.707031 13.8125 36.636719 C 13.8125 36.570312 13.757812 36.515625 13.691406 36.515625 C 13.625 36.515625 13.570312 36.570312 13.570312 36.636719 Z M 13.160156 36.835938 C 13.160156 36.421875 13.496094 36.085938 13.910156 36.085938 C 14.324219 36.089844 14.65625 36.425781 14.65625 36.839844 C 14.65625 37.253906 14.320312 37.589844 13.90625 37.589844 C 13.492188 37.589844 13.15625 37.253906 13.160156 36.835938 " fill-opacity="1" fill-rule="nonzero"/><path fill="#ffffff" d="M 14.21875 37.015625 C 14.21875 36.949219 14.164062 36.894531 14.097656 36.894531 C 14.03125 36.894531 13.976562 36.949219 13.976562 37.015625 C 13.976562 37.082031 14.03125 37.136719 14.097656 37.136719 C 14.164062 37.136719 14.21875 37.082031 14.21875 37.015625 Z M 13.542969 37.015625 C 13.542969 37.082031 13.597656 37.136719 13.664062 37.136719 C 13.730469 37.136719 13.785156 37.082031 13.785156 37.015625 C 13.785156 36.949219 13.730469 36.894531 13.664062 36.894531 C 13.597656 36.894531 13.542969 36.949219 13.542969 37.015625 Z M 14.21875 36.613281 C 14.222656 36.546875 14.167969 36.492188 14.101562 36.492188 C 14.03125 36.492188 13.976562 36.546875 13.976562 36.613281 C 13.976562 36.683594 14.03125 36.734375 14.097656 36.734375 C 14.167969 36.734375 14.21875 36.683594 14.21875 36.613281 Z M 13.542969 36.613281 C 13.542969 36.679688 13.597656 36.734375 13.664062 36.734375 C 13.730469 36.734375 13.785156 36.679688 13.785156 36.613281 C 13.785156 36.546875 13.730469 36.492188 13.664062 36.492188 C 13.597656 36.492188 13.542969 36.546875 13.542969 36.613281 Z M 13.132812 36.8125 C 13.132812 36.398438 13.46875 36.0625 13.882812 36.0625 C 14.296875 36.0625 14.632812 36.402344 14.632812 36.816406 C 14.628906 37.230469 14.292969 37.566406 13.878906 37.566406 C 13.464844 37.566406 13.132812 37.226562 13.132812 36.8125 " fill-opacity="1" fill-rule="nonzero"/><path fill="#e6e6e6" d="M 13.90625 36.273438 C 13.597656 36.269531 13.34375 36.523438 13.34375 36.832031 C 13.34375 37.015625 13.433594 37.179688 13.566406 37.28125 C 13.417969 37.179688 13.320312 37.007812 13.320312 36.8125 C 13.320312 36.503906 13.574219 36.25 13.882812 36.253906 C 14.011719 36.253906 14.125 36.296875 14.21875 36.367188 C 14.128906 36.308594 14.023438 36.273438 13.90625 36.273438 " fill-opacity="1" fill-rule="nonzero"/><g clip-path="url(#217bfe94aa)"><path fill="#262626" d="M 16.832031 34.382812 C 18.910156 32.277344 20.761719 30.730469 20.964844 30.933594 L 23.660156 33.613281 C 24.105469 34.054688 24.109375 34.769531 23.671875 35.21875 L 17.730469 41.234375 C 17.292969 41.679688 16.574219 41.683594 16.128906 41.242188 L 13.433594 38.5625 C 13.230469 38.363281 14.75 36.492188 16.832031 34.382812 " fill-opacity="1" fill-rule="nonzero"/></g><g clip-path="url(#d07aa01ade)"><path fill="#424242" d="M 20.867188 31.152344 L 23.984375 34.246094 C 24.035156 34.589844 23.933594 34.953125 23.671875 35.21875 L 21.0625 37.859375 L 21.042969 37.878906 L 17.335938 34.191406 C 19.183594 32.355469 20.511719 31.292969 20.867188 31.152344 " fill-opacity="1" fill-rule="nonzero"/></g><g fill="#00bf63" fill-opacity="1"><g transform="translate(25.152388, 22.205292)"><g><path d="M 1.703125 -16.859375 L 7.921875 -16.859375 C 9.328125 -16.859375 10.394531 -16.75 11.125 -16.53125 C 12.113281 -16.238281 12.960938 -15.71875 13.671875 -14.96875 C 14.378906 -14.226562 14.914062 -13.320312 15.28125 -12.25 C 15.644531 -11.175781 15.828125 -9.847656 15.828125 -8.265625 C 15.828125 -6.878906 15.65625 -5.679688 15.3125 -4.671875 C 14.894531 -3.453125 14.296875 -2.460938 13.515625 -1.703125 C 12.921875 -1.128906 12.125 -0.679688 11.125 -0.359375 C 10.363281 -0.117188 9.359375 0 8.109375 0 L 1.703125 0 Z M 5.109375 -14 L 5.109375 -2.84375 L 7.640625 -2.84375 C 8.597656 -2.84375 9.285156 -2.894531 9.703125 -3 C 10.253906 -3.132812 10.710938 -3.367188 11.078125 -3.703125 C 11.441406 -4.035156 11.738281 -4.578125 11.96875 -5.328125 C 12.195312 -6.085938 12.3125 -7.117188 12.3125 -8.421875 C 12.3125 -9.722656 12.195312 -10.722656 11.96875 -11.421875 C 11.738281 -12.117188 11.414062 -12.660156 11 -13.046875 C 10.582031 -13.441406 10.054688 -13.707031 9.421875 -13.84375 C 8.953125 -13.945312 8.023438 -14 6.640625 -14 Z M 5.109375 -14 "/></g></g></g><g fill="#00bf63" fill-opacity="1"><g transform="translate(42.155062, 22.205292)"><g><path d="M 8.765625 -3.890625 L 11.984375 -3.34375 C 11.566406 -2.164062 10.910156 -1.265625 10.015625 -0.640625 C 9.128906 -0.0234375 8.015625 0.28125 6.671875 0.28125 C 4.546875 0.28125 2.972656 -0.414062 1.953125 -1.8125 C 1.148438 -2.914062 0.75 -4.316406 0.75 -6.015625 C 0.75 -8.035156 1.273438 -9.617188 2.328125 -10.765625 C 3.390625 -11.910156 4.726562 -12.484375 6.34375 -12.484375 C 8.164062 -12.484375 9.597656 -11.882812 10.640625 -10.6875 C 11.691406 -9.488281 12.195312 -7.648438 12.15625 -5.171875 L 4.0625 -5.171875 C 4.082031 -4.210938 4.34375 -3.46875 4.84375 -2.9375 C 5.34375 -2.40625 5.960938 -2.140625 6.703125 -2.140625 C 7.210938 -2.140625 7.640625 -2.273438 7.984375 -2.546875 C 8.328125 -2.828125 8.585938 -3.273438 8.765625 -3.890625 Z M 8.9375 -7.15625 C 8.914062 -8.082031 8.675781 -8.789062 8.21875 -9.28125 C 7.757812 -9.769531 7.203125 -10.015625 6.546875 -10.015625 C 5.835938 -10.015625 5.253906 -9.757812 4.796875 -9.25 C 4.335938 -8.726562 4.109375 -8.03125 4.109375 -7.15625 Z M 8.9375 -7.15625 "/></g></g></g><g fill="#00bf63" fill-opacity="1"><g transform="translate(55.249076, 22.205292)"><g><path d="M 0.546875 -3.484375 L 3.796875 -3.984375 C 3.929688 -3.347656 4.207031 -2.867188 4.625 -2.546875 C 5.050781 -2.222656 5.644531 -2.0625 6.40625 -2.0625 C 7.238281 -2.0625 7.867188 -2.210938 8.296875 -2.515625 C 8.578125 -2.734375 8.71875 -3.019531 8.71875 -3.375 C 8.71875 -3.625 8.640625 -3.828125 8.484375 -3.984375 C 8.328125 -4.140625 7.96875 -4.285156 7.40625 -4.421875 C 4.800781 -4.992188 3.148438 -5.515625 2.453125 -5.984375 C 1.484375 -6.648438 1 -7.566406 1 -8.734375 C 1 -9.796875 1.414062 -10.6875 2.25 -11.40625 C 3.082031 -12.125 4.378906 -12.484375 6.140625 -12.484375 C 7.804688 -12.484375 9.046875 -12.210938 9.859375 -11.671875 C 10.671875 -11.128906 11.234375 -10.320312 11.546875 -9.25 L 8.5 -8.6875 C 8.363281 -9.164062 8.113281 -9.53125 7.75 -9.78125 C 7.382812 -10.03125 6.867188 -10.15625 6.203125 -10.15625 C 5.347656 -10.15625 4.738281 -10.039062 4.375 -9.8125 C 4.125 -9.632812 4 -9.414062 4 -9.15625 C 4 -8.925781 4.109375 -8.726562 4.328125 -8.5625 C 4.617188 -8.351562 5.625 -8.050781 7.34375 -7.65625 C 9.0625 -7.269531 10.265625 -6.789062 10.953125 -6.21875 C 11.617188 -5.644531 11.953125 -4.84375 11.953125 -3.8125 C 11.953125 -2.695312 11.484375 -1.734375 10.546875 -0.921875 C 9.617188 -0.117188 8.238281 0.28125 6.40625 0.28125 C 4.738281 0.28125 3.421875 -0.0546875 2.453125 -0.734375 C 1.484375 -1.410156 0.847656 -2.328125 0.546875 -3.484375 Z M 0.546875 -3.484375 "/></g></g></g><g fill="#00bf63" fill-opacity="1"><g transform="translate(68.34309, 22.205292)"><g><path d="M 4.90625 -16.859375 L 4.90625 -10.65625 C 5.945312 -11.875 7.191406 -12.484375 8.640625 -12.484375 C 9.390625 -12.484375 10.0625 -12.34375 10.65625 -12.0625 C 11.257812 -11.789062 11.710938 -11.441406 12.015625 -11.015625 C 12.316406 -10.585938 12.519531 -10.113281 12.625 -9.59375 C 12.738281 -9.070312 12.796875 -8.257812 12.796875 -7.15625 L 12.796875 0 L 9.5625 0 L 9.5625 -6.453125 C 9.5625 -7.734375 9.5 -8.546875 9.375 -8.890625 C 9.257812 -9.234375 9.046875 -9.503906 8.734375 -9.703125 C 8.421875 -9.910156 8.03125 -10.015625 7.5625 -10.015625 C 7.03125 -10.015625 6.550781 -9.882812 6.125 -9.625 C 5.707031 -9.363281 5.398438 -8.96875 5.203125 -8.4375 C 5.003906 -7.914062 4.90625 -7.140625 4.90625 -6.109375 L 4.90625 0 L 1.671875 0 L 1.671875 -16.859375 Z M 4.90625 -16.859375 "/></g></g></g><g fill="#00bf63" fill-opacity="1"><g transform="translate(82.724663, 22.205292)"><g/></g></g><g fill="#ff914d" fill-opacity="1"><g transform="translate(89.268289, 22.205292)"><g><path d="M 1.703125 -16.859375 L 7.921875 -16.859375 C 9.328125 -16.859375 10.394531 -16.75 11.125 -16.53125 C 12.113281 -16.238281 12.960938 -15.71875 13.671875 -14.96875 C 14.378906 -14.226562 14.914062 -13.320312 15.28125 -12.25 C 15.644531 -11.175781 15.828125 -9.847656 15.828125 -8.265625 C 15.828125 -6.878906 15.65625 -5.679688 15.3125 -4.671875 C 14.894531 -3.453125 14.296875 -2.460938 13.515625 -1.703125 C 12.921875 -1.128906 12.125 -0.679688 11.125 -0.359375 C 10.363281 -0.117188 9.359375 0 8.109375 0 L 1.703125 0 Z M 5.109375 -14 L 5.109375 -2.84375 L 7.640625 -2.84375 C 8.597656 -2.84375 9.285156 -2.894531 9.703125 -3 C 10.253906 -3.132812 10.710938 -3.367188 11.078125 -3.703125 C 11.441406 -4.035156 11.738281 -4.578125 11.96875 -5.328125 C 12.195312 -6.085938 12.3125 -7.117188 12.3125 -8.421875 C 12.3125 -9.722656 12.195312 -10.722656 11.96875 -11.421875 C 11.738281 -12.117188 11.414062 -12.660156 11 -13.046875 C 10.582031 -13.441406 10.054688 -13.707031 9.421875 -13.84375 C 8.953125 -13.945312 8.023438 -14 6.640625 -14 Z M 5.109375 -14 "/></g></g></g><g fill="#ff914d" fill-opacity="1"><g transform="translate(106.270964, 22.205292)"><g><path d="M 1.6875 -13.859375 L 1.6875 -16.859375 L 4.921875 -16.859375 L 4.921875 -13.859375 Z M 1.6875 0 L 1.6875 -12.203125 L 4.921875 -12.203125 L 4.921875 0 Z M 1.6875 0 "/></g></g></g><g fill="#ff914d" fill-opacity="1"><g transform="translate(112.812224, 22.205292)"><g><path d="M 0.546875 -3.484375 L 3.796875 -3.984375 C 3.929688 -3.347656 4.207031 -2.867188 4.625 -2.546875 C 5.050781 -2.222656 5.644531 -2.0625 6.40625 -2.0625 C 7.238281 -2.0625 7.867188 -2.210938 8.296875 -2.515625 C 8.578125 -2.734375 8.71875 -3.019531 8.71875 -3.375 C 8.71875 -3.625 8.640625 -3.828125 8.484375 -3.984375 C 8.328125 -4.140625 7.96875 -4.285156 7.40625 -4.421875 C 4.800781 -4.992188 3.148438 -5.515625 2.453125 -5.984375 C 1.484375 -6.648438 1 -7.566406 1 -8.734375 C 1 -9.796875 1.414062 -10.6875 2.25 -11.40625 C 3.082031 -12.125 4.378906 -12.484375 6.140625 -12.484375 C 7.804688 -12.484375 9.046875 -12.210938 9.859375 -11.671875 C 10.671875 -11.128906 11.234375 -10.320312 11.546875 -9.25 L 8.5 -8.6875 C 8.363281 -9.164062 8.113281 -9.53125 7.75 -9.78125 C 7.382812 -10.03125 6.867188 -10.15625 6.203125 -10.15625 C 5.347656 -10.15625 4.738281 -10.039062 4.375 -9.8125 C 4.125 -9.632812 4 -9.414062 4 -9.15625 C 4 -8.925781 4.109375 -8.726562 4.328125 -8.5625 C 4.617188 -8.351562 5.625 -8.050781 7.34375 -7.65625 C 9.0625 -7.269531 10.265625 -6.789062 10.953125 -6.21875 C 11.617188 -5.644531 11.953125 -4.84375 11.953125 -3.8125 C 11.953125 -2.695312 11.484375 -1.734375 10.546875 -0.921875 C 9.617188 -0.117188 8.238281 0.28125 6.40625 0.28125 C 4.738281 0.28125 3.421875 -0.0546875 2.453125 -0.734375 C 1.484375 -1.410156 0.847656 -2.328125 0.546875 -3.484375 Z M 0.546875 -3.484375 "/></g></g></g><g fill="#ff914d" fill-opacity="1"><g transform="translate(125.906238, 22.205292)"><g><path d="M 4.90625 -16.859375 L 4.90625 -10.65625 C 5.945312 -11.875 7.191406 -12.484375 8.640625 -12.484375 C 9.390625 -12.484375 10.0625 -12.34375 10.65625 -12.0625 C 11.257812 -11.789062 11.710938 -11.441406 12.015625 -11.015625 C 12.316406 -10.585938 12.519531 -10.113281 12.625 -9.59375 C 12.738281 -9.070312 12.796875 -8.257812 12.796875 -7.15625 L 12.796875 0 L 9.5625 0 L 9.5625 -6.453125 C 9.5625 -7.734375 9.5 -8.546875 9.375 -8.890625 C 9.257812 -9.234375 9.046875 -9.503906 8.734375 -9.703125 C 8.421875 -9.910156 8.03125 -10.015625 7.5625 -10.015625 C 7.03125 -10.015625 6.550781 -9.882812 6.125 -9.625 C 5.707031 -9.363281 5.398438 -8.96875 5.203125 -8.4375 C 5.003906 -7.914062 4.90625 -7.140625 4.90625 -6.109375 L 4.90625 0 L 1.671875 0 L 1.671875 -16.859375 Z M 4.90625 -16.859375 "/></g></g></g><g fill="#ff914d" fill-opacity="1"><g transform="translate(140.287807, 22.205292)"><g><path d="M 4.109375 -8.484375 L 1.171875 -9.015625 C 1.503906 -10.191406 2.070312 -11.0625 2.875 -11.625 C 3.675781 -12.195312 4.875 -12.484375 6.46875 -12.484375 C 7.90625 -12.484375 8.972656 -12.3125 9.671875 -11.96875 C 10.378906 -11.632812 10.875 -11.203125 11.15625 -10.671875 C 11.445312 -10.148438 11.59375 -9.1875 11.59375 -7.78125 L 11.5625 -4.015625 C 11.5625 -2.941406 11.613281 -2.148438 11.71875 -1.640625 C 11.820312 -1.128906 12.015625 -0.582031 12.296875 0 L 9.109375 0 C 9.023438 -0.21875 8.921875 -0.535156 8.796875 -0.953125 C 8.742188 -1.140625 8.707031 -1.265625 8.6875 -1.328125 C 8.132812 -0.796875 7.539062 -0.394531 6.90625 -0.125 C 6.28125 0.144531 5.609375 0.28125 4.890625 0.28125 C 3.640625 0.28125 2.648438 -0.0546875 1.921875 -0.734375 C 1.203125 -1.421875 0.84375 -2.285156 0.84375 -3.328125 C 0.84375 -4.023438 1.003906 -4.640625 1.328125 -5.171875 C 1.660156 -5.710938 2.125 -6.128906 2.71875 -6.421875 C 3.3125 -6.710938 4.164062 -6.960938 5.28125 -7.171875 C 6.789062 -7.453125 7.835938 -7.71875 8.421875 -7.96875 L 8.421875 -8.296875 C 8.421875 -8.910156 8.269531 -9.347656 7.96875 -9.609375 C 7.664062 -9.878906 7.085938 -10.015625 6.234375 -10.015625 C 5.660156 -10.015625 5.210938 -9.898438 4.890625 -9.671875 C 4.566406 -9.453125 4.304688 -9.054688 4.109375 -8.484375 Z M 8.421875 -5.859375 C 8.015625 -5.722656 7.359375 -5.554688 6.453125 -5.359375 C 5.554688 -5.171875 4.972656 -4.988281 4.703125 -4.8125 C 4.273438 -4.507812 4.0625 -4.128906 4.0625 -3.671875 C 4.0625 -3.210938 4.226562 -2.816406 4.5625 -2.484375 C 4.90625 -2.160156 5.335938 -2 5.859375 -2 C 6.441406 -2 7 -2.191406 7.53125 -2.578125 C 7.925781 -2.867188 8.179688 -3.222656 8.296875 -3.640625 C 8.378906 -3.921875 8.421875 -4.445312 8.421875 -5.21875 Z M 8.421875 -5.859375 "/></g></g></g><g clip-path="url(#58ed9463ea)"><g transform="matrix(1, 0, 0, 1, 27, 28)"><g clip-path="url(#152ac14f2b)"><g clip-path="url(#04886c9f31)"><g fill="#000000" fill-opacity="1"><g transform="translate(0.173302, 12.028604)"><g><path d="M 5.5 0.875 C 5.320312 0.59375 5.148438 0.296875 4.984375 -0.015625 C 4.828125 -0.335938 4.691406 -0.613281 4.578125 -0.84375 C 4.359375 -0.820312 4.109375 -0.8125 3.828125 -0.8125 C 3.421875 -0.8125 3.019531 -0.851562 2.625 -0.9375 C 2.226562 -1.03125 1.867188 -1.175781 1.546875 -1.375 C 1.222656 -1.582031 0.960938 -1.851562 0.765625 -2.1875 C 0.566406 -2.53125 0.46875 -2.957031 0.46875 -3.46875 C 0.46875 -3.84375 0.539062 -4.164062 0.6875 -4.4375 C 0.832031 -4.71875 1.023438 -4.957031 1.265625 -5.15625 C 1.535156 -5.363281 1.859375 -5.523438 2.234375 -5.640625 C 2.617188 -5.753906 3.046875 -5.828125 3.515625 -5.859375 L 3.515625 -6.59375 L 0 -6.59375 L 0 -8.015625 L 7.359375 -8.015625 L 7.359375 -6.59375 L 5.234375 -6.59375 L 5.234375 -4.4375 L 4.578125 -4.4375 C 4.085938 -4.4375 3.703125 -4.414062 3.421875 -4.375 C 3.148438 -4.332031 2.921875 -4.265625 2.734375 -4.171875 C 2.367188 -3.992188 2.1875 -3.71875 2.1875 -3.34375 C 2.1875 -3.019531 2.316406 -2.753906 2.578125 -2.546875 C 2.847656 -2.335938 3.3125 -2.234375 3.96875 -2.234375 C 3.988281 -2.234375 4.019531 -2.234375 4.0625 -2.234375 C 4.101562 -2.234375 4.148438 -2.234375 4.203125 -2.234375 C 4.179688 -2.328125 4.171875 -2.421875 4.171875 -2.515625 C 4.171875 -2.828125 4.285156 -3.050781 4.515625 -3.1875 C 4.742188 -3.332031 4.992188 -3.40625 5.265625 -3.40625 C 5.722656 -3.40625 6.070312 -3.28125 6.3125 -3.03125 C 6.550781 -2.789062 6.671875 -2.503906 6.671875 -2.171875 C 6.671875 -1.867188 6.601562 -1.640625 6.46875 -1.484375 C 6.332031 -1.335938 6.164062 -1.21875 5.96875 -1.125 C 6.21875 -0.695312 6.53125 -0.238281 6.90625 0.25 Z M 5.5 0.875 "/></g></g></g></g><g clip-path="url(#4c8b4a730f)"><g fill="#000000" fill-opacity="1"><g transform="translate(6.442173, 12.028604)"><g><path d="M -2.671875 -7.921875 C -2.816406 -8.421875 -2.957031 -8.832031 -3.09375 -9.15625 C -3.238281 -9.476562 -3.398438 -9.710938 -3.578125 -9.859375 C -3.765625 -10.015625 -4.003906 -10.09375 -4.296875 -10.09375 C -4.472656 -10.09375 -4.632812 -10.070312 -4.78125 -10.03125 C -4.925781 -10 -5.054688 -9.960938 -5.171875 -9.921875 L -5.640625 -11.28125 C -5.429688 -11.363281 -5.21875 -11.425781 -5 -11.46875 C -4.78125 -11.507812 -4.539062 -11.53125 -4.28125 -11.53125 C -3.9375 -11.53125 -3.617188 -11.484375 -3.328125 -11.390625 C -3.035156 -11.304688 -2.765625 -11.140625 -2.515625 -10.890625 C -2.265625 -10.640625 -2.023438 -10.273438 -1.796875 -9.796875 C -1.566406 -9.328125 -1.347656 -8.703125 -1.140625 -7.921875 Z M -2.671875 -7.921875 "/></g></g></g></g><g fill="#000000" fill-opacity="1"><g transform="translate(7.355284, 12.028604)"><g><path d="M 1.75 -1.921875 C 1.40625 -1.921875 1.101562 -2.007812 0.84375 -2.1875 C 0.59375 -2.363281 0.46875 -2.640625 0.46875 -3.015625 C 0.46875 -3.316406 0.5625 -3.554688 0.75 -3.734375 C 0.9375 -3.921875 1.203125 -4.015625 1.546875 -4.015625 C 1.722656 -4.015625 1.914062 -3.976562 2.125 -3.90625 C 2.332031 -3.84375 2.539062 -3.734375 2.75 -3.578125 C 3.101562 -3.742188 3.390625 -3.988281 3.609375 -4.3125 C 3.828125 -4.632812 3.9375 -5.035156 3.9375 -5.515625 C 3.9375 -5.972656 3.835938 -6.3125 3.640625 -6.53125 C 3.441406 -6.757812 3.191406 -6.875 2.890625 -6.875 C 2.722656 -6.875 2.585938 -6.832031 2.484375 -6.75 C 2.378906 -6.664062 2.328125 -6.550781 2.328125 -6.40625 C 2.328125 -6.238281 2.410156 -6.085938 2.578125 -5.953125 C 2.742188 -5.816406 3.082031 -5.71875 3.59375 -5.65625 L 3.234375 -4.5 C 2.367188 -4.570312 1.726562 -4.785156 1.3125 -5.140625 C 0.90625 -5.503906 0.703125 -5.9375 0.703125 -6.4375 C 0.703125 -6.925781 0.882812 -7.332031 1.25 -7.65625 C 1.613281 -7.976562 2.144531 -8.140625 2.84375 -8.140625 C 3.332031 -8.140625 3.789062 -8.046875 4.21875 -7.859375 C 4.644531 -7.671875 4.988281 -7.378906 5.25 -6.984375 C 5.519531 -6.585938 5.65625 -6.082031 5.65625 -5.46875 C 5.65625 -4.863281 5.507812 -4.300781 5.21875 -3.78125 C 4.9375 -3.269531 4.546875 -2.851562 4.046875 -2.53125 C 4.335938 -2.269531 4.617188 -1.984375 4.890625 -1.671875 C 5.160156 -1.359375 5.414062 -1.054688 5.65625 -0.765625 L 4.375 0.109375 C 4.03125 -0.335938 3.707031 -0.734375 3.40625 -1.078125 C 3.113281 -1.421875 2.835938 -1.722656 2.578125 -1.984375 C 2.304688 -1.941406 2.03125 -1.921875 1.75 -1.921875 Z M 8.625 -6.59375 L 8.625 0 L 6.90625 0 L 6.90625 -6.59375 L 5.9375 -6.59375 L 5.9375 -8.015625 L 9.84375 -8.015625 L 9.84375 -6.59375 Z M 8.625 -6.59375 "/></g></g></g><g fill="#000000" fill-opacity="1"><g transform="translate(17.008485, 12.028604)"><g/></g></g><g fill="#000000" fill-opacity="1"><g transform="translate(20.584443, 12.028604)"><g><path d="M 10.78125 -6.59375 L 6.625 -6.59375 L 6.625 -4.796875 C 7.039062 -5.035156 7.515625 -5.15625 8.046875 -5.15625 C 8.660156 -5.15625 9.160156 -4.96875 9.546875 -4.59375 C 9.929688 -4.21875 10.125 -3.695312 10.125 -3.03125 C 10.125 -2.644531 10.050781 -2.21875 9.90625 -1.75 C 9.769531 -1.289062 9.546875 -0.820312 9.234375 -0.34375 L 7.71875 -1.1875 C 7.914062 -1.445312 8.078125 -1.71875 8.203125 -2 C 8.335938 -2.289062 8.40625 -2.585938 8.40625 -2.890625 C 8.40625 -3.203125 8.335938 -3.421875 8.203125 -3.546875 C 8.078125 -3.679688 7.90625 -3.75 7.6875 -3.75 C 7.488281 -3.75 7.296875 -3.6875 7.109375 -3.5625 C 6.929688 -3.445312 6.769531 -3.320312 6.625 -3.1875 L 6.625 0 L 4.90625 0 L 4.90625 -1.640625 C 4.625 -1.472656 4.335938 -1.347656 4.046875 -1.265625 C 3.765625 -1.179688 3.429688 -1.140625 3.046875 -1.140625 C 2.578125 -1.140625 2.144531 -1.222656 1.75 -1.390625 C 1.363281 -1.554688 1.050781 -1.8125 0.8125 -2.15625 C 0.582031 -2.507812 0.46875 -2.945312 0.46875 -3.46875 C 0.46875 -3.9375 0.582031 -4.347656 0.8125 -4.703125 C 1.050781 -5.054688 1.375 -5.328125 1.78125 -5.515625 C 2.195312 -5.710938 2.675781 -5.8125 3.21875 -5.8125 C 3.457031 -5.8125 3.695312 -5.800781 3.9375 -5.78125 C 4.1875 -5.757812 4.378906 -5.726562 4.515625 -5.6875 L 4.390625 -4.265625 C 4.117188 -4.328125 3.8125 -4.359375 3.46875 -4.359375 C 3.070312 -4.359375 2.757812 -4.28125 2.53125 -4.125 C 2.3125 -3.96875 2.203125 -3.75 2.203125 -3.46875 C 2.203125 -3.125 2.304688 -2.882812 2.515625 -2.75 C 2.734375 -2.625 2.96875 -2.5625 3.21875 -2.5625 C 3.582031 -2.5625 3.898438 -2.640625 4.171875 -2.796875 C 4.453125 -2.960938 4.695312 -3.15625 4.90625 -3.375 L 4.90625 -6.59375 L 0 -6.59375 L 0 -8.015625 L 10.78125 -8.015625 Z M 10.78125 -6.59375 "/></g></g></g><g clip-path="url(#af77b40502)"><g fill="#000000" fill-opacity="1"><g transform="translate(31.177221, 12.028604)"><g><path d="M 1.03125 -6.59375 L 0 -6.59375 L 0 -8.015625 L 0.78125 -8.015625 C 0.226562 -8.691406 -0.347656 -9.207031 -0.953125 -9.5625 C -1.554688 -9.914062 -2.207031 -10.09375 -2.90625 -10.09375 C -3.382812 -10.09375 -3.753906 -9.992188 -4.015625 -9.796875 C -4.285156 -9.609375 -4.421875 -9.347656 -4.421875 -9.015625 C -4.421875 -8.796875 -4.382812 -8.59375 -4.3125 -8.40625 C -4.25 -8.226562 -4.171875 -8.066406 -4.078125 -7.921875 L -5.75 -7.921875 C -5.882812 -8.171875 -5.984375 -8.40625 -6.046875 -8.625 C -6.117188 -8.851562 -6.15625 -9.085938 -6.15625 -9.328125 C -6.15625 -10.003906 -5.898438 -10.539062 -5.390625 -10.9375 C -4.878906 -11.332031 -4.144531 -11.53125 -3.1875 -11.53125 C -2.257812 -11.53125 -1.441406 -11.367188 -0.734375 -11.046875 C -0.0234375 -10.734375 0.601562 -10.304688 1.15625 -9.765625 C 1.707031 -9.234375 2.210938 -8.648438 2.671875 -8.015625 L 3.984375 -8.015625 L 3.984375 -6.59375 L 2.75 -6.59375 L 2.75 0 L 1.03125 0 Z M 1.03125 -6.59375 "/></g></g></g></g><g fill="#000000" fill-opacity="1"><g transform="translate(34.961276, 12.028604)"><g/></g></g><g fill="#000000" fill-opacity="1"><g transform="translate(38.537236, 12.028604)"><g><path d="M 4.328125 -0.921875 C 4.554688 -0.984375 4.742188 -1.0625 4.890625 -1.15625 C 5.046875 -1.257812 5.125 -1.398438 5.125 -1.578125 C 5.125 -1.773438 5.023438 -1.929688 4.828125 -2.046875 C 4.628906 -2.160156 4.300781 -2.21875 3.84375 -2.21875 C 3.34375 -2.21875 2.957031 -2.125 2.6875 -1.9375 C 2.425781 -1.75 2.296875 -1.5 2.296875 -1.1875 C 2.296875 -0.96875 2.34375 -0.753906 2.4375 -0.546875 C 2.539062 -0.347656 2.722656 -0.128906 2.984375 0.109375 C 3.242188 0.359375 3.617188 0.664062 4.109375 1.03125 L 2.984375 2.171875 C 2.492188 1.773438 2.066406 1.394531 1.703125 1.03125 C 1.347656 0.664062 1.070312 0.300781 0.875 -0.0625 C 0.675781 -0.4375 0.578125 -0.84375 0.578125 -1.28125 C 0.578125 -1.613281 0.640625 -1.90625 0.765625 -2.15625 C 0.890625 -2.40625 1.054688 -2.625 1.265625 -2.8125 C 1.109375 -3 0.976562 -3.203125 0.875 -3.421875 C 0.78125 -3.648438 0.734375 -3.914062 0.734375 -4.21875 C 0.734375 -4.5 0.78125 -4.734375 0.875 -4.921875 C 0.976562 -5.117188 1.113281 -5.273438 1.28125 -5.390625 C 1.488281 -5.566406 1.738281 -5.691406 2.03125 -5.765625 C 2.332031 -5.835938 2.742188 -5.875 3.265625 -5.875 L 4.578125 -5.875 L 4.578125 -6.59375 L 0 -6.59375 L 0 -8.015625 L 7.515625 -8.015625 L 7.515625 -6.59375 L 6.3125 -6.59375 L 6.3125 -4.453125 L 3.328125 -4.453125 C 3.085938 -4.453125 2.914062 -4.441406 2.8125 -4.421875 C 2.71875 -4.398438 2.644531 -4.363281 2.59375 -4.3125 C 2.476562 -4.226562 2.421875 -4.097656 2.421875 -3.921875 C 2.421875 -3.773438 2.476562 -3.628906 2.59375 -3.484375 C 3 -3.585938 3.4375 -3.640625 3.90625 -3.640625 C 4.59375 -3.640625 5.148438 -3.539062 5.578125 -3.34375 C 6.015625 -3.15625 6.332031 -2.90625 6.53125 -2.59375 C 6.726562 -2.289062 6.828125 -1.96875 6.828125 -1.625 C 6.828125 -0.5625 6.148438 0.125 4.796875 0.4375 Z M 4.328125 -0.921875 "/></g></g></g><g fill="#000000" fill-opacity="1"><g transform="translate(45.873668, 12.028604)"><g><path d="M 5.375 -0.921875 L 4.25 0.21875 C 3.488281 -0.425781 2.804688 -1.035156 2.203125 -1.609375 C 1.609375 -2.179688 1.160156 -2.664062 0.859375 -3.0625 C 0.660156 -3.320312 0.535156 -3.539062 0.484375 -3.71875 C 0.429688 -3.894531 0.40625 -4.054688 0.40625 -4.203125 C 0.40625 -4.421875 0.476562 -4.632812 0.625 -4.84375 C 0.769531 -5.0625 1.035156 -5.171875 1.421875 -5.171875 C 1.847656 -5.171875 2.210938 -5.019531 2.515625 -4.71875 C 2.960938 -5.007812 3.1875 -5.40625 3.1875 -5.90625 C 3.1875 -6.15625 3.160156 -6.382812 3.109375 -6.59375 L 0 -6.59375 L 0 -8.015625 L 5.828125 -8.015625 L 5.828125 -6.59375 L 4.796875 -6.59375 C 4.835938 -6.46875 4.867188 -6.328125 4.890625 -6.171875 C 4.910156 -6.015625 4.921875 -5.832031 4.921875 -5.625 C 4.921875 -5.03125 4.738281 -4.53125 4.375 -4.125 C 4.019531 -3.71875 3.507812 -3.390625 2.84375 -3.140625 C 3.175781 -2.804688 3.5625 -2.441406 4 -2.046875 C 4.4375 -1.648438 4.894531 -1.273438 5.375 -0.921875 Z M 5.375 -0.921875 "/></g></g></g><g fill="#000000" fill-opacity="1"><g transform="translate(51.511139, 12.028604)"><g/></g></g><g clip-path="url(#4acf41e616)"><g fill="#000000" fill-opacity="1"><g transform="translate(55.087094, 12.028604)"><g><path d="M 1.03125 -6.59375 L 0 -6.59375 L 0 -8.015625 L 0.96875 -8.015625 C 0.738281 -8.484375 0.625 -8.925781 0.625 -9.34375 C 0.625 -10.019531 0.867188 -10.550781 1.359375 -10.9375 C 1.859375 -11.332031 2.566406 -11.53125 3.484375 -11.53125 C 4.347656 -11.53125 5.117188 -11.363281 5.796875 -11.03125 C 6.484375 -10.695312 7.09375 -10.253906 7.625 -9.703125 C 8.15625 -9.160156 8.625 -8.566406 9.03125 -7.921875 L 7.203125 -7.921875 C 6.703125 -8.617188 6.160156 -9.15625 5.578125 -9.53125 C 5.003906 -9.914062 4.378906 -10.109375 3.703125 -10.109375 C 3.359375 -10.109375 3.046875 -10.019531 2.765625 -9.84375 C 2.492188 -9.664062 2.359375 -9.394531 2.359375 -9.03125 C 2.359375 -8.832031 2.382812 -8.644531 2.4375 -8.46875 C 2.488281 -8.300781 2.550781 -8.148438 2.625 -8.015625 L 3.984375 -8.015625 L 3.984375 -6.59375 L 2.75 -6.59375 L 2.75 0 L 1.03125 0 Z M 1.03125 -6.59375 "/></g></g></g></g><g fill="#000000" fill-opacity="1"><g transform="translate(58.871147, 12.028604)"><g><path d="M 5.5 0.875 C 5.320312 0.59375 5.148438 0.296875 4.984375 -0.015625 C 4.828125 -0.335938 4.691406 -0.613281 4.578125 -0.84375 C 4.359375 -0.820312 4.109375 -0.8125 3.828125 -0.8125 C 3.421875 -0.8125 3.019531 -0.851562 2.625 -0.9375 C 2.226562 -1.03125 1.867188 -1.175781 1.546875 -1.375 C 1.222656 -1.582031 0.960938 -1.851562 0.765625 -2.1875 C 0.566406 -2.53125 0.46875 -2.957031 0.46875 -3.46875 C 0.46875 -3.84375 0.539062 -4.164062 0.6875 -4.4375 C 0.832031 -4.71875 1.023438 -4.957031 1.265625 -5.15625 C 1.535156 -5.363281 1.859375 -5.523438 2.234375 -5.640625 C 2.617188 -5.753906 3.046875 -5.828125 3.515625 -5.859375 L 3.515625 -6.59375 L 0 -6.59375 L 0 -8.015625 L 7.359375 -8.015625 L 7.359375 -6.59375 L 5.234375 -6.59375 L 5.234375 -4.4375 L 4.578125 -4.4375 C 4.085938 -4.4375 3.703125 -4.414062 3.421875 -4.375 C 3.148438 -4.332031 2.921875 -4.265625 2.734375 -4.171875 C 2.367188 -3.992188 2.1875 -3.71875 2.1875 -3.34375 C 2.1875 -3.019531 2.316406 -2.753906 2.578125 -2.546875 C 2.847656 -2.335938 3.3125 -2.234375 3.96875 -2.234375 C 3.988281 -2.234375 4.019531 -2.234375 4.0625 -2.234375 C 4.101562 -2.234375 4.148438 -2.234375 4.203125 -2.234375 C 4.179688 -2.328125 4.171875 -2.421875 4.171875 -2.515625 C 4.171875 -2.828125 4.285156 -3.050781 4.515625 -3.1875 C 4.742188 -3.332031 4.992188 -3.40625 5.265625 -3.40625 C 5.722656 -3.40625 6.070312 -3.28125 6.3125 -3.03125 C 6.550781 -2.789062 6.671875 -2.503906 6.671875 -2.171875 C 6.671875 -1.867188 6.601562 -1.640625 6.46875 -1.484375 C 6.332031 -1.335938 6.164062 -1.21875 5.96875 -1.125 C 6.21875 -0.695312 6.53125 -0.238281 6.90625 0.25 Z M 5.5 0.875 "/></g></g></g><g fill="#000000" fill-opacity="1"><g transform="translate(66.053131, 12.028604)"><g><path d="M 1.75 -1.921875 C 1.40625 -1.921875 1.101562 -2.007812 0.84375 -2.1875 C 0.59375 -2.363281 0.46875 -2.640625 0.46875 -3.015625 C 0.46875 -3.316406 0.5625 -3.554688 0.75 -3.734375 C 0.9375 -3.921875 1.203125 -4.015625 1.546875 -4.015625 C 1.722656 -4.015625 1.914062 -3.976562 2.125 -3.90625 C 2.332031 -3.84375 2.539062 -3.734375 2.75 -3.578125 C 3.101562 -3.742188 3.390625 -3.988281 3.609375 -4.3125 C 3.828125 -4.632812 3.9375 -5.035156 3.9375 -5.515625 C 3.9375 -5.972656 3.835938 -6.3125 3.640625 -6.53125 C 3.441406 -6.757812 3.191406 -6.875 2.890625 -6.875 C 2.722656 -6.875 2.585938 -6.832031 2.484375 -6.75 C 2.378906 -6.664062 2.328125 -6.550781 2.328125 -6.40625 C 2.328125 -6.238281 2.410156 -6.085938 2.578125 -5.953125 C 2.742188 -5.816406 3.082031 -5.71875 3.59375 -5.65625 L 3.234375 -4.5 C 2.367188 -4.570312 1.726562 -4.785156 1.3125 -5.140625 C 0.90625 -5.503906 0.703125 -5.9375 0.703125 -6.4375 C 0.703125 -6.925781 0.882812 -7.332031 1.25 -7.65625 C 1.613281 -7.976562 2.144531 -8.140625 2.84375 -8.140625 C 3.332031 -8.140625 3.789062 -8.046875 4.21875 -7.859375 C 4.644531 -7.671875 4.988281 -7.378906 5.25 -6.984375 C 5.519531 -6.585938 5.65625 -6.082031 5.65625 -5.46875 C 5.65625 -4.863281 5.507812 -4.300781 5.21875 -3.78125 C 4.9375 -3.269531 4.546875 -2.851562 4.046875 -2.53125 C 4.335938 -2.269531 4.617188 -1.984375 4.890625 -1.671875 C 5.160156 -1.359375 5.414062 -1.054688 5.65625 -0.765625 L 4.375 0.109375 C 4.03125 -0.335938 3.707031 -0.734375 3.40625 -1.078125 C 3.113281 -1.421875 2.835938 -1.722656 2.578125 -1.984375 C 2.304688 -1.941406 2.03125 -1.921875 1.75 -1.921875 Z M 8.625 -6.59375 L 8.625 0 L 6.90625 0 L 6.90625 -6.59375 L 5.9375 -6.59375 L 5.9375 -8.015625 L 9.84375 -8.015625 L 9.84375 -6.59375 Z M 8.625 -6.59375 "/></g></g></g><g fill="#000000" fill-opacity="1"><g transform="translate(75.706332, 12.028604)"><g><path d="M 2.75 -6.59375 L 2.75 0 L 1.03125 0 L 1.03125 -6.59375 L 0 -6.59375 L 0 -8.015625 L 3.984375 -8.015625 L 3.984375 -6.59375 Z M 2.75 -6.59375 "/></g></g></g><g fill="#000000" fill-opacity="1"><g transform="translate(79.490391, 12.028604)"><g/></g></g><g fill="#000000" fill-opacity="1"><g transform="translate(83.066345, 12.028604)"><g><path d="M 10.78125 -6.59375 L 6.625 -6.59375 L 6.625 -4.796875 C 7.039062 -5.035156 7.515625 -5.15625 8.046875 -5.15625 C 8.660156 -5.15625 9.160156 -4.96875 9.546875 -4.59375 C 9.929688 -4.21875 10.125 -3.695312 10.125 -3.03125 C 10.125 -2.644531 10.050781 -2.21875 9.90625 -1.75 C 9.769531 -1.289062 9.546875 -0.820312 9.234375 -0.34375 L 7.71875 -1.1875 C 7.914062 -1.445312 8.078125 -1.71875 8.203125 -2 C 8.335938 -2.289062 8.40625 -2.585938 8.40625 -2.890625 C 8.40625 -3.203125 8.335938 -3.421875 8.203125 -3.546875 C 8.078125 -3.679688 7.90625 -3.75 7.6875 -3.75 C 7.488281 -3.75 7.296875 -3.6875 7.109375 -3.5625 C 6.929688 -3.445312 6.769531 -3.320312 6.625 -3.1875 L 6.625 0 L 4.90625 0 L 4.90625 -1.640625 C 4.625 -1.472656 4.335938 -1.347656 4.046875 -1.265625 C 3.765625 -1.179688 3.429688 -1.140625 3.046875 -1.140625 C 2.578125 -1.140625 2.144531 -1.222656 1.75 -1.390625 C 1.363281 -1.554688 1.050781 -1.8125 0.8125 -2.15625 C 0.582031 -2.507812 0.46875 -2.945312 0.46875 -3.46875 C 0.46875 -3.9375 0.582031 -4.347656 0.8125 -4.703125 C 1.050781 -5.054688 1.375 -5.328125 1.78125 -5.515625 C 2.195312 -5.710938 2.675781 -5.8125 3.21875 -5.8125 C 3.457031 -5.8125 3.695312 -5.800781 3.9375 -5.78125 C 4.1875 -5.757812 4.378906 -5.726562 4.515625 -5.6875 L 4.390625 -4.265625 C 4.117188 -4.328125 3.8125 -4.359375 3.46875 -4.359375 C 3.070312 -4.359375 2.757812 -4.28125 2.53125 -4.125 C 2.3125 -3.96875 2.203125 -3.75 2.203125 -3.46875 C 2.203125 -3.125 2.304688 -2.882812 2.515625 -2.75 C 2.734375 -2.625 2.96875 -2.5625 3.21875 -2.5625 C 3.582031 -2.5625 3.898438 -2.640625 4.171875 -2.796875 C 4.453125 -2.960938 4.695312 -3.15625 4.90625 -3.375 L 4.90625 -6.59375 L 0 -6.59375 L 0 -8.015625 L 10.78125 -8.015625 Z M 10.78125 -6.59375 "/></g></g></g><g clip-path="url(#44bff45757)"><g fill="#000000" fill-opacity="1"><g transform="translate(93.659126, 12.028604)"><g><path d="M 1.03125 -6.59375 L 0 -6.59375 L 0 -8.015625 L 0.78125 -8.015625 C 0.226562 -8.691406 -0.347656 -9.207031 -0.953125 -9.5625 C -1.554688 -9.914062 -2.207031 -10.09375 -2.90625 -10.09375 C -3.382812 -10.09375 -3.753906 -9.992188 -4.015625 -9.796875 C -4.285156 -9.609375 -4.421875 -9.347656 -4.421875 -9.015625 C -4.421875 -8.796875 -4.382812 -8.59375 -4.3125 -8.40625 C -4.25 -8.226562 -4.171875 -8.066406 -4.078125 -7.921875 L -5.75 -7.921875 C -5.882812 -8.171875 -5.984375 -8.40625 -6.046875 -8.625 C -6.117188 -8.851562 -6.15625 -9.085938 -6.15625 -9.328125 C -6.15625 -10.003906 -5.898438 -10.539062 -5.390625 -10.9375 C -4.878906 -11.332031 -4.144531 -11.53125 -3.1875 -11.53125 C -2.257812 -11.53125 -1.441406 -11.367188 -0.734375 -11.046875 C -0.0234375 -10.734375 0.601562 -10.304688 1.15625 -9.765625 C 1.707031 -9.234375 2.210938 -8.648438 2.671875 -8.015625 L 3.984375 -8.015625 L 3.984375 -6.59375 L 2.75 -6.59375 L 2.75 0 L 1.03125 0 Z M 1.03125 -6.59375 "/></g></g></g></g><g fill="#000000" fill-opacity="1"><g transform="translate(97.44318, 12.028604)"><g/></g></g><g fill="#000000" fill-opacity="1"><g transform="translate(101.019136, 12.028604)"><g><path d="M 10.5 -6.59375 L 10.5 0 L 8.78125 0 L 8.78125 -0.53125 C 8.070312 -0.195312 7.253906 -0.03125 6.328125 -0.03125 C 5.640625 -0.03125 5.015625 -0.128906 4.453125 -0.328125 C 3.890625 -0.523438 3.378906 -0.773438 2.921875 -1.078125 C 2.460938 -1.390625 2.0625 -1.710938 1.71875 -2.046875 C 1.382812 -2.390625 1.109375 -2.707031 0.890625 -3 C 0.691406 -3.269531 0.5625 -3.5 0.5 -3.6875 C 0.4375 -3.882812 0.40625 -4.054688 0.40625 -4.203125 C 0.40625 -4.421875 0.476562 -4.632812 0.625 -4.84375 C 0.769531 -5.0625 1.035156 -5.171875 1.421875 -5.171875 C 1.816406 -5.171875 2.15625 -5.046875 2.4375 -4.796875 C 2.53125 -4.953125 2.59375 -5.125 2.625 -5.3125 C 2.664062 -5.5 2.6875 -5.691406 2.6875 -5.890625 C 2.6875 -6.128906 2.65625 -6.363281 2.59375 -6.59375 L 0 -6.59375 L 0 -8.015625 L 11.71875 -8.015625 L 11.71875 -6.59375 Z M 7.359375 -3.46875 C 7.648438 -3.46875 7.910156 -3.515625 8.140625 -3.609375 C 8.367188 -3.710938 8.582031 -3.84375 8.78125 -4 L 8.78125 -6.59375 L 4.296875 -6.59375 C 4.335938 -6.46875 4.367188 -6.328125 4.390625 -6.171875 C 4.410156 -6.015625 4.421875 -5.832031 4.421875 -5.625 C 4.421875 -4.976562 4.257812 -4.460938 3.9375 -4.078125 C 3.625 -3.703125 3.226562 -3.394531 2.75 -3.15625 C 3.03125 -2.863281 3.335938 -2.585938 3.671875 -2.328125 C 4.015625 -2.066406 4.40625 -1.851562 4.84375 -1.6875 C 5.28125 -1.53125 5.773438 -1.453125 6.328125 -1.453125 C 6.910156 -1.453125 7.394531 -1.507812 7.78125 -1.625 C 8.164062 -1.738281 8.5 -1.867188 8.78125 -2.015625 L 8.78125 -2.59375 C 8.5625 -2.46875 8.316406 -2.367188 8.046875 -2.296875 C 7.773438 -2.222656 7.453125 -2.1875 7.078125 -2.1875 C 6.429688 -2.1875 5.898438 -2.351562 5.484375 -2.6875 C 5.066406 -3.019531 4.859375 -3.5 4.859375 -4.125 C 4.859375 -4.726562 5.066406 -5.207031 5.484375 -5.5625 C 5.910156 -5.925781 6.488281 -6.109375 7.21875 -6.109375 C 7.363281 -6.109375 7.550781 -6.101562 7.78125 -6.09375 C 8.019531 -6.082031 8.21875 -6.054688 8.375 -6.015625 L 8.25 -4.765625 C 8.144531 -4.785156 8.023438 -4.804688 7.890625 -4.828125 C 7.765625 -4.847656 7.617188 -4.859375 7.453125 -4.859375 C 6.816406 -4.859375 6.5 -4.625 6.5 -4.15625 C 6.5 -3.90625 6.578125 -3.726562 6.734375 -3.625 C 6.898438 -3.519531 7.109375 -3.46875 7.359375 -3.46875 Z M 7.359375 -3.46875 "/></g></g></g><g fill="#000000" fill-opacity="1"><g transform="translate(112.551498, 12.028604)"><g><path d="M 8.15625 -6.59375 L 6.953125 -6.59375 L 6.953125 0 L 5.234375 0 L 5.234375 -1.609375 C 4.929688 -1.441406 4.617188 -1.320312 4.296875 -1.25 C 3.984375 -1.175781 3.585938 -1.140625 3.109375 -1.140625 C 2.628906 -1.140625 2.191406 -1.222656 1.796875 -1.390625 C 1.398438 -1.554688 1.078125 -1.8125 0.828125 -2.15625 C 0.585938 -2.507812 0.46875 -2.945312 0.46875 -3.46875 C 0.46875 -3.9375 0.585938 -4.347656 0.828125 -4.703125 C 1.066406 -5.054688 1.390625 -5.328125 1.796875 -5.515625 C 2.210938 -5.710938 2.695312 -5.8125 3.25 -5.8125 C 3.59375 -5.8125 3.90625 -5.800781 4.1875 -5.78125 C 4.46875 -5.757812 4.679688 -5.734375 4.828125 -5.703125 L 4.703125 -4.328125 C 4.378906 -4.390625 4.023438 -4.421875 3.640625 -4.421875 C 3.578125 -4.421875 3.519531 -4.421875 3.46875 -4.421875 L 4.671875 -2.921875 C 4.773438 -2.992188 4.867188 -3.066406 4.953125 -3.140625 C 5.046875 -3.210938 5.140625 -3.300781 5.234375 -3.40625 L 5.234375 -6.59375 L 0 -6.59375 L 0 -8.015625 L 8.15625 -8.015625 Z M 2.15625 -3.46875 C 2.15625 -3.09375 2.265625 -2.835938 2.484375 -2.703125 C 2.703125 -2.566406 2.984375 -2.5 3.328125 -2.5 C 3.492188 -2.5 3.65625 -2.515625 3.8125 -2.546875 L 2.515625 -4.1875 C 2.273438 -4.019531 2.15625 -3.78125 2.15625 -3.46875 Z M 2.15625 -3.46875 "/></g></g></g><g clip-path="url(#dffe685acc)"><g fill="#000000" fill-opacity="1"><g transform="translate(120.531472, 12.028604)"><g><path d="M 5.375 -0.921875 L 4.25 0.21875 C 3.488281 -0.425781 2.804688 -1.035156 2.203125 -1.609375 C 1.609375 -2.179688 1.160156 -2.664062 0.859375 -3.0625 C 0.660156 -3.320312 0.535156 -3.539062 0.484375 -3.71875 C 0.429688 -3.894531 0.40625 -4.054688 0.40625 -4.203125 C 0.40625 -4.421875 0.476562 -4.632812 0.625 -4.84375 C 0.769531 -5.0625 1.035156 -5.171875 1.421875 -5.171875 C 1.847656 -5.171875 2.210938 -5.019531 2.515625 -4.71875 C 2.960938 -5.007812 3.1875 -5.40625 3.1875 -5.90625 C 3.1875 -6.15625 3.160156 -6.382812 3.109375 -6.59375 L 0 -6.59375 L 0 -8.015625 L 5.828125 -8.015625 L 5.828125 -6.59375 L 4.796875 -6.59375 C 4.835938 -6.46875 4.867188 -6.328125 4.890625 -6.171875 C 4.910156 -6.015625 4.921875 -5.832031 4.921875 -5.625 C 4.921875 -5.03125 4.738281 -4.53125 4.375 -4.125 C 4.019531 -3.71875 3.507812 -3.390625 2.84375 -3.140625 C 3.175781 -2.804688 3.5625 -2.441406 4 -2.046875 C 4.4375 -1.648438 4.894531 -1.273438 5.375 -0.921875 Z M 5.375 -0.921875 "/></g></g></g></g></g></g></g></g></g></svg>