<svg xmlns="http://www.w3.org/2000/svg" xmlns:xlink="http://www.w3.org/1999/xlink" width="207" zoomAndPan="magnify" viewBox="0 0 155.25 47.25" height="63" preserveAspectRatio="xMidYMid meet" version="1.0"><defs><g/><clipPath id="28071700d2"><path d="M 0.84375 0 L 153.667969 0 L 153.667969 46.511719 L 0.84375 46.511719 Z M 0.84375 0 " clip-rule="nonzero"/></clipPath><clipPath id="e489d34f40"><path d="M 2 2 L 31 2 L 31 46.511719 L 2 46.511719 Z M 2 2 " clip-rule="nonzero"/></clipPath><clipPath id="f7d6159dce"><path d="M 11 32 L 20 32 L 20 38.8125 L 11 38.8125 Z M 11 32 " clip-rule="nonzero"/></clipPath><clipPath id="2ea952fd56"><path d="M 8 34 L 15 34 L 15 38.8125 L 8 38.8125 Z M 8 34 " clip-rule="nonzero"/></clipPath><clipPath id="b6455b7881"><path d="M 3.382812 13.128906 L 11 13.128906 L 11 21 L 3.382812 21 Z M 3.382812 13.128906 " clip-rule="nonzero"/></clipPath><clipPath id="129f78238c"><path d="M 4 13.128906 L 10 13.128906 L 10 20 L 4 20 Z M 4 13.128906 " clip-rule="nonzero"/></clipPath><clipPath id="6d0bedda30"><path d="M 3.382812 14 L 11 14 L 11 21 L 3.382812 21 Z M 3.382812 14 " clip-rule="nonzero"/></clipPath><clipPath id="1ddc1685e4"><path d="M 3.382812 20 L 13 20 L 13 27 L 3.382812 27 Z M 3.382812 20 " clip-rule="nonzero"/></clipPath><clipPath id="5fae5107ca"><path d="M 3.382812 21 L 13 21 L 13 27 L 3.382812 27 Z M 3.382812 21 " clip-rule="nonzero"/></clipPath><clipPath id="0119ed2436"><path d="M 3.382812 20 L 13 20 L 13 25 L 3.382812 25 Z M 3.382812 20 " clip-rule="nonzero"/></clipPath><clipPath id="efd60fa620"><path d="M 13 33 L 19 33 L 19 38.8125 L 13 38.8125 Z M 13 33 " clip-rule="nonzero"/></clipPath><clipPath id="c81d0c8b16"><path d="M 12 33 L 20 33 L 20 38.8125 L 12 38.8125 Z M 12 33 " clip-rule="nonzero"/></clipPath><clipPath id="3f04ba5301"><path d="M 13 38 L 15 38 L 15 38.8125 L 13 38.8125 Z M 13 38 " clip-rule="nonzero"/></clipPath><clipPath id="2209086cb3"><path d="M 12 38 L 15 38 L 15 38.8125 L 12 38.8125 Z M 12 38 " clip-rule="nonzero"/></clipPath><clipPath id="56270a301b"><path d="M 13 38 L 14 38 L 14 38.8125 L 13 38.8125 Z M 13 38 " clip-rule="nonzero"/></clipPath><clipPath id="ca373ba894"><path d="M 13.171875 34.308594 L 20.507812 34.308594 L 20.507812 38.8125 L 13.171875 38.8125 Z M 13.171875 34.308594 " clip-rule="nonzero"/></clipPath><clipPath id="17772b8981"><path d="M 16.210938 34.515625 L 20.507812 34.515625 L 20.507812 38.8125 L 16.210938 38.8125 Z M 16.210938 34.515625 " clip-rule="nonzero"/></clipPath><clipPath id="493cc7054a"><path d="M 1.132812 0.234375 L 12 0.234375 L 12 12 L 1.132812 12 Z M 1.132812 0.234375 " clip-rule="nonzero"/></clipPath><clipPath id="cbd042295f"><path d="M 1.132812 2 L 12 2 L 12 12 L 1.132812 12 Z M 1.132812 2 " clip-rule="nonzero"/></clipPath><clipPath id="fd44bf41da"><path d="M 1.132812 10 L 16 10 L 16 20 L 1.132812 20 Z M 1.132812 10 " clip-rule="nonzero"/></clipPath><clipPath id="3f1569c788"><path d="M 1.132812 13 L 16 13 L 16 20 L 1.132812 20 Z M 1.132812 13 " clip-rule="nonzero"/></clipPath><clipPath id="0dce5750f7"><path d="M 1.132812 10 L 16 10 L 16 18 L 1.132812 18 Z M 1.132812 10 " clip-rule="nonzero"/></clipPath><clipPath id="b123671181"><path d="M 15.917969 32.09375 L 28.328125 32.09375 L 28.328125 44.511719 L 15.917969 44.511719 Z M 15.917969 32.09375 " clip-rule="nonzero"/></clipPath><clipPath id="2b956ba666"><path d="M 20.507812 32.40625 L 28.328125 32.40625 L 28.328125 40.273438 L 20.507812 40.273438 Z M 20.507812 32.40625 " clip-rule="nonzero"/></clipPath><clipPath id="15d6919eec"><rect x="0" width="29" y="0" height="45"/></clipPath><clipPath id="a900ee30a7"><path d="M 68 37 L 75 37 L 75 46.511719 L 68 46.511719 Z M 68 37 " clip-rule="nonzero"/></clipPath></defs><g clip-path="url(#28071700d2)"><path fill="#ffffff" d="M 0.84375 0 L 153.667969 0 L 153.667969 46.511719 L 0.84375 46.511719 Z M 0.84375 0 " fill-opacity="1" fill-rule="nonzero"/></g><g clip-path="url(#e489d34f40)"><g transform="matrix(1, 0, 0, 1, 2, 2)"><g clip-path="url(#15d6919eec)"><g clip-path="url(#f7d6159dce)"><path fill="#edae79" d="M 17.175781 33.851562 C 16.761719 33.480469 16.574219 32.988281 16.421875 32.386719 C 16.558594 33.011719 16.464844 33.433594 16.09375 33.753906 C 15.679688 34.117188 14.617188 34.394531 13.761719 34.132812 C 14.089844 34.777344 14.582031 36.445312 13.320312 36.957031 C 12.804688 37.164062 12.292969 37.164062 11.824219 37.070312 C 12.214844 37.15625 13.0625 37.574219 13.367188 37.894531 C 13.667969 38.214844 14.601562 39.503906 14.601562 39.503906 L 19.710938 36.480469 C 19.710938 36.480469 17.585938 34.226562 17.175781 33.851562 " fill-opacity="1" fill-rule="nonzero"/></g><path fill="#ebaa72" d="M 13.0625 33.730469 C 12.140625 32.832031 12.144531 31.164062 12.621094 29.980469 C 12.113281 29.664062 11.292969 28.882812 11.035156 28.355469 C 10.960938 28.277344 10.886719 28.203125 10.816406 28.117188 C 10.710938 28.109375 9.339844 27.203125 9.234375 27.210938 C 8.339844 27.28125 8.710938 28.726562 8.414062 29.292969 C 8.027344 30.03125 7.902344 33.597656 8.261719 34.574219 C 8.621094 35.546875 9.535156 35.972656 10.027344 36.261719 C 10.523438 36.546875 11.914062 37.527344 13.320312 36.957031 C 14.582031 36.445312 14.089844 34.777344 13.761719 34.132812 C 13.503906 34.054688 13.261719 33.925781 13.0625 33.730469 " fill-opacity="1" fill-rule="nonzero"/><path fill="#ebaa72" d="M 7.269531 28.457031 C 7.515625 28.570312 7.925781 28.9375 8.167969 29.105469 C 8.457031 29.289062 9.023438 29.429688 9.5 29.605469 C 9.578125 29.394531 9.652344 29.089844 9.5 28.9375 C 9.257812 28.890625 7.5 28.488281 7.191406 28.429688 C 7.21875 28.433594 7.246094 28.445312 7.269531 28.457031 " fill-opacity="1" fill-rule="nonzero"/><g clip-path="url(#2ea952fd56)"><path fill="#e3a46f" d="M 8.160156 34.152344 C 8.179688 34.234375 8.199219 34.308594 8.222656 34.375 C 8.59375 35.34375 9.511719 35.761719 10.007812 36.042969 C 10.324219 36.21875 11.003906 36.671875 11.816406 36.832031 C 12.207031 36.914062 13.058594 37.324219 13.363281 37.640625 C 13.671875 37.957031 14.617188 39.238281 14.617188 39.238281 L 14.601562 39.503906 C 14.601562 39.503906 13.667969 38.214844 13.367188 37.894531 C 13.0625 37.574219 12.214844 37.15625 11.824219 37.070312 C 11.015625 36.902344 10.34375 36.441406 10.027344 36.261719 C 9.535156 35.972656 8.621094 35.546875 8.261719 34.574219 C 8.222656 34.464844 8.1875 34.320312 8.160156 34.152344 " fill-opacity="1" fill-rule="nonzero"/></g><path fill="#ebaa72" d="M 7.753906 26.605469 C 7.453125 26.480469 6.84375 26.417969 6.671875 26.417969 C 6.820312 26.4375 6.949219 26.503906 7.039062 26.609375 C 7.132812 26.722656 7.519531 27.398438 7.09375 28.003906 C 7 28.136719 6.878906 28.234375 6.753906 28.296875 C 7.015625 28.320312 7.449219 28.339844 7.644531 28.371094 C 7.917969 27.882812 7.789062 27.527344 7.789062 27.527344 C 7.789062 27.527344 7.75 26.792969 7.753906 26.605469 " fill-opacity="1" fill-rule="nonzero"/><path fill="#4d4d4d" d="M 10.566406 37.6875 L 11.234375 37.550781 C 11.734375 37.449219 12.0625 36.96875 11.976562 36.46875 L 8.949219 19.3125 L 5.632812 19.988281 L 9.464844 36.976562 C 9.582031 37.472656 10.070312 37.785156 10.566406 37.6875 " fill-opacity="1" fill-rule="nonzero"/><path fill="#333333" d="M 11.507812 36.335938 L 8.542969 19.792969 L 8.785156 19.683594 L 11.75 36.222656 C 11.828125 36.6875 11.570312 37.121094 11.164062 37.226562 C 11.421875 37.042969 11.570312 36.699219 11.507812 36.335938 " fill-opacity="1" fill-rule="nonzero"/><path fill="#333333" d="M 5.855469 19.941406 L 9.640625 36.738281 C 9.757812 37.234375 10.246094 37.546875 10.746094 37.445312 L 11.414062 37.3125 C 11.597656 37.273438 11.757812 37.183594 11.882812 37.0625 C 11.753906 37.304688 11.523438 37.492188 11.234375 37.550781 L 10.566406 37.6875 C 10.070312 37.785156 9.582031 37.472656 9.464844 36.976562 L 5.632812 19.988281 L 5.855469 19.941406 " fill-opacity="1" fill-rule="nonzero"/><g clip-path="url(#b6455b7881)"><path fill="#333333" d="M 6.453125 20.714844 L 8.535156 20.292969 C 9.804688 20.035156 10.574219 18.738281 10.199219 17.496094 L 9.40625 14.871094 C 9.078125 13.785156 7.984375 13.128906 6.878906 13.355469 L 5.300781 13.671875 C 4.195312 13.898438 3.4375 14.929688 3.554688 16.058594 L 3.839844 18.785156 C 3.972656 20.078125 5.183594 20.972656 6.453125 20.714844 " fill-opacity="1" fill-rule="nonzero"/></g><g clip-path="url(#129f78238c)"><path fill="#545454" d="M 9.632812 17.78125 L 8.929688 15.449219 C 8.636719 14.484375 7.664062 13.902344 6.683594 14.101562 L 5.28125 14.386719 C 4.769531 14.488281 4.34375 14.789062 4.066406 15.191406 C 4.308594 14.621094 4.820312 14.179688 5.46875 14.046875 L 6.867188 13.761719 C 7.851562 13.566406 8.824219 14.148438 9.113281 15.113281 L 9.816406 17.441406 C 9.996094 18.039062 9.878906 18.648438 9.558594 19.117188 C 9.730469 18.710938 9.769531 18.242188 9.632812 17.78125 " fill-opacity="1" fill-rule="nonzero"/></g><g clip-path="url(#6d0bedda30)"><path fill="#1a1a1a" d="M 3.839844 18.785156 L 3.554688 16.058594 C 3.5 15.539062 3.632812 15.039062 3.898438 14.628906 C 3.789062 14.933594 3.746094 15.265625 3.78125 15.605469 L 4.0625 18.332031 C 4.199219 19.625 5.410156 20.519531 6.675781 20.261719 L 8.761719 19.839844 C 9.367188 19.714844 9.855469 19.359375 10.164062 18.882812 C 9.914062 19.578125 9.320312 20.132812 8.535156 20.292969 L 6.453125 20.714844 C 5.183594 20.972656 3.972656 20.078125 3.839844 18.785156 " fill-opacity="1" fill-rule="nonzero"/></g><g clip-path="url(#1ddc1685e4)"><path fill="#ff252f" d="M 4.265625 26.109375 L 12.574219 24.425781 L 11.6875 20.027344 L 3.382812 21.710938 L 4.265625 26.109375 " fill-opacity="1" fill-rule="nonzero"/></g><g clip-path="url(#5fae5107ca)"><path fill="#d00f15" d="M 3.664062 21.65625 L 4.480469 25.703125 L 12.503906 24.078125 L 12.574219 24.425781 L 4.265625 26.109375 L 3.382812 21.710938 L 3.664062 21.65625 " fill-opacity="1" fill-rule="nonzero"/></g><g clip-path="url(#0119ed2436)"><path fill="#ff5761" d="M 11.453125 20.382812 L 3.441406 22.003906 L 3.382812 21.710938 L 11.6875 20.027344 L 12.574219 24.425781 L 12.28125 24.488281 L 11.453125 20.382812 " fill-opacity="1" fill-rule="nonzero"/></g><path fill="#ffffff" d="M 6.144531 24.503906 L 5.660156 24.605469 L 4.933594 23.707031 L 5.132812 24.710938 L 4.628906 24.8125 L 4.226562 22.78125 L 4.710938 22.683594 L 5.4375 23.574219 L 5.238281 22.578125 L 5.742188 22.476562 L 6.144531 24.503906 " fill-opacity="1" fill-rule="nonzero"/><path fill="#ffffff" d="M 7.84375 24.164062 L 6.441406 24.445312 L 6.035156 22.417969 L 7.414062 22.136719 L 7.515625 22.636719 L 6.636719 22.8125 L 6.6875 23.070312 L 7.460938 22.914062 L 7.558594 23.394531 L 6.785156 23.550781 L 6.84375 23.847656 L 7.746094 23.664062 L 7.84375 24.164062 " fill-opacity="1" fill-rule="nonzero"/><path fill="#ffffff" d="M 9.777344 21.660156 L 9.726562 23.78125 L 9.214844 23.886719 L 8.769531 22.796875 L 8.777344 23.976562 L 8.265625 24.078125 L 7.40625 22.140625 L 7.9375 22.035156 L 8.363281 23.101562 L 8.367188 21.945312 L 8.816406 21.855469 L 9.257812 22.917969 L 9.238281 21.769531 L 9.777344 21.660156 " fill-opacity="1" fill-rule="nonzero"/><path fill="#ffffff" d="M 11.542969 22.746094 C 11.59375 23.007812 11.550781 23.179688 11.410156 23.363281 C 11.285156 23.519531 10.753906 23.71875 10.449219 23.5625 C 10.230469 23.449219 10.175781 23.328125 10.128906 23.246094 C 10.078125 23.128906 10.097656 23.195312 10.03125 22.945312 L 10.542969 22.84375 C 10.550781 22.871094 10.550781 22.894531 10.550781 22.914062 L 10.5625 22.964844 C 10.59375 23.03125 10.601562 23.050781 10.671875 23.09375 C 10.757812 23.148438 10.871094 23.121094 10.953125 23.085938 C 11.054688 23.03125 11.058594 22.980469 11.046875 22.917969 C 11.035156 22.859375 11 22.820312 10.945312 22.800781 C 10.679688 22.71875 10.511719 22.804688 10.210938 22.660156 C 10.144531 22.628906 10.09375 22.578125 10.046875 22.503906 C 9.964844 22.367188 9.832031 21.964844 10.039062 21.707031 C 10.148438 21.589844 10.257812 21.539062 10.398438 21.480469 C 10.542969 21.449219 10.828125 21.363281 11.023438 21.5 C 11.28125 21.679688 11.316406 21.914062 11.34375 22.023438 L 10.859375 22.121094 C 10.839844 22.03125 10.84375 22.03125 10.820312 21.996094 C 10.75 21.929688 10.714844 21.90625 10.601562 21.929688 C 10.535156 21.941406 10.492188 21.96875 10.464844 22.007812 C 10.441406 22.039062 10.433594 22.070312 10.441406 22.109375 C 10.480469 22.304688 10.851562 22.148438 11.242188 22.308594 C 11.394531 22.367188 11.496094 22.511719 11.542969 22.746094 " fill-opacity="1" fill-rule="nonzero"/><path fill="#cccccc" d="M 12.34375 31.050781 C 12.34375 31.046875 12.34375 31.046875 12.34375 31.046875 C 12.359375 30.933594 12.375 30.824219 12.398438 30.714844 C 12.375 30.828125 12.359375 30.9375 12.34375 31.050781 M 12.621094 29.984375 C 12.621094 29.984375 12.621094 29.984375 12.621094 29.980469 C 12.621094 29.984375 12.621094 29.984375 12.621094 29.984375 M 11.035156 28.355469 C 10.960938 28.277344 10.886719 28.203125 10.816406 28.117188 C 10.886719 28.203125 10.960938 28.277344 11.035156 28.355469 M 10.816406 28.117188 C 10.804688 28.113281 10.789062 28.109375 10.765625 28.097656 C 10.78125 28.105469 10.800781 28.109375 10.816406 28.117188 M 10.648438 28.035156 C 10.613281 28.015625 10.574219 27.992188 10.53125 27.96875 C 10.566406 27.988281 10.609375 28.011719 10.648438 28.035156 " fill-opacity="1" fill-rule="nonzero"/><path fill="#bc885b" d="M 12.34375 31.046875 C 12.367188 30.6875 12.433594 30.332031 12.542969 30.007812 C 12.011719 29.722656 11.199219 28.957031 10.910156 28.449219 C 10.796875 28.347656 10.632812 28.09375 10.523438 27.964844 C 10.527344 27.964844 10.53125 27.964844 10.53125 27.96875 C 10.574219 27.992188 10.613281 28.015625 10.648438 28.035156 C 10.6875 28.058594 10.726562 28.082031 10.765625 28.097656 C 10.789062 28.109375 10.804688 28.113281 10.816406 28.117188 C 10.886719 28.203125 10.960938 28.277344 11.035156 28.355469 C 11.292969 28.882812 12.113281 29.664062 12.621094 29.980469 C 12.621094 29.984375 12.621094 29.984375 12.621094 29.984375 C 12.523438 30.222656 12.453125 30.46875 12.398438 30.714844 C 12.375 30.824219 12.359375 30.933594 12.34375 31.046875 " fill-opacity="1" fill-rule="nonzero"/><path fill="#fabb85" d="M 10.683594 24.996094 C 10.492188 25.050781 9.910156 25.507812 10.171875 26.613281 C 10.4375 27.722656 10.722656 28.035156 11.035156 28.355469 C 11.292969 28.882812 12.113281 29.664062 12.621094 29.980469 C 12.144531 31.164062 12.140625 32.832031 13.0625 33.730469 C 13.910156 34.554688 15.550781 34.230469 16.09375 33.753906 C 16.652344 33.269531 16.582031 32.554688 16.042969 31.269531 C 15.730469 30.53125 15.140625 29.28125 15.023438 29.050781 C 14.90625 28.820312 14.582031 28.558594 14.242188 28.394531 C 13.90625 28.230469 13.21875 27.839844 12.90625 27.527344 C 12.671875 27.292969 12.480469 27.027344 12.085938 26.785156 C 11.925781 26.6875 11.410156 26.148438 11.367188 25.773438 C 11.320312 25.394531 11.359375 25.183594 11.203125 25.054688 C 11.042969 24.921875 10.796875 24.964844 10.683594 24.996094 " fill-opacity="1" fill-rule="nonzero"/><path fill="#facba3" d="M 15.90625 31.375 C 15.59375 30.640625 15.003906 29.386719 14.886719 29.15625 C 14.769531 28.925781 14.445312 28.667969 14.109375 28.5 C 13.769531 28.335938 13.082031 27.945312 12.769531 27.632812 C 12.535156 27.402344 12.34375 27.132812 11.949219 26.894531 C 11.789062 26.792969 11.273438 26.257812 11.230469 25.878906 C 11.183594 25.503906 11.222656 25.289062 11.066406 25.160156 C 10.90625 25.03125 10.660156 25.070312 10.546875 25.101562 C 10.519531 25.109375 10.488281 25.125 10.453125 25.144531 C 10.542969 25.058594 10.628906 25.011719 10.683594 24.996094 C 10.796875 24.964844 11.042969 24.921875 11.203125 25.054688 C 11.359375 25.183594 11.320312 25.394531 11.367188 25.773438 C 11.410156 26.148438 11.925781 26.6875 12.085938 26.785156 C 12.480469 27.027344 12.671875 27.292969 12.90625 27.527344 C 13.21875 27.839844 13.90625 28.230469 14.242188 28.394531 C 14.582031 28.558594 14.90625 28.820312 15.023438 29.050781 C 15.140625 29.28125 15.730469 30.53125 16.042969 31.269531 C 16.582031 32.554688 16.652344 33.269531 16.09375 33.753906 C 16.0625 33.785156 16.023438 33.8125 15.980469 33.84375 C 16.511719 33.355469 16.4375 32.644531 15.90625 31.375 " fill-opacity="1" fill-rule="nonzero"/><path fill="#fadabe" d="M 11.148438 25.332031 C 11.164062 25.5 11.3125 25.878906 11.457031 26.066406 C 11.464844 26.078125 11.484375 26.070312 11.484375 26.054688 C 11.433594 25.765625 11.382812 25.371094 11.332031 25.191406 C 11.328125 25.167969 11.300781 25.160156 11.285156 25.171875 C 11.242188 25.199219 11.1875 25.25 11.160156 25.292969 C 11.152344 25.304688 11.148438 25.316406 11.148438 25.332031 " fill-opacity="1" fill-rule="nonzero"/><path fill="#cccccc" d="M 7.644531 28.90625 C 7.605469 28.851562 7.582031 28.792969 7.566406 28.726562 L 7.546875 28.632812 C 7.5625 28.640625 7.574219 28.652344 7.589844 28.660156 L 7.644531 28.90625 M 7.539062 28.503906 C 7.535156 28.5 7.527344 28.5 7.523438 28.5 L 7.519531 28.492188 C 7.527344 28.496094 7.53125 28.5 7.539062 28.503906 " fill-opacity="1" fill-rule="nonzero"/><path fill="#bc885b" d="M 7.589844 28.660156 C 7.574219 28.652344 7.5625 28.640625 7.546875 28.632812 L 7.523438 28.5 C 7.527344 28.5 7.535156 28.5 7.539062 28.503906 C 7.542969 28.507812 7.550781 28.511719 7.554688 28.515625 L 7.589844 28.660156 " fill-opacity="1" fill-rule="nonzero"/><path fill="#3e3e3e" d="M 8.832031 29.582031 C 8.707031 29.582031 8.589844 29.523438 8.515625 29.425781 L 8.367188 29.234375 L 8.328125 29.242188 C 8.296875 29.25 8.265625 29.253906 8.234375 29.253906 C 8.136719 29.253906 8.039062 29.222656 7.957031 29.164062 L 7.929688 29.144531 L 7.835938 28.722656 C 7.992188 28.84375 8.144531 28.96875 8.257812 29.046875 C 8.507812 29.207031 8.964844 29.332031 9.390625 29.476562 L 8.910156 29.574219 C 8.882812 29.578125 8.859375 29.582031 8.832031 29.582031 " fill-opacity="1" fill-rule="nonzero"/><path fill="#292929" d="M 7.929688 29.144531 L 7.757812 29.019531 C 7.710938 28.988281 7.675781 28.949219 7.644531 28.90625 L 7.589844 28.660156 L 7.554688 28.515625 C 7.644531 28.574219 7.738281 28.648438 7.835938 28.722656 L 7.929688 29.144531 " fill-opacity="1" fill-rule="nonzero"/><path fill="#bc885b" d="M 9.074219 35.238281 C 8.960938 35.199219 8.863281 35.167969 8.796875 35.148438 C 8.765625 35.140625 8.722656 35.121094 8.667969 35.097656 C 8.636719 35.058594 8.601562 35.023438 8.570312 34.984375 C 8.632812 35.011719 8.675781 35.027344 8.707031 35.035156 C 8.789062 35.0625 8.910156 35.105469 9.054688 35.152344 L 9.074219 35.238281 " fill-opacity="1" fill-rule="nonzero"/><path fill="#b68359" d="M 8.667969 35.097656 C 8.613281 35.074219 8.550781 35.042969 8.476562 35.003906 C 8.457031 34.976562 8.4375 34.941406 8.417969 34.910156 C 8.476562 34.941406 8.527344 34.964844 8.570312 34.984375 C 8.601562 35.023438 8.636719 35.058594 8.667969 35.097656 " fill-opacity="1" fill-rule="nonzero"/><path fill="#3e3e3e" d="M 10.234375 35.488281 C 9.949219 35.488281 9.609375 35.40625 9.320312 35.316406 L 9.300781 35.226562 C 9.574219 35.308594 9.882812 35.378906 10.144531 35.378906 C 10.261719 35.378906 10.367188 35.363281 10.460938 35.332031 C 10.605469 35.28125 10.707031 35.21875 10.785156 35.140625 C 10.90625 35.085938 10.984375 34.96875 11.039062 34.816406 C 11.078125 34.703125 11.066406 34.539062 10.980469 34.425781 C 10.960938 34.347656 10.925781 34.265625 10.882812 34.199219 C 10.976562 34.285156 11.039062 34.410156 11.070312 34.539062 C 11.15625 34.648438 11.167969 34.816406 11.128906 34.929688 C 11.074219 35.082031 10.996094 35.199219 10.875 35.25 C 10.796875 35.328125 10.695312 35.390625 10.550781 35.441406 C 10.457031 35.476562 10.351562 35.488281 10.234375 35.488281 " fill-opacity="1" fill-rule="nonzero"/><path fill="#292929" d="M 9.320312 35.316406 C 9.234375 35.289062 9.148438 35.265625 9.074219 35.238281 L 9.054688 35.152344 C 9.128906 35.175781 9.214844 35.203125 9.300781 35.226562 L 9.320312 35.316406 " fill-opacity="1" fill-rule="nonzero"/><path fill="#3e3e3e" d="M 10.464844 33.832031 C 10.410156 33.832031 10.355469 33.824219 10.304688 33.816406 C 10.265625 33.808594 10.21875 33.796875 10.167969 33.78125 C 10.007812 33.710938 9.835938 33.632812 9.675781 33.5625 C 9.898438 33.625 10.09375 33.679688 10.214844 33.703125 C 10.265625 33.714844 10.320312 33.71875 10.375 33.71875 C 10.597656 33.71875 10.832031 33.625 10.984375 33.425781 L 11.015625 33.601562 C 10.867188 33.757812 10.660156 33.832031 10.464844 33.832031 M 11.21875 33.25 L 11.164062 32.953125 C 11.191406 32.707031 11.148438 32.507812 11.058594 32.359375 L 11.054688 32.351562 C 11.222656 32.523438 11.308594 32.796875 11.238281 33.164062 C 11.230469 33.195312 11.226562 33.222656 11.21875 33.25 " fill-opacity="1" fill-rule="nonzero"/><path fill="#292929" d="M 11.015625 33.601562 L 10.984375 33.425781 C 11.0625 33.328125 11.121094 33.203125 11.148438 33.054688 C 11.15625 33.019531 11.160156 32.984375 11.164062 32.953125 L 11.21875 33.25 C 11.175781 33.394531 11.105469 33.511719 11.015625 33.601562 M 11.058594 32.359375 C 11.054688 32.355469 11.050781 32.347656 11.046875 32.34375 C 11.050781 32.347656 11.054688 32.351562 11.054688 32.351562 L 11.058594 32.359375 " fill-opacity="1" fill-rule="nonzero"/><path fill="#3e3e3e" d="M 9.871094 31.785156 C 9.777344 31.753906 9.679688 31.71875 9.589844 31.6875 L 9.578125 31.6875 L 9.589844 31.6875 C 9.609375 31.691406 9.632812 31.691406 9.65625 31.691406 C 9.945312 31.691406 10.269531 31.390625 10.347656 31.019531 C 10.414062 30.730469 10.40625 30.355469 10.210938 30.066406 C 10.496094 30.363281 10.511719 30.804688 10.4375 31.132812 C 10.371094 31.449219 10.121094 31.714844 9.871094 31.785156 " fill-opacity="1" fill-rule="nonzero"/><path fill="#fabb85" d="M 10.652344 33.996094 C 10.457031 33.921875 10.039062 33.71875 9.679688 33.5625 C 9.589844 33.539062 9.492188 33.511719 9.398438 33.480469 C 9.671875 33.679688 9.691406 34.011719 9.515625 34.4375 C 9.296875 34.96875 8.890625 35.085938 8.707031 35.035156 C 9.035156 35.136719 9.972656 35.507812 10.460938 35.332031 C 10.773438 35.21875 10.890625 35.058594 10.976562 34.804688 C 11.0625 34.554688 10.945312 34.109375 10.652344 33.996094 " fill-opacity="1" fill-rule="nonzero"/><path fill="#fadabe" d="M 10.222656 34.46875 C 10.164062 34.609375 10.070312 34.761719 10.085938 34.867188 C 10.105469 34.976562 10.398438 35.183594 10.652344 35.171875 C 10.855469 35.160156 10.96875 35.019531 11.039062 34.816406 C 11.089844 34.679688 11.058594 34.457031 10.90625 34.359375 C 10.753906 34.261719 10.503906 34.113281 10.390625 34.167969 C 10.285156 34.214844 10.28125 34.34375 10.222656 34.46875 " fill-opacity="1" fill-rule="nonzero"/><path fill="#fab478" d="M 8.328125 33.164062 C 8.308594 33.160156 8.289062 33.15625 8.269531 33.148438 C 8.160156 33.117188 7.757812 32.921875 7.355469 32.695312 C 7.199219 32.75 7.066406 32.878906 6.984375 33.058594 C 6.746094 33.578125 6.957031 34.140625 7.519531 34.441406 C 8.078125 34.742188 8.570312 35 8.707031 35.035156 C 8.890625 35.085938 9.296875 34.96875 9.515625 34.4375 C 9.691406 34.011719 9.671875 33.679688 9.398438 33.480469 C 9 33.367188 8.578125 33.234375 8.328125 33.164062 " fill-opacity="1" fill-rule="nonzero"/><path fill="#cf8b50" d="M 9.679688 33.5625 C 9.582031 33.539062 9.492188 33.507812 9.398438 33.480469 C 9.460938 33.527344 9.511719 33.582031 9.550781 33.644531 C 9.691406 33.683594 9.835938 33.726562 9.976562 33.765625 C 10.082031 33.792969 10.1875 33.824219 10.296875 33.839844 C 10.105469 33.753906 9.882812 33.652344 9.679688 33.5625 C 9.679688 33.5625 9.882812 33.652344 9.679688 33.5625 " fill-opacity="1" fill-rule="nonzero"/><path fill="#cf8b50" d="M 8.65625 33.261719 C 8.546875 33.226562 8.4375 33.195312 8.328125 33.164062 C 8.25 33.148438 8.175781 33.113281 8.101562 33.082031 C 8.023438 33.046875 7.945312 33.007812 7.871094 32.96875 C 7.695312 32.882812 7.523438 32.792969 7.355469 32.695312 C 7.320312 32.707031 7.289062 32.722656 7.257812 32.742188 C 7.476562 32.871094 7.699219 32.992188 7.929688 33.105469 C 8.011719 33.148438 8.097656 33.1875 8.183594 33.226562 C 8.246094 33.253906 8.308594 33.28125 8.378906 33.292969 C 8.644531 33.371094 9.125 33.519531 9.550781 33.644531 C 9.511719 33.582031 9.460938 33.527344 9.398438 33.480469 C 9.144531 33.40625 8.878906 33.328125 8.65625 33.261719 C 8.644531 33.257812 8.878906 33.328125 8.65625 33.261719 " fill-opacity="1" fill-rule="nonzero"/><path fill="#fabb85" d="M 10.707031 32.078125 C 10.527344 32.015625 10.035156 31.84375 9.589844 31.6875 C 9.433594 31.660156 9.207031 31.597656 8.972656 31.527344 C 9.269531 31.785156 9.242188 32.214844 9.160156 32.398438 C 8.988281 32.808594 8.714844 33.234375 8.328125 33.164062 C 8.785156 33.296875 9.84375 33.625 10.214844 33.703125 C 10.585938 33.78125 11.046875 33.585938 11.148438 33.054688 C 11.25 32.523438 11.023438 32.1875 10.707031 32.078125 " fill-opacity="1" fill-rule="nonzero"/><path fill="#fadabe" d="M 9.96875 32.578125 C 9.855469 32.863281 9.769531 33.128906 9.984375 33.261719 C 10.164062 33.375 10.316406 33.460938 10.433594 33.511719 C 10.476562 33.53125 10.527344 33.535156 10.574219 33.519531 C 10.789062 33.449219 10.949219 33.292969 11.027344 33.082031 C 11.082031 32.933594 11.0625 32.785156 11.015625 32.648438 C 10.992188 32.582031 10.945312 32.527344 10.886719 32.496094 C 10.628906 32.363281 10.445312 32.285156 10.273438 32.304688 C 10.085938 32.328125 10.019531 32.453125 9.96875 32.578125 " fill-opacity="1" fill-rule="nonzero"/><path fill="#fab478" d="M 8.335938 31.347656 C 7.683594 31.195312 7.363281 30.988281 7.03125 30.734375 C 6.957031 30.675781 6.886719 30.613281 6.824219 30.546875 C 6.621094 30.578125 6.421875 30.691406 6.300781 30.960938 C 6.109375 31.382812 6.195312 31.910156 6.648438 32.25 C 7.101562 32.59375 8.085938 33.09375 8.269531 33.148438 C 8.691406 33.277344 8.980469 32.828125 9.160156 32.398438 C 9.242188 32.214844 9.269531 31.785156 8.972656 31.527344 C 8.75 31.457031 8.515625 31.386719 8.335938 31.347656 " fill-opacity="1" fill-rule="nonzero"/><path fill="#cf8b50" d="M 7.046875 30.890625 C 7.058594 30.898438 7.070312 30.90625 7.078125 30.910156 C 7.070312 30.90625 7.058594 30.898438 7.046875 30.890625 Z M 9.589844 31.6875 C 9.382812 31.652344 9.171875 31.589844 8.972656 31.527344 C 8.820312 31.480469 8.667969 31.433594 8.511719 31.390625 C 8.355469 31.347656 8.195312 31.316406 8.039062 31.265625 C 7.789062 31.191406 7.554688 31.085938 7.335938 30.949219 C 7.230469 30.882812 7.132812 30.808594 7.03125 30.734375 C 6.957031 30.675781 6.886719 30.613281 6.824219 30.546875 C 6.78125 30.554688 6.734375 30.566406 6.695312 30.578125 C 6.777344 30.671875 6.867188 30.757812 6.972656 30.835938 C 7.171875 30.988281 7.378906 31.128906 7.609375 31.234375 C 7.90625 31.367188 8.21875 31.429688 8.527344 31.515625 C 8.722656 31.570312 8.914062 31.632812 9.109375 31.6875 C 9.078125 31.636719 9.039062 31.589844 8.996094 31.546875 C 9.039062 31.589844 9.078125 31.636719 9.109375 31.6875 C 9.222656 31.71875 9.339844 31.753906 9.457031 31.777344 C 9.570312 31.800781 9.675781 31.800781 9.785156 31.757812 C 9.71875 31.734375 9.652344 31.710938 9.589844 31.6875 C 9.585938 31.6875 9.652344 31.710938 9.589844 31.6875 " fill-opacity="1" fill-rule="nonzero"/><path fill="#fabb85" d="M 9.898438 29.785156 C 9.402344 29.507812 8.546875 29.347656 8.167969 29.105469 C 8.414062 29.273438 8.054688 29.945312 7.898438 30.246094 C 7.730469 30.578125 7.445312 31.011719 7.109375 30.789062 C 7.082031 30.769531 7.058594 30.75 7.03125 30.734375 C 7.363281 30.988281 7.683594 31.195312 8.335938 31.347656 C 8.703125 31.429688 9.28125 31.636719 9.589844 31.6875 C 9.894531 31.738281 10.261719 31.421875 10.347656 31.019531 C 10.4375 30.621094 10.394531 30.058594 9.898438 29.785156 " fill-opacity="1" fill-rule="nonzero"/><path fill="#fab478" d="M 6.367188 28.820312 C 6.121094 29.210938 6.183594 29.707031 6.371094 29.972656 C 6.558594 30.242188 6.773438 30.5625 7.109375 30.789062 C 7.445312 31.011719 7.730469 30.578125 7.898438 30.246094 C 8.054688 29.945312 8.414062 29.273438 8.167969 29.105469 C 7.925781 28.9375 7.515625 28.570312 7.269531 28.457031 C 7.050781 28.355469 6.628906 28.410156 6.367188 28.820312 " fill-opacity="1" fill-rule="nonzero"/><path fill="#fadabe" d="M 8.785156 30.535156 C 8.6875 30.78125 8.71875 31.050781 8.882812 31.164062 C 9.027344 31.265625 9.382812 31.414062 9.628906 31.476562 C 9.6875 31.496094 9.753906 31.484375 9.808594 31.449219 C 10.023438 31.304688 10.089844 31.125 10.148438 30.953125 C 10.207031 30.78125 10.183594 30.523438 10.050781 30.347656 C 10.015625 30.296875 9.96875 30.261719 9.910156 30.242188 C 9.585938 30.132812 9.3125 30.089844 9.128906 30.144531 C 8.949219 30.195312 8.863281 30.351562 8.785156 30.535156 " fill-opacity="1" fill-rule="nonzero"/><path fill="#fabb85" d="M 7.09375 28.003906 C 6.828125 28.382812 6.351562 28.464844 6.125 28.351562 C 5.902344 28.242188 5.691406 27.699219 5.679688 27.539062 C 5.667969 27.378906 5.867188 26.765625 6.027344 26.644531 C 6.183594 26.519531 6.484375 26.402344 6.644531 26.417969 C 6.804688 26.429688 6.945312 26.496094 7.039062 26.609375 C 7.132812 26.722656 7.519531 27.398438 7.09375 28.003906 " fill-opacity="1" fill-rule="nonzero"/><path fill="#fadabe" d="M 5.976562 27.28125 C 5.890625 27.4375 5.847656 27.625 5.863281 27.742188 C 5.878906 27.828125 5.890625 27.917969 5.914062 28.003906 C 5.921875 28.03125 5.960938 28.027344 5.964844 28 C 6.019531 27.671875 6.15625 27.261719 6.382812 27.085938 C 6.398438 27.070312 6.40625 27.042969 6.390625 27.023438 C 6.363281 26.988281 6.296875 26.972656 6.21875 27.023438 C 6.109375 27.09375 6.042969 27.15625 5.976562 27.28125 " fill-opacity="1" fill-rule="nonzero"/><g clip-path="url(#efd60fa620)"><path fill="#cf8b50" d="M 17.175781 33.851562 C 17.167969 33.847656 17.160156 33.839844 17.152344 33.832031 C 16.605469 34.242188 15.742188 35.027344 14.8125 35.972656 C 14.171875 36.617188 13.609375 37.234375 13.1875 37.738281 C 13.257812 37.789062 13.320312 37.84375 13.367188 37.894531 C 13.605469 38.144531 14.230469 38.992188 14.488281 39.347656 L 18.535156 35.242188 C 17.96875 34.648438 17.375 34.03125 17.175781 33.851562 " fill-opacity="1" fill-rule="nonzero"/></g><g clip-path="url(#c81d0c8b16)"><path fill="#e6e6e6" d="M 17.832031 33.683594 C 17.6875 33.539062 16.382812 34.632812 14.914062 36.125 C 13.445312 37.613281 12.371094 38.9375 12.515625 39.082031 L 13.773438 40.328125 L 19.089844 34.929688 L 17.832031 33.683594 " fill-opacity="1" fill-rule="nonzero"/></g><path fill="#f2f2f2" d="M 18.96875 35.054688 L 17.761719 33.855469 C 17.519531 33.957031 16.707031 34.605469 15.578125 35.707031 L 16.964844 37.085938 L 18.96875 35.054688 " fill-opacity="1" fill-rule="nonzero"/><g clip-path="url(#3f04ba5301)"><path fill="#e6e6e6" d="M 13.851562 39.078125 C 13.851562 39.027344 13.808594 38.984375 13.757812 38.984375 C 13.703125 38.984375 13.664062 39.027344 13.664062 39.078125 C 13.664062 39.128906 13.703125 39.171875 13.753906 39.171875 C 13.808594 39.171875 13.847656 39.128906 13.851562 39.078125 Z M 13.328125 39.078125 C 13.324219 39.128906 13.367188 39.171875 13.417969 39.171875 C 13.472656 39.171875 13.511719 39.128906 13.511719 39.078125 C 13.511719 39.027344 13.472656 38.984375 13.421875 38.984375 C 13.367188 38.984375 13.328125 39.027344 13.328125 39.078125 Z M 13.851562 38.769531 C 13.851562 38.714844 13.808594 38.675781 13.757812 38.675781 C 13.703125 38.671875 13.664062 38.714844 13.664062 38.769531 C 13.664062 38.820312 13.703125 38.863281 13.757812 38.863281 C 13.808594 38.863281 13.851562 38.820312 13.851562 38.769531 Z M 13.328125 38.765625 C 13.328125 38.820312 13.367188 38.863281 13.421875 38.863281 C 13.472656 38.863281 13.515625 38.820312 13.515625 38.769531 C 13.515625 38.714844 13.472656 38.671875 13.421875 38.671875 C 13.367188 38.671875 13.328125 38.714844 13.328125 38.765625 Z M 13.007812 38.921875 C 13.007812 38.601562 13.269531 38.339844 13.589844 38.339844 C 13.910156 38.339844 14.167969 38.601562 14.167969 38.925781 C 14.167969 39.246094 13.90625 39.503906 13.585938 39.503906 C 13.265625 39.503906 13.007812 39.242188 13.007812 38.921875 " fill-opacity="1" fill-rule="nonzero"/></g><g clip-path="url(#2209086cb3)"><path fill="#ffffff" d="M 13.828125 39.058594 C 13.828125 39.007812 13.789062 38.964844 13.734375 38.964844 C 13.683594 38.964844 13.640625 39.007812 13.640625 39.058594 C 13.640625 39.113281 13.683594 39.152344 13.734375 39.152344 C 13.789062 39.152344 13.828125 39.113281 13.828125 39.058594 Z M 13.304688 39.058594 C 13.304688 39.109375 13.347656 39.152344 13.398438 39.152344 C 13.453125 39.152344 13.492188 39.113281 13.492188 39.058594 C 13.492188 39.007812 13.453125 38.964844 13.398438 38.964844 C 13.347656 38.964844 13.304688 39.007812 13.304688 39.058594 Z M 13.832031 38.75 C 13.832031 38.699219 13.789062 38.65625 13.738281 38.65625 C 13.683594 38.65625 13.644531 38.699219 13.644531 38.75 C 13.644531 38.800781 13.683594 38.84375 13.734375 38.84375 C 13.789062 38.84375 13.828125 38.800781 13.832031 38.75 Z M 13.308594 38.75 C 13.304688 38.800781 13.347656 38.84375 13.398438 38.84375 C 13.453125 38.84375 13.492188 38.800781 13.492188 38.75 C 13.492188 38.695312 13.453125 38.65625 13.402344 38.65625 C 13.347656 38.65625 13.308594 38.695312 13.308594 38.75 Z M 12.988281 38.902344 C 12.988281 38.582031 13.25 38.320312 13.570312 38.324219 C 13.890625 38.324219 14.148438 38.585938 14.148438 38.90625 C 14.148438 39.226562 13.886719 39.488281 13.566406 39.488281 C 13.246094 39.484375 12.988281 39.226562 12.988281 38.902344 " fill-opacity="1" fill-rule="nonzero"/></g><g clip-path="url(#56270a301b)"><path fill="#e6e6e6" d="M 13.585938 38.484375 C 13.347656 38.484375 13.152344 38.679688 13.152344 38.917969 C 13.152344 39.0625 13.21875 39.1875 13.324219 39.265625 C 13.210938 39.1875 13.132812 39.054688 13.132812 38.902344 C 13.132812 38.664062 13.328125 38.46875 13.570312 38.46875 C 13.667969 38.46875 13.757812 38.503906 13.828125 38.558594 C 13.761719 38.511719 13.675781 38.484375 13.585938 38.484375 " fill-opacity="1" fill-rule="nonzero"/></g><g clip-path="url(#ca373ba894)"><path fill="#262626" d="M 15.847656 37.019531 C 17.457031 35.390625 18.886719 34.191406 19.042969 34.347656 L 21.128906 36.421875 C 21.472656 36.765625 21.476562 37.320312 21.136719 37.667969 L 16.542969 42.328125 C 16.203125 42.675781 15.648438 42.675781 15.304688 42.335938 L 13.222656 40.257812 C 13.0625 40.101562 14.238281 38.652344 15.847656 37.019531 " fill-opacity="1" fill-rule="nonzero"/></g><g clip-path="url(#17772b8981)"><path fill="#424242" d="M 18.972656 34.519531 L 21.378906 36.914062 C 21.417969 37.179688 21.339844 37.460938 21.136719 37.667969 L 19.121094 39.714844 L 19.105469 39.726562 L 16.238281 36.871094 C 17.667969 35.449219 18.695312 34.625 18.972656 34.519531 " fill-opacity="1" fill-rule="nonzero"/></g><path fill="#edae79" d="M 21.964844 31.410156 C 21.34375 30.847656 21.058594 30.105469 20.828125 29.203125 C 21.035156 30.140625 20.894531 30.777344 20.335938 31.261719 C 19.703125 31.808594 18.101562 32.226562 16.8125 31.832031 C 17.308594 32.796875 18.050781 35.308594 16.144531 36.078125 C 15.367188 36.390625 14.59375 36.394531 13.886719 36.246094 C 14.472656 36.375 15.757812 37.007812 16.214844 37.488281 C 16.671875 37.96875 18.082031 39.914062 18.082031 39.914062 L 25.792969 35.363281 C 25.792969 35.363281 22.589844 31.96875 21.964844 31.410156 " fill-opacity="1" fill-rule="nonzero"/><path fill="#ebaa72" d="M 15.757812 31.226562 C 14.359375 29.875 14.363281 27.363281 15.085938 25.585938 C 14.316406 25.109375 13.078125 23.929688 12.691406 23.136719 C 12.578125 23.023438 12.46875 22.90625 12.359375 22.777344 C 12.203125 22.769531 10.128906 21.40625 9.972656 21.417969 C 8.621094 21.523438 9.183594 23.699219 8.734375 24.546875 C 8.148438 25.660156 7.960938 31.027344 8.5 32.492188 C 9.042969 33.960938 10.425781 34.597656 11.171875 35.03125 C 11.917969 35.460938 14.019531 36.933594 16.144531 36.078125 C 18.050781 35.308594 17.308594 32.796875 16.8125 31.832031 C 16.417969 31.710938 16.054688 31.515625 15.757812 31.226562 " fill-opacity="1" fill-rule="nonzero"/><path fill="#ebaa72" d="M 7 23.289062 C 7.371094 23.460938 7.996094 24.015625 8.363281 24.269531 C 8.796875 24.546875 9.65625 24.753906 10.371094 25.019531 C 10.492188 24.703125 10.601562 24.246094 10.371094 24.015625 C 10.003906 23.941406 7.355469 23.339844 6.882812 23.25 C 6.925781 23.257812 6.964844 23.273438 7 23.289062 " fill-opacity="1" fill-rule="nonzero"/><path fill="#e3a46f" d="M 8.347656 31.859375 C 8.375 31.984375 8.410156 32.097656 8.445312 32.191406 C 9.003906 33.65625 10.394531 34.277344 11.144531 34.703125 C 11.617188 34.972656 12.644531 35.652344 13.871094 35.890625 C 14.460938 36.015625 15.746094 36.628906 16.210938 37.105469 C 16.671875 37.582031 18.101562 39.511719 18.101562 39.511719 L 18.082031 39.914062 C 18.082031 39.914062 16.671875 37.96875 16.214844 37.488281 C 15.757812 37.007812 14.472656 36.378906 13.886719 36.25 C 12.664062 35.996094 11.644531 35.304688 11.171875 35.03125 C 10.425781 34.597656 9.042969 33.960938 8.5 32.492188 C 8.441406 32.328125 8.390625 32.113281 8.347656 31.859375 " fill-opacity="1" fill-rule="nonzero"/><path fill="#ebaa72" d="M 7.734375 20.507812 C 7.28125 20.320312 6.363281 20.222656 6.101562 20.226562 C 6.324219 20.253906 6.519531 20.355469 6.652344 20.515625 C 6.792969 20.683594 7.382812 21.699219 6.738281 22.609375 C 6.597656 22.8125 6.414062 22.957031 6.226562 23.050781 C 6.621094 23.085938 7.273438 23.113281 7.570312 23.160156 C 7.980469 22.429688 7.785156 21.894531 7.785156 21.894531 C 7.785156 21.894531 7.726562 20.789062 7.734375 20.507812 " fill-opacity="1" fill-rule="nonzero"/><path fill="#4d4d4d" d="M 11.984375 37.175781 L 12.992188 36.972656 C 13.746094 36.820312 14.242188 36.097656 14.117188 35.34375 L 9.539062 9.539062 L 4.527344 10.550781 L 10.320312 36.109375 C 10.496094 36.855469 11.234375 37.328125 11.984375 37.175781 " fill-opacity="1" fill-rule="nonzero"/><path fill="#333333" d="M 13.40625 35.144531 L 8.929688 10.261719 L 9.292969 10.09375 L 13.769531 34.976562 C 13.890625 35.675781 13.5 36.328125 12.882812 36.484375 C 13.277344 36.210938 13.496094 35.691406 13.40625 35.144531 " fill-opacity="1" fill-rule="nonzero"/><path fill="#333333" d="M 4.867188 10.480469 L 10.585938 35.746094 C 10.765625 36.496094 11.5 36.964844 12.253906 36.816406 L 13.261719 36.609375 C 13.539062 36.554688 13.78125 36.421875 13.972656 36.234375 C 13.78125 36.601562 13.429688 36.882812 12.992188 36.972656 L 11.984375 37.175781 C 11.234375 37.328125 10.496094 36.855469 10.320312 36.109375 L 4.527344 10.550781 L 4.867188 10.480469 " fill-opacity="1" fill-rule="nonzero"/><g clip-path="url(#493cc7054a)"><path fill="#333333" d="M 5.769531 11.644531 L 8.917969 11.007812 C 10.832031 10.625 11.996094 8.671875 11.429688 6.804688 L 10.234375 2.855469 C 9.738281 1.222656 8.082031 0.234375 6.410156 0.570312 L 4.03125 1.050781 C 2.359375 1.390625 1.214844 2.941406 1.394531 4.640625 L 1.820312 8.746094 C 2.023438 10.6875 3.855469 12.03125 5.769531 11.644531 " fill-opacity="1" fill-rule="nonzero"/></g><path fill="#545454" d="M 10.570312 7.230469 L 9.507812 3.722656 C 9.070312 2.273438 7.601562 1.398438 6.117188 1.695312 L 4 2.125 C 3.226562 2.28125 2.582031 2.730469 2.164062 3.339844 C 2.53125 2.476562 3.304688 1.8125 4.28125 1.613281 L 6.398438 1.1875 C 7.882812 0.886719 9.351562 1.765625 9.789062 3.214844 L 10.851562 6.722656 C 11.125 7.617188 10.945312 8.535156 10.457031 9.242188 C 10.722656 8.632812 10.78125 7.925781 10.570312 7.230469 " fill-opacity="1" fill-rule="nonzero"/><g clip-path="url(#cbd042295f)"><path fill="#1a1a1a" d="M 1.820312 8.746094 L 1.394531 4.640625 C 1.3125 3.859375 1.511719 3.105469 1.910156 2.492188 C 1.746094 2.945312 1.679688 3.445312 1.734375 3.957031 L 2.160156 8.0625 C 2.363281 10.003906 4.195312 11.347656 6.109375 10.964844 L 9.257812 10.328125 C 10.167969 10.144531 10.910156 9.601562 11.375 8.886719 C 10.996094 9.933594 10.101562 10.769531 8.917969 11.007812 L 5.769531 11.644531 C 3.855469 12.03125 2.023438 10.6875 1.820312 8.746094 " fill-opacity="1" fill-rule="nonzero"/></g><g clip-path="url(#fd44bf41da)"><path fill="#ff252f" d="M 2.46875 19.761719 L 15.011719 17.230469 L 13.679688 10.613281 L 1.132812 13.144531 L 2.46875 19.761719 " fill-opacity="1" fill-rule="nonzero"/></g><g clip-path="url(#3f1569c788)"><path fill="#d00f15" d="M 1.558594 13.058594 L 2.789062 19.152344 L 14.90625 16.707031 L 15.011719 17.230469 L 2.46875 19.761719 L 1.132812 13.144531 L 1.558594 13.058594 " fill-opacity="1" fill-rule="nonzero"/></g><g clip-path="url(#0dce5750f7)"><path fill="#ff5761" d="M 13.324219 11.144531 L 1.222656 13.585938 L 1.132812 13.144531 L 13.679688 10.613281 L 15.011719 17.230469 L 14.570312 17.320312 L 13.324219 11.144531 " fill-opacity="1" fill-rule="nonzero"/></g><path fill="#ffffff" d="M 5.308594 17.347656 L 4.574219 17.496094 L 3.476562 16.148438 L 3.777344 17.65625 L 3.019531 17.808594 L 2.40625 14.753906 L 3.140625 14.609375 L 4.234375 15.945312 L 3.933594 14.449219 L 4.695312 14.296875 L 5.308594 17.347656 " fill-opacity="1" fill-rule="nonzero"/><path fill="#ffffff" d="M 7.871094 16.832031 L 5.753906 17.257812 L 5.140625 14.207031 L 7.222656 13.785156 L 7.375 14.535156 L 6.046875 14.800781 L 6.125 15.191406 L 7.296875 14.953125 L 7.441406 15.671875 L 6.269531 15.910156 L 6.359375 16.355469 L 7.722656 16.082031 L 7.871094 16.832031 " fill-opacity="1" fill-rule="nonzero"/><path fill="#ffffff" d="M 10.792969 13.070312 L 10.714844 16.261719 L 9.945312 16.414062 L 9.269531 14.773438 L 9.277344 16.550781 L 8.507812 16.703125 L 7.207031 13.789062 L 8.011719 13.628906 L 8.65625 15.234375 L 8.660156 13.5 L 9.339844 13.359375 L 10.007812 14.957031 L 9.976562 13.234375 L 10.792969 13.070312 " fill-opacity="1" fill-rule="nonzero"/><path fill="#ffffff" d="M 13.457031 14.699219 C 13.535156 15.09375 13.46875 15.351562 13.257812 15.625 C 13.066406 15.867188 12.269531 16.164062 11.808594 15.929688 C 11.476562 15.761719 11.390625 15.574219 11.320312 15.453125 C 11.246094 15.277344 11.277344 15.375 11.175781 15 L 11.949219 14.84375 C 11.957031 14.890625 11.960938 14.925781 11.960938 14.953125 L 11.976562 15.027344 C 12.027344 15.128906 12.035156 15.160156 12.144531 15.226562 C 12.269531 15.308594 12.441406 15.261719 12.570312 15.210938 C 12.71875 15.128906 12.730469 15.054688 12.710938 14.957031 C 12.691406 14.867188 12.640625 14.8125 12.558594 14.785156 C 12.152344 14.65625 11.898438 14.789062 11.445312 14.570312 C 11.347656 14.523438 11.265625 14.445312 11.199219 14.335938 C 11.078125 14.132812 10.875 13.523438 11.1875 13.140625 C 11.355469 12.960938 11.515625 12.886719 11.730469 12.800781 C 11.949219 12.75 12.378906 12.621094 12.671875 12.824219 C 13.066406 13.09375 13.113281 13.445312 13.15625 13.613281 L 12.429688 13.761719 C 12.398438 13.625 12.402344 13.621094 12.367188 13.570312 C 12.257812 13.472656 12.210938 13.4375 12.035156 13.472656 C 11.9375 13.492188 11.867188 13.53125 11.832031 13.589844 C 11.796875 13.632812 11.785156 13.683594 11.796875 13.742188 C 11.855469 14.035156 12.417969 13.800781 13.003906 14.046875 C 13.234375 14.132812 13.386719 14.351562 13.457031 14.699219 " fill-opacity="1" fill-rule="nonzero"/><path fill="#cccccc" d="M 14.667969 27.191406 C 14.667969 27.191406 14.667969 27.1875 14.667969 27.1875 C 14.691406 27.019531 14.71875 26.855469 14.753906 26.691406 C 14.71875 26.855469 14.691406 27.023438 14.667969 27.191406 M 15.085938 25.589844 C 15.085938 25.589844 15.085938 25.585938 15.085938 25.585938 C 15.085938 25.589844 15.085938 25.589844 15.085938 25.589844 M 12.691406 23.136719 C 12.578125 23.023438 12.46875 22.90625 12.359375 22.777344 C 12.46875 22.90625 12.578125 23.023438 12.691406 23.136719 M 12.359375 22.777344 C 12.347656 22.777344 12.320312 22.769531 12.285156 22.75 C 12.308594 22.761719 12.335938 22.773438 12.359375 22.777344 M 12.105469 22.65625 C 12.054688 22.625 11.996094 22.59375 11.933594 22.554688 C 11.988281 22.585938 12.046875 22.621094 12.105469 22.65625 " fill-opacity="1" fill-rule="nonzero"/><path fill="#bc885b" d="M 14.667969 27.1875 C 14.703125 26.644531 14.804688 26.113281 14.96875 25.625 C 14.167969 25.199219 12.9375 24.046875 12.5 23.277344 C 12.332031 23.125 12.085938 22.746094 11.921875 22.550781 C 11.925781 22.550781 11.929688 22.554688 11.933594 22.554688 C 11.996094 22.59375 12.054688 22.625 12.105469 22.65625 C 12.167969 22.691406 12.226562 22.726562 12.285156 22.75 C 12.320312 22.769531 12.347656 22.777344 12.359375 22.777344 C 12.46875 22.90625 12.578125 23.023438 12.691406 23.136719 C 13.078125 23.929688 14.316406 25.109375 15.085938 25.585938 C 15.085938 25.585938 15.085938 25.589844 15.085938 25.589844 C 14.941406 25.945312 14.832031 26.316406 14.753906 26.691406 C 14.71875 26.855469 14.691406 27.019531 14.667969 27.1875 " fill-opacity="1" fill-rule="nonzero"/><path fill="#fabb85" d="M 12.160156 18.085938 C 11.871094 18.164062 10.992188 18.855469 11.390625 20.519531 C 11.785156 22.1875 12.21875 22.65625 12.691406 23.136719 C 13.078125 23.929688 14.316406 25.109375 15.085938 25.585938 C 14.363281 27.363281 14.359375 29.875 15.757812 31.226562 C 17.035156 32.46875 19.511719 31.976562 20.335938 31.261719 C 21.175781 30.53125 21.070312 29.457031 20.253906 27.523438 C 19.785156 26.414062 18.894531 24.53125 18.71875 24.183594 C 18.539062 23.839844 18.046875 23.449219 17.539062 23.199219 C 17.027344 22.949219 15.988281 22.363281 15.515625 21.890625 C 15.164062 21.542969 14.875 21.140625 14.28125 20.777344 C 14.035156 20.628906 13.261719 19.820312 13.191406 19.253906 C 13.125 18.6875 13.179688 18.367188 12.941406 18.171875 C 12.703125 17.972656 12.332031 18.035156 12.160156 18.085938 " fill-opacity="1" fill-rule="nonzero"/><path fill="#facba3" d="M 20.046875 27.683594 C 19.578125 26.574219 18.6875 24.691406 18.511719 24.347656 C 18.335938 24 17.84375 23.609375 17.332031 23.359375 C 16.824219 23.109375 15.78125 22.523438 15.308594 22.054688 C 14.957031 21.703125 14.667969 21.300781 14.074219 20.941406 C 13.828125 20.792969 13.054688 19.984375 12.984375 19.414062 C 12.917969 18.847656 12.976562 18.527344 12.738281 18.332031 C 12.496094 18.136719 12.128906 18.195312 11.953125 18.246094 C 11.914062 18.257812 11.867188 18.277344 11.8125 18.3125 C 11.945312 18.179688 12.078125 18.109375 12.160156 18.085938 C 12.332031 18.035156 12.703125 17.972656 12.941406 18.171875 C 13.179688 18.367188 13.125 18.6875 13.191406 19.253906 C 13.261719 19.820312 14.035156 20.628906 14.28125 20.777344 C 14.875 21.140625 15.164062 21.542969 15.515625 21.890625 C 15.988281 22.363281 17.027344 22.949219 17.539062 23.199219 C 18.046875 23.449219 18.539062 23.839844 18.71875 24.183594 C 18.894531 24.53125 19.785156 26.414062 20.253906 27.523438 C 21.070312 29.457031 21.175781 30.53125 20.335938 31.261719 C 20.28125 31.308594 20.222656 31.351562 20.160156 31.394531 C 20.96875 30.664062 20.851562 29.59375 20.046875 27.683594 " fill-opacity="1" fill-rule="nonzero"/><path fill="#fadabe" d="M 12.863281 18.589844 C 12.886719 18.839844 13.113281 19.410156 13.328125 19.695312 C 13.34375 19.714844 13.371094 19.699219 13.367188 19.679688 C 13.292969 19.242188 13.214844 18.648438 13.140625 18.378906 C 13.132812 18.347656 13.097656 18.335938 13.070312 18.351562 C 13.003906 18.394531 12.921875 18.46875 12.878906 18.535156 C 12.867188 18.550781 12.863281 18.570312 12.863281 18.589844 " fill-opacity="1" fill-rule="nonzero"/><path fill="#cccccc" d="M 7.570312 23.964844 C 7.511719 23.886719 7.472656 23.792969 7.453125 23.699219 L 7.425781 23.554688 C 7.445312 23.570312 7.464844 23.582031 7.484375 23.597656 L 7.570312 23.964844 M 7.410156 23.359375 C 7.402344 23.359375 7.394531 23.355469 7.386719 23.355469 L 7.382812 23.34375 C 7.390625 23.347656 7.402344 23.355469 7.410156 23.359375 " fill-opacity="1" fill-rule="nonzero"/><path fill="#bc885b" d="M 7.484375 23.597656 C 7.464844 23.582031 7.445312 23.570312 7.425781 23.554688 L 7.386719 23.355469 C 7.394531 23.355469 7.402344 23.359375 7.410156 23.359375 C 7.417969 23.367188 7.425781 23.371094 7.433594 23.378906 L 7.484375 23.597656 " fill-opacity="1" fill-rule="nonzero"/><path fill="#3e3e3e" d="M 9.363281 24.984375 C 9.175781 24.984375 9 24.898438 8.882812 24.75 L 8.660156 24.464844 L 8.601562 24.476562 C 8.554688 24.484375 8.507812 24.488281 8.460938 24.488281 C 8.3125 24.488281 8.167969 24.445312 8.046875 24.355469 L 8 24.324219 L 7.859375 23.691406 C 8.09375 23.875 8.324219 24.0625 8.496094 24.179688 C 8.871094 24.417969 9.5625 24.605469 10.203125 24.824219 L 9.484375 24.96875 C 9.441406 24.980469 9.402344 24.984375 9.363281 24.984375 " fill-opacity="1" fill-rule="nonzero"/><path fill="#292929" d="M 8 24.324219 L 7.738281 24.140625 C 7.671875 24.089844 7.613281 24.03125 7.570312 23.964844 L 7.484375 23.597656 L 7.433594 23.378906 C 7.570312 23.46875 7.714844 23.578125 7.859375 23.691406 L 8 24.324219 " fill-opacity="1" fill-rule="nonzero"/><path fill="#bc885b" d="M 9.726562 33.492188 C 9.558594 33.4375 9.414062 33.386719 9.308594 33.355469 C 9.265625 33.34375 9.199219 33.316406 9.113281 33.28125 C 9.066406 33.226562 9.019531 33.167969 8.972656 33.109375 C 9.058594 33.148438 9.128906 33.175781 9.171875 33.1875 C 9.296875 33.226562 9.480469 33.292969 9.695312 33.363281 L 9.726562 33.492188 " fill-opacity="1" fill-rule="nonzero"/><path fill="#b68359" d="M 9.113281 33.28125 C 9.035156 33.246094 8.9375 33.199219 8.824219 33.144531 C 8.796875 33.097656 8.765625 33.050781 8.738281 33 C 8.828125 33.042969 8.90625 33.082031 8.972656 33.109375 C 9.019531 33.167969 9.066406 33.226562 9.113281 33.28125 " fill-opacity="1" fill-rule="nonzero"/><path fill="#3e3e3e" d="M 11.484375 33.871094 C 11.050781 33.871094 10.539062 33.746094 10.105469 33.613281 L 10.074219 33.476562 C 10.484375 33.597656 10.949219 33.703125 11.347656 33.703125 C 11.523438 33.703125 11.683594 33.683594 11.824219 33.632812 C 12.039062 33.554688 12.195312 33.460938 12.3125 33.347656 C 12.5 33.265625 12.617188 33.089844 12.699219 32.859375 C 12.757812 32.691406 12.738281 32.441406 12.609375 32.273438 C 12.578125 32.152344 12.527344 32.03125 12.460938 31.929688 C 12.601562 32.058594 12.695312 32.246094 12.742188 32.4375 C 12.875 32.605469 12.894531 32.855469 12.832031 33.027344 C 12.75 33.257812 12.632812 33.433594 12.449219 33.511719 C 12.332031 33.628906 12.175781 33.722656 11.960938 33.800781 C 11.820312 33.851562 11.660156 33.871094 11.484375 33.871094 " fill-opacity="1" fill-rule="nonzero"/><path fill="#292929" d="M 10.105469 33.613281 C 9.96875 33.574219 9.84375 33.53125 9.726562 33.492188 L 9.695312 33.363281 C 9.816406 33.398438 9.941406 33.4375 10.074219 33.476562 L 10.105469 33.613281 " fill-opacity="1" fill-rule="nonzero"/><path fill="#3e3e3e" d="M 11.828125 31.375 C 11.746094 31.375 11.664062 31.367188 11.585938 31.351562 C 11.53125 31.339844 11.460938 31.324219 11.382812 31.304688 C 11.144531 31.195312 10.882812 31.078125 10.640625 30.972656 C 10.976562 31.070312 11.269531 31.148438 11.453125 31.183594 C 11.53125 31.203125 11.609375 31.210938 11.691406 31.210938 C 12.03125 31.210938 12.382812 31.066406 12.617188 30.765625 L 12.664062 31.03125 C 12.433594 31.265625 12.125 31.375 11.828125 31.375 M 12.964844 30.503906 L 12.886719 30.054688 C 12.929688 29.683594 12.863281 29.386719 12.726562 29.164062 L 12.722656 29.152344 C 12.972656 29.410156 13.101562 29.820312 12.996094 30.375 C 12.988281 30.417969 12.976562 30.460938 12.964844 30.503906 " fill-opacity="1" fill-rule="nonzero"/><path fill="#292929" d="M 12.664062 31.03125 L 12.617188 30.765625 C 12.730469 30.617188 12.820312 30.433594 12.863281 30.207031 C 12.871094 30.15625 12.878906 30.101562 12.886719 30.054688 L 12.964844 30.503906 C 12.90625 30.722656 12.796875 30.898438 12.664062 31.03125 M 12.726562 29.164062 C 12.71875 29.15625 12.714844 29.148438 12.710938 29.140625 C 12.714844 29.144531 12.71875 29.148438 12.722656 29.152344 L 12.726562 29.164062 " fill-opacity="1" fill-rule="nonzero"/><path fill="#3e3e3e" d="M 10.929688 28.300781 C 10.789062 28.25 10.648438 28.199219 10.507812 28.152344 L 10.492188 28.148438 L 10.507812 28.152344 C 10.539062 28.15625 10.574219 28.160156 10.605469 28.160156 C 11.046875 28.160156 11.535156 27.707031 11.65625 27.148438 C 11.75 26.710938 11.742188 26.148438 11.445312 25.710938 C 11.875 26.160156 11.898438 26.820312 11.789062 27.316406 C 11.6875 27.792969 11.3125 28.195312 10.929688 28.300781 " fill-opacity="1" fill-rule="nonzero"/><path fill="#fabb85" d="M 12.113281 31.625 C 11.820312 31.511719 11.183594 31.207031 10.640625 30.972656 C 10.503906 30.933594 10.363281 30.894531 10.21875 30.851562 C 10.632812 31.148438 10.664062 31.648438 10.398438 32.289062 C 10.066406 33.089844 9.453125 33.265625 9.171875 33.1875 C 9.671875 33.34375 11.085938 33.898438 11.824219 33.632812 C 12.292969 33.464844 12.476562 33.222656 12.605469 32.84375 C 12.734375 32.464844 12.554688 31.796875 12.113281 31.625 " fill-opacity="1" fill-rule="nonzero"/><path fill="#fadabe" d="M 11.464844 32.339844 C 11.375 32.546875 11.230469 32.773438 11.257812 32.9375 C 11.289062 33.097656 11.730469 33.410156 12.113281 33.390625 C 12.417969 33.375 12.589844 33.164062 12.699219 32.859375 C 12.773438 32.652344 12.726562 32.320312 12.496094 32.171875 C 12.269531 32.023438 11.890625 31.804688 11.71875 31.882812 C 11.5625 31.957031 11.550781 32.144531 11.464844 32.339844 " fill-opacity="1" fill-rule="nonzero"/><path fill="#fab478" d="M 8.605469 30.375 C 8.574219 30.367188 8.546875 30.359375 8.515625 30.351562 C 8.347656 30.300781 7.738281 30.007812 7.132812 29.667969 C 6.898438 29.746094 6.695312 29.941406 6.574219 30.214844 C 6.214844 30.996094 6.535156 31.84375 7.378906 32.296875 C 8.226562 32.746094 8.96875 33.132812 9.171875 33.1875 C 9.453125 33.265625 10.066406 33.089844 10.398438 32.289062 C 10.664062 31.648438 10.632812 31.148438 10.21875 30.851562 C 9.621094 30.675781 8.976562 30.480469 8.605469 30.375 " fill-opacity="1" fill-rule="nonzero"/><path fill="#cf8b50" d="M 10.640625 30.972656 C 10.5 30.9375 10.359375 30.894531 10.21875 30.851562 C 10.316406 30.921875 10.390625 31.003906 10.445312 31.09375 C 10.664062 31.15625 10.878906 31.21875 11.09375 31.277344 C 11.253906 31.320312 11.414062 31.367188 11.574219 31.390625 C 11.289062 31.261719 10.949219 31.105469 10.640625 30.972656 C 10.640625 30.972656 10.949219 31.105469 10.640625 30.972656 " fill-opacity="1" fill-rule="nonzero"/><path fill="#cf8b50" d="M 9.097656 30.519531 C 8.933594 30.46875 8.769531 30.421875 8.605469 30.375 C 8.484375 30.351562 8.371094 30.296875 8.257812 30.246094 C 8.144531 30.195312 8.027344 30.136719 7.910156 30.082031 C 7.648438 29.949219 7.390625 29.8125 7.132812 29.667969 C 7.082031 29.6875 7.03125 29.710938 6.984375 29.738281 C 7.316406 29.933594 7.65625 30.113281 8 30.285156 C 8.125 30.347656 8.253906 30.410156 8.382812 30.46875 C 8.480469 30.507812 8.574219 30.550781 8.675781 30.570312 C 9.082031 30.6875 9.808594 30.910156 10.445312 31.09375 C 10.390625 31.003906 10.316406 30.921875 10.21875 30.851562 C 9.835938 30.738281 9.433594 30.621094 9.097656 30.519531 C 9.082031 30.515625 9.433594 30.621094 9.097656 30.519531 " fill-opacity="1" fill-rule="nonzero"/><path fill="#fabb85" d="M 12.199219 28.738281 C 11.921875 28.644531 11.183594 28.386719 10.507812 28.152344 C 10.269531 28.113281 9.929688 28.011719 9.578125 27.910156 C 10.027344 28.296875 9.980469 28.941406 9.863281 29.222656 C 9.597656 29.839844 9.191406 30.476562 8.605469 30.371094 C 9.292969 30.574219 10.894531 31.070312 11.453125 31.183594 C 12.011719 31.300781 12.710938 31.007812 12.863281 30.207031 C 13.015625 29.40625 12.675781 28.902344 12.199219 28.738281 " fill-opacity="1" fill-rule="nonzero"/><path fill="#fadabe" d="M 11.078125 29.492188 C 10.90625 29.921875 10.78125 30.320312 11.105469 30.519531 C 11.375 30.691406 11.605469 30.820312 11.785156 30.898438 C 11.851562 30.925781 11.925781 30.929688 11.996094 30.90625 C 12.320312 30.800781 12.5625 30.566406 12.679688 30.25 C 12.761719 30.023438 12.734375 29.800781 12.664062 29.597656 C 12.628906 29.496094 12.558594 29.414062 12.464844 29.367188 C 12.074219 29.167969 11.796875 29.050781 11.542969 29.082031 C 11.257812 29.117188 11.15625 29.304688 11.078125 29.492188 " fill-opacity="1" fill-rule="nonzero"/><path fill="#fab478" d="M 8.613281 27.636719 C 7.625 27.410156 7.148438 27.097656 6.644531 26.714844 C 6.53125 26.628906 6.425781 26.535156 6.328125 26.4375 C 6.023438 26.480469 5.71875 26.65625 5.539062 27.0625 C 5.253906 27.695312 5.382812 28.484375 6.066406 29 C 6.746094 29.515625 8.234375 30.269531 8.515625 30.351562 C 9.148438 30.539062 9.585938 29.871094 9.863281 29.222656 C 9.980469 28.941406 10.027344 28.296875 9.578125 27.910156 C 9.238281 27.808594 8.886719 27.699219 8.613281 27.636719 " fill-opacity="1" fill-rule="nonzero"/><path fill="#cf8b50" d="M 6.667969 26.953125 C 6.683594 26.964844 6.703125 26.972656 6.71875 26.984375 C 6.699219 26.972656 6.683594 26.964844 6.667969 26.953125 Z M 10.507812 28.152344 C 10.195312 28.101562 9.878906 28.007812 9.578125 27.910156 C 9.34375 27.839844 9.113281 27.769531 8.878906 27.707031 C 8.640625 27.640625 8.398438 27.589844 8.164062 27.519531 C 7.792969 27.40625 7.433594 27.25 7.105469 27.039062 C 6.945312 26.941406 6.792969 26.828125 6.644531 26.714844 C 6.53125 26.632812 6.425781 26.539062 6.328125 26.4375 C 6.261719 26.449219 6.199219 26.464844 6.132812 26.484375 C 6.257812 26.621094 6.398438 26.753906 6.554688 26.871094 C 6.855469 27.101562 7.171875 27.3125 7.515625 27.46875 C 7.964844 27.667969 8.4375 27.761719 8.90625 27.894531 C 9.199219 27.976562 9.488281 28.066406 9.78125 28.152344 C 9.734375 28.074219 9.679688 28.003906 9.613281 27.941406 C 9.679688 28.003906 9.734375 28.074219 9.78125 28.152344 C 9.957031 28.203125 10.128906 28.25 10.304688 28.289062 C 10.480469 28.324219 10.636719 28.324219 10.804688 28.253906 C 10.703125 28.21875 10.605469 28.1875 10.507812 28.152344 C 10.5 28.152344 10.605469 28.1875 10.507812 28.152344 " fill-opacity="1" fill-rule="nonzero"/><path fill="#fabb85" d="M 10.972656 25.289062 C 10.222656 24.875 8.929688 24.628906 8.363281 24.269531 C 8.730469 24.523438 8.1875 25.53125 7.953125 25.984375 C 7.695312 26.484375 7.265625 27.132812 6.761719 26.796875 C 6.722656 26.769531 6.683594 26.742188 6.644531 26.714844 C 7.148438 27.097656 7.625 27.410156 8.613281 27.636719 C 9.171875 27.765625 10.042969 28.074219 10.507812 28.152344 C 10.96875 28.230469 11.523438 27.75 11.65625 27.148438 C 11.785156 26.546875 11.722656 25.703125 10.972656 25.289062 " fill-opacity="1" fill-rule="nonzero"/><path fill="#fab478" d="M 5.644531 23.839844 C 5.269531 24.425781 5.359375 25.171875 5.644531 25.574219 C 5.929688 25.976562 6.253906 26.460938 6.761719 26.796875 C 7.265625 27.132812 7.695312 26.484375 7.953125 25.984375 C 8.1875 25.53125 8.730469 24.523438 8.363281 24.269531 C 7.996094 24.015625 7.371094 23.460938 7 23.289062 C 6.671875 23.136719 6.039062 23.21875 5.644531 23.839844 " fill-opacity="1" fill-rule="nonzero"/><path fill="#fadabe" d="M 9.296875 26.414062 C 9.140625 26.789062 9.191406 27.195312 9.441406 27.367188 C 9.660156 27.515625 10.195312 27.742188 10.566406 27.835938 C 10.65625 27.859375 10.757812 27.84375 10.839844 27.792969 C 11.164062 27.578125 11.265625 27.308594 11.355469 27.046875 C 11.441406 26.789062 11.402344 26.398438 11.207031 26.132812 C 11.15625 26.0625 11.078125 26.007812 10.996094 25.980469 C 10.503906 25.8125 10.089844 25.75 9.8125 25.828125 C 9.542969 25.90625 9.410156 26.140625 9.296875 26.414062 " fill-opacity="1" fill-rule="nonzero"/><path fill="#fabb85" d="M 6.738281 22.609375 C 6.335938 23.183594 5.617188 23.304688 5.277344 23.136719 C 4.9375 22.964844 4.617188 22.148438 4.601562 21.910156 C 4.582031 21.667969 4.886719 20.75 5.125 20.5625 C 5.363281 20.378906 5.816406 20.203125 6.058594 20.222656 C 6.300781 20.242188 6.511719 20.34375 6.652344 20.515625 C 6.792969 20.683594 7.382812 21.699219 6.738281 22.609375 " fill-opacity="1" fill-rule="nonzero"/><path fill="#fadabe" d="M 5.046875 21.519531 C 4.917969 21.757812 4.855469 22.039062 4.882812 22.21875 C 4.902344 22.34375 4.921875 22.480469 4.957031 22.609375 C 4.96875 22.648438 5.027344 22.648438 5.03125 22.605469 C 5.117188 22.113281 5.324219 21.496094 5.660156 21.226562 C 5.6875 21.207031 5.699219 21.164062 5.679688 21.136719 C 5.636719 21.082031 5.53125 21.058594 5.414062 21.136719 C 5.25 21.238281 5.148438 21.335938 5.046875 21.519531 " fill-opacity="1" fill-rule="nonzero"/><path fill="#cf8b50" d="M 21.964844 31.410156 C 21.953125 31.398438 21.941406 31.386719 21.929688 31.375 C 21.105469 31.996094 19.800781 33.175781 18.398438 34.59375 C 17.433594 35.570312 16.582031 36.496094 15.945312 37.253906 C 16.050781 37.332031 16.140625 37.414062 16.214844 37.488281 C 16.570312 37.867188 17.515625 39.140625 17.90625 39.675781 L 24.019531 33.496094 C 23.164062 32.609375 22.265625 31.679688 21.964844 31.410156 " fill-opacity="1" fill-rule="nonzero"/><path fill="#e6e6e6" d="M 22.960938 31.152344 C 22.742188 30.9375 20.769531 32.582031 18.550781 34.824219 C 16.332031 37.066406 14.710938 39.058594 14.925781 39.273438 L 16.824219 41.152344 L 24.859375 33.03125 L 22.960938 31.152344 " fill-opacity="1" fill-rule="nonzero"/><path fill="#f2f2f2" d="M 24.675781 33.21875 L 22.851562 31.414062 C 22.488281 31.566406 21.261719 32.539062 19.554688 34.199219 L 21.652344 36.273438 L 24.675781 33.21875 " fill-opacity="1" fill-rule="nonzero"/><path fill="#e6e6e6" d="M 16.941406 39.269531 C 16.941406 39.191406 16.878906 39.128906 16.800781 39.128906 C 16.722656 39.128906 16.660156 39.191406 16.660156 39.269531 C 16.660156 39.347656 16.722656 39.410156 16.800781 39.414062 C 16.878906 39.414062 16.941406 39.347656 16.941406 39.269531 Z M 16.152344 39.269531 C 16.152344 39.347656 16.214844 39.410156 16.292969 39.410156 C 16.371094 39.410156 16.433594 39.347656 16.433594 39.269531 C 16.433594 39.191406 16.371094 39.128906 16.292969 39.128906 C 16.214844 39.128906 16.152344 39.191406 16.152344 39.269531 Z M 16.945312 38.804688 C 16.945312 38.726562 16.878906 38.664062 16.800781 38.660156 C 16.722656 38.660156 16.660156 38.726562 16.660156 38.804688 C 16.660156 38.882812 16.722656 38.945312 16.800781 38.945312 C 16.878906 38.945312 16.945312 38.882812 16.945312 38.804688 Z M 16.152344 38.800781 C 16.152344 38.878906 16.214844 38.945312 16.292969 38.945312 C 16.371094 38.945312 16.4375 38.882812 16.4375 38.804688 C 16.4375 38.726562 16.371094 38.660156 16.292969 38.660156 C 16.214844 38.660156 16.152344 38.722656 16.152344 38.800781 Z M 15.671875 39.035156 C 15.671875 38.550781 16.066406 38.160156 16.550781 38.160156 C 17.03125 38.160156 17.425781 38.554688 17.421875 39.039062 C 17.421875 39.523438 17.03125 39.914062 16.546875 39.910156 C 16.0625 39.910156 15.671875 39.519531 15.671875 39.035156 " fill-opacity="1" fill-rule="nonzero"/><path fill="#ffffff" d="M 16.914062 39.242188 C 16.914062 39.164062 16.847656 39.101562 16.769531 39.101562 C 16.691406 39.101562 16.628906 39.164062 16.628906 39.242188 C 16.628906 39.320312 16.691406 39.382812 16.769531 39.382812 C 16.847656 39.382812 16.914062 39.320312 16.914062 39.242188 Z M 16.121094 39.242188 C 16.121094 39.320312 16.183594 39.382812 16.261719 39.382812 C 16.339844 39.382812 16.40625 39.320312 16.40625 39.242188 C 16.40625 39.164062 16.339844 39.101562 16.261719 39.101562 C 16.183594 39.101562 16.121094 39.164062 16.121094 39.242188 Z M 16.914062 38.777344 C 16.914062 38.699219 16.851562 38.632812 16.773438 38.632812 C 16.695312 38.632812 16.628906 38.699219 16.628906 38.777344 C 16.628906 38.855469 16.695312 38.917969 16.773438 38.917969 C 16.851562 38.917969 16.914062 38.855469 16.914062 38.777344 Z M 16.121094 38.773438 C 16.121094 38.851562 16.1875 38.917969 16.265625 38.917969 C 16.34375 38.917969 16.40625 38.851562 16.40625 38.773438 C 16.40625 38.695312 16.34375 38.632812 16.265625 38.632812 C 16.1875 38.632812 16.121094 38.695312 16.121094 38.773438 Z M 15.640625 39.007812 C 15.644531 38.523438 16.035156 38.132812 16.519531 38.132812 C 17.003906 38.132812 17.394531 38.527344 17.394531 39.011719 C 17.390625 39.492188 17 39.886719 16.515625 39.882812 C 16.03125 39.882812 15.640625 39.492188 15.640625 39.007812 " fill-opacity="1" fill-rule="nonzero"/><path fill="#e6e6e6" d="M 16.546875 38.375 C 16.183594 38.375 15.890625 38.667969 15.890625 39.03125 C 15.890625 39.246094 15.992188 39.433594 16.152344 39.550781 C 15.976562 39.433594 15.863281 39.234375 15.863281 39.007812 C 15.863281 38.644531 16.15625 38.351562 16.519531 38.351562 C 16.667969 38.351562 16.804688 38.40625 16.914062 38.488281 C 16.808594 38.417969 16.683594 38.375 16.546875 38.375 " fill-opacity="1" fill-rule="nonzero"/><g clip-path="url(#b123671181)"><path fill="#262626" d="M 19.960938 36.175781 C 22.390625 33.71875 24.550781 31.917969 24.789062 32.15625 L 27.941406 35.277344 C 28.460938 35.789062 28.464844 36.628906 27.949219 37.148438 L 21.015625 44.160156 C 20.5 44.679688 19.660156 44.683594 19.140625 44.167969 L 15.992188 41.046875 C 15.753906 40.8125 17.53125 38.632812 19.960938 36.175781 " fill-opacity="1" fill-rule="nonzero"/></g><g clip-path="url(#2b956ba666)"><path fill="#424242" d="M 24.679688 32.410156 L 28.316406 36.015625 C 28.375 36.414062 28.257812 36.835938 27.949219 37.148438 L 24.902344 40.226562 L 24.882812 40.246094 L 20.554688 35.953125 C 22.707031 33.8125 24.261719 32.570312 24.679688 32.410156 " fill-opacity="1" fill-rule="nonzero"/></g></g></g></g><g fill="#00bf63" fill-opacity="1"><g transform="translate(27.758265, 30.590305)"><g><path d="M 14.71875 2.34375 C 14.25 1.582031 13.796875 0.78125 13.359375 -0.0625 C 12.929688 -0.914062 12.566406 -1.65625 12.265625 -2.28125 C 11.671875 -2.207031 10.992188 -2.171875 10.234375 -2.171875 C 9.148438 -2.171875 8.078125 -2.289062 7.015625 -2.53125 C 5.960938 -2.769531 5 -3.160156 4.125 -3.703125 C 3.257812 -4.242188 2.566406 -4.96875 2.046875 -5.875 C 1.535156 -6.78125 1.28125 -7.910156 1.28125 -9.265625 C 1.28125 -10.273438 1.46875 -11.148438 1.84375 -11.890625 C 2.21875 -12.640625 2.726562 -13.269531 3.375 -13.78125 C 4.113281 -14.351562 4.992188 -14.796875 6.015625 -15.109375 C 7.035156 -15.421875 8.164062 -15.609375 9.40625 -15.671875 L 9.40625 -17.640625 L 0 -17.640625 L 0 -21.4375 L 19.703125 -21.4375 L 19.703125 -17.640625 L 14.015625 -17.640625 L 14.015625 -11.890625 L 12.265625 -11.890625 C 10.929688 -11.890625 9.894531 -11.832031 9.15625 -11.71875 C 8.425781 -11.601562 7.804688 -11.414062 7.296875 -11.15625 C 6.335938 -10.695312 5.859375 -9.960938 5.859375 -8.953125 C 5.859375 -8.085938 6.210938 -7.367188 6.921875 -6.796875 C 7.640625 -6.234375 8.867188 -5.953125 10.609375 -5.953125 C 10.679688 -5.953125 10.769531 -5.953125 10.875 -5.953125 C 10.976562 -5.953125 11.097656 -5.96875 11.234375 -6 C 11.179688 -6.25 11.15625 -6.488281 11.15625 -6.71875 C 11.15625 -7.570312 11.460938 -8.179688 12.078125 -8.546875 C 12.703125 -8.910156 13.375 -9.09375 14.09375 -9.09375 C 15.3125 -9.09375 16.238281 -8.765625 16.875 -8.109375 C 17.519531 -7.453125 17.84375 -6.691406 17.84375 -5.828125 C 17.84375 -5.015625 17.664062 -4.398438 17.3125 -3.984375 C 16.957031 -3.578125 16.515625 -3.25 15.984375 -3 C 16.648438 -1.875 17.476562 -0.644531 18.46875 0.6875 Z M 14.71875 2.34375 "/></g></g></g><g fill="#00bf63" fill-opacity="1"><g transform="translate(44.534538, 30.590305)"><g><path d="M -7.125 -21.1875 C -7.519531 -22.539062 -7.90625 -23.648438 -8.28125 -24.515625 C -8.664062 -25.378906 -9.101562 -26.007812 -9.59375 -26.40625 C -10.09375 -26.8125 -10.726562 -27.015625 -11.5 -27.015625 C -11.96875 -27.015625 -12.394531 -26.96875 -12.78125 -26.875 C -13.175781 -26.78125 -13.53125 -26.675781 -13.84375 -26.5625 L -15.09375 -30.1875 C -14.539062 -30.414062 -13.96875 -30.585938 -13.375 -30.703125 C -12.789062 -30.816406 -12.15625 -30.875 -11.46875 -30.875 C -10.550781 -30.875 -9.703125 -30.75 -8.921875 -30.5 C -8.140625 -30.257812 -7.410156 -29.804688 -6.734375 -29.140625 C -6.054688 -28.472656 -5.410156 -27.503906 -4.796875 -26.234375 C -4.191406 -24.960938 -3.601562 -23.28125 -3.03125 -21.1875 Z M -7.125 -21.1875 "/></g></g></g><g fill="#00bf63" fill-opacity="1"><g transform="translate(46.978765, 30.590305)"><g><path d="M 4.6875 -5.140625 C 3.769531 -5.140625 2.960938 -5.378906 2.265625 -5.859375 C 1.578125 -6.335938 1.234375 -7.070312 1.234375 -8.0625 C 1.234375 -8.863281 1.484375 -9.507812 1.984375 -10 C 2.492188 -10.5 3.210938 -10.75 4.140625 -10.75 C 4.617188 -10.75 5.132812 -10.65625 5.6875 -10.46875 C 6.238281 -10.289062 6.800781 -9.992188 7.375 -9.578125 C 8.3125 -10.015625 9.070312 -10.664062 9.65625 -11.53125 C 10.25 -12.40625 10.546875 -13.488281 10.546875 -14.78125 C 10.546875 -16 10.28125 -16.90625 9.75 -17.5 C 9.21875 -18.09375 8.550781 -18.390625 7.75 -18.390625 C 7.289062 -18.390625 6.921875 -18.28125 6.640625 -18.0625 C 6.367188 -17.851562 6.234375 -17.539062 6.234375 -17.125 C 6.234375 -16.6875 6.457031 -16.28125 6.90625 -15.90625 C 7.351562 -15.539062 8.253906 -15.28125 9.609375 -15.125 L 8.640625 -12.03125 C 6.328125 -12.226562 4.625 -12.8125 3.53125 -13.78125 C 2.4375 -14.75 1.890625 -15.898438 1.890625 -17.234375 C 1.890625 -18.535156 2.378906 -19.617188 3.359375 -20.484375 C 4.335938 -21.347656 5.753906 -21.78125 7.609375 -21.78125 C 8.921875 -21.78125 10.148438 -21.523438 11.296875 -21.015625 C 12.441406 -20.515625 13.363281 -19.734375 14.0625 -18.671875 C 14.769531 -17.617188 15.125 -16.273438 15.125 -14.640625 C 15.125 -13.015625 14.742188 -11.507812 13.984375 -10.125 C 13.222656 -8.75 12.164062 -7.632812 10.8125 -6.78125 C 11.59375 -6.070312 12.347656 -5.300781 13.078125 -4.46875 C 13.816406 -3.644531 14.5 -2.84375 15.125 -2.0625 L 11.71875 0.28125 C 10.800781 -0.914062 9.9375 -1.972656 9.125 -2.890625 C 8.320312 -3.804688 7.578125 -4.613281 6.890625 -5.3125 C 6.179688 -5.195312 5.445312 -5.140625 4.6875 -5.140625 Z M 23.078125 -17.640625 L 23.078125 0 L 18.46875 0 L 18.46875 -17.640625 L 15.890625 -17.640625 L 15.890625 -21.4375 L 26.328125 -21.4375 L 26.328125 -17.640625 Z M 23.078125 -17.640625 "/></g></g></g><g fill="#00bf63" fill-opacity="1"><g transform="translate(72.812773, 30.590305)"><g/></g></g><g fill="#ff914d" fill-opacity="1"><g transform="translate(82.391074, 30.590305)"><g><path d="M 2.75 -17.640625 L 0 -17.640625 L 0 -21.4375 L 2.578125 -21.4375 C 1.960938 -22.695312 1.65625 -23.890625 1.65625 -25.015625 C 1.65625 -26.804688 2.320312 -28.226562 3.65625 -29.28125 C 4.988281 -30.34375 6.882812 -30.875 9.34375 -30.875 C 11.632812 -30.875 13.691406 -30.425781 15.515625 -29.53125 C 17.347656 -28.632812 18.972656 -27.445312 20.390625 -25.96875 C 21.816406 -24.5 23.070312 -22.90625 24.15625 -21.1875 L 19.296875 -21.1875 C 17.941406 -23.070312 16.488281 -24.519531 14.9375 -25.53125 C 13.382812 -26.539062 11.710938 -27.046875 9.921875 -27.046875 C 9.003906 -27.046875 8.171875 -26.8125 7.421875 -26.34375 C 6.679688 -25.875 6.3125 -25.15625 6.3125 -24.1875 C 6.3125 -23.65625 6.378906 -23.15625 6.515625 -22.6875 C 6.648438 -22.21875 6.820312 -21.800781 7.03125 -21.4375 L 10.640625 -21.4375 L 10.640625 -17.640625 L 7.375 -17.640625 L 7.375 0 L 2.75 0 Z M 2.75 -17.640625 "/></g></g></g><g fill="#ff914d" fill-opacity="1"><g transform="translate(92.518007, 30.590305)"><g><path d="M 14.71875 2.34375 C 14.25 1.582031 13.796875 0.78125 13.359375 -0.0625 C 12.929688 -0.914062 12.566406 -1.65625 12.265625 -2.28125 C 11.671875 -2.207031 10.992188 -2.171875 10.234375 -2.171875 C 9.148438 -2.171875 8.078125 -2.289062 7.015625 -2.53125 C 5.960938 -2.769531 5 -3.160156 4.125 -3.703125 C 3.257812 -4.242188 2.566406 -4.96875 2.046875 -5.875 C 1.535156 -6.78125 1.28125 -7.910156 1.28125 -9.265625 C 1.28125 -10.273438 1.46875 -11.148438 1.84375 -11.890625 C 2.21875 -12.640625 2.726562 -13.269531 3.375 -13.78125 C 4.113281 -14.351562 4.992188 -14.796875 6.015625 -15.109375 C 7.035156 -15.421875 8.164062 -15.609375 9.40625 -15.671875 L 9.40625 -17.640625 L 0 -17.640625 L 0 -21.4375 L 19.703125 -21.4375 L 19.703125 -17.640625 L 14.015625 -17.640625 L 14.015625 -11.890625 L 12.265625 -11.890625 C 10.929688 -11.890625 9.894531 -11.832031 9.15625 -11.71875 C 8.425781 -11.601562 7.804688 -11.414062 7.296875 -11.15625 C 6.335938 -10.695312 5.859375 -9.960938 5.859375 -8.953125 C 5.859375 -8.085938 6.210938 -7.367188 6.921875 -6.796875 C 7.640625 -6.234375 8.867188 -5.953125 10.609375 -5.953125 C 10.679688 -5.953125 10.769531 -5.953125 10.875 -5.953125 C 10.976562 -5.953125 11.097656 -5.96875 11.234375 -6 C 11.179688 -6.25 11.15625 -6.488281 11.15625 -6.71875 C 11.15625 -7.570312 11.460938 -8.179688 12.078125 -8.546875 C 12.703125 -8.910156 13.375 -9.09375 14.09375 -9.09375 C 15.3125 -9.09375 16.238281 -8.765625 16.875 -8.109375 C 17.519531 -7.453125 17.84375 -6.691406 17.84375 -5.828125 C 17.84375 -5.015625 17.664062 -4.398438 17.3125 -3.984375 C 16.957031 -3.578125 16.515625 -3.25 15.984375 -3 C 16.648438 -1.875 17.476562 -0.644531 18.46875 0.6875 Z M 14.71875 2.34375 "/></g></g></g><g fill="#ff914d" fill-opacity="1"><g transform="translate(111.738507, 30.590305)"><g><path d="M 4.6875 -5.140625 C 3.769531 -5.140625 2.960938 -5.378906 2.265625 -5.859375 C 1.578125 -6.335938 1.234375 -7.070312 1.234375 -8.0625 C 1.234375 -8.863281 1.484375 -9.507812 1.984375 -10 C 2.492188 -10.5 3.210938 -10.75 4.140625 -10.75 C 4.617188 -10.75 5.132812 -10.65625 5.6875 -10.46875 C 6.238281 -10.289062 6.800781 -9.992188 7.375 -9.578125 C 8.3125 -10.015625 9.070312 -10.664062 9.65625 -11.53125 C 10.25 -12.40625 10.546875 -13.488281 10.546875 -14.78125 C 10.546875 -16 10.28125 -16.90625 9.75 -17.5 C 9.21875 -18.09375 8.550781 -18.390625 7.75 -18.390625 C 7.289062 -18.390625 6.921875 -18.28125 6.640625 -18.0625 C 6.367188 -17.851562 6.234375 -17.539062 6.234375 -17.125 C 6.234375 -16.6875 6.457031 -16.28125 6.90625 -15.90625 C 7.351562 -15.539062 8.253906 -15.28125 9.609375 -15.125 L 8.640625 -12.03125 C 6.328125 -12.226562 4.625 -12.8125 3.53125 -13.78125 C 2.4375 -14.75 1.890625 -15.898438 1.890625 -17.234375 C 1.890625 -18.535156 2.378906 -19.617188 3.359375 -20.484375 C 4.335938 -21.347656 5.753906 -21.78125 7.609375 -21.78125 C 8.921875 -21.78125 10.148438 -21.523438 11.296875 -21.015625 C 12.441406 -20.515625 13.363281 -19.734375 14.0625 -18.671875 C 14.769531 -17.617188 15.125 -16.273438 15.125 -14.640625 C 15.125 -13.015625 14.742188 -11.507812 13.984375 -10.125 C 13.222656 -8.75 12.164062 -7.632812 10.8125 -6.78125 C 11.59375 -6.070312 12.347656 -5.300781 13.078125 -4.46875 C 13.816406 -3.644531 14.5 -2.84375 15.125 -2.0625 L 11.71875 0.28125 C 10.800781 -0.914062 9.9375 -1.972656 9.125 -2.890625 C 8.320312 -3.804688 7.578125 -4.613281 6.890625 -5.3125 C 6.179688 -5.195312 5.445312 -5.140625 4.6875 -5.140625 Z M 23.078125 -17.640625 L 23.078125 0 L 18.46875 0 L 18.46875 -17.640625 L 15.890625 -17.640625 L 15.890625 -21.4375 L 26.328125 -21.4375 L 26.328125 -17.640625 Z M 23.078125 -17.640625 "/></g></g></g><g fill="#ff914d" fill-opacity="1"><g transform="translate(137.572515, 30.590305)"><g><path d="M 7.375 -17.640625 L 7.375 0 L 2.75 0 L 2.75 -17.640625 L 0 -17.640625 L 0 -21.4375 L 10.640625 -21.4375 L 10.640625 -17.640625 Z M 7.375 -17.640625 "/></g></g></g><g fill="#000000" fill-opacity="1"><g transform="translate(32.833948, 44.813671)"><g><path d="M 5.046875 0.796875 C 4.890625 0.535156 4.734375 0.265625 4.578125 -0.015625 C 4.429688 -0.304688 4.304688 -0.5625 4.203125 -0.78125 C 3.992188 -0.757812 3.765625 -0.75 3.515625 -0.75 C 3.140625 -0.75 2.769531 -0.789062 2.40625 -0.875 C 2.039062 -0.957031 1.707031 -1.085938 1.40625 -1.265625 C 1.113281 -1.453125 0.878906 -1.703125 0.703125 -2.015625 C 0.523438 -2.328125 0.4375 -2.710938 0.4375 -3.171875 C 0.4375 -3.523438 0.5 -3.828125 0.625 -4.078125 C 0.757812 -4.335938 0.9375 -4.550781 1.15625 -4.71875 C 1.40625 -4.914062 1.707031 -5.066406 2.0625 -5.171875 C 2.414062 -5.285156 2.800781 -5.351562 3.21875 -5.375 L 3.21875 -6.046875 L 0 -6.046875 L 0 -7.34375 L 6.75 -7.34375 L 6.75 -6.046875 L 4.8125 -6.046875 L 4.8125 -4.078125 L 4.203125 -4.078125 C 3.742188 -4.078125 3.390625 -4.054688 3.140625 -4.015625 C 2.890625 -3.972656 2.675781 -3.910156 2.5 -3.828125 C 2.175781 -3.671875 2.015625 -3.421875 2.015625 -3.078125 C 2.015625 -2.773438 2.132812 -2.523438 2.375 -2.328125 C 2.613281 -2.140625 3.035156 -2.046875 3.640625 -2.046875 C 3.660156 -2.046875 3.6875 -2.046875 3.71875 -2.046875 C 3.757812 -2.046875 3.800781 -2.050781 3.84375 -2.0625 C 3.832031 -2.144531 3.828125 -2.222656 3.828125 -2.296875 C 3.828125 -2.585938 3.929688 -2.796875 4.140625 -2.921875 C 4.359375 -3.054688 4.585938 -3.125 4.828125 -3.125 C 5.242188 -3.125 5.5625 -3.007812 5.78125 -2.78125 C 6.007812 -2.550781 6.125 -2.289062 6.125 -2 C 6.125 -1.71875 6.0625 -1.503906 5.9375 -1.359375 C 5.8125 -1.222656 5.660156 -1.113281 5.484375 -1.03125 C 5.710938 -0.644531 5.992188 -0.222656 6.328125 0.234375 Z M 5.046875 0.796875 "/></g></g></g><g fill="#000000" fill-opacity="1"><g transform="translate(38.586641, 44.813671)"><g><path d="M -2.4375 -7.265625 C -2.570312 -7.734375 -2.703125 -8.113281 -2.828125 -8.40625 C -2.960938 -8.695312 -3.113281 -8.910156 -3.28125 -9.046875 C -3.457031 -9.191406 -3.679688 -9.265625 -3.953125 -9.265625 C -4.109375 -9.265625 -4.25 -9.25 -4.375 -9.21875 C -4.507812 -9.1875 -4.632812 -9.148438 -4.75 -9.109375 L -5.171875 -10.34375 C -4.984375 -10.425781 -4.785156 -10.484375 -4.578125 -10.515625 C -4.378906 -10.554688 -4.164062 -10.578125 -3.9375 -10.578125 C -3.625 -10.578125 -3.332031 -10.535156 -3.0625 -10.453125 C -2.789062 -10.367188 -2.535156 -10.210938 -2.296875 -9.984375 C -2.066406 -9.765625 -1.847656 -9.4375 -1.640625 -9 C -1.429688 -8.5625 -1.234375 -7.984375 -1.046875 -7.265625 Z M -2.4375 -7.265625 "/></g></g></g><g fill="#000000" fill-opacity="1"><g transform="translate(39.425341, 44.813671)"><g><path d="M 1.609375 -1.765625 C 1.296875 -1.765625 1.019531 -1.84375 0.78125 -2 C 0.539062 -2.164062 0.421875 -2.421875 0.421875 -2.765625 C 0.421875 -3.035156 0.503906 -3.253906 0.671875 -3.421875 C 0.847656 -3.597656 1.097656 -3.6875 1.421875 -3.6875 C 1.585938 -3.6875 1.765625 -3.65625 1.953125 -3.59375 C 2.140625 -3.53125 2.332031 -3.425781 2.53125 -3.28125 C 2.851562 -3.4375 3.113281 -3.660156 3.3125 -3.953125 C 3.507812 -4.253906 3.609375 -4.625 3.609375 -5.0625 C 3.609375 -5.476562 3.519531 -5.789062 3.34375 -6 C 3.164062 -6.207031 2.9375 -6.3125 2.65625 -6.3125 C 2.5 -6.3125 2.375 -6.269531 2.28125 -6.1875 C 2.1875 -6.113281 2.140625 -6.007812 2.140625 -5.875 C 2.140625 -5.71875 2.210938 -5.578125 2.359375 -5.453125 C 2.515625 -5.328125 2.828125 -5.238281 3.296875 -5.1875 L 2.96875 -4.125 C 2.164062 -4.195312 1.578125 -4.394531 1.203125 -4.71875 C 0.835938 -5.050781 0.65625 -5.445312 0.65625 -5.90625 C 0.65625 -6.351562 0.820312 -6.722656 1.15625 -7.015625 C 1.488281 -7.316406 1.972656 -7.46875 2.609375 -7.46875 C 3.054688 -7.46875 3.476562 -7.378906 3.875 -7.203125 C 4.269531 -7.035156 4.585938 -6.769531 4.828125 -6.40625 C 5.066406 -6.039062 5.1875 -5.578125 5.1875 -5.015625 C 5.1875 -4.460938 5.054688 -3.945312 4.796875 -3.46875 C 4.535156 -3 4.171875 -2.617188 3.703125 -2.328125 C 3.972656 -2.078125 4.234375 -1.8125 4.484375 -1.53125 C 4.734375 -1.25 4.96875 -0.972656 5.1875 -0.703125 L 4.015625 0.09375 C 3.703125 -0.3125 3.40625 -0.671875 3.125 -0.984375 C 2.851562 -1.304688 2.597656 -1.582031 2.359375 -1.8125 C 2.117188 -1.78125 1.867188 -1.765625 1.609375 -1.765625 Z M 7.921875 -6.046875 L 7.921875 0 L 6.328125 0 L 6.328125 -6.046875 L 5.453125 -6.046875 L 5.453125 -7.34375 L 9.03125 -7.34375 L 9.03125 -6.046875 Z M 7.921875 -6.046875 "/></g></g></g><g fill="#000000" fill-opacity="1"><g transform="translate(48.284738, 44.813671)"><g/></g></g><g fill="#000000" fill-opacity="1"><g transform="translate(51.566628, 44.813671)"><g><path d="M 9.890625 -6.046875 L 6.078125 -6.046875 L 6.078125 -4.40625 C 6.460938 -4.625 6.894531 -4.734375 7.375 -4.734375 C 7.9375 -4.734375 8.394531 -4.5625 8.75 -4.21875 C 9.113281 -3.875 9.296875 -3.394531 9.296875 -2.78125 C 9.296875 -2.425781 9.226562 -2.035156 9.09375 -1.609375 C 8.96875 -1.179688 8.757812 -0.75 8.46875 -0.3125 L 7.09375 -1.09375 C 7.257812 -1.332031 7.40625 -1.582031 7.53125 -1.84375 C 7.65625 -2.101562 7.71875 -2.367188 7.71875 -2.640625 C 7.71875 -2.929688 7.65625 -3.132812 7.53125 -3.25 C 7.40625 -3.375 7.242188 -3.4375 7.046875 -3.4375 C 6.867188 -3.4375 6.691406 -3.378906 6.515625 -3.265625 C 6.347656 -3.160156 6.203125 -3.046875 6.078125 -2.921875 L 6.078125 0 L 4.5 0 L 4.5 -1.5 C 4.238281 -1.351562 3.972656 -1.238281 3.703125 -1.15625 C 3.441406 -1.082031 3.140625 -1.046875 2.796875 -1.046875 C 2.367188 -1.046875 1.972656 -1.125 1.609375 -1.28125 C 1.253906 -1.4375 0.96875 -1.671875 0.75 -1.984375 C 0.539062 -2.304688 0.4375 -2.703125 0.4375 -3.171875 C 0.4375 -3.609375 0.539062 -3.988281 0.75 -4.3125 C 0.96875 -4.632812 1.265625 -4.882812 1.640625 -5.0625 C 2.015625 -5.238281 2.453125 -5.328125 2.953125 -5.328125 C 3.171875 -5.328125 3.390625 -5.316406 3.609375 -5.296875 C 3.835938 -5.273438 4.015625 -5.25 4.140625 -5.21875 L 4.03125 -3.90625 C 3.78125 -3.96875 3.5 -4 3.1875 -4 C 2.820312 -4 2.535156 -3.925781 2.328125 -3.78125 C 2.117188 -3.632812 2.015625 -3.429688 2.015625 -3.171875 C 2.015625 -2.859375 2.113281 -2.640625 2.3125 -2.515625 C 2.507812 -2.398438 2.722656 -2.34375 2.953125 -2.34375 C 3.285156 -2.34375 3.578125 -2.414062 3.828125 -2.5625 C 4.085938 -2.71875 4.3125 -2.894531 4.5 -3.09375 L 4.5 -6.046875 L 0 -6.046875 L 0 -7.34375 L 9.890625 -7.34375 Z M 9.890625 -6.046875 "/></g></g></g><g fill="#000000" fill-opacity="1"><g transform="translate(61.288337, 44.813671)"><g><path d="M 0.9375 -6.046875 L 0 -6.046875 L 0 -7.34375 L 0.71875 -7.34375 C 0.207031 -7.96875 -0.320312 -8.441406 -0.875 -8.765625 C -1.425781 -9.097656 -2.023438 -9.265625 -2.671875 -9.265625 C -3.109375 -9.265625 -3.445312 -9.175781 -3.6875 -9 C -3.925781 -8.820312 -4.046875 -8.578125 -4.046875 -8.265625 C -4.046875 -8.066406 -4.015625 -7.882812 -3.953125 -7.71875 C -3.898438 -7.550781 -3.832031 -7.398438 -3.75 -7.265625 L -5.28125 -7.265625 C -5.394531 -7.492188 -5.484375 -7.710938 -5.546875 -7.921875 C -5.609375 -8.128906 -5.640625 -8.34375 -5.640625 -8.5625 C -5.640625 -9.175781 -5.40625 -9.664062 -4.9375 -10.03125 C -4.46875 -10.394531 -3.796875 -10.578125 -2.921875 -10.578125 C -2.078125 -10.578125 -1.328125 -10.429688 -0.671875 -10.140625 C -0.0234375 -9.847656 0.546875 -9.457031 1.046875 -8.96875 C 1.554688 -8.476562 2.023438 -7.9375 2.453125 -7.34375 L 3.65625 -7.34375 L 3.65625 -6.046875 L 2.53125 -6.046875 L 2.53125 0 L 0.9375 0 Z M 0.9375 -6.046875 "/></g></g></g><g fill="#000000" fill-opacity="1"><g transform="translate(64.761219, 44.813671)"><g/></g></g><g clip-path="url(#a900ee30a7)"><g fill="#000000" fill-opacity="1"><g transform="translate(68.043111, 44.813671)"><g><path d="M 3.96875 -0.84375 C 4.175781 -0.90625 4.347656 -0.976562 4.484375 -1.0625 C 4.628906 -1.15625 4.703125 -1.28125 4.703125 -1.4375 C 4.703125 -1.625 4.609375 -1.769531 4.421875 -1.875 C 4.242188 -1.976562 3.945312 -2.03125 3.53125 -2.03125 C 3.0625 -2.03125 2.707031 -1.945312 2.46875 -1.78125 C 2.226562 -1.613281 2.109375 -1.382812 2.109375 -1.09375 C 2.109375 -0.894531 2.15625 -0.703125 2.25 -0.515625 C 2.34375 -0.328125 2.503906 -0.117188 2.734375 0.109375 C 2.972656 0.335938 3.316406 0.613281 3.765625 0.9375 L 2.734375 2 C 2.285156 1.625 1.894531 1.269531 1.5625 0.9375 C 1.238281 0.613281 0.984375 0.28125 0.796875 -0.0625 C 0.617188 -0.40625 0.53125 -0.78125 0.53125 -1.1875 C 0.53125 -1.476562 0.585938 -1.738281 0.703125 -1.96875 C 0.816406 -2.207031 0.96875 -2.414062 1.15625 -2.59375 C 1.007812 -2.75 0.890625 -2.929688 0.796875 -3.140625 C 0.710938 -3.359375 0.671875 -3.601562 0.671875 -3.875 C 0.671875 -4.125 0.710938 -4.335938 0.796875 -4.515625 C 0.890625 -4.691406 1.015625 -4.835938 1.171875 -4.953125 C 1.367188 -5.109375 1.601562 -5.21875 1.875 -5.28125 C 2.144531 -5.351562 2.519531 -5.390625 3 -5.390625 L 4.203125 -5.390625 L 4.203125 -6.046875 L 0 -6.046875 L 0 -7.34375 L 6.90625 -7.34375 L 6.90625 -6.046875 L 5.78125 -6.046875 L 5.78125 -4.09375 L 3.046875 -4.09375 C 2.828125 -4.09375 2.671875 -4.082031 2.578125 -4.0625 C 2.492188 -4.039062 2.425781 -4.003906 2.375 -3.953125 C 2.269531 -3.878906 2.21875 -3.765625 2.21875 -3.609375 C 2.21875 -3.472656 2.273438 -3.335938 2.390625 -3.203125 C 2.753906 -3.296875 3.148438 -3.34375 3.578125 -3.34375 C 4.210938 -3.34375 4.726562 -3.253906 5.125 -3.078125 C 5.519531 -2.898438 5.804688 -2.664062 5.984375 -2.375 C 6.171875 -2.09375 6.265625 -1.796875 6.265625 -1.484375 C 6.265625 -0.515625 5.640625 0.113281 4.390625 0.40625 Z M 3.96875 -0.84375 "/></g></g></g></g><g fill="#000000" fill-opacity="1"><g transform="translate(74.776254, 44.813671)"><g><path d="M 4.921875 -0.84375 L 3.890625 0.203125 C 3.203125 -0.390625 2.582031 -0.945312 2.03125 -1.46875 C 1.476562 -2 1.066406 -2.445312 0.796875 -2.8125 C 0.609375 -3.050781 0.488281 -3.25 0.4375 -3.40625 C 0.382812 -3.570312 0.359375 -3.722656 0.359375 -3.859375 C 0.359375 -4.054688 0.425781 -4.253906 0.5625 -4.453125 C 0.707031 -4.648438 0.953125 -4.75 1.296875 -4.75 C 1.691406 -4.75 2.023438 -4.609375 2.296875 -4.328125 C 2.710938 -4.597656 2.921875 -4.960938 2.921875 -5.421875 C 2.921875 -5.648438 2.898438 -5.859375 2.859375 -6.046875 L 0 -6.046875 L 0 -7.34375 L 5.34375 -7.34375 L 5.34375 -6.046875 L 4.40625 -6.046875 C 4.4375 -5.929688 4.460938 -5.800781 4.484375 -5.65625 C 4.503906 -5.519531 4.515625 -5.351562 4.515625 -5.15625 C 4.515625 -4.613281 4.347656 -4.15625 4.015625 -3.78125 C 3.679688 -3.40625 3.210938 -3.101562 2.609375 -2.875 C 2.921875 -2.570312 3.273438 -2.238281 3.671875 -1.875 C 4.078125 -1.507812 4.492188 -1.164062 4.921875 -0.84375 Z M 4.921875 -0.84375 "/></g></g></g><g fill="#000000" fill-opacity="1"><g transform="translate(79.950136, 44.813671)"><g/></g></g><g fill="#000000" fill-opacity="1"><g transform="translate(83.232028, 44.813671)"><g><path d="M 0.9375 -6.046875 L 0 -6.046875 L 0 -7.34375 L 0.890625 -7.34375 C 0.671875 -7.78125 0.5625 -8.191406 0.5625 -8.578125 C 0.5625 -9.191406 0.789062 -9.675781 1.25 -10.03125 C 1.707031 -10.394531 2.359375 -10.578125 3.203125 -10.578125 C 3.984375 -10.578125 4.6875 -10.421875 5.3125 -10.109375 C 5.945312 -9.804688 6.503906 -9.40625 6.984375 -8.90625 C 7.472656 -8.40625 7.90625 -7.859375 8.28125 -7.265625 L 6.609375 -7.265625 C 6.148438 -7.910156 5.65625 -8.40625 5.125 -8.75 C 4.59375 -9.09375 4.019531 -9.265625 3.40625 -9.265625 C 3.082031 -9.265625 2.789062 -9.179688 2.53125 -9.015625 C 2.28125 -8.859375 2.15625 -8.617188 2.15625 -8.296875 C 2.15625 -8.109375 2.175781 -7.929688 2.21875 -7.765625 C 2.269531 -7.609375 2.332031 -7.46875 2.40625 -7.34375 L 3.65625 -7.34375 L 3.65625 -6.046875 L 2.53125 -6.046875 L 2.53125 0 L 0.9375 0 Z M 0.9375 -6.046875 "/></g></g></g><g fill="#000000" fill-opacity="1"><g transform="translate(86.70491, 44.813671)"><g><path d="M 5.046875 0.796875 C 4.890625 0.535156 4.734375 0.265625 4.578125 -0.015625 C 4.429688 -0.304688 4.304688 -0.5625 4.203125 -0.78125 C 3.992188 -0.757812 3.765625 -0.75 3.515625 -0.75 C 3.140625 -0.75 2.769531 -0.789062 2.40625 -0.875 C 2.039062 -0.957031 1.707031 -1.085938 1.40625 -1.265625 C 1.113281 -1.453125 0.878906 -1.703125 0.703125 -2.015625 C 0.523438 -2.328125 0.4375 -2.710938 0.4375 -3.171875 C 0.4375 -3.523438 0.5 -3.828125 0.625 -4.078125 C 0.757812 -4.335938 0.9375 -4.550781 1.15625 -4.71875 C 1.40625 -4.914062 1.707031 -5.066406 2.0625 -5.171875 C 2.414062 -5.285156 2.800781 -5.351562 3.21875 -5.375 L 3.21875 -6.046875 L 0 -6.046875 L 0 -7.34375 L 6.75 -7.34375 L 6.75 -6.046875 L 4.8125 -6.046875 L 4.8125 -4.078125 L 4.203125 -4.078125 C 3.742188 -4.078125 3.390625 -4.054688 3.140625 -4.015625 C 2.890625 -3.972656 2.675781 -3.910156 2.5 -3.828125 C 2.175781 -3.671875 2.015625 -3.421875 2.015625 -3.078125 C 2.015625 -2.773438 2.132812 -2.523438 2.375 -2.328125 C 2.613281 -2.140625 3.035156 -2.046875 3.640625 -2.046875 C 3.660156 -2.046875 3.6875 -2.046875 3.71875 -2.046875 C 3.757812 -2.046875 3.800781 -2.050781 3.84375 -2.0625 C 3.832031 -2.144531 3.828125 -2.222656 3.828125 -2.296875 C 3.828125 -2.585938 3.929688 -2.796875 4.140625 -2.921875 C 4.359375 -3.054688 4.585938 -3.125 4.828125 -3.125 C 5.242188 -3.125 5.5625 -3.007812 5.78125 -2.78125 C 6.007812 -2.550781 6.125 -2.289062 6.125 -2 C 6.125 -1.71875 6.0625 -1.503906 5.9375 -1.359375 C 5.8125 -1.222656 5.660156 -1.113281 5.484375 -1.03125 C 5.710938 -0.644531 5.992188 -0.222656 6.328125 0.234375 Z M 5.046875 0.796875 "/></g></g></g><g fill="#000000" fill-opacity="1"><g transform="translate(93.296302, 44.813671)"><g><path d="M 1.609375 -1.765625 C 1.296875 -1.765625 1.019531 -1.84375 0.78125 -2 C 0.539062 -2.164062 0.421875 -2.421875 0.421875 -2.765625 C 0.421875 -3.035156 0.503906 -3.253906 0.671875 -3.421875 C 0.847656 -3.597656 1.097656 -3.6875 1.421875 -3.6875 C 1.585938 -3.6875 1.765625 -3.65625 1.953125 -3.59375 C 2.140625 -3.53125 2.332031 -3.425781 2.53125 -3.28125 C 2.851562 -3.4375 3.113281 -3.660156 3.3125 -3.953125 C 3.507812 -4.253906 3.609375 -4.625 3.609375 -5.0625 C 3.609375 -5.476562 3.519531 -5.789062 3.34375 -6 C 3.164062 -6.207031 2.9375 -6.3125 2.65625 -6.3125 C 2.5 -6.3125 2.375 -6.269531 2.28125 -6.1875 C 2.1875 -6.113281 2.140625 -6.007812 2.140625 -5.875 C 2.140625 -5.71875 2.210938 -5.578125 2.359375 -5.453125 C 2.515625 -5.328125 2.828125 -5.238281 3.296875 -5.1875 L 2.96875 -4.125 C 2.164062 -4.195312 1.578125 -4.394531 1.203125 -4.71875 C 0.835938 -5.050781 0.65625 -5.445312 0.65625 -5.90625 C 0.65625 -6.351562 0.820312 -6.722656 1.15625 -7.015625 C 1.488281 -7.316406 1.972656 -7.46875 2.609375 -7.46875 C 3.054688 -7.46875 3.476562 -7.378906 3.875 -7.203125 C 4.269531 -7.035156 4.585938 -6.769531 4.828125 -6.40625 C 5.066406 -6.039062 5.1875 -5.578125 5.1875 -5.015625 C 5.1875 -4.460938 5.054688 -3.945312 4.796875 -3.46875 C 4.535156 -3 4.171875 -2.617188 3.703125 -2.328125 C 3.972656 -2.078125 4.234375 -1.8125 4.484375 -1.53125 C 4.734375 -1.25 4.96875 -0.972656 5.1875 -0.703125 L 4.015625 0.09375 C 3.703125 -0.3125 3.40625 -0.671875 3.125 -0.984375 C 2.851562 -1.304688 2.597656 -1.582031 2.359375 -1.8125 C 2.117188 -1.78125 1.867188 -1.765625 1.609375 -1.765625 Z M 7.921875 -6.046875 L 7.921875 0 L 6.328125 0 L 6.328125 -6.046875 L 5.453125 -6.046875 L 5.453125 -7.34375 L 9.03125 -7.34375 L 9.03125 -6.046875 Z M 7.921875 -6.046875 "/></g></g></g><g fill="#000000" fill-opacity="1"><g transform="translate(102.155699, 44.813671)"><g><path d="M 2.53125 -6.046875 L 2.53125 0 L 0.9375 0 L 0.9375 -6.046875 L 0 -6.046875 L 0 -7.34375 L 3.65625 -7.34375 L 3.65625 -6.046875 Z M 2.53125 -6.046875 "/></g></g></g><g fill="#000000" fill-opacity="1"><g transform="translate(105.628581, 44.813671)"><g/></g></g><g fill="#000000" fill-opacity="1"><g transform="translate(108.910472, 44.813671)"><g><path d="M 9.890625 -6.046875 L 6.078125 -6.046875 L 6.078125 -4.40625 C 6.460938 -4.625 6.894531 -4.734375 7.375 -4.734375 C 7.9375 -4.734375 8.394531 -4.5625 8.75 -4.21875 C 9.113281 -3.875 9.296875 -3.394531 9.296875 -2.78125 C 9.296875 -2.425781 9.226562 -2.035156 9.09375 -1.609375 C 8.96875 -1.179688 8.757812 -0.75 8.46875 -0.3125 L 7.09375 -1.09375 C 7.257812 -1.332031 7.40625 -1.582031 7.53125 -1.84375 C 7.65625 -2.101562 7.71875 -2.367188 7.71875 -2.640625 C 7.71875 -2.929688 7.65625 -3.132812 7.53125 -3.25 C 7.40625 -3.375 7.242188 -3.4375 7.046875 -3.4375 C 6.867188 -3.4375 6.691406 -3.378906 6.515625 -3.265625 C 6.347656 -3.160156 6.203125 -3.046875 6.078125 -2.921875 L 6.078125 0 L 4.5 0 L 4.5 -1.5 C 4.238281 -1.351562 3.972656 -1.238281 3.703125 -1.15625 C 3.441406 -1.082031 3.140625 -1.046875 2.796875 -1.046875 C 2.367188 -1.046875 1.972656 -1.125 1.609375 -1.28125 C 1.253906 -1.4375 0.96875 -1.671875 0.75 -1.984375 C 0.539062 -2.304688 0.4375 -2.703125 0.4375 -3.171875 C 0.4375 -3.609375 0.539062 -3.988281 0.75 -4.3125 C 0.96875 -4.632812 1.265625 -4.882812 1.640625 -5.0625 C 2.015625 -5.238281 2.453125 -5.328125 2.953125 -5.328125 C 3.171875 -5.328125 3.390625 -5.316406 3.609375 -5.296875 C 3.835938 -5.273438 4.015625 -5.25 4.140625 -5.21875 L 4.03125 -3.90625 C 3.78125 -3.96875 3.5 -4 3.1875 -4 C 2.820312 -4 2.535156 -3.925781 2.328125 -3.78125 C 2.117188 -3.632812 2.015625 -3.429688 2.015625 -3.171875 C 2.015625 -2.859375 2.113281 -2.640625 2.3125 -2.515625 C 2.507812 -2.398438 2.722656 -2.34375 2.953125 -2.34375 C 3.285156 -2.34375 3.578125 -2.414062 3.828125 -2.5625 C 4.085938 -2.71875 4.3125 -2.894531 4.5 -3.09375 L 4.5 -6.046875 L 0 -6.046875 L 0 -7.34375 L 9.890625 -7.34375 Z M 9.890625 -6.046875 "/></g></g></g><g fill="#000000" fill-opacity="1"><g transform="translate(118.632181, 44.813671)"><g><path d="M 0.9375 -6.046875 L 0 -6.046875 L 0 -7.34375 L 0.71875 -7.34375 C 0.207031 -7.96875 -0.320312 -8.441406 -0.875 -8.765625 C -1.425781 -9.097656 -2.023438 -9.265625 -2.671875 -9.265625 C -3.109375 -9.265625 -3.445312 -9.175781 -3.6875 -9 C -3.925781 -8.820312 -4.046875 -8.578125 -4.046875 -8.265625 C -4.046875 -8.066406 -4.015625 -7.882812 -3.953125 -7.71875 C -3.898438 -7.550781 -3.832031 -7.398438 -3.75 -7.265625 L -5.28125 -7.265625 C -5.394531 -7.492188 -5.484375 -7.710938 -5.546875 -7.921875 C -5.609375 -8.128906 -5.640625 -8.34375 -5.640625 -8.5625 C -5.640625 -9.175781 -5.40625 -9.664062 -4.9375 -10.03125 C -4.46875 -10.394531 -3.796875 -10.578125 -2.921875 -10.578125 C -2.078125 -10.578125 -1.328125 -10.429688 -0.671875 -10.140625 C -0.0234375 -9.847656 0.546875 -9.457031 1.046875 -8.96875 C 1.554688 -8.476562 2.023438 -7.9375 2.453125 -7.34375 L 3.65625 -7.34375 L 3.65625 -6.046875 L 2.53125 -6.046875 L 2.53125 0 L 0.9375 0 Z M 0.9375 -6.046875 "/></g></g></g><g fill="#000000" fill-opacity="1"><g transform="translate(122.105063, 44.813671)"><g/></g></g><g fill="#000000" fill-opacity="1"><g transform="translate(125.386954, 44.813671)"><g><path d="M 9.640625 -6.046875 L 9.640625 0 L 8.0625 0 L 8.0625 -0.484375 C 7.414062 -0.179688 6.664062 -0.03125 5.8125 -0.03125 C 5.175781 -0.03125 4.597656 -0.117188 4.078125 -0.296875 C 3.566406 -0.472656 3.101562 -0.703125 2.6875 -0.984375 C 2.269531 -1.273438 1.90625 -1.570312 1.59375 -1.875 C 1.28125 -2.1875 1.019531 -2.476562 0.8125 -2.75 C 0.632812 -3 0.515625 -3.210938 0.453125 -3.390625 C 0.390625 -3.566406 0.359375 -3.722656 0.359375 -3.859375 C 0.359375 -4.054688 0.425781 -4.253906 0.5625 -4.453125 C 0.707031 -4.648438 0.953125 -4.75 1.296875 -4.75 C 1.660156 -4.75 1.972656 -4.628906 2.234375 -4.390625 C 2.316406 -4.546875 2.375 -4.707031 2.40625 -4.875 C 2.445312 -5.050781 2.46875 -5.226562 2.46875 -5.40625 C 2.46875 -5.625 2.441406 -5.835938 2.390625 -6.046875 L 0 -6.046875 L 0 -7.34375 L 10.75 -7.34375 L 10.75 -6.046875 Z M 6.75 -3.171875 C 7.007812 -3.171875 7.242188 -3.21875 7.453125 -3.3125 C 7.671875 -3.40625 7.875 -3.523438 8.0625 -3.671875 L 8.0625 -6.046875 L 3.953125 -6.046875 C 3.984375 -5.929688 4.003906 -5.800781 4.015625 -5.65625 C 4.035156 -5.519531 4.046875 -5.351562 4.046875 -5.15625 C 4.046875 -4.570312 3.898438 -4.101562 3.609375 -3.75 C 3.316406 -3.394531 2.957031 -3.109375 2.53125 -2.890625 C 2.78125 -2.628906 3.0625 -2.375 3.375 -2.125 C 3.6875 -1.882812 4.039062 -1.691406 4.4375 -1.546875 C 4.84375 -1.398438 5.300781 -1.328125 5.8125 -1.328125 C 6.34375 -1.328125 6.785156 -1.378906 7.140625 -1.484375 C 7.492188 -1.585938 7.800781 -1.707031 8.0625 -1.84375 L 8.0625 -2.375 C 7.863281 -2.257812 7.640625 -2.171875 7.390625 -2.109375 C 7.140625 -2.046875 6.84375 -2.015625 6.5 -2.015625 C 5.894531 -2.015625 5.40625 -2.164062 5.03125 -2.46875 C 4.65625 -2.769531 4.46875 -3.207031 4.46875 -3.78125 C 4.46875 -4.34375 4.660156 -4.785156 5.046875 -5.109375 C 5.429688 -5.441406 5.957031 -5.609375 6.625 -5.609375 C 6.757812 -5.609375 6.929688 -5.601562 7.140625 -5.59375 C 7.359375 -5.582031 7.539062 -5.554688 7.6875 -5.515625 L 7.578125 -4.375 C 7.484375 -4.394531 7.375 -4.410156 7.25 -4.421875 C 7.125 -4.441406 6.988281 -4.453125 6.84375 -4.453125 C 6.257812 -4.453125 5.96875 -4.238281 5.96875 -3.8125 C 5.96875 -3.582031 6.039062 -3.414062 6.1875 -3.3125 C 6.34375 -3.21875 6.53125 -3.171875 6.75 -3.171875 Z M 6.75 -3.171875 "/></g></g></g><g fill="#000000" fill-opacity="1"><g transform="translate(135.970975, 44.813671)"><g><path d="M 7.484375 -6.046875 L 6.375 -6.046875 L 6.375 0 L 4.796875 0 L 4.796875 -1.46875 C 4.515625 -1.320312 4.226562 -1.210938 3.9375 -1.140625 C 3.65625 -1.078125 3.296875 -1.046875 2.859375 -1.046875 C 2.421875 -1.046875 2.015625 -1.125 1.640625 -1.28125 C 1.273438 -1.4375 0.984375 -1.671875 0.765625 -1.984375 C 0.546875 -2.304688 0.4375 -2.703125 0.4375 -3.171875 C 0.4375 -3.609375 0.546875 -3.988281 0.765625 -4.3125 C 0.984375 -4.632812 1.28125 -4.882812 1.65625 -5.0625 C 2.03125 -5.238281 2.472656 -5.328125 2.984375 -5.328125 C 3.304688 -5.328125 3.59375 -5.316406 3.84375 -5.296875 C 4.101562 -5.285156 4.296875 -5.265625 4.421875 -5.234375 L 4.3125 -3.96875 C 4.019531 -4.03125 3.695312 -4.0625 3.34375 -4.0625 C 3.289062 -4.0625 3.238281 -4.0625 3.1875 -4.0625 L 4.28125 -2.6875 C 4.375 -2.75 4.460938 -2.8125 4.546875 -2.875 C 4.628906 -2.945312 4.710938 -3.03125 4.796875 -3.125 L 4.796875 -6.046875 L 0 -6.046875 L 0 -7.34375 L 7.484375 -7.34375 Z M 1.96875 -3.171875 C 1.96875 -2.835938 2.070312 -2.609375 2.28125 -2.484375 C 2.488281 -2.359375 2.75 -2.296875 3.0625 -2.296875 C 3.207031 -2.296875 3.351562 -2.3125 3.5 -2.34375 L 2.296875 -3.84375 C 2.078125 -3.6875 1.96875 -3.460938 1.96875 -3.171875 Z M 1.96875 -3.171875 "/></g></g></g><g fill="#000000" fill-opacity="1"><g transform="translate(143.294734, 44.813671)"><g><path d="M 4.921875 -0.84375 L 3.890625 0.203125 C 3.203125 -0.390625 2.582031 -0.945312 2.03125 -1.46875 C 1.476562 -2 1.066406 -2.445312 0.796875 -2.8125 C 0.609375 -3.050781 0.488281 -3.25 0.4375 -3.40625 C 0.382812 -3.570312 0.359375 -3.722656 0.359375 -3.859375 C 0.359375 -4.054688 0.425781 -4.253906 0.5625 -4.453125 C 0.707031 -4.648438 0.953125 -4.75 1.296875 -4.75 C 1.691406 -4.75 2.023438 -4.609375 2.296875 -4.328125 C 2.710938 -4.597656 2.921875 -4.960938 2.921875 -5.421875 C 2.921875 -5.648438 2.898438 -5.859375 2.859375 -6.046875 L 0 -6.046875 L 0 -7.34375 L 5.34375 -7.34375 L 5.34375 -6.046875 L 4.40625 -6.046875 C 4.4375 -5.929688 4.460938 -5.800781 4.484375 -5.65625 C 4.503906 -5.519531 4.515625 -5.351562 4.515625 -5.15625 C 4.515625 -4.613281 4.347656 -4.15625 4.015625 -3.78125 C 3.679688 -3.40625 3.210938 -3.101562 2.609375 -2.875 C 2.921875 -2.570312 3.273438 -2.238281 3.671875 -1.875 C 4.078125 -1.507812 4.492188 -1.164062 4.921875 -0.84375 Z M 4.921875 -0.84375 "/></g></g></g></svg>