<svg xmlns="http://www.w3.org/2000/svg" xmlns:xlink="http://www.w3.org/1999/xlink" width="500" zoomAndPan="magnify" viewBox="0 0 375 316.499991" height="422" preserveAspectRatio="xMidYMid meet" version="1.0"><defs><clipPath id="ae908fe82d"><path d="M 0.296875 22 L 370.960938 22 L 370.960938 291 L 0.296875 291 Z M 0.296875 22 " clip-rule="nonzero"/></clipPath></defs><path fill="#07bcd4" d="M 336.667969 116.242188 C 332.550781 120.726562 328.367188 125.171875 324.191406 129.496094 C 322.558594 131.179688 320.921875 132.855469 319.273438 134.523438 C 320.445312 141.753906 321.03125 149.035156 321.027344 156.359375 C 321.027344 207.328125 292.769531 251.808594 251.109375 274.945312 L 251.109375 60.242188 L 218.414062 83.832031 L 218.414062 287.851562 C 212.996094 289.207031 207.515625 290.21875 201.972656 290.890625 C 191.078125 292.203125 180.179688 292.203125 169.28125 290.890625 C 163.738281 290.21875 158.257812 289.207031 152.839844 287.851562 L 152.839844 131.144531 L 120.144531 154.734375 L 120.144531 274.945312 C 117.867188 273.683594 115.632812 272.355469 113.4375 270.964844 C 111.214844 271.808594 108.988281 272.632812 106.765625 273.441406 L 106.59375 273.507812 C 100.878906 275.585938 95.082031 277.585938 89.289062 279.472656 C 98.835938 286.976562 109.121094 293.269531 120.144531 298.355469 C 121.6875 299.070312 123.242188 299.757812 124.8125 300.421875 C 139.0625 306.464844 153.886719 310.28125 169.277344 311.875 C 180.175781 312.996094 191.074219 312.996094 201.972656 311.875 C 217.367188 310.28125 232.1875 306.464844 246.4375 300.421875 C 248.007812 299.757812 249.566406 299.070312 251.105469 298.355469 C 255.472656 296.332031 259.738281 294.113281 263.902344 291.695312 C 268.0625 289.28125 272.105469 286.675781 276.027344 283.886719 C 279.953125 281.097656 283.738281 278.136719 287.390625 274.996094 C 291.039062 271.859375 294.539062 268.558594 297.882812 265.097656 C 301.230469 261.636719 304.410156 258.03125 307.425781 254.277344 C 310.441406 250.523438 313.277344 246.640625 315.933594 242.625 C 318.589844 238.609375 321.058594 234.480469 323.335938 230.238281 C 325.613281 225.996094 327.691406 221.65625 329.570312 217.222656 C 337.71875 197.941406 341.851562 177.460938 341.851562 156.359375 C 341.867188 142.761719 340.140625 129.386719 336.667969 116.242188 Z M 336.667969 116.242188 " fill-opacity="1" fill-rule="nonzero"/><path fill="#07bcd4" d="M 185.628906 20.851562 C 231.097656 20.851562 271.402344 43.398438 295.96875 77.90625 C 299.621094 73.058594 303.257812 68.085938 306.8125 63.085938 C 307.339844 62.34375 308.214844 61.078125 308.832031 60.195312 C 308.558594 59.847656 308.285156 59.5 308.011719 59.15625 C 304.398438 54.609375 300.542969 50.277344 296.449219 46.15625 C 296.332031 46.03125 296.214844 45.917969 296.097656 45.800781 C 288.980469 38.664062 281.246094 32.277344 272.894531 26.640625 C 264.539062 21.003906 255.722656 16.222656 246.441406 12.300781 C 227.175781 4.140625 206.710938 0.0117188 185.628906 0.0117188 C 164.542969 0.0117188 144.082031 4.140625 124.816406 12.300781 C 120.1875 14.265625 115.667969 16.445312 111.25 18.84375 C 106.832031 21.242188 102.542969 23.84375 98.375 26.65625 C 94.207031 29.46875 90.1875 32.472656 86.308594 35.671875 C 82.429688 38.871094 78.714844 42.246094 75.160156 45.804688 C 71.609375 49.359375 68.234375 53.078125 65.039062 56.960938 C 61.84375 60.839844 58.839844 64.867188 56.03125 69.035156 C 53.222656 73.207031 50.617188 77.5 48.222656 81.921875 C 45.828125 86.34375 43.648438 90.867188 41.6875 95.5 C 33.53125 114.78125 29.40625 135.257812 29.40625 156.359375 C 29.40625 177.460938 33.53125 197.941406 41.6875 217.222656 C 47.894531 231.941406 56.171875 245.382812 66.519531 257.546875 C 67.710938 257.070312 68.898438 256.589844 70.082031 256.105469 C 75.679688 253.808594 81.292969 251.390625 86.808594 248.902344 C 64.136719 224.664062 50.238281 192.105469 50.238281 156.359375 C 50.230469 81.640625 110.96875 20.851562 185.628906 20.851562 Z M 185.628906 20.851562 " fill-opacity="1" fill-rule="nonzero"/><g clip-path="url(#ae908fe82d)"><path fill="#ffa000" d="M 370.960938 22.636719 L 365.523438 87.359375 L 354.550781 79.726562 C 347.585938 88.183594 340.433594 96.484375 333.09375 104.628906 C 327.722656 110.589844 322.246094 116.453125 316.671875 122.21875 C 306.785156 132.449219 296.578125 142.347656 286.046875 151.910156 C 272.652344 164.058594 258.753906 175.585938 244.347656 186.488281 C 229.949219 197.355469 215.082031 207.507812 199.742188 216.941406 C 184.441406 226.339844 168.710938 234.949219 152.546875 242.769531 C 136.449219 250.546875 120 257.492188 103.199219 263.605469 L 103.039062 263.664062 C 95.386719 266.449219 87.679688 269.054688 79.921875 271.484375 C 70.765625 274.351562 61.546875 276.972656 52.269531 279.347656 C 35.082031 283.75 17.757812 287.328125 0.296875 290.085938 C 17.40625 285.714844 34.25 280.578125 50.835938 274.675781 C 58.644531 271.886719 66.378906 268.921875 74.035156 265.785156 C 81.023438 262.921875 87.9375 259.914062 94.785156 256.757812 C 96.339844 256.042969 97.890625 255.316406 99.4375 254.585938 C 115.234375 247.125 130.609375 238.886719 145.574219 229.871094 C 160.464844 220.886719 174.867188 211.179688 188.785156 200.753906 C 216.550781 179.964844 242.121094 156.511719 265.410156 131.089844 C 278.296875 117.023438 290.507812 102.398438 302.035156 87.210938 C 306.566406 81.265625 310.996094 75.242188 315.328125 69.148438 C 317.980469 65.421875 320.59375 61.671875 323.171875 57.894531 L 312.234375 50.289062 Z M 370.960938 22.636719 " fill-opacity="1" fill-rule="nonzero"/></g><path fill="#07bcd4" d="M 201.972656 95.695312 L 201.972656 306.402344 C 191.078125 307.527344 180.179688 307.527344 169.28125 306.402344 L 169.28125 119.285156 Z M 201.972656 95.695312 " fill-opacity="1" fill-rule="nonzero"/><path fill="#ffa000" d="M 308.832031 60.195312 C 308.558594 59.847656 308.285156 59.5 308.011719 59.15625 L 309.082031 59.839844 C 309.007812 59.949219 308.921875 60.070312 308.832031 60.195312 Z M 308.832031 60.195312 " fill-opacity="1" fill-rule="nonzero"/></svg>