<svg xmlns="http://www.w3.org/2000/svg" xmlns:xlink="http://www.w3.org/1999/xlink" width="170" zoomAndPan="magnify" viewBox="0 0 127.5 37.5" height="50" preserveAspectRatio="xMidYMid meet" version="1.0"><defs><g/><clipPath id="b449cab095"><path d="M 10 11 L 29 11 L 29 29.640625 L 10 29.640625 Z M 10 11 " clip-rule="nonzero"/></clipPath><clipPath id="ee815c386d"><path d="M 6 7.4375 L 27 7.4375 L 27 26 L 6 26 Z M 6 7.4375 " clip-rule="nonzero"/></clipPath><clipPath id="2b52c362a2"><path d="M 4.292969 9 L 30.9375 9 L 30.9375 29 L 4.292969 29 Z M 4.292969 9 " clip-rule="nonzero"/></clipPath><clipPath id="a133dfb524"><path d="M 16 14 L 19 14 L 19 29.640625 L 16 29.640625 Z M 16 14 " clip-rule="nonzero"/></clipPath><clipPath id="2672abae3b"><path d="M 123 23 L 126.414062 23 L 126.414062 28 L 123 28 Z M 123 23 " clip-rule="nonzero"/></clipPath></defs><g clip-path="url(#b449cab095)"><path fill="#07bcd4" d="M 28.472656 15.683594 C 28.175781 16.003906 27.875 16.316406 27.574219 16.625 C 27.457031 16.746094 27.339844 16.863281 27.222656 16.980469 C 27.304688 17.496094 27.347656 18.011719 27.347656 18.53125 C 27.347656 22.144531 25.316406 25.300781 22.320312 26.941406 L 22.320312 11.710938 L 19.972656 13.386719 L 19.972656 27.859375 C 19.582031 27.953125 19.1875 28.027344 18.789062 28.074219 C 18.007812 28.167969 17.222656 28.167969 16.441406 28.074219 C 16.042969 28.027344 15.648438 27.953125 15.257812 27.859375 L 15.257812 16.742188 L 12.90625 18.414062 L 12.90625 26.941406 C 12.746094 26.851562 12.582031 26.757812 12.425781 26.660156 C 12.265625 26.71875 12.105469 26.777344 11.945312 26.835938 L 11.933594 26.839844 C 11.523438 26.988281 11.105469 27.128906 10.691406 27.261719 C 11.375 27.796875 12.117188 28.242188 12.90625 28.601562 C 13.019531 28.652344 13.128906 28.703125 13.242188 28.75 C 14.269531 29.179688 15.332031 29.449219 16.441406 29.5625 C 17.222656 29.640625 18.007812 29.640625 18.789062 29.5625 C 19.898438 29.449219 20.960938 29.179688 21.988281 28.75 C 22.097656 28.703125 22.210938 28.652344 22.320312 28.601562 C 23.589844 28.023438 24.710938 27.238281 25.683594 26.242188 C 26.65625 25.25 27.417969 24.121094 27.960938 22.847656 C 28.546875 21.480469 28.84375 20.027344 28.84375 18.53125 C 28.847656 17.566406 28.722656 16.617188 28.472656 15.683594 Z M 28.472656 15.683594 " fill-opacity="1" fill-rule="nonzero"/></g><g clip-path="url(#ee815c386d)"><path fill="#07bcd4" d="M 17.613281 8.917969 C 20.882812 8.917969 23.78125 10.515625 25.546875 12.964844 C 25.808594 12.621094 26.070312 12.269531 26.328125 11.914062 C 26.363281 11.859375 26.425781 11.769531 26.472656 11.707031 C 26.453125 11.683594 26.433594 11.660156 26.414062 11.636719 C 26.152344 11.3125 25.875 11.003906 25.582031 10.710938 C 25.574219 10.703125 25.566406 10.695312 25.554688 10.6875 C 24.523438 9.664062 23.332031 8.875 21.988281 8.3125 C 20.601562 7.730469 19.128906 7.441406 17.613281 7.441406 C 16.097656 7.441406 14.628906 7.730469 13.242188 8.3125 C 11.898438 8.875 10.707031 9.667969 9.675781 10.6875 C 8.640625 11.707031 7.839844 12.882812 7.269531 14.214844 C 6.683594 15.582031 6.386719 17.035156 6.386719 18.53125 C 6.386719 20.027344 6.683594 21.480469 7.269531 22.847656 C 7.714844 23.890625 8.308594 24.84375 9.054688 25.707031 C 9.140625 25.675781 9.222656 25.640625 9.308594 25.605469 C 9.710938 25.441406 10.113281 25.273438 10.511719 25.09375 C 8.882812 23.375 7.882812 21.066406 7.882812 18.53125 C 7.882812 13.230469 12.25 8.917969 17.613281 8.917969 Z M 17.613281 8.917969 " fill-opacity="1" fill-rule="nonzero"/></g><g clip-path="url(#2b52c362a2)"><path fill="#ffa000" d="M 30.9375 9.042969 L 30.546875 13.636719 L 29.757812 13.09375 C 29.257812 13.695312 28.742188 14.28125 28.214844 14.859375 C 27.828125 15.285156 27.4375 15.699219 27.035156 16.109375 C 26.324219 16.835938 25.589844 17.535156 24.832031 18.214844 C 23.871094 19.078125 22.871094 19.894531 21.835938 20.667969 C 20.800781 21.4375 19.730469 22.160156 18.628906 22.828125 C 17.53125 23.496094 16.398438 24.105469 15.238281 24.660156 C 14.078125 25.210938 12.898438 25.703125 11.691406 26.136719 L 11.679688 26.140625 C 11.128906 26.339844 10.574219 26.523438 10.015625 26.695312 C 9.359375 26.902344 8.695312 27.085938 8.027344 27.253906 C 6.792969 27.566406 5.546875 27.820312 4.292969 28.015625 C 5.523438 27.707031 6.734375 27.34375 7.925781 26.921875 C 8.488281 26.726562 9.042969 26.515625 9.59375 26.292969 C 10.097656 26.089844 10.59375 25.875 11.085938 25.652344 C 11.195312 25.601562 11.308594 25.550781 11.417969 25.5 C 12.554688 24.96875 13.660156 24.382812 14.734375 23.746094 C 15.804688 23.109375 16.839844 22.417969 17.84375 21.679688 C 19.839844 20.203125 21.675781 18.542969 23.351562 16.738281 C 24.277344 15.738281 25.152344 14.703125 25.984375 13.625 C 26.308594 13.203125 26.628906 12.777344 26.9375 12.34375 C 27.128906 12.078125 27.316406 11.8125 27.503906 11.546875 L 26.714844 11.007812 Z M 30.9375 9.042969 " fill-opacity="1" fill-rule="nonzero"/></g><g clip-path="url(#a133dfb524)"><path fill="#07bcd4" d="M 18.789062 14.226562 L 18.789062 29.175781 C 18.007812 29.253906 17.222656 29.253906 16.441406 29.175781 L 16.441406 15.898438 Z M 18.789062 14.226562 " fill-opacity="1" fill-rule="nonzero"/></g><path fill="#ffa000" d="M 26.472656 11.707031 C 26.453125 11.683594 26.433594 11.660156 26.414062 11.636719 L 26.488281 11.683594 C 26.484375 11.691406 26.476562 11.699219 26.472656 11.707031 Z M 26.472656 11.707031 " fill-opacity="1" fill-rule="nonzero"/><g fill="#07bcd4" fill-opacity="1"><g transform="translate(32.326581, 15.254822)"><g><path d="M 0.453125 -0.140625 L 0.984375 -0.265625 L 0.984375 -6.015625 L 0.453125 -6.15625 L 0.453125 -6.28125 L 5.25 -6.28125 L 5.25 -4.671875 L 4.984375 -4.671875 C 4.867188 -4.765625 4.769531 -4.878906 4.6875 -5.015625 C 4.5 -5.335938 4.40625 -5.6875 4.40625 -6.0625 L 2.46875 -6.0625 L 2.46875 -3.234375 L 3.5 -3.234375 C 3.539062 -3.460938 3.617188 -3.675781 3.734375 -3.875 C 3.785156 -3.957031 3.84375 -4.039062 3.90625 -4.125 L 4.171875 -4.125 L 4.171875 -2.109375 L 3.90625 -2.109375 C 3.84375 -2.191406 3.785156 -2.28125 3.734375 -2.375 C 3.617188 -2.570312 3.539062 -2.785156 3.5 -3.015625 L 2.46875 -3.015625 L 2.46875 -0.265625 L 3.015625 -0.140625 L 3.015625 0 L 0.453125 0 Z M 0.453125 -0.140625 "/></g></g></g><g fill="#07bcd4" fill-opacity="1"><g transform="translate(37.800784, 15.254822)"><g><path d="M 2.515625 0.140625 C 2.179688 0.140625 1.878906 0.0703125 1.609375 -0.0625 C 1.347656 -0.207031 1.140625 -0.394531 0.984375 -0.625 C 0.835938 -0.851562 0.765625 -1.09375 0.765625 -1.34375 L 0.765625 -4.21875 L 0.21875 -4.359375 L 0.21875 -4.484375 L 1.390625 -4.484375 C 1.929688 -4.484375 2.203125 -4.21875 2.203125 -3.6875 L 2.203125 -1.34375 C 2.203125 -0.96875 2.269531 -0.675781 2.40625 -0.46875 C 2.539062 -0.269531 2.695312 -0.171875 2.875 -0.171875 C 3.09375 -0.171875 3.296875 -0.289062 3.484375 -0.53125 C 3.546875 -0.625 3.613281 -0.742188 3.6875 -0.890625 L 3.6875 -4.21875 L 3.140625 -4.359375 L 3.140625 -4.484375 L 5.65625 -4.484375 L 5.65625 -4.359375 L 5.125 -4.21875 L 5.125 0.046875 L 5.03125 0.046875 C 4.59375 0.046875 4.257812 -0.0703125 4.03125 -0.3125 C 3.925781 -0.414062 3.851562 -0.535156 3.8125 -0.671875 C 3.726562 -0.523438 3.628906 -0.390625 3.515625 -0.265625 C 3.253906 0.00390625 2.921875 0.140625 2.515625 0.140625 Z M 2.515625 0.140625 "/></g></g></g><g fill="#07bcd4" fill-opacity="1"><g transform="translate(43.63395, 15.254822)"><g><path d="M 2.6875 0.140625 C 2.300781 0.140625 1.960938 0.0664062 1.671875 -0.078125 C 1.378906 -0.222656 1.15625 -0.421875 1 -0.671875 C 0.84375 -0.921875 0.765625 -1.207031 0.765625 -1.53125 L 0.765625 -4.265625 L 0.140625 -4.265625 L 0.140625 -4.484375 L 0.765625 -4.484375 L 0.765625 -4.9375 C 0.765625 -5.476562 1.035156 -5.75 1.578125 -5.75 L 2.203125 -5.75 L 2.203125 -4.484375 L 3.453125 -4.484375 L 3.453125 -4.265625 L 2.203125 -4.265625 L 2.203125 -1.53125 C 2.203125 -0.976562 2.257812 -0.597656 2.375 -0.390625 C 2.488281 -0.191406 2.65625 -0.09375 2.875 -0.09375 C 3.09375 -0.09375 3.28125 -0.195312 3.4375 -0.40625 C 3.601562 -0.613281 3.6875 -0.894531 3.6875 -1.25 L 3.90625 -1.25 C 3.90625 -0.8125 3.796875 -0.46875 3.578125 -0.21875 C 3.359375 0.0195312 3.0625 0.140625 2.6875 0.140625 Z M 2.6875 0.140625 "/></g></g></g><g fill="#07bcd4" fill-opacity="1"><g transform="translate(47.672296, 15.254822)"><g><path d="M 2.515625 0.140625 C 2.179688 0.140625 1.878906 0.0703125 1.609375 -0.0625 C 1.347656 -0.207031 1.140625 -0.394531 0.984375 -0.625 C 0.835938 -0.851562 0.765625 -1.09375 0.765625 -1.34375 L 0.765625 -4.21875 L 0.21875 -4.359375 L 0.21875 -4.484375 L 1.390625 -4.484375 C 1.929688 -4.484375 2.203125 -4.21875 2.203125 -3.6875 L 2.203125 -1.34375 C 2.203125 -0.96875 2.269531 -0.675781 2.40625 -0.46875 C 2.539062 -0.269531 2.695312 -0.171875 2.875 -0.171875 C 3.09375 -0.171875 3.296875 -0.289062 3.484375 -0.53125 C 3.546875 -0.625 3.613281 -0.742188 3.6875 -0.890625 L 3.6875 -4.21875 L 3.140625 -4.359375 L 3.140625 -4.484375 L 5.65625 -4.484375 L 5.65625 -4.359375 L 5.125 -4.21875 L 5.125 0.046875 L 5.03125 0.046875 C 4.59375 0.046875 4.257812 -0.0703125 4.03125 -0.3125 C 3.925781 -0.414062 3.851562 -0.535156 3.8125 -0.671875 C 3.726562 -0.523438 3.628906 -0.390625 3.515625 -0.265625 C 3.253906 0.00390625 2.921875 0.140625 2.515625 0.140625 Z M 2.515625 0.140625 "/></g></g></g><g fill="#07bcd4" fill-opacity="1"><g transform="translate(53.505462, 15.254822)"><g><path d="M 0.359375 -0.140625 L 0.890625 -0.265625 L 0.890625 -4.21875 L 0.359375 -4.359375 L 0.359375 -4.484375 L 1.171875 -4.484375 C 1.523438 -4.484375 1.800781 -4.375 2 -4.15625 C 2.082031 -4.0625 2.148438 -3.945312 2.203125 -3.8125 C 2.285156 -3.945312 2.394531 -4.066406 2.53125 -4.171875 C 2.832031 -4.410156 3.171875 -4.53125 3.546875 -4.53125 C 3.859375 -4.53125 4.09375 -4.457031 4.25 -4.3125 C 4.40625 -4.164062 4.484375 -3.957031 4.484375 -3.6875 C 4.484375 -3.476562 4.421875 -3.3125 4.296875 -3.1875 C 4.179688 -3.070312 4.019531 -3.015625 3.8125 -3.015625 C 3.726562 -3.015625 3.644531 -3.019531 3.5625 -3.03125 L 3.453125 -3.046875 L 3.453125 -4.3125 C 3.148438 -4.3125 2.875 -4.191406 2.625 -3.953125 C 2.5 -3.828125 2.398438 -3.707031 2.328125 -3.59375 L 2.328125 -0.265625 L 2.875 -0.140625 L 2.875 0 L 0.359375 0 Z M 0.359375 -0.140625 "/></g></g></g><g fill="#07bcd4" fill-opacity="1"><g transform="translate(58.03739, 15.254822)"><g><path d="M 2.78125 0.140625 C 2.019531 0.140625 1.425781 -0.0664062 1 -0.484375 C 0.570312 -0.910156 0.359375 -1.5 0.359375 -2.25 C 0.359375 -2.726562 0.453125 -3.144531 0.640625 -3.5 C 0.828125 -3.863281 1.082031 -4.140625 1.40625 -4.328125 C 1.738281 -4.523438 2.125 -4.625 2.5625 -4.625 C 2.988281 -4.625 3.363281 -4.539062 3.6875 -4.375 C 4.019531 -4.21875 4.273438 -4.003906 4.453125 -3.734375 C 4.628906 -3.460938 4.71875 -3.160156 4.71875 -2.828125 C 4.71875 -2.679688 4.703125 -2.550781 4.671875 -2.4375 L 4.625 -2.296875 C 4.363281 -2.234375 4.085938 -2.1875 3.796875 -2.15625 C 3.160156 -2.0625 2.523438 -2.015625 1.890625 -2.015625 C 1.890625 -1.328125 1.984375 -0.832031 2.171875 -0.53125 C 2.367188 -0.238281 2.632812 -0.09375 2.96875 -0.09375 C 3.195312 -0.09375 3.410156 -0.144531 3.609375 -0.25 C 3.816406 -0.363281 3.976562 -0.507812 4.09375 -0.6875 C 4.207031 -0.875 4.265625 -1.0625 4.265625 -1.25 L 4.484375 -1.25 C 4.484375 -1.007812 4.410156 -0.78125 4.265625 -0.5625 C 4.128906 -0.351562 3.929688 -0.179688 3.671875 -0.046875 C 3.410156 0.078125 3.113281 0.140625 2.78125 0.140625 Z M 1.890625 -2.25 C 2.273438 -2.25 2.585938 -2.265625 2.828125 -2.296875 C 2.921875 -2.296875 3.023438 -2.304688 3.140625 -2.328125 C 3.148438 -2.359375 3.164062 -2.425781 3.1875 -2.53125 C 3.21875 -2.6875 3.234375 -2.847656 3.234375 -3.015625 C 3.234375 -3.503906 3.164062 -3.863281 3.03125 -4.09375 C 2.90625 -4.332031 2.75 -4.453125 2.5625 -4.453125 C 2.113281 -4.453125 1.890625 -3.71875 1.890625 -2.25 Z M 1.890625 -2.25 "/></g></g></g><g fill="#07bcd4" fill-opacity="1"><g transform="translate(63.06289, 15.254822)"><g><path d="M 0.3125 -6.0625 L -0.171875 -6.15625 L -0.171875 -6.28125 L 0.890625 -6.28125 C 1.210938 -6.28125 1.472656 -6.207031 1.671875 -6.0625 C 1.878906 -5.925781 2.023438 -5.75 2.109375 -5.53125 L 3.46875 -2.0625 L 4.265625 -4.390625 L 3.59375 -6.0625 L 3.09375 -6.15625 L 3.09375 -6.28125 L 4.171875 -6.28125 C 4.492188 -6.28125 4.753906 -6.207031 4.953125 -6.0625 C 5.148438 -5.925781 5.296875 -5.75 5.390625 -5.53125 L 6.75 -2.0625 L 8.046875 -5.890625 L 7.359375 -6.15625 L 7.359375 -6.28125 L 9.03125 -6.28125 L 9.03125 -6.15625 L 8.3125 -5.890625 L 6.28125 0.09375 L 6.015625 0.09375 L 4.40625 -4.015625 L 3.015625 0.09375 L 2.734375 0.09375 Z M 0.3125 -6.0625 "/></g></g></g><g fill="#07bcd4" fill-opacity="1"><g transform="translate(71.90239, 15.254822)"><g><path d="M 2.109375 0.140625 C 1.578125 0.140625 1.164062 0.0234375 0.875 -0.203125 C 0.59375 -0.429688 0.453125 -0.722656 0.453125 -1.078125 C 0.453125 -1.304688 0.503906 -1.535156 0.609375 -1.765625 C 0.648438 -1.878906 0.703125 -1.976562 0.765625 -2.0625 C 1.003906 -2.125 1.269531 -2.179688 1.5625 -2.234375 C 2.207031 -2.335938 2.78125 -2.398438 3.28125 -2.421875 L 3.28125 -2.6875 C 3.28125 -3.351562 3.195312 -3.8125 3.03125 -4.0625 C 2.875 -4.320312 2.628906 -4.453125 2.296875 -4.453125 C 2.171875 -4.453125 2.0625 -4.4375 1.96875 -4.40625 L 1.84375 -4.359375 L 1.84375 -3.015625 L 1.71875 -2.984375 C 1.625 -2.972656 1.546875 -2.96875 1.484375 -2.96875 C 1.273438 -2.96875 1.109375 -3.023438 0.984375 -3.140625 C 0.867188 -3.265625 0.8125 -3.429688 0.8125 -3.640625 C 0.8125 -3.910156 0.945312 -4.140625 1.21875 -4.328125 C 1.5 -4.523438 1.914062 -4.625 2.46875 -4.625 C 2.9375 -4.625 3.335938 -4.539062 3.671875 -4.375 C 4.015625 -4.207031 4.273438 -3.976562 4.453125 -3.6875 C 4.628906 -3.40625 4.71875 -3.070312 4.71875 -2.6875 L 4.71875 -0.265625 L 5.25 -0.140625 L 5.25 0 L 4.453125 0 C 4.085938 0 3.804688 -0.109375 3.609375 -0.328125 C 3.523438 -0.421875 3.457031 -0.535156 3.40625 -0.671875 C 3.320312 -0.523438 3.226562 -0.390625 3.125 -0.265625 C 2.851562 0.00390625 2.515625 0.140625 2.109375 0.140625 Z M 2.46875 -0.171875 C 2.6875 -0.171875 2.890625 -0.289062 3.078125 -0.53125 C 3.140625 -0.625 3.207031 -0.742188 3.28125 -0.890625 L 3.28125 -2.203125 C 3 -2.203125 2.734375 -2.1875 2.484375 -2.15625 C 2.296875 -2.132812 2.171875 -2.117188 2.109375 -2.109375 C 2.078125 -2.046875 2.046875 -1.957031 2.015625 -1.84375 C 1.960938 -1.613281 1.9375 -1.390625 1.9375 -1.171875 C 1.9375 -0.835938 1.984375 -0.585938 2.078125 -0.421875 C 2.179688 -0.253906 2.3125 -0.171875 2.46875 -0.171875 Z M 2.46875 -0.171875 "/></g></g></g><g fill="#07bcd4" fill-opacity="1"><g transform="translate(77.331723, 15.254822)"><g><path d="M 1.75 -0.140625 L 2.296875 -0.265625 L 2.296875 -2.328125 L 0.453125 -6.015625 L 0 -6.15625 L 0 -6.28125 L 1.125 -6.28125 C 1.4375 -6.28125 1.6875 -6.210938 1.875 -6.078125 C 2.0625 -5.953125 2.210938 -5.769531 2.328125 -5.53125 L 3.671875 -2.875 L 5.03125 -5.890625 L 4.359375 -6.15625 L 4.359375 -6.28125 L 6.0625 -6.28125 L 6.0625 -6.15625 L 5.34375 -5.890625 L 3.765625 -2.421875 L 3.765625 -0.265625 L 4.3125 -0.140625 L 4.3125 0 L 1.75 0 Z M 1.75 -0.140625 "/></g></g></g><g fill="#f8bd0d" fill-opacity="1"><g transform="translate(83.303145, 15.254822)"><g/></g></g><g fill="#f8bd0d" fill-opacity="1"><g transform="translate(85.815895, 15.254822)"><g><path d="M 0.453125 0 L 0.453125 -0.140625 L 0.984375 -0.265625 L 0.984375 -6.015625 L 0.453125 -6.15625 L 0.453125 -6.28125 L 3.015625 -6.28125 L 3.015625 -6.15625 L 2.46875 -6.015625 L 2.46875 -0.265625 L 3.015625 -0.140625 L 3.015625 0 Z M 0.453125 0 "/></g></g></g><g fill="#f8bd0d" fill-opacity="1"><g transform="translate(89.27093, 15.254822)"><g><path d="M 0.359375 -0.140625 L 0.890625 -0.265625 L 0.890625 -4.21875 L 0.359375 -4.359375 L 0.359375 -4.484375 L 1.171875 -4.484375 C 1.523438 -4.484375 1.800781 -4.375 2 -4.15625 C 2.082031 -4.0625 2.148438 -3.945312 2.203125 -3.8125 C 2.285156 -3.96875 2.382812 -4.101562 2.5 -4.21875 C 2.769531 -4.488281 3.101562 -4.625 3.5 -4.625 C 3.832031 -4.625 4.132812 -4.550781 4.40625 -4.40625 C 4.675781 -4.269531 4.882812 -4.085938 5.03125 -3.859375 C 5.175781 -3.628906 5.25 -3.390625 5.25 -3.140625 L 5.25 -0.265625 L 5.796875 -0.140625 L 5.796875 0 L 4.625 0 C 4.082031 0 3.8125 -0.269531 3.8125 -0.8125 L 3.8125 -3.140625 C 3.8125 -3.515625 3.742188 -3.800781 3.609375 -4 C 3.472656 -4.207031 3.316406 -4.3125 3.140625 -4.3125 C 2.910156 -4.3125 2.707031 -4.191406 2.53125 -3.953125 C 2.457031 -3.847656 2.390625 -3.726562 2.328125 -3.59375 L 2.328125 -0.265625 L 2.875 -0.140625 L 2.875 0 L 0.359375 0 Z M 0.359375 -0.140625 "/></g></g></g><g fill="#f8bd0d" fill-opacity="1"><g transform="translate(95.238715, 15.254822)"><g><path d="M 0.3125 -0.140625 L 0.859375 -0.265625 L 0.859375 -4.09375 L 0.21875 -4.09375 L 0.21875 -4.3125 L 0.859375 -4.3125 L 0.859375 -4.765625 C 0.859375 -5.078125 0.929688 -5.359375 1.078125 -5.609375 C 1.234375 -5.867188 1.453125 -6.066406 1.734375 -6.203125 C 2.023438 -6.347656 2.359375 -6.421875 2.734375 -6.421875 C 3.046875 -6.421875 3.3125 -6.375 3.53125 -6.28125 C 3.757812 -6.1875 3.929688 -6.0625 4.046875 -5.90625 C 4.160156 -5.757812 4.21875 -5.601562 4.21875 -5.4375 C 4.21875 -5.226562 4.15625 -5.0625 4.03125 -4.9375 C 3.914062 -4.820312 3.753906 -4.765625 3.546875 -4.765625 C 3.460938 -4.765625 3.378906 -4.769531 3.296875 -4.78125 L 3.1875 -4.8125 L 3.1875 -6.203125 L 3.109375 -6.21875 C 3.085938 -6.21875 3.0625 -6.222656 3.03125 -6.234375 C 3 -6.242188 2.960938 -6.25 2.921875 -6.25 C 2.710938 -6.25 2.554688 -6.140625 2.453125 -5.921875 C 2.347656 -5.710938 2.296875 -5.328125 2.296875 -4.765625 L 2.296875 -4.3125 L 3.734375 -4.3125 L 3.734375 -4.09375 L 2.296875 -4.09375 L 2.296875 -0.265625 L 2.828125 -0.140625 L 2.828125 0 L 0.3125 0 Z M 0.3125 -0.140625 "/></g></g></g><g fill="#f8bd0d" fill-opacity="1"><g transform="translate(99.052715, 15.254822)"><g><path d="M 2.734375 0.140625 C 1.992188 0.140625 1.410156 -0.0664062 0.984375 -0.484375 C 0.566406 -0.910156 0.359375 -1.5 0.359375 -2.25 C 0.359375 -2.988281 0.566406 -3.566406 0.984375 -3.984375 C 1.410156 -4.410156 1.992188 -4.625 2.734375 -4.625 C 3.484375 -4.625 4.066406 -4.410156 4.484375 -3.984375 C 4.910156 -3.566406 5.125 -2.988281 5.125 -2.25 C 5.125 -1.5 4.910156 -0.910156 4.484375 -0.484375 C 4.066406 -0.0664062 3.484375 0.140625 2.734375 0.140625 Z M 2.734375 -0.046875 C 2.972656 -0.046875 3.175781 -0.210938 3.34375 -0.546875 C 3.507812 -0.878906 3.59375 -1.445312 3.59375 -2.25 C 3.59375 -3.039062 3.507812 -3.601562 3.34375 -3.9375 C 3.175781 -4.28125 2.972656 -4.453125 2.734375 -4.453125 C 2.492188 -4.453125 2.289062 -4.28125 2.125 -3.9375 C 1.96875 -3.601562 1.890625 -3.039062 1.890625 -2.25 C 1.890625 -1.445312 1.96875 -0.878906 2.125 -0.546875 C 2.289062 -0.210938 2.492188 -0.046875 2.734375 -0.046875 Z M 2.734375 -0.046875 "/></g></g></g><g fill="#f8bd0d" fill-opacity="1"><g transform="translate(104.526918, 15.254822)"><g><path d="M 1.578125 -0.140625 L 2.109375 -0.265625 L 2.109375 -6.0625 L 1.078125 -6.0625 C 1.078125 -5.695312 0.976562 -5.347656 0.78125 -5.015625 C 0.695312 -4.878906 0.601562 -4.765625 0.5 -4.671875 L 0.21875 -4.671875 L 0.21875 -6.28125 L 5.484375 -6.28125 L 5.484375 -4.671875 L 5.203125 -4.671875 C 5.097656 -4.765625 5.003906 -4.878906 4.921875 -5.015625 C 4.722656 -5.335938 4.625 -5.6875 4.625 -6.0625 L 3.59375 -6.0625 L 3.59375 -0.265625 L 4.125 -0.140625 L 4.125 0 L 1.578125 0 Z M 1.578125 -0.140625 "/></g></g></g><g fill="#f8bd0d" fill-opacity="1"><g transform="translate(110.225477, 15.254822)"><g><path d="M 2.78125 0.140625 C 2.019531 0.140625 1.425781 -0.0664062 1 -0.484375 C 0.570312 -0.910156 0.359375 -1.5 0.359375 -2.25 C 0.359375 -2.726562 0.453125 -3.144531 0.640625 -3.5 C 0.828125 -3.863281 1.082031 -4.140625 1.40625 -4.328125 C 1.738281 -4.523438 2.125 -4.625 2.5625 -4.625 C 2.988281 -4.625 3.363281 -4.539062 3.6875 -4.375 C 4.019531 -4.21875 4.273438 -4.003906 4.453125 -3.734375 C 4.628906 -3.460938 4.71875 -3.160156 4.71875 -2.828125 C 4.71875 -2.679688 4.703125 -2.550781 4.671875 -2.4375 L 4.625 -2.296875 C 4.363281 -2.234375 4.085938 -2.1875 3.796875 -2.15625 C 3.160156 -2.0625 2.523438 -2.015625 1.890625 -2.015625 C 1.890625 -1.328125 1.984375 -0.832031 2.171875 -0.53125 C 2.367188 -0.238281 2.632812 -0.09375 2.96875 -0.09375 C 3.195312 -0.09375 3.410156 -0.144531 3.609375 -0.25 C 3.816406 -0.363281 3.976562 -0.507812 4.09375 -0.6875 C 4.207031 -0.875 4.265625 -1.0625 4.265625 -1.25 L 4.484375 -1.25 C 4.484375 -1.007812 4.410156 -0.78125 4.265625 -0.5625 C 4.128906 -0.351562 3.929688 -0.179688 3.671875 -0.046875 C 3.410156 0.078125 3.113281 0.140625 2.78125 0.140625 Z M 1.890625 -2.25 C 2.273438 -2.25 2.585938 -2.265625 2.828125 -2.296875 C 2.921875 -2.296875 3.023438 -2.304688 3.140625 -2.328125 C 3.148438 -2.359375 3.164062 -2.425781 3.1875 -2.53125 C 3.21875 -2.6875 3.234375 -2.847656 3.234375 -3.015625 C 3.234375 -3.503906 3.164062 -3.863281 3.03125 -4.09375 C 2.90625 -4.332031 2.75 -4.453125 2.5625 -4.453125 C 2.113281 -4.453125 1.890625 -3.71875 1.890625 -2.25 Z M 1.890625 -2.25 "/></g></g></g><g fill="#f8bd0d" fill-opacity="1"><g transform="translate(115.250977, 15.254822)"><g><path d="M 2.78125 0.140625 C 2.019531 0.140625 1.425781 -0.0664062 1 -0.484375 C 0.570312 -0.910156 0.359375 -1.5 0.359375 -2.25 C 0.359375 -2.988281 0.570312 -3.566406 1 -3.984375 C 1.425781 -4.410156 2.019531 -4.625 2.78125 -4.625 C 3.332031 -4.625 3.75 -4.523438 4.03125 -4.328125 C 4.3125 -4.140625 4.453125 -3.910156 4.453125 -3.640625 C 4.453125 -3.429688 4.390625 -3.265625 4.265625 -3.140625 C 4.140625 -3.023438 3.972656 -2.96875 3.765625 -2.96875 C 3.679688 -2.96875 3.597656 -2.972656 3.515625 -2.984375 L 3.40625 -3.015625 L 3.40625 -4.359375 L 3.28125 -4.40625 C 3.195312 -4.4375 3.09375 -4.453125 2.96875 -4.453125 C 2.625 -4.453125 2.359375 -4.289062 2.171875 -3.96875 C 1.984375 -3.644531 1.890625 -3.070312 1.890625 -2.25 C 1.890625 -1.445312 1.984375 -0.882812 2.171875 -0.5625 C 2.359375 -0.25 2.625 -0.09375 2.96875 -0.09375 C 3.195312 -0.09375 3.410156 -0.144531 3.609375 -0.25 C 3.816406 -0.363281 3.976562 -0.507812 4.09375 -0.6875 C 4.207031 -0.875 4.265625 -1.0625 4.265625 -1.25 L 4.484375 -1.25 C 4.484375 -1.007812 4.410156 -0.78125 4.265625 -0.5625 C 4.128906 -0.351562 3.929688 -0.179688 3.671875 -0.046875 C 3.410156 0.078125 3.113281 0.140625 2.78125 0.140625 Z M 2.78125 0.140625 "/></g></g></g><g fill="#f8bd0d" fill-opacity="1"><g transform="translate(120.00725, 15.254822)"><g><path d="M 0.359375 -0.140625 L 0.890625 -0.265625 L 0.890625 -6.015625 L 0.359375 -6.15625 L 0.359375 -6.28125 L 1.53125 -6.28125 C 2.0625 -6.28125 2.328125 -6.015625 2.328125 -5.484375 L 2.328125 -4.046875 C 2.421875 -4.160156 2.515625 -4.253906 2.609375 -4.328125 C 2.867188 -4.523438 3.164062 -4.625 3.5 -4.625 C 3.832031 -4.625 4.132812 -4.550781 4.40625 -4.40625 C 4.675781 -4.269531 4.882812 -4.085938 5.03125 -3.859375 C 5.175781 -3.628906 5.25 -3.390625 5.25 -3.140625 L 5.25 -0.265625 L 5.796875 -0.140625 L 5.796875 0 L 4.625 0 C 4.082031 0 3.8125 -0.269531 3.8125 -0.8125 L 3.8125 -3.140625 C 3.8125 -3.515625 3.742188 -3.800781 3.609375 -4 C 3.472656 -4.207031 3.316406 -4.3125 3.140625 -4.3125 C 2.910156 -4.3125 2.707031 -4.191406 2.53125 -3.953125 C 2.457031 -3.847656 2.390625 -3.726562 2.328125 -3.59375 L 2.328125 -0.265625 L 2.875 -0.140625 L 2.875 0 L 0.359375 0 Z M 0.359375 -0.140625 "/></g></g></g><g fill="#000000" fill-opacity="1"><g transform="translate(30.71854, 26.323452)"><g><path d="M 0.171875 -3.328125 L -0.09375 -3.375 L -0.09375 -3.453125 L 0.5 -3.453125 C 0.664062 -3.453125 0.804688 -3.410156 0.921875 -3.328125 C 1.035156 -3.253906 1.113281 -3.15625 1.15625 -3.03125 L 1.90625 -1.140625 L 2.34375 -2.40625 L 1.96875 -3.328125 L 1.703125 -3.375 L 1.703125 -3.453125 L 2.296875 -3.453125 C 2.472656 -3.453125 2.613281 -3.410156 2.71875 -3.328125 C 2.832031 -3.253906 2.914062 -3.15625 2.96875 -3.03125 L 3.703125 -1.140625 L 4.421875 -3.234375 L 4.046875 -3.375 L 4.046875 -3.453125 L 4.96875 -3.453125 L 4.96875 -3.375 L 4.5625 -3.234375 L 3.453125 0.046875 L 3.3125 0.046875 L 2.421875 -2.203125 L 1.65625 0.046875 L 1.5 0.046875 Z M 0.171875 -3.328125 "/></g></g></g><g fill="#000000" fill-opacity="1"><g transform="translate(35.578767, 26.323452)"><g><path d="M 1.53125 0.078125 C 1.113281 0.078125 0.785156 -0.0351562 0.546875 -0.265625 C 0.316406 -0.503906 0.203125 -0.828125 0.203125 -1.234375 C 0.203125 -1.503906 0.25 -1.738281 0.34375 -1.9375 C 0.445312 -2.132812 0.585938 -2.285156 0.765625 -2.390625 C 0.953125 -2.492188 1.164062 -2.546875 1.40625 -2.546875 C 1.644531 -2.546875 1.851562 -2.5 2.03125 -2.40625 C 2.207031 -2.320312 2.34375 -2.203125 2.4375 -2.046875 C 2.539062 -1.898438 2.59375 -1.738281 2.59375 -1.5625 C 2.59375 -1.476562 2.582031 -1.40625 2.5625 -1.34375 L 2.546875 -1.265625 C 2.398438 -1.234375 2.242188 -1.207031 2.078125 -1.1875 C 1.734375 -1.132812 1.382812 -1.109375 1.03125 -1.109375 C 1.03125 -0.722656 1.082031 -0.445312 1.1875 -0.28125 C 1.300781 -0.125 1.445312 -0.046875 1.625 -0.046875 C 1.757812 -0.046875 1.878906 -0.078125 1.984375 -0.140625 C 2.097656 -0.203125 2.1875 -0.28125 2.25 -0.375 C 2.3125 -0.476562 2.34375 -0.582031 2.34375 -0.6875 L 2.46875 -0.6875 C 2.46875 -0.5625 2.425781 -0.4375 2.34375 -0.3125 C 2.269531 -0.195312 2.160156 -0.101562 2.015625 -0.03125 C 1.878906 0.0390625 1.71875 0.078125 1.53125 0.078125 Z M 1.03125 -1.234375 C 1.25 -1.234375 1.421875 -1.242188 1.546875 -1.265625 C 1.609375 -1.265625 1.671875 -1.269531 1.734375 -1.28125 C 1.734375 -1.300781 1.738281 -1.335938 1.75 -1.390625 C 1.769531 -1.472656 1.78125 -1.5625 1.78125 -1.65625 C 1.78125 -1.925781 1.742188 -2.125 1.671875 -2.25 C 1.597656 -2.375 1.507812 -2.4375 1.40625 -2.4375 C 1.15625 -2.4375 1.03125 -2.035156 1.03125 -1.234375 Z M 1.03125 -1.234375 "/></g></g></g><g fill="#000000" fill-opacity="1"><g transform="translate(38.341942, 26.323452)"><g><path d="M 1.828125 0.078125 C 1.609375 0.078125 1.425781 0.00390625 1.28125 -0.140625 C 1.21875 -0.210938 1.160156 -0.289062 1.109375 -0.375 C 1.085938 -0.300781 1.050781 -0.234375 1 -0.171875 C 0.875 -0.0351562 0.6875 0.03125 0.4375 0.03125 L 0.390625 0.03125 L 0.390625 -3.3125 L 0.09375 -3.375 L 0.09375 -3.453125 L 0.734375 -3.453125 C 1.035156 -3.453125 1.1875 -3.304688 1.1875 -3.015625 L 1.1875 -2.34375 C 1.238281 -2.382812 1.289062 -2.414062 1.34375 -2.4375 C 1.457031 -2.507812 1.59375 -2.546875 1.75 -2.546875 C 2.082031 -2.546875 2.347656 -2.429688 2.546875 -2.203125 C 2.742188 -1.972656 2.84375 -1.648438 2.84375 -1.234375 C 2.84375 -0.953125 2.796875 -0.710938 2.703125 -0.515625 C 2.617188 -0.328125 2.5 -0.179688 2.34375 -0.078125 C 2.195312 0.0234375 2.023438 0.078125 1.828125 0.078125 Z M 1.625 -0.09375 C 1.726562 -0.09375 1.816406 -0.175781 1.890625 -0.34375 C 1.960938 -0.507812 2 -0.804688 2 -1.234375 C 2 -1.679688 1.957031 -1.984375 1.875 -2.140625 C 1.800781 -2.304688 1.695312 -2.390625 1.5625 -2.390625 C 1.46875 -2.390625 1.378906 -2.359375 1.296875 -2.296875 C 1.265625 -2.273438 1.226562 -2.242188 1.1875 -2.203125 L 1.1875 -0.5 C 1.21875 -0.414062 1.253906 -0.347656 1.296875 -0.296875 C 1.390625 -0.160156 1.5 -0.09375 1.625 -0.09375 Z M 1.625 -0.09375 "/></g></g></g><g fill="#000000" fill-opacity="1"><g transform="translate(41.376499, 26.323452)"><g><path d="M 1.359375 0.078125 C 1.148438 0.078125 0.96875 0.03125 0.8125 -0.0625 C 0.726562 -0.101562 0.660156 -0.148438 0.609375 -0.203125 C 0.554688 -0.128906 0.5 -0.0703125 0.4375 -0.03125 C 0.414062 -0.0078125 0.382812 0.0078125 0.34375 0.03125 L 0.21875 0.03125 L 0.21875 -0.8125 L 0.421875 -0.8125 C 0.460938 -0.675781 0.523438 -0.546875 0.609375 -0.421875 C 0.785156 -0.171875 1.003906 -0.046875 1.265625 -0.046875 C 1.398438 -0.046875 1.5 -0.078125 1.5625 -0.140625 C 1.632812 -0.210938 1.671875 -0.3125 1.671875 -0.4375 C 1.671875 -0.550781 1.625 -0.644531 1.53125 -0.71875 C 1.4375 -0.789062 1.285156 -0.882812 1.078125 -1 C 0.898438 -1.082031 0.753906 -1.160156 0.640625 -1.234375 C 0.535156 -1.304688 0.441406 -1.394531 0.359375 -1.5 C 0.285156 -1.601562 0.25 -1.726562 0.25 -1.875 C 0.25 -2.070312 0.332031 -2.234375 0.5 -2.359375 C 0.664062 -2.484375 0.925781 -2.546875 1.28125 -2.546875 C 1.457031 -2.546875 1.617188 -2.5 1.765625 -2.40625 C 1.835938 -2.363281 1.898438 -2.316406 1.953125 -2.265625 C 1.992188 -2.328125 2.050781 -2.382812 2.125 -2.4375 C 2.1875 -2.46875 2.222656 -2.488281 2.234375 -2.5 L 2.34375 -2.5 L 2.34375 -1.65625 L 2.15625 -1.65625 C 2.101562 -1.789062 2.039062 -1.914062 1.96875 -2.03125 C 1.800781 -2.289062 1.601562 -2.421875 1.375 -2.421875 C 1.289062 -2.421875 1.21875 -2.382812 1.15625 -2.3125 C 1.09375 -2.25 1.0625 -2.171875 1.0625 -2.078125 C 1.0625 -1.953125 1.113281 -1.847656 1.21875 -1.765625 C 1.320312 -1.679688 1.484375 -1.582031 1.703125 -1.46875 C 1.867188 -1.382812 2.003906 -1.304688 2.109375 -1.234375 C 2.210938 -1.171875 2.300781 -1.085938 2.375 -0.984375 C 2.457031 -0.890625 2.5 -0.773438 2.5 -0.640625 C 2.5 -0.160156 2.117188 0.078125 1.359375 0.078125 Z M 1.359375 0.078125 "/></g></g></g><g fill="#000000" fill-opacity="1"><g transform="translate(44.040987, 26.323452)"><g><path d="M 0.203125 -0.078125 L 0.5 -0.140625 L 0.5 -2.328125 L 0.203125 -2.390625 L 0.203125 -2.46875 L 0.84375 -2.46875 C 1.132812 -2.46875 1.28125 -2.320312 1.28125 -2.03125 L 1.28125 -0.140625 L 1.578125 -0.078125 L 1.578125 0 L 0.203125 0 Z M 0.84375 -2.765625 C 0.738281 -2.765625 0.648438 -2.796875 0.578125 -2.859375 C 0.515625 -2.929688 0.484375 -3.015625 0.484375 -3.109375 C 0.484375 -3.210938 0.515625 -3.296875 0.578125 -3.359375 C 0.648438 -3.421875 0.738281 -3.453125 0.84375 -3.453125 C 0.9375 -3.453125 1.015625 -3.421875 1.078125 -3.359375 C 1.148438 -3.296875 1.1875 -3.210938 1.1875 -3.109375 C 1.1875 -3.015625 1.148438 -2.929688 1.078125 -2.859375 C 1.015625 -2.796875 0.9375 -2.765625 0.84375 -2.765625 Z M 0.84375 -2.765625 "/></g></g></g><g fill="#000000" fill-opacity="1"><g transform="translate(45.71863, 26.323452)"><g><path d="M 1.484375 0.078125 C 1.265625 0.078125 1.070312 0.0390625 0.90625 -0.03125 C 0.75 -0.113281 0.628906 -0.222656 0.546875 -0.359375 C 0.460938 -0.503906 0.421875 -0.664062 0.421875 -0.84375 L 0.421875 -2.34375 L 0.078125 -2.34375 L 0.078125 -2.46875 L 0.421875 -2.46875 L 0.421875 -2.71875 C 0.421875 -3.007812 0.566406 -3.15625 0.859375 -3.15625 L 1.203125 -3.15625 L 1.203125 -2.46875 L 1.90625 -2.46875 L 1.90625 -2.34375 L 1.203125 -2.34375 L 1.203125 -0.84375 C 1.203125 -0.539062 1.234375 -0.332031 1.296875 -0.21875 C 1.359375 -0.101562 1.453125 -0.046875 1.578125 -0.046875 C 1.691406 -0.046875 1.796875 -0.101562 1.890625 -0.21875 C 1.984375 -0.332031 2.03125 -0.488281 2.03125 -0.6875 L 2.140625 -0.6875 C 2.140625 -0.445312 2.078125 -0.257812 1.953125 -0.125 C 1.835938 0.0078125 1.679688 0.078125 1.484375 0.078125 Z M 1.484375 0.078125 "/></g></g></g><g fill="#000000" fill-opacity="1"><g transform="translate(47.939039, 26.323452)"><g><path d="M 1.53125 0.078125 C 1.113281 0.078125 0.785156 -0.0351562 0.546875 -0.265625 C 0.316406 -0.503906 0.203125 -0.828125 0.203125 -1.234375 C 0.203125 -1.503906 0.25 -1.738281 0.34375 -1.9375 C 0.445312 -2.132812 0.585938 -2.285156 0.765625 -2.390625 C 0.953125 -2.492188 1.164062 -2.546875 1.40625 -2.546875 C 1.644531 -2.546875 1.851562 -2.5 2.03125 -2.40625 C 2.207031 -2.320312 2.34375 -2.203125 2.4375 -2.046875 C 2.539062 -1.898438 2.59375 -1.738281 2.59375 -1.5625 C 2.59375 -1.476562 2.582031 -1.40625 2.5625 -1.34375 L 2.546875 -1.265625 C 2.398438 -1.234375 2.242188 -1.207031 2.078125 -1.1875 C 1.734375 -1.132812 1.382812 -1.109375 1.03125 -1.109375 C 1.03125 -0.722656 1.082031 -0.445312 1.1875 -0.28125 C 1.300781 -0.125 1.445312 -0.046875 1.625 -0.046875 C 1.757812 -0.046875 1.878906 -0.078125 1.984375 -0.140625 C 2.097656 -0.203125 2.1875 -0.28125 2.25 -0.375 C 2.3125 -0.476562 2.34375 -0.582031 2.34375 -0.6875 L 2.46875 -0.6875 C 2.46875 -0.5625 2.425781 -0.4375 2.34375 -0.3125 C 2.269531 -0.195312 2.160156 -0.101562 2.015625 -0.03125 C 1.878906 0.0390625 1.71875 0.078125 1.53125 0.078125 Z M 1.03125 -1.234375 C 1.25 -1.234375 1.421875 -1.242188 1.546875 -1.265625 C 1.609375 -1.265625 1.671875 -1.269531 1.734375 -1.28125 C 1.734375 -1.300781 1.738281 -1.335938 1.75 -1.390625 C 1.769531 -1.472656 1.78125 -1.5625 1.78125 -1.65625 C 1.78125 -1.925781 1.742188 -2.125 1.671875 -2.25 C 1.597656 -2.375 1.507812 -2.4375 1.40625 -2.4375 C 1.15625 -2.4375 1.03125 -2.035156 1.03125 -1.234375 Z M 1.03125 -1.234375 "/></g></g></g><g fill="#000000" fill-opacity="1"><g transform="translate(50.702214, 26.323452)"><g/></g></g><g fill="#000000" fill-opacity="1"><g transform="translate(52.083804, 26.323452)"><g><path d="M -0.09375 -0.078125 L 0.296875 -0.21875 L 1.65625 -3.5 L 1.796875 -3.5 L 3.203125 -0.140625 L 3.453125 -0.078125 L 3.453125 0 L 2.859375 0 C 2.691406 0 2.550781 -0.0351562 2.4375 -0.109375 C 2.332031 -0.191406 2.253906 -0.296875 2.203125 -0.421875 L 1.953125 -1.015625 L 0.765625 -1.015625 L 0.4375 -0.21875 L 0.8125 -0.078125 L 0.8125 0 L -0.09375 0 Z M 0.8125 -1.140625 L 1.90625 -1.140625 L 1.359375 -2.4375 Z M 0.8125 -1.140625 "/></g></g></g><g fill="#000000" fill-opacity="1"><g transform="translate(55.439091, 26.323452)"><g><path d="M 0.140625 0.90625 L 0.4375 0.84375 L 0.4375 -2.328125 L 0.140625 -2.390625 L 0.140625 -2.46875 L 0.59375 -2.46875 C 0.789062 -2.46875 0.941406 -2.40625 1.046875 -2.28125 C 1.085938 -2.226562 1.125 -2.164062 1.15625 -2.09375 C 1.195312 -2.1875 1.253906 -2.265625 1.328125 -2.328125 C 1.472656 -2.472656 1.65625 -2.546875 1.875 -2.546875 C 2.070312 -2.546875 2.242188 -2.492188 2.390625 -2.390625 C 2.546875 -2.285156 2.664062 -2.132812 2.75 -1.9375 C 2.84375 -1.75 2.890625 -1.515625 2.890625 -1.234375 C 2.890625 -0.816406 2.789062 -0.492188 2.59375 -0.265625 C 2.394531 -0.0351562 2.128906 0.078125 1.796875 0.078125 C 1.640625 0.078125 1.503906 0.0390625 1.390625 -0.03125 C 1.335938 -0.0507812 1.285156 -0.0820312 1.234375 -0.125 L 1.234375 0.84375 L 1.53125 0.90625 L 1.53125 0.984375 L 0.140625 0.984375 Z M 1.609375 -0.078125 C 1.742188 -0.078125 1.847656 -0.15625 1.921875 -0.3125 C 2.003906 -0.476562 2.046875 -0.785156 2.046875 -1.234375 C 2.046875 -1.660156 2.007812 -1.957031 1.9375 -2.125 C 1.875 -2.289062 1.785156 -2.375 1.671875 -2.375 C 1.546875 -2.375 1.4375 -2.304688 1.34375 -2.171875 C 1.300781 -2.117188 1.265625 -2.050781 1.234375 -1.96875 L 1.234375 -0.265625 C 1.273438 -0.222656 1.3125 -0.191406 1.34375 -0.171875 C 1.425781 -0.109375 1.515625 -0.078125 1.609375 -0.078125 Z M 1.609375 -0.078125 "/></g></g></g><g fill="#000000" fill-opacity="1"><g transform="translate(58.522988, 26.323452)"><g><path d="M 0.140625 0.90625 L 0.4375 0.84375 L 0.4375 -2.328125 L 0.140625 -2.390625 L 0.140625 -2.46875 L 0.59375 -2.46875 C 0.789062 -2.46875 0.941406 -2.40625 1.046875 -2.28125 C 1.085938 -2.226562 1.125 -2.164062 1.15625 -2.09375 C 1.195312 -2.1875 1.253906 -2.265625 1.328125 -2.328125 C 1.472656 -2.472656 1.65625 -2.546875 1.875 -2.546875 C 2.070312 -2.546875 2.242188 -2.492188 2.390625 -2.390625 C 2.546875 -2.285156 2.664062 -2.132812 2.75 -1.9375 C 2.84375 -1.75 2.890625 -1.515625 2.890625 -1.234375 C 2.890625 -0.816406 2.789062 -0.492188 2.59375 -0.265625 C 2.394531 -0.0351562 2.128906 0.078125 1.796875 0.078125 C 1.640625 0.078125 1.503906 0.0390625 1.390625 -0.03125 C 1.335938 -0.0507812 1.285156 -0.0820312 1.234375 -0.125 L 1.234375 0.84375 L 1.53125 0.90625 L 1.53125 0.984375 L 0.140625 0.984375 Z M 1.609375 -0.078125 C 1.742188 -0.078125 1.847656 -0.15625 1.921875 -0.3125 C 2.003906 -0.476562 2.046875 -0.785156 2.046875 -1.234375 C 2.046875 -1.660156 2.007812 -1.957031 1.9375 -2.125 C 1.875 -2.289062 1.785156 -2.375 1.671875 -2.375 C 1.546875 -2.375 1.4375 -2.304688 1.34375 -2.171875 C 1.300781 -2.117188 1.265625 -2.050781 1.234375 -1.96875 L 1.234375 -0.265625 C 1.273438 -0.222656 1.3125 -0.191406 1.34375 -0.171875 C 1.425781 -0.109375 1.515625 -0.078125 1.609375 -0.078125 Z M 1.609375 -0.078125 "/></g></g></g><g fill="#000000" fill-opacity="1"><g transform="translate(61.606886, 26.323452)"><g><path d="M 0.203125 -0.078125 L 0.5 -0.140625 L 0.5 -3.3125 L 0.203125 -3.375 L 0.203125 -3.453125 L 0.84375 -3.453125 C 1.132812 -3.453125 1.28125 -3.304688 1.28125 -3.015625 L 1.28125 -0.140625 L 1.578125 -0.078125 L 1.578125 0 L 0.203125 0 Z M 0.203125 -0.078125 "/></g></g></g><g fill="#000000" fill-opacity="1"><g transform="translate(63.284529, 26.323452)"><g><path d="M 0.203125 -0.078125 L 0.5 -0.140625 L 0.5 -2.328125 L 0.203125 -2.390625 L 0.203125 -2.46875 L 0.84375 -2.46875 C 1.132812 -2.46875 1.28125 -2.320312 1.28125 -2.03125 L 1.28125 -0.140625 L 1.578125 -0.078125 L 1.578125 0 L 0.203125 0 Z M 0.84375 -2.765625 C 0.738281 -2.765625 0.648438 -2.796875 0.578125 -2.859375 C 0.515625 -2.929688 0.484375 -3.015625 0.484375 -3.109375 C 0.484375 -3.210938 0.515625 -3.296875 0.578125 -3.359375 C 0.648438 -3.421875 0.738281 -3.453125 0.84375 -3.453125 C 0.9375 -3.453125 1.015625 -3.421875 1.078125 -3.359375 C 1.148438 -3.296875 1.1875 -3.210938 1.1875 -3.109375 C 1.1875 -3.015625 1.148438 -2.929688 1.078125 -2.859375 C 1.015625 -2.796875 0.9375 -2.765625 0.84375 -2.765625 Z M 0.84375 -2.765625 "/></g></g></g><g fill="#000000" fill-opacity="1"><g transform="translate(64.962172, 26.323452)"><g><path d="M 1.53125 0.078125 C 1.113281 0.078125 0.785156 -0.0351562 0.546875 -0.265625 C 0.316406 -0.503906 0.203125 -0.828125 0.203125 -1.234375 C 0.203125 -1.640625 0.316406 -1.957031 0.546875 -2.1875 C 0.785156 -2.425781 1.113281 -2.546875 1.53125 -2.546875 C 1.832031 -2.546875 2.054688 -2.492188 2.203125 -2.390625 C 2.359375 -2.285156 2.4375 -2.15625 2.4375 -2 C 2.4375 -1.882812 2.398438 -1.789062 2.328125 -1.71875 C 2.265625 -1.65625 2.179688 -1.625 2.078125 -1.625 C 2.023438 -1.625 1.976562 -1.628906 1.9375 -1.640625 L 1.875 -1.65625 L 1.875 -2.390625 L 1.8125 -2.421875 C 1.757812 -2.429688 1.695312 -2.4375 1.625 -2.4375 C 1.4375 -2.4375 1.289062 -2.347656 1.1875 -2.171875 C 1.082031 -1.992188 1.03125 -1.679688 1.03125 -1.234375 C 1.03125 -0.796875 1.082031 -0.488281 1.1875 -0.3125 C 1.289062 -0.132812 1.4375 -0.046875 1.625 -0.046875 C 1.757812 -0.046875 1.878906 -0.078125 1.984375 -0.140625 C 2.097656 -0.203125 2.1875 -0.28125 2.25 -0.375 C 2.3125 -0.476562 2.34375 -0.582031 2.34375 -0.6875 L 2.46875 -0.6875 C 2.46875 -0.5625 2.425781 -0.4375 2.34375 -0.3125 C 2.269531 -0.195312 2.160156 -0.101562 2.015625 -0.03125 C 1.878906 0.0390625 1.71875 0.078125 1.53125 0.078125 Z M 1.53125 0.078125 "/></g></g></g><g fill="#000000" fill-opacity="1"><g transform="translate(67.57732, 26.323452)"><g><path d="M 1.15625 0.078125 C 0.863281 0.078125 0.640625 0.015625 0.484375 -0.109375 C 0.328125 -0.234375 0.25 -0.394531 0.25 -0.59375 C 0.25 -0.71875 0.273438 -0.84375 0.328125 -0.96875 C 0.347656 -1.03125 0.378906 -1.085938 0.421875 -1.140625 C 0.554688 -1.171875 0.703125 -1.195312 0.859375 -1.21875 C 1.210938 -1.28125 1.523438 -1.316406 1.796875 -1.328125 L 1.796875 -1.484375 C 1.796875 -1.847656 1.75 -2.097656 1.65625 -2.234375 C 1.570312 -2.367188 1.441406 -2.4375 1.265625 -2.4375 C 1.191406 -2.4375 1.128906 -2.429688 1.078125 -2.421875 L 1.015625 -2.390625 L 1.015625 -1.65625 L 0.953125 -1.640625 C 0.898438 -1.628906 0.851562 -1.625 0.8125 -1.625 C 0.695312 -1.625 0.601562 -1.65625 0.53125 -1.71875 C 0.46875 -1.789062 0.4375 -1.882812 0.4375 -2 C 0.4375 -2.15625 0.515625 -2.285156 0.671875 -2.390625 C 0.828125 -2.492188 1.054688 -2.546875 1.359375 -2.546875 C 1.617188 -2.546875 1.835938 -2.5 2.015625 -2.40625 C 2.203125 -2.3125 2.34375 -2.1875 2.4375 -2.03125 C 2.539062 -1.875 2.59375 -1.691406 2.59375 -1.484375 L 2.59375 -0.140625 L 2.890625 -0.078125 L 2.890625 0 L 2.4375 0 C 2.238281 0 2.085938 -0.0625 1.984375 -0.1875 C 1.941406 -0.226562 1.90625 -0.289062 1.875 -0.375 C 1.832031 -0.289062 1.78125 -0.210938 1.71875 -0.140625 C 1.5625 0.00390625 1.375 0.078125 1.15625 0.078125 Z M 1.359375 -0.09375 C 1.484375 -0.09375 1.59375 -0.160156 1.6875 -0.296875 C 1.726562 -0.347656 1.765625 -0.414062 1.796875 -0.5 L 1.796875 -1.203125 C 1.648438 -1.203125 1.507812 -1.195312 1.375 -1.1875 C 1.269531 -1.175781 1.195312 -1.164062 1.15625 -1.15625 C 1.144531 -1.125 1.128906 -1.078125 1.109375 -1.015625 C 1.078125 -0.890625 1.0625 -0.765625 1.0625 -0.640625 C 1.0625 -0.453125 1.085938 -0.3125 1.140625 -0.21875 C 1.203125 -0.132812 1.273438 -0.09375 1.359375 -0.09375 Z M 1.359375 -0.09375 "/></g></g></g><g fill="#000000" fill-opacity="1"><g transform="translate(70.562538, 26.323452)"><g><path d="M 1.484375 0.078125 C 1.265625 0.078125 1.070312 0.0390625 0.90625 -0.03125 C 0.75 -0.113281 0.628906 -0.222656 0.546875 -0.359375 C 0.460938 -0.503906 0.421875 -0.664062 0.421875 -0.84375 L 0.421875 -2.34375 L 0.078125 -2.34375 L 0.078125 -2.46875 L 0.421875 -2.46875 L 0.421875 -2.71875 C 0.421875 -3.007812 0.566406 -3.15625 0.859375 -3.15625 L 1.203125 -3.15625 L 1.203125 -2.46875 L 1.90625 -2.46875 L 1.90625 -2.34375 L 1.203125 -2.34375 L 1.203125 -0.84375 C 1.203125 -0.539062 1.234375 -0.332031 1.296875 -0.21875 C 1.359375 -0.101562 1.453125 -0.046875 1.578125 -0.046875 C 1.691406 -0.046875 1.796875 -0.101562 1.890625 -0.21875 C 1.984375 -0.332031 2.03125 -0.488281 2.03125 -0.6875 L 2.140625 -0.6875 C 2.140625 -0.445312 2.078125 -0.257812 1.953125 -0.125 C 1.835938 0.0078125 1.679688 0.078125 1.484375 0.078125 Z M 1.484375 0.078125 "/></g></g></g><g fill="#000000" fill-opacity="1"><g transform="translate(72.782946, 26.323452)"><g><path d="M 0.203125 -0.078125 L 0.5 -0.140625 L 0.5 -2.328125 L 0.203125 -2.390625 L 0.203125 -2.46875 L 0.84375 -2.46875 C 1.132812 -2.46875 1.28125 -2.320312 1.28125 -2.03125 L 1.28125 -0.140625 L 1.578125 -0.078125 L 1.578125 0 L 0.203125 0 Z M 0.84375 -2.765625 C 0.738281 -2.765625 0.648438 -2.796875 0.578125 -2.859375 C 0.515625 -2.929688 0.484375 -3.015625 0.484375 -3.109375 C 0.484375 -3.210938 0.515625 -3.296875 0.578125 -3.359375 C 0.648438 -3.421875 0.738281 -3.453125 0.84375 -3.453125 C 0.9375 -3.453125 1.015625 -3.421875 1.078125 -3.359375 C 1.148438 -3.296875 1.1875 -3.210938 1.1875 -3.109375 C 1.1875 -3.015625 1.148438 -2.929688 1.078125 -2.859375 C 1.015625 -2.796875 0.9375 -2.765625 0.84375 -2.765625 Z M 0.84375 -2.765625 "/></g></g></g><g fill="#000000" fill-opacity="1"><g transform="translate(74.46059, 26.323452)"><g><path d="M 1.5 0.078125 C 1.09375 0.078125 0.773438 -0.0351562 0.546875 -0.265625 C 0.316406 -0.503906 0.203125 -0.828125 0.203125 -1.234375 C 0.203125 -1.640625 0.316406 -1.957031 0.546875 -2.1875 C 0.773438 -2.425781 1.09375 -2.546875 1.5 -2.546875 C 1.914062 -2.546875 2.238281 -2.425781 2.46875 -2.1875 C 2.695312 -1.957031 2.8125 -1.640625 2.8125 -1.234375 C 2.8125 -0.828125 2.695312 -0.503906 2.46875 -0.265625 C 2.238281 -0.0351562 1.914062 0.078125 1.5 0.078125 Z M 1.5 -0.03125 C 1.632812 -0.03125 1.742188 -0.117188 1.828125 -0.296875 C 1.921875 -0.484375 1.96875 -0.796875 1.96875 -1.234375 C 1.96875 -1.671875 1.921875 -1.976562 1.828125 -2.15625 C 1.742188 -2.34375 1.632812 -2.4375 1.5 -2.4375 C 1.375 -2.4375 1.265625 -2.34375 1.171875 -2.15625 C 1.078125 -1.976562 1.03125 -1.671875 1.03125 -1.234375 C 1.03125 -0.796875 1.078125 -0.484375 1.171875 -0.296875 C 1.265625 -0.117188 1.375 -0.03125 1.5 -0.03125 Z M 1.5 -0.03125 "/></g></g></g><g fill="#000000" fill-opacity="1"><g transform="translate(77.470477, 26.323452)"><g><path d="M 0.203125 -0.078125 L 0.5 -0.140625 L 0.5 -2.328125 L 0.203125 -2.390625 L 0.203125 -2.46875 L 0.640625 -2.46875 C 0.835938 -2.46875 0.988281 -2.40625 1.09375 -2.28125 C 1.144531 -2.226562 1.179688 -2.164062 1.203125 -2.09375 C 1.253906 -2.1875 1.3125 -2.265625 1.375 -2.328125 C 1.519531 -2.472656 1.703125 -2.546875 1.921875 -2.546875 C 2.109375 -2.546875 2.273438 -2.503906 2.421875 -2.421875 C 2.566406 -2.347656 2.679688 -2.25 2.765625 -2.125 C 2.847656 -2 2.890625 -1.867188 2.890625 -1.734375 L 2.890625 -0.140625 L 3.1875 -0.078125 L 3.1875 0 L 2.546875 0 C 2.242188 0 2.09375 -0.144531 2.09375 -0.4375 L 2.09375 -1.734375 C 2.09375 -1.941406 2.054688 -2.097656 1.984375 -2.203125 C 1.910156 -2.316406 1.828125 -2.375 1.734375 -2.375 C 1.609375 -2.375 1.492188 -2.304688 1.390625 -2.171875 C 1.347656 -2.117188 1.3125 -2.050781 1.28125 -1.96875 L 1.28125 -0.140625 L 1.578125 -0.078125 L 1.578125 0 L 0.203125 0 Z M 0.203125 -0.078125 "/></g></g></g><g fill="#000000" fill-opacity="1"><g transform="translate(80.751747, 26.323452)"><g/></g></g><g fill="#000000" fill-opacity="1"><g transform="translate(82.133338, 26.323452)"><g><path d="M 0.25 -0.078125 L 0.546875 -0.140625 L 0.546875 -3.3125 L 0.25 -3.375 L 0.25 -3.453125 L 1.5 -3.453125 C 2.09375 -3.453125 2.546875 -3.300781 2.859375 -3 C 3.171875 -2.695312 3.328125 -2.273438 3.328125 -1.734375 C 3.328125 -1.179688 3.171875 -0.753906 2.859375 -0.453125 C 2.546875 -0.148438 2.09375 0 1.5 0 L 0.25 0 Z M 1.5 -0.125 C 1.8125 -0.125 2.050781 -0.25 2.21875 -0.5 C 2.382812 -0.75 2.46875 -1.160156 2.46875 -1.734375 C 2.46875 -2.304688 2.382812 -2.710938 2.21875 -2.953125 C 2.050781 -3.203125 1.8125 -3.328125 1.5 -3.328125 L 1.359375 -3.328125 L 1.359375 -0.125 Z M 1.5 -0.125 "/></g></g></g><g fill="#000000" fill-opacity="1"><g transform="translate(85.661321, 26.323452)"><g><path d="M 0.203125 -0.078125 L 0.5 -0.140625 L 0.5 -2.328125 L 0.203125 -2.390625 L 0.203125 -2.46875 L 0.84375 -2.46875 C 1.132812 -2.46875 1.28125 -2.320312 1.28125 -2.03125 L 1.28125 -0.140625 L 1.578125 -0.078125 L 1.578125 0 L 0.203125 0 Z M 0.84375 -2.765625 C 0.738281 -2.765625 0.648438 -2.796875 0.578125 -2.859375 C 0.515625 -2.929688 0.484375 -3.015625 0.484375 -3.109375 C 0.484375 -3.210938 0.515625 -3.296875 0.578125 -3.359375 C 0.648438 -3.421875 0.738281 -3.453125 0.84375 -3.453125 C 0.9375 -3.453125 1.015625 -3.421875 1.078125 -3.359375 C 1.148438 -3.296875 1.1875 -3.210938 1.1875 -3.109375 C 1.1875 -3.015625 1.148438 -2.929688 1.078125 -2.859375 C 1.015625 -2.796875 0.9375 -2.765625 0.84375 -2.765625 Z M 0.84375 -2.765625 "/></g></g></g><g fill="#000000" fill-opacity="1"><g transform="translate(87.338964, 26.323452)"><g><path d="M 1.359375 1.0625 C 1.066406 1.0625 0.828125 1.035156 0.640625 0.984375 C 0.453125 0.929688 0.316406 0.863281 0.234375 0.78125 C 0.160156 0.695312 0.125 0.609375 0.125 0.515625 C 0.125 0.398438 0.15625 0.304688 0.21875 0.234375 C 0.289062 0.171875 0.382812 0.140625 0.5 0.140625 C 0.519531 0.140625 0.566406 0.144531 0.640625 0.15625 L 0.6875 0.171875 L 0.6875 0.859375 C 0.726562 0.878906 0.789062 0.894531 0.875 0.90625 C 1.03125 0.945312 1.175781 0.96875 1.3125 0.96875 C 1.707031 0.96875 2 0.910156 2.1875 0.796875 C 2.375 0.679688 2.46875 0.539062 2.46875 0.375 C 2.46875 0.15625 2.269531 0.046875 1.875 0.046875 L 0.9375 0.046875 C 0.6875 0.046875 0.492188 0 0.359375 -0.09375 C 0.234375 -0.195312 0.171875 -0.332031 0.171875 -0.5 C 0.171875 -0.65625 0.25 -0.789062 0.40625 -0.90625 C 0.46875 -0.957031 0.546875 -1 0.640625 -1.03125 C 0.515625 -1.113281 0.425781 -1.207031 0.375 -1.3125 C 0.320312 -1.414062 0.296875 -1.535156 0.296875 -1.671875 C 0.296875 -1.921875 0.382812 -2.117188 0.5625 -2.265625 C 0.75 -2.421875 1.019531 -2.5 1.375 -2.5 C 1.53125 -2.5 1.671875 -2.484375 1.796875 -2.453125 C 1.929688 -2.421875 2.039062 -2.378906 2.125 -2.328125 C 2.144531 -2.378906 2.179688 -2.425781 2.234375 -2.46875 C 2.328125 -2.5625 2.445312 -2.609375 2.59375 -2.609375 C 2.707031 -2.609375 2.800781 -2.570312 2.875 -2.5 C 2.945312 -2.425781 2.984375 -2.328125 2.984375 -2.203125 C 2.984375 -2.097656 2.957031 -2.015625 2.90625 -1.953125 C 2.851562 -1.898438 2.789062 -1.875 2.71875 -1.875 C 2.675781 -1.875 2.632812 -1.878906 2.59375 -1.890625 L 2.546875 -1.90625 L 2.546875 -2.5 C 2.460938 -2.5 2.378906 -2.457031 2.296875 -2.375 C 2.265625 -2.34375 2.238281 -2.300781 2.21875 -2.25 C 2.382812 -2.101562 2.46875 -1.910156 2.46875 -1.671875 C 2.46875 -1.429688 2.375 -1.234375 2.1875 -1.078125 C 2.007812 -0.929688 1.738281 -0.859375 1.375 -0.859375 C 1.144531 -0.859375 0.929688 -0.898438 0.734375 -0.984375 L 0.640625 -0.9375 C 0.609375 -0.914062 0.582031 -0.894531 0.5625 -0.875 C 0.550781 -0.863281 0.546875 -0.84375 0.546875 -0.8125 C 0.546875 -0.757812 0.570312 -0.71875 0.625 -0.6875 C 0.6875 -0.65625 0.789062 -0.640625 0.9375 -0.640625 L 1.875 -0.640625 C 2.125 -0.640625 2.316406 -0.566406 2.453125 -0.421875 C 2.597656 -0.285156 2.671875 -0.0859375 2.671875 0.171875 C 2.671875 0.429688 2.5625 0.644531 2.34375 0.8125 C 2.125 0.976562 1.796875 1.0625 1.359375 1.0625 Z M 1.375 -0.96875 C 1.488281 -0.96875 1.578125 -1.019531 1.640625 -1.125 C 1.703125 -1.226562 1.734375 -1.410156 1.734375 -1.671875 C 1.734375 -1.941406 1.703125 -2.128906 1.640625 -2.234375 C 1.578125 -2.335938 1.488281 -2.390625 1.375 -2.390625 C 1.269531 -2.390625 1.1875 -2.335938 1.125 -2.234375 C 1.0625 -2.128906 1.03125 -1.941406 1.03125 -1.671875 C 1.03125 -1.410156 1.0625 -1.226562 1.125 -1.125 C 1.1875 -1.019531 1.269531 -0.96875 1.375 -0.96875 Z M 1.375 -0.96875 "/></g></g></g><g fill="#000000" fill-opacity="1"><g transform="translate(90.324181, 26.323452)"><g><path d="M 0.203125 -0.078125 L 0.5 -0.140625 L 0.5 -2.328125 L 0.203125 -2.390625 L 0.203125 -2.46875 L 0.84375 -2.46875 C 1.132812 -2.46875 1.28125 -2.320312 1.28125 -2.03125 L 1.28125 -0.140625 L 1.578125 -0.078125 L 1.578125 0 L 0.203125 0 Z M 0.84375 -2.765625 C 0.738281 -2.765625 0.648438 -2.796875 0.578125 -2.859375 C 0.515625 -2.929688 0.484375 -3.015625 0.484375 -3.109375 C 0.484375 -3.210938 0.515625 -3.296875 0.578125 -3.359375 C 0.648438 -3.421875 0.738281 -3.453125 0.84375 -3.453125 C 0.9375 -3.453125 1.015625 -3.421875 1.078125 -3.359375 C 1.148438 -3.296875 1.1875 -3.210938 1.1875 -3.109375 C 1.1875 -3.015625 1.148438 -2.929688 1.078125 -2.859375 C 1.015625 -2.796875 0.9375 -2.765625 0.84375 -2.765625 Z M 0.84375 -2.765625 "/></g></g></g><g fill="#000000" fill-opacity="1"><g transform="translate(92.001824, 26.323452)"><g><path d="M 1.484375 0.078125 C 1.265625 0.078125 1.070312 0.0390625 0.90625 -0.03125 C 0.75 -0.113281 0.628906 -0.222656 0.546875 -0.359375 C 0.460938 -0.503906 0.421875 -0.664062 0.421875 -0.84375 L 0.421875 -2.34375 L 0.078125 -2.34375 L 0.078125 -2.46875 L 0.421875 -2.46875 L 0.421875 -2.71875 C 0.421875 -3.007812 0.566406 -3.15625 0.859375 -3.15625 L 1.203125 -3.15625 L 1.203125 -2.46875 L 1.90625 -2.46875 L 1.90625 -2.34375 L 1.203125 -2.34375 L 1.203125 -0.84375 C 1.203125 -0.539062 1.234375 -0.332031 1.296875 -0.21875 C 1.359375 -0.101562 1.453125 -0.046875 1.578125 -0.046875 C 1.691406 -0.046875 1.796875 -0.101562 1.890625 -0.21875 C 1.984375 -0.332031 2.03125 -0.488281 2.03125 -0.6875 L 2.140625 -0.6875 C 2.140625 -0.445312 2.078125 -0.257812 1.953125 -0.125 C 1.835938 0.0078125 1.679688 0.078125 1.484375 0.078125 Z M 1.484375 0.078125 "/></g></g></g><g fill="#000000" fill-opacity="1"><g transform="translate(94.222233, 26.323452)"><g><path d="M 1.15625 0.078125 C 0.863281 0.078125 0.640625 0.015625 0.484375 -0.109375 C 0.328125 -0.234375 0.25 -0.394531 0.25 -0.59375 C 0.25 -0.71875 0.273438 -0.84375 0.328125 -0.96875 C 0.347656 -1.03125 0.378906 -1.085938 0.421875 -1.140625 C 0.554688 -1.171875 0.703125 -1.195312 0.859375 -1.21875 C 1.210938 -1.28125 1.523438 -1.316406 1.796875 -1.328125 L 1.796875 -1.484375 C 1.796875 -1.847656 1.75 -2.097656 1.65625 -2.234375 C 1.570312 -2.367188 1.441406 -2.4375 1.265625 -2.4375 C 1.191406 -2.4375 1.128906 -2.429688 1.078125 -2.421875 L 1.015625 -2.390625 L 1.015625 -1.65625 L 0.953125 -1.640625 C 0.898438 -1.628906 0.851562 -1.625 0.8125 -1.625 C 0.695312 -1.625 0.601562 -1.65625 0.53125 -1.71875 C 0.46875 -1.789062 0.4375 -1.882812 0.4375 -2 C 0.4375 -2.15625 0.515625 -2.285156 0.671875 -2.390625 C 0.828125 -2.492188 1.054688 -2.546875 1.359375 -2.546875 C 1.617188 -2.546875 1.835938 -2.5 2.015625 -2.40625 C 2.203125 -2.3125 2.34375 -2.1875 2.4375 -2.03125 C 2.539062 -1.875 2.59375 -1.691406 2.59375 -1.484375 L 2.59375 -0.140625 L 2.890625 -0.078125 L 2.890625 0 L 2.4375 0 C 2.238281 0 2.085938 -0.0625 1.984375 -0.1875 C 1.941406 -0.226562 1.90625 -0.289062 1.875 -0.375 C 1.832031 -0.289062 1.78125 -0.210938 1.71875 -0.140625 C 1.5625 0.00390625 1.375 0.078125 1.15625 0.078125 Z M 1.359375 -0.09375 C 1.484375 -0.09375 1.59375 -0.160156 1.6875 -0.296875 C 1.726562 -0.347656 1.765625 -0.414062 1.796875 -0.5 L 1.796875 -1.203125 C 1.648438 -1.203125 1.507812 -1.195312 1.375 -1.1875 C 1.269531 -1.175781 1.195312 -1.164062 1.15625 -1.15625 C 1.144531 -1.125 1.128906 -1.078125 1.109375 -1.015625 C 1.078125 -0.890625 1.0625 -0.765625 1.0625 -0.640625 C 1.0625 -0.453125 1.085938 -0.3125 1.140625 -0.21875 C 1.203125 -0.132812 1.273438 -0.09375 1.359375 -0.09375 Z M 1.359375 -0.09375 "/></g></g></g><g fill="#000000" fill-opacity="1"><g transform="translate(97.207451, 26.323452)"><g><path d="M 0.203125 -0.078125 L 0.5 -0.140625 L 0.5 -3.3125 L 0.203125 -3.375 L 0.203125 -3.453125 L 0.84375 -3.453125 C 1.132812 -3.453125 1.28125 -3.304688 1.28125 -3.015625 L 1.28125 -0.140625 L 1.578125 -0.078125 L 1.578125 0 L 0.203125 0 Z M 0.203125 -0.078125 "/></g></g></g><g fill="#000000" fill-opacity="1"><g transform="translate(98.885094, 26.323452)"><g/></g></g><g fill="#000000" fill-opacity="1"><g transform="translate(100.266684, 26.323452)"><g><path d="M 0.6875 -2.84375 L 0.6875 -0.21875 L 1.09375 -0.078125 L 1.09375 0 L 0.140625 0 L 0.140625 -0.078125 L 0.546875 -0.21875 L 0.546875 -3.3125 L 0.25 -3.375 L 0.25 -3.453125 L 0.859375 -3.453125 C 1.035156 -3.453125 1.171875 -3.414062 1.265625 -3.34375 C 1.367188 -3.28125 1.457031 -3.175781 1.53125 -3.03125 L 2.609375 -0.984375 L 3.4375 -3.03125 C 3.488281 -3.175781 3.5625 -3.28125 3.65625 -3.34375 C 3.75 -3.414062 3.894531 -3.453125 4.09375 -3.453125 L 4.609375 -3.453125 L 4.609375 -3.375 L 4.3125 -3.3125 L 4.3125 -0.140625 L 4.609375 -0.078125 L 4.609375 0 L 3.203125 0 L 3.203125 -0.078125 L 3.5 -0.140625 L 3.5 -2.84375 L 2.34375 0.046875 L 2.203125 0.046875 Z M 0.6875 -2.84375 "/></g></g></g><g fill="#000000" fill-opacity="1"><g transform="translate(105.126911, 26.323452)"><g><path d="M 1.15625 0.078125 C 0.863281 0.078125 0.640625 0.015625 0.484375 -0.109375 C 0.328125 -0.234375 0.25 -0.394531 0.25 -0.59375 C 0.25 -0.71875 0.273438 -0.84375 0.328125 -0.96875 C 0.347656 -1.03125 0.378906 -1.085938 0.421875 -1.140625 C 0.554688 -1.171875 0.703125 -1.195312 0.859375 -1.21875 C 1.210938 -1.28125 1.523438 -1.316406 1.796875 -1.328125 L 1.796875 -1.484375 C 1.796875 -1.847656 1.75 -2.097656 1.65625 -2.234375 C 1.570312 -2.367188 1.441406 -2.4375 1.265625 -2.4375 C 1.191406 -2.4375 1.128906 -2.429688 1.078125 -2.421875 L 1.015625 -2.390625 L 1.015625 -1.65625 L 0.953125 -1.640625 C 0.898438 -1.628906 0.851562 -1.625 0.8125 -1.625 C 0.695312 -1.625 0.601562 -1.65625 0.53125 -1.71875 C 0.46875 -1.789062 0.4375 -1.882812 0.4375 -2 C 0.4375 -2.15625 0.515625 -2.285156 0.671875 -2.390625 C 0.828125 -2.492188 1.054688 -2.546875 1.359375 -2.546875 C 1.617188 -2.546875 1.835938 -2.5 2.015625 -2.40625 C 2.203125 -2.3125 2.34375 -2.1875 2.4375 -2.03125 C 2.539062 -1.875 2.59375 -1.691406 2.59375 -1.484375 L 2.59375 -0.140625 L 2.890625 -0.078125 L 2.890625 0 L 2.4375 0 C 2.238281 0 2.085938 -0.0625 1.984375 -0.1875 C 1.941406 -0.226562 1.90625 -0.289062 1.875 -0.375 C 1.832031 -0.289062 1.78125 -0.210938 1.71875 -0.140625 C 1.5625 0.00390625 1.375 0.078125 1.15625 0.078125 Z M 1.359375 -0.09375 C 1.484375 -0.09375 1.59375 -0.160156 1.6875 -0.296875 C 1.726562 -0.347656 1.765625 -0.414062 1.796875 -0.5 L 1.796875 -1.203125 C 1.648438 -1.203125 1.507812 -1.195312 1.375 -1.1875 C 1.269531 -1.175781 1.195312 -1.164062 1.15625 -1.15625 C 1.144531 -1.125 1.128906 -1.078125 1.109375 -1.015625 C 1.078125 -0.890625 1.0625 -0.765625 1.0625 -0.640625 C 1.0625 -0.453125 1.085938 -0.3125 1.140625 -0.21875 C 1.203125 -0.132812 1.273438 -0.09375 1.359375 -0.09375 Z M 1.359375 -0.09375 "/></g></g></g><g fill="#000000" fill-opacity="1"><g transform="translate(108.112128, 26.323452)"><g><path d="M 0.203125 -0.078125 L 0.5 -0.140625 L 0.5 -2.328125 L 0.203125 -2.390625 L 0.203125 -2.46875 L 0.640625 -2.46875 C 0.835938 -2.46875 0.988281 -2.40625 1.09375 -2.28125 C 1.144531 -2.226562 1.179688 -2.164062 1.203125 -2.09375 C 1.253906 -2.164062 1.316406 -2.234375 1.390625 -2.296875 C 1.554688 -2.429688 1.742188 -2.5 1.953125 -2.5 C 2.117188 -2.5 2.242188 -2.457031 2.328125 -2.375 C 2.421875 -2.289062 2.46875 -2.175781 2.46875 -2.03125 C 2.46875 -1.914062 2.429688 -1.820312 2.359375 -1.75 C 2.296875 -1.6875 2.207031 -1.65625 2.09375 -1.65625 C 2.050781 -1.65625 2.003906 -1.65625 1.953125 -1.65625 L 1.90625 -1.671875 L 1.90625 -2.375 C 1.738281 -2.375 1.582031 -2.304688 1.4375 -2.171875 C 1.375 -2.109375 1.320312 -2.039062 1.28125 -1.96875 L 1.28125 -0.140625 L 1.578125 -0.078125 L 1.578125 0 L 0.203125 0 Z M 0.203125 -0.078125 "/></g></g></g><g fill="#000000" fill-opacity="1"><g transform="translate(110.60392, 26.323452)"><g><path d="M 0.203125 -0.078125 L 0.5 -0.140625 L 0.5 -3.3125 L 0.203125 -3.375 L 0.203125 -3.453125 L 0.84375 -3.453125 C 1.132812 -3.453125 1.28125 -3.304688 1.28125 -3.015625 L 1.28125 -1.28125 L 2.203125 -2.25 L 1.828125 -2.390625 L 1.828125 -2.46875 L 2.765625 -2.46875 L 2.765625 -2.390625 L 2.375 -2.25 L 1.796875 -1.65625 L 2.765625 -0.140625 L 3.015625 -0.078125 L 3.015625 0 L 2.375 0 C 2.21875 0 2.085938 -0.03125 1.984375 -0.09375 C 1.890625 -0.164062 1.796875 -0.273438 1.703125 -0.421875 L 1.28125 -1.09375 L 1.28125 -0.140625 L 1.578125 -0.078125 L 1.578125 0 L 0.203125 0 Z M 0.203125 -0.078125 "/></g></g></g><g fill="#000000" fill-opacity="1"><g transform="translate(113.564467, 26.323452)"><g><path d="M 1.53125 0.078125 C 1.113281 0.078125 0.785156 -0.0351562 0.546875 -0.265625 C 0.316406 -0.503906 0.203125 -0.828125 0.203125 -1.234375 C 0.203125 -1.503906 0.25 -1.738281 0.34375 -1.9375 C 0.445312 -2.132812 0.585938 -2.285156 0.765625 -2.390625 C 0.953125 -2.492188 1.164062 -2.546875 1.40625 -2.546875 C 1.644531 -2.546875 1.851562 -2.5 2.03125 -2.40625 C 2.207031 -2.320312 2.34375 -2.203125 2.4375 -2.046875 C 2.539062 -1.898438 2.59375 -1.738281 2.59375 -1.5625 C 2.59375 -1.476562 2.582031 -1.40625 2.5625 -1.34375 L 2.546875 -1.265625 C 2.398438 -1.234375 2.242188 -1.207031 2.078125 -1.1875 C 1.734375 -1.132812 1.382812 -1.109375 1.03125 -1.109375 C 1.03125 -0.722656 1.082031 -0.445312 1.1875 -0.28125 C 1.300781 -0.125 1.445312 -0.046875 1.625 -0.046875 C 1.757812 -0.046875 1.878906 -0.078125 1.984375 -0.140625 C 2.097656 -0.203125 2.1875 -0.28125 2.25 -0.375 C 2.3125 -0.476562 2.34375 -0.582031 2.34375 -0.6875 L 2.46875 -0.6875 C 2.46875 -0.5625 2.425781 -0.4375 2.34375 -0.3125 C 2.269531 -0.195312 2.160156 -0.101562 2.015625 -0.03125 C 1.878906 0.0390625 1.71875 0.078125 1.53125 0.078125 Z M 1.03125 -1.234375 C 1.25 -1.234375 1.421875 -1.242188 1.546875 -1.265625 C 1.609375 -1.265625 1.671875 -1.269531 1.734375 -1.28125 C 1.734375 -1.300781 1.738281 -1.335938 1.75 -1.390625 C 1.769531 -1.472656 1.78125 -1.5625 1.78125 -1.65625 C 1.78125 -1.925781 1.742188 -2.125 1.671875 -2.25 C 1.597656 -2.375 1.507812 -2.4375 1.40625 -2.4375 C 1.15625 -2.4375 1.03125 -2.035156 1.03125 -1.234375 Z M 1.03125 -1.234375 "/></g></g></g><g fill="#000000" fill-opacity="1"><g transform="translate(116.327642, 26.323452)"><g><path d="M 1.484375 0.078125 C 1.265625 0.078125 1.070312 0.0390625 0.90625 -0.03125 C 0.75 -0.113281 0.628906 -0.222656 0.546875 -0.359375 C 0.460938 -0.503906 0.421875 -0.664062 0.421875 -0.84375 L 0.421875 -2.34375 L 0.078125 -2.34375 L 0.078125 -2.46875 L 0.421875 -2.46875 L 0.421875 -2.71875 C 0.421875 -3.007812 0.566406 -3.15625 0.859375 -3.15625 L 1.203125 -3.15625 L 1.203125 -2.46875 L 1.90625 -2.46875 L 1.90625 -2.34375 L 1.203125 -2.34375 L 1.203125 -0.84375 C 1.203125 -0.539062 1.234375 -0.332031 1.296875 -0.21875 C 1.359375 -0.101562 1.453125 -0.046875 1.578125 -0.046875 C 1.691406 -0.046875 1.796875 -0.101562 1.890625 -0.21875 C 1.984375 -0.332031 2.03125 -0.488281 2.03125 -0.6875 L 2.140625 -0.6875 C 2.140625 -0.445312 2.078125 -0.257812 1.953125 -0.125 C 1.835938 0.0078125 1.679688 0.078125 1.484375 0.078125 Z M 1.484375 0.078125 "/></g></g></g><g fill="#000000" fill-opacity="1"><g transform="translate(118.548051, 26.323452)"><g><path d="M 0.203125 -0.078125 L 0.5 -0.140625 L 0.5 -2.328125 L 0.203125 -2.390625 L 0.203125 -2.46875 L 0.84375 -2.46875 C 1.132812 -2.46875 1.28125 -2.320312 1.28125 -2.03125 L 1.28125 -0.140625 L 1.578125 -0.078125 L 1.578125 0 L 0.203125 0 Z M 0.84375 -2.765625 C 0.738281 -2.765625 0.648438 -2.796875 0.578125 -2.859375 C 0.515625 -2.929688 0.484375 -3.015625 0.484375 -3.109375 C 0.484375 -3.210938 0.515625 -3.296875 0.578125 -3.359375 C 0.648438 -3.421875 0.738281 -3.453125 0.84375 -3.453125 C 0.9375 -3.453125 1.015625 -3.421875 1.078125 -3.359375 C 1.148438 -3.296875 1.1875 -3.210938 1.1875 -3.109375 C 1.1875 -3.015625 1.148438 -2.929688 1.078125 -2.859375 C 1.015625 -2.796875 0.9375 -2.765625 0.84375 -2.765625 Z M 0.84375 -2.765625 "/></g></g></g><g fill="#000000" fill-opacity="1"><g transform="translate(120.225694, 26.323452)"><g><path d="M 0.203125 -0.078125 L 0.5 -0.140625 L 0.5 -2.328125 L 0.203125 -2.390625 L 0.203125 -2.46875 L 0.640625 -2.46875 C 0.835938 -2.46875 0.988281 -2.40625 1.09375 -2.28125 C 1.144531 -2.226562 1.179688 -2.164062 1.203125 -2.09375 C 1.253906 -2.1875 1.3125 -2.265625 1.375 -2.328125 C 1.519531 -2.472656 1.703125 -2.546875 1.921875 -2.546875 C 2.109375 -2.546875 2.273438 -2.503906 2.421875 -2.421875 C 2.566406 -2.347656 2.679688 -2.25 2.765625 -2.125 C 2.847656 -2 2.890625 -1.867188 2.890625 -1.734375 L 2.890625 -0.140625 L 3.1875 -0.078125 L 3.1875 0 L 2.546875 0 C 2.242188 0 2.09375 -0.144531 2.09375 -0.4375 L 2.09375 -1.734375 C 2.09375 -1.941406 2.054688 -2.097656 1.984375 -2.203125 C 1.910156 -2.316406 1.828125 -2.375 1.734375 -2.375 C 1.609375 -2.375 1.492188 -2.304688 1.390625 -2.171875 C 1.347656 -2.117188 1.3125 -2.050781 1.28125 -1.96875 L 1.28125 -0.140625 L 1.578125 -0.078125 L 1.578125 0 L 0.203125 0 Z M 0.203125 -0.078125 "/></g></g></g><g clip-path="url(#2672abae3b)"><g fill="#000000" fill-opacity="1"><g transform="translate(123.506964, 26.323452)"><g><path d="M 1.359375 1.0625 C 1.066406 1.0625 0.828125 1.035156 0.640625 0.984375 C 0.453125 0.929688 0.316406 0.863281 0.234375 0.78125 C 0.160156 0.695312 0.125 0.609375 0.125 0.515625 C 0.125 0.398438 0.15625 0.304688 0.21875 0.234375 C 0.289062 0.171875 0.382812 0.140625 0.5 0.140625 C 0.519531 0.140625 0.566406 0.144531 0.640625 0.15625 L 0.6875 0.171875 L 0.6875 0.859375 C 0.726562 0.878906 0.789062 0.894531 0.875 0.90625 C 1.03125 0.945312 1.175781 0.96875 1.3125 0.96875 C 1.707031 0.96875 2 0.910156 2.1875 0.796875 C 2.375 0.679688 2.46875 0.539062 2.46875 0.375 C 2.46875 0.15625 2.269531 0.046875 1.875 0.046875 L 0.9375 0.046875 C 0.6875 0.046875 0.492188 0 0.359375 -0.09375 C 0.234375 -0.195312 0.171875 -0.332031 0.171875 -0.5 C 0.171875 -0.65625 0.25 -0.789062 0.40625 -0.90625 C 0.46875 -0.957031 0.546875 -1 0.640625 -1.03125 C 0.515625 -1.113281 0.425781 -1.207031 0.375 -1.3125 C 0.320312 -1.414062 0.296875 -1.535156 0.296875 -1.671875 C 0.296875 -1.921875 0.382812 -2.117188 0.5625 -2.265625 C 0.75 -2.421875 1.019531 -2.5 1.375 -2.5 C 1.53125 -2.5 1.671875 -2.484375 1.796875 -2.453125 C 1.929688 -2.421875 2.039062 -2.378906 2.125 -2.328125 C 2.144531 -2.378906 2.179688 -2.425781 2.234375 -2.46875 C 2.328125 -2.5625 2.445312 -2.609375 2.59375 -2.609375 C 2.707031 -2.609375 2.800781 -2.570312 2.875 -2.5 C 2.945312 -2.425781 2.984375 -2.328125 2.984375 -2.203125 C 2.984375 -2.097656 2.957031 -2.015625 2.90625 -1.953125 C 2.851562 -1.898438 2.789062 -1.875 2.71875 -1.875 C 2.675781 -1.875 2.632812 -1.878906 2.59375 -1.890625 L 2.546875 -1.90625 L 2.546875 -2.5 C 2.460938 -2.5 2.378906 -2.457031 2.296875 -2.375 C 2.265625 -2.34375 2.238281 -2.300781 2.21875 -2.25 C 2.382812 -2.101562 2.46875 -1.910156 2.46875 -1.671875 C 2.46875 -1.429688 2.375 -1.234375 2.1875 -1.078125 C 2.007812 -0.929688 1.738281 -0.859375 1.375 -0.859375 C 1.144531 -0.859375 0.929688 -0.898438 0.734375 -0.984375 L 0.640625 -0.9375 C 0.609375 -0.914062 0.582031 -0.894531 0.5625 -0.875 C 0.550781 -0.863281 0.546875 -0.84375 0.546875 -0.8125 C 0.546875 -0.757812 0.570312 -0.71875 0.625 -0.6875 C 0.6875 -0.65625 0.789062 -0.640625 0.9375 -0.640625 L 1.875 -0.640625 C 2.125 -0.640625 2.316406 -0.566406 2.453125 -0.421875 C 2.597656 -0.285156 2.671875 -0.0859375 2.671875 0.171875 C 2.671875 0.429688 2.5625 0.644531 2.34375 0.8125 C 2.125 0.976562 1.796875 1.0625 1.359375 1.0625 Z M 1.375 -0.96875 C 1.488281 -0.96875 1.578125 -1.019531 1.640625 -1.125 C 1.703125 -1.226562 1.734375 -1.410156 1.734375 -1.671875 C 1.734375 -1.941406 1.703125 -2.128906 1.640625 -2.234375 C 1.578125 -2.335938 1.488281 -2.390625 1.375 -2.390625 C 1.269531 -2.390625 1.1875 -2.335938 1.125 -2.234375 C 1.0625 -2.128906 1.03125 -1.941406 1.03125 -1.671875 C 1.03125 -1.410156 1.0625 -1.226562 1.125 -1.125 C 1.1875 -1.019531 1.269531 -0.96875 1.375 -0.96875 Z M 1.375 -0.96875 "/></g></g></g></g></svg>